ISO-10303-21;
HEADER;
FILE_DESCRIPTION (( 'STEP AP214' ),
    '1' );
FILE_NAME ('amplitude-bar.STEP',
    '2025-12-04T23:40:03',
    ( '' ),
    ( '' ),
    'SwSTEP 2.0',
    'SolidWorks 2025',
    '' );
FILE_SCHEMA (( 'AUTOMOTIVE_DESIGN' ));
ENDSEC;

DATA;
#1 = EDGE_CURVE ( 'NONE', #44, #447, #315, .T. ) ;
#2 = DIRECTION ( 'NONE',  ( 0.000000000000000000, -0.000000000000000000, 1.000000000000000000 ) ) ;
#3 = MECHANICAL_DESIGN_GEOMETRIC_PRESENTATION_REPRESENTATION (  '', ( #5 ), #220 ) ;
#4 = DIRECTION ( 'NONE',  ( 0.000000000000000000, 0.000000000000000000, -1.000000000000000000 ) ) ;
#5 = STYLED_ITEM ( 'NONE', ( #260 ), #268 ) ;
#6 = FACE_OUTER_BOUND ( 'NONE', #279, .T. ) ;
#7 = VERTEX_POINT ( 'NONE', #284 ) ;
#8 = CARTESIAN_POINT ( 'NONE',  ( -0.1874999999999999722, 0.000000000000000000, 32.00000000000000000 ) ) ;
#9 = ADVANCED_FACE ( 'NONE', ( #126 ), #88, .T. ) ;
#10 = VERTEX_POINT ( 'NONE', #162 ) ;
#11 = FACE_OUTER_BOUND ( 'NONE', #173, .T. ) ;
#12 =( GEOMETRIC_REPRESENTATION_CONTEXT ( 3 ) GLOBAL_UNCERTAINTY_ASSIGNED_CONTEXT ( ( #252 ) ) GLOBAL_UNIT_ASSIGNED_CONTEXT ( ( #272, #418, #323 ) ) REPRESENTATION_CONTEXT ( 'NONE', 'WORKASPACE' ) );
#13 = EDGE_LOOP ( 'NONE', ( #331, #407, #299, #147, #16, #365, #15, #67, #296, #115, #337, #313 ) ) ;
#14 = CARTESIAN_POINT ( 'NONE',  ( 0.000000000000000000, 0.000000000000000000, 32.00000000000000000 ) ) ;
#15 = ORIENTED_EDGE ( 'NONE', *, *, #152, .F. ) ;
#16 = ORIENTED_EDGE ( 'NONE', *, *, #192, .F. ) ;
#17 = ORIENTED_EDGE ( 'NONE', *, *, #43, .F. ) ;
#18 = CARTESIAN_POINT ( 'NONE',  ( 0.000000000000000000, 0.000000000000000000, 0.000000000000000000 ) ) ;
#19 = VECTOR ( 'NONE', #108, 39.37007874015748143 ) ;
#20 = EDGE_LOOP ( 'NONE', ( #86, #135, #124, #217 ) ) ;
#21 = AXIS2_PLACEMENT_3D ( 'NONE', #312, #63, #62 ) ;
#22 = FACE_OUTER_BOUND ( 'NONE', #304, .T. ) ;
#23 = CARTESIAN_POINT ( 'NONE',  ( 0.000000000000000000, 0.2500000000000000000, 0.000000000000000000 ) ) ;
#24 = EDGE_CURVE ( 'NONE', #404, #195, #269, .T. ) ;
#25 = CARTESIAN_POINT ( 'NONE',  ( -0.2500000000000000000, 0.2500000000000000000, 0.000000000000000000 ) ) ;
#26 = CARTESIAN_POINT ( 'NONE',  ( -0.1874999999999999722, 0.2500000000000000000, 0.000000000000000000 ) ) ;
#27 = DIRECTION ( 'NONE',  ( -1.000000000000000000, 0.000000000000000000, 0.000000000000000000 ) ) ;
#28 = CARTESIAN_POINT ( 'NONE',  ( -0.1874999999999999722, 0.000000000000000000, 0.09374999999999998612 ) ) ;
#29 = FACE_OUTER_BOUND ( 'NONE', #56, .T. ) ;
#30 = EDGE_LOOP ( 'NONE', ( #98, #308, #188, #434 ) ) ;
#31 = VECTOR ( 'NONE', #155, 39.37007874015748143 ) ;
#32 = DIRECTION ( 'NONE',  ( 0.000000000000000000, 0.000000000000000000, -1.000000000000000000 ) ) ;
#33 = APPLICATION_PROTOCOL_DEFINITION ( 'draft international standard', 'automotive_design', 1998, #150 ) ;
#34 = LINE ( 'NONE', #109, #360 ) ;
#35 = EDGE_CURVE ( 'NONE', #10, #226, #208, .T. ) ;
#36 = LINE ( 'NONE', #77, #163 ) ;
#37 = AXIS2_PLACEMENT_3D ( 'NONE', #149, #295, #451 ) ;
#38 = FACE_OUTER_BOUND ( 'NONE', #190, .T. ) ;
#39 = VECTOR ( 'NONE', #213, 39.37007874015748143 ) ;
#40 = ORIENTED_EDGE ( 'NONE', *, *, #358, .T. ) ;
#41 = DIRECTION ( 'NONE',  ( 1.000000000000000000, 0.000000000000000000, 0.000000000000000000 ) ) ;
#42 = DIRECTION ( 'NONE',  ( -0.000000000000000000, -1.000000000000000000, -0.000000000000000000 ) ) ;
#43 = EDGE_CURVE ( 'NONE', #371, #183, #210, .T. ) ;
#44 = VERTEX_POINT ( 'NONE', #103 ) ;
#45 = DIRECTION ( 'NONE',  ( -1.000000000000000000, 0.000000000000000000, -0.000000000000000000 ) ) ;
#46 = ORIENTED_EDGE ( 'NONE', *, *, #301, .T. ) ;
#47 = PLANE ( 'NONE',  #340 ) ;
#48 = EDGE_LOOP ( 'NONE', ( #398, #339, #431, #165 ) ) ;
#49 = EDGE_CURVE ( 'NONE', #447, #240, #350, .T. ) ;
#50 = CARTESIAN_POINT ( 'NONE',  ( -0.1874999999999999722, 0.2500000000000000000, 31.49999999999999645 ) ) ;
#51 = ORIENTED_EDGE ( 'NONE', *, *, #383, .F. ) ;
#52 = EDGE_CURVE ( 'NONE', #183, #60, #352, .T. ) ;
#53 = VERTEX_POINT ( 'NONE', #28 ) ;
#54 =( NAMED_UNIT ( * ) PLANE_ANGLE_UNIT ( ) SI_UNIT ( $, .RADIAN. ) );
#55 = CARTESIAN_POINT ( 'NONE',  ( -0.2500000000000000000, 0.2500000000000000000, 32.00000000000000000 ) ) ;
#56 = EDGE_LOOP ( 'NONE', ( #46, #302, #367, #361 ) ) ;
#57 =( LENGTH_UNIT ( ) NAMED_UNIT ( * ) SI_UNIT ( $, .METRE. ) );
#58 = VECTOR ( 'NONE', #209, 39.37007874015748143 ) ;
#59 = ORIENTED_EDGE ( 'NONE', *, *, #406, .T. ) ;
#60 = VERTEX_POINT ( 'NONE', #342 ) ;
#61 = DIRECTION ( 'NONE',  ( 0.000000000000000000, 0.000000000000000000, -1.000000000000000000 ) ) ;
#62 = DIRECTION ( 'NONE',  ( 0.000000000000000000, 0.000000000000000000, 1.000000000000000000 ) ) ;
#63 = DIRECTION ( 'NONE',  ( -1.000000000000000000, 0.000000000000000000, 0.000000000000000000 ) ) ;
#64 = VECTOR ( 'NONE', #391, 39.37007874015748143 ) ;
#65 = LINE ( 'NONE', #419, #346 ) ;
#66 = VECTOR ( 'NONE', #95, 39.37007874015748143 ) ;
#67 = ORIENTED_EDGE ( 'NONE', *, *, #406, .F. ) ;
#68 = ADVANCED_FACE ( 'NONE', ( #393 ), #390, .F. ) ;
#69 = DIRECTION ( 'NONE',  ( 0.000000000000000000, 0.000000000000000000, 1.000000000000000000 ) ) ;
#70 = CARTESIAN_POINT ( 'NONE',  ( -0.06250000000000000000, 0.000000000000000000, 0.000000000000000000 ) ) ;
#71 = LINE ( 'NONE', #174, #39 ) ;
#72 = EDGE_CURVE ( 'NONE', #120, #261, #319, .T. ) ;
#73 = PLANE ( 'NONE',  #242 ) ;
#74 = CARTESIAN_POINT ( 'NONE',  ( 0.000000000000000000, 0.000000000000000000, 0.000000000000000000 ) ) ;
#75 = CARTESIAN_POINT ( 'NONE',  ( -0.1874999999999999722, 0.2500000000000000000, 0.09374999999999998612 ) ) ;
#76 = ORIENTED_EDGE ( 'NONE', *, *, #118, .F. ) ;
#77 = CARTESIAN_POINT ( 'NONE',  ( 0.000000000000000000, 0.2500000000000000000, 0.000000000000000000 ) ) ;
#78 = ORIENTED_EDGE ( 'NONE', *, *, #383, .T. ) ;
#79 = CARTESIAN_POINT ( 'NONE',  ( -0.1874999999999999722, 0.2500000000000000000, 32.00000000000000000 ) ) ;
#80 = ORIENTED_EDGE ( 'NONE', *, *, #243, .F. ) ;
#81 = ORIENTED_EDGE ( 'NONE', *, *, #1, .F. ) ;
#82 = LINE ( 'NONE', #158, #31 ) ;
#83 = VECTOR ( 'NONE', #450, 39.37007874015748143 ) ;
#84 = EDGE_CURVE ( 'NONE', #7, #10, #137, .T. ) ;
#85 = EDGE_LOOP ( 'NONE', ( #171, #105, #17, #154 ) ) ;
#86 = ORIENTED_EDGE ( 'NONE', *, *, #441, .T. ) ;
#87 = SURFACE_SIDE_STYLE ('',( #415 ) ) ;
#88 = PLANE ( 'NONE',  #255 ) ;
#89 = ORIENTED_EDGE ( 'NONE', *, *, #358, .F. ) ;
#90 = LINE ( 'NONE', #196, #148 ) ;
#91 = DIRECTION ( 'NONE',  ( 0.000000000000000000, 0.000000000000000000, -1.000000000000000000 ) ) ;
#92 = EDGE_CURVE ( 'NONE', #181, #145, #122, .T. ) ;
#93 = AXIS2_PLACEMENT_3D ( 'NONE', #235, #381, #61 ) ;
#94 = DIRECTION ( 'NONE',  ( 0.000000000000000000, 1.000000000000000000, 0.000000000000000000 ) ) ;
#95 = DIRECTION ( 'NONE',  ( 0.000000000000000000, 0.000000000000000000, 1.000000000000000000 ) ) ;
#96 = ADVANCED_FACE ( 'NONE', ( #6 ), #110, .F. ) ;
#97 = DIRECTION ( 'NONE',  ( 1.000000000000000000, 0.000000000000000000, -0.000000000000000000 ) ) ;
#98 = ORIENTED_EDGE ( 'NONE', *, *, #192, .T. ) ;
#99 = VECTOR ( 'NONE', #200, 39.37007874015748143 ) ;
#100 = EDGE_CURVE ( 'NONE', #60, #194, #250, .T. ) ;
#101 =( LENGTH_UNIT ( ) NAMED_UNIT ( * ) SI_UNIT ( $, .METRE. ) );
#102 = VECTOR ( 'NONE', #245, 39.37007874015748143 ) ;
#103 = CARTESIAN_POINT ( 'NONE',  ( -0.2500000000000000000, 0.2500000000000000000, 0.000000000000000000 ) ) ;
#104 = DIRECTION ( 'NONE',  ( -1.000000000000000000, 0.000000000000000000, 0.000000000000000000 ) ) ;
#105 = ORIENTED_EDGE ( 'NONE', *, *, #445, .F. ) ;
#106 = CARTESIAN_POINT ( 'NONE',  ( -0.2500000000000000000, 0.000000000000000000, 0.000000000000000000 ) ) ;
#107 = DIRECTION ( 'NONE',  ( 0.000000000000000000, 0.000000000000000000, 1.000000000000000000 ) ) ;
#108 = DIRECTION ( 'NONE',  ( -1.000000000000000000, 0.000000000000000000, 0.000000000000000000 ) ) ;
#109 = CARTESIAN_POINT ( 'NONE',  ( -0.2500000000000000000, 0.000000000000000000, 0.000000000000000000 ) ) ;
#110 = PLANE ( 'NONE',  #178 ) ;
#111 = ORIENTED_EDGE ( 'NONE', *, *, #399, .T. ) ;
#112 = ADVANCED_FACE ( 'NONE', ( #291 ), #143, .F. ) ;
#113 = PRODUCT_DEFINITION_FORMATION_WITH_SPECIFIED_SOURCE ( 'ANY', '', #274, .NOT_KNOWN. ) ;
#114 = CARTESIAN_POINT ( 'NONE',  ( 0.000000000000000000, 0.2500000000000000000, 0.000000000000000000 ) ) ;
#115 = ORIENTED_EDGE ( 'NONE', *, *, #176, .F. ) ;
#116 =( NAMED_UNIT ( * ) SI_UNIT ( $, .STERADIAN. ) SOLID_ANGLE_UNIT ( ) );
#117 = ORIENTED_EDGE ( 'NONE', *, *, #376, .T. ) ;
#118 = EDGE_CURVE ( 'NONE', #240, #412, #428, .T. ) ;
#119 = ORIENTED_EDGE ( 'NONE', *, *, #202, .T. ) ;
#120 = VERTEX_POINT ( 'NONE', #400 ) ;
#121 = VECTOR ( 'NONE', #104, 39.37007874015748143 ) ;
#122 = LINE ( 'NONE', #266, #322 ) ;
#123 = VECTOR ( 'NONE', #42, 39.37007874015748143 ) ;
#124 = ORIENTED_EDGE ( 'NONE', *, *, #348, .F. ) ;
#125 = CARTESIAN_POINT ( 'NONE',  ( -0.06250000000000000000, 0.2500000000000000000, 0.000000000000000000 ) ) ;
#126 = FACE_OUTER_BOUND ( 'NONE', #326, .T. ) ;
#127 = EDGE_CURVE ( 'NONE', #195, #276, #36, .T. ) ;
#128 = ORIENTED_EDGE ( 'NONE', *, *, #265, .T. ) ;
#129 = PLANE ( 'NONE',  #93 ) ;
#130 = CARTESIAN_POINT ( 'NONE',  ( 0.000000000000000000, 0.000000000000000000, 0.000000000000000000 ) ) ;
#131 = LINE ( 'NONE', #237, #58 ) ;
#132 = LINE ( 'NONE', #25, #417 ) ;
#133 = DIRECTION ( 'NONE',  ( 0.000000000000000000, 0.000000000000000000, 1.000000000000000000 ) ) ;
#134 = CARTESIAN_POINT ( 'NONE',  ( -0.1874999999999999722, 0.000000000000000000, 32.00000000000000000 ) ) ;
#135 = ORIENTED_EDGE ( 'NONE', *, *, #325, .F. ) ;
#136 = AXIS2_PLACEMENT_3D ( 'NONE', #74, #107, #41 ) ;
#137 = LINE ( 'NONE', #247, #401 ) ;
#138 = CARTESIAN_POINT ( 'NONE',  ( -0.2500000000000000000, 0.000000000000000000, 32.00000000000000000 ) ) ;
#139 = CARTESIAN_POINT ( 'NONE',  ( -0.2500000000000000000, 0.2500000000000000000, 32.00000000000000000 ) ) ;
#140 = AXIS2_PLACEMENT_3D ( 'NONE', #314, #207, #97 ) ;
#141 = CARTESIAN_POINT ( 'NONE',  ( -0.2500000000000000000, 0.2500000000000000000, 32.00000000000000000 ) ) ;
#142 = UNCERTAINTY_MEASURE_WITH_UNIT (LENGTH_MEASURE( 1.000000000000000082E-05 ), #164, 'distance_accuracy_value', 'NONE');
#143 = PLANE ( 'NONE',  #241 ) ;
#144 = ADVANCED_FACE ( 'NONE', ( #38 ), #364, .F. ) ;
#145 = VERTEX_POINT ( 'NONE', #219 ) ;
#146 = CARTESIAN_POINT ( 'NONE',  ( -0.1874999999999999722, 0.000000000000000000, 0.000000000000000000 ) ) ;
#147 = ORIENTED_EDGE ( 'NONE', *, *, #35, .F. ) ;
#148 = VECTOR ( 'NONE', #341, 39.37007874015748143 ) ;
#149 = CARTESIAN_POINT ( 'NONE',  ( -0.06250000000000000000, 0.2500000000000000000, 31.49999999999999645 ) ) ;
#150 = APPLICATION_CONTEXT ( 'automotive_design' ) ;
#151 = ORIENTED_EDGE ( 'NONE', *, *, #345, .T. ) ;
#152 = EDGE_CURVE ( 'NONE', #223, #221, #34, .T. ) ;
#153 = LINE ( 'NONE', #271, #306 ) ;
#154 = ORIENTED_EDGE ( 'NONE', *, *, #243, .T. ) ;
#155 = DIRECTION ( 'NONE',  ( 0.000000000000000000, 0.000000000000000000, -1.000000000000000000 ) ) ;
#156 = ORIENTED_EDGE ( 'NONE', *, *, #43, .T. ) ;
#157 = ORIENTED_EDGE ( 'NONE', *, *, #265, .F. ) ;
#158 = CARTESIAN_POINT ( 'NONE',  ( -0.1874999999999999722, 0.000000000000000000, 0.09374999999999998612 ) ) ;
#159 = VECTOR ( 'NONE', #4, 39.37007874015748143 ) ;
#160 = VECTOR ( 'NONE', #133, 39.37007874015748143 ) ;
#161 = EDGE_CURVE ( 'NONE', #447, #221, #321, .T. ) ;
#162 = CARTESIAN_POINT ( 'NONE',  ( -0.1874999999999999722, 0.000000000000000000, 31.49999999999999645 ) ) ;
#163 = VECTOR ( 'NONE', #359, 39.37007874015748143 ) ;
#164 =( CONVERSION_BASED_UNIT ( 'INCH', #224 ) LENGTH_UNIT ( ) NAMED_UNIT ( #187 ) );
#165 = ORIENTED_EDGE ( 'NONE', *, *, #227, .T. ) ;
#166 = PLANE ( 'NONE',  #180 ) ;
#167 = CLOSED_SHELL ( 'NONE', ( #297, #68, #256, #413, #363, #144, #328, #96, #231, #112, #334, #215, #9, #392 ) ) ;
#168 = LINE ( 'NONE', #238, #99 ) ;
#169 = DIRECTION ( 'NONE',  ( 1.000000000000000000, 0.000000000000000000, -0.000000000000000000 ) ) ;
#170 = DIRECTION ( 'NONE',  ( 0.000000000000000000, -0.000000000000000000, 1.000000000000000000 ) ) ;
#171 = ORIENTED_EDGE ( 'NONE', *, *, #176, .T. ) ;
#172 = VECTOR ( 'NONE', #432, 39.37007874015748143 ) ;
#173 = EDGE_LOOP ( 'NONE', ( #300, #89, #258, #151 ) ) ;
#174 = CARTESIAN_POINT ( 'NONE',  ( 0.000000000000000000, 0.2500000000000000000, 32.00000000000000000 ) ) ;
#175 = APPLICATION_PROTOCOL_DEFINITION ( 'draft international standard', 'automotive_design', 1998, #414 ) ;
#176 = EDGE_CURVE ( 'NONE', #261, #53, #397, .T. ) ;
#177 = LINE ( 'NONE', #8, #159 ) ;
#178 = AXIS2_PLACEMENT_3D ( 'NONE', #139, #356, #45 ) ;
#179 = CARTESIAN_POINT ( 'NONE',  ( -0.2500000000000000000, 0.000000000000000000, 32.00000000000000000 ) ) ;
#180 = AXIS2_PLACEMENT_3D ( 'NONE', #203, #94, #170 ) ;
#181 = VERTEX_POINT ( 'NONE', #324 ) ;
#182 = CARTESIAN_POINT ( 'NONE',  ( -0.06250000000000000000, 0.000000000000000000, 0.09374999999999998612 ) ) ;
#183 = VERTEX_POINT ( 'NONE', #75 ) ;
#184 = DIRECTION ( 'NONE',  ( -0.000000000000000000, -1.000000000000000000, -0.000000000000000000 ) ) ;
#185 = EDGE_CURVE ( 'NONE', #221, #412, #216, .T. ) ;
#186 = VERTEX_POINT ( 'NONE', #327 ) ;
#187 = DIMENSIONAL_EXPONENTS ( 1.000000000000000000, 0.000000000000000000, 0.000000000000000000, 0.000000000000000000, 0.000000000000000000, 0.000000000000000000, 0.000000000000000000 ) ;
#188 = ORIENTED_EDGE ( 'NONE', *, *, #202, .F. ) ;
#189 = SURFACE_STYLE_USAGE ( .BOTH. , #87 ) ;
#190 = EDGE_LOOP ( 'NONE', ( #59, #333, #375, #410 ) ) ;
#191 = ORIENTED_EDGE ( 'NONE', *, *, #396, .T. ) ;
#192 = EDGE_CURVE ( 'NONE', #412, #10, #177, .T. ) ;
#193 = CARTESIAN_POINT ( 'NONE',  ( 0.000000000000000000, 0.2500000000000000000, 32.00000000000000000 ) ) ;
#194 = VERTEX_POINT ( 'NONE', #146 ) ;
#195 = VERTEX_POINT ( 'NONE', #114 ) ;
#196 = CARTESIAN_POINT ( 'NONE',  ( -0.06250000000000000000, 0.2500000000000000000, 0.000000000000000000 ) ) ;
#197 = AXIS2_PLACEMENT_3D ( 'NONE', #222, #427, #366 ) ;
#198 = PRODUCT_RELATED_PRODUCT_CATEGORY ( 'part', '', ( #274 ) ) ;
#199 = CARTESIAN_POINT ( 'NONE',  ( 0.000000000000000000, 0.2500000000000000000, 32.00000000000000000 ) ) ;
#200 = DIRECTION ( 'NONE',  ( -1.000000000000000000, 0.000000000000000000, 0.000000000000000000 ) ) ;
#201 = CARTESIAN_POINT ( 'NONE',  ( -0.06250000000000000000, 0.2500000000000000000, 31.49999999999999645 ) ) ;
#202 = EDGE_CURVE ( 'NONE', #240, #7, #257, .T. ) ;
#203 = CARTESIAN_POINT ( 'NONE',  ( 0.000000000000000000, 0.000000000000000000, 0.000000000000000000 ) ) ;
#204 = PRODUCT_DEFINITION_SHAPE ( 'NONE', 'NONE',  #281 ) ;
#205 = COLOUR_RGB ( '',0.7921568627450980005, 0.8196078431372548767, 0.9333333333333333481 ) ;
#206 = VECTOR ( 'NONE', #69, 39.37007874015748143 ) ;
#207 = DIRECTION ( 'NONE',  ( 0.000000000000000000, -0.000000000000000000, 1.000000000000000000 ) ) ;
#208 = LINE ( 'NONE', #416, #433 ) ;
#209 = DIRECTION ( 'NONE',  ( -0.000000000000000000, -1.000000000000000000, -0.000000000000000000 ) ) ;
#210 = LINE ( 'NONE', #421, #442 ) ;
#211 = PRODUCT_CONTEXT ( 'NONE', #414, 'mechanical' ) ;
#212 = DIRECTION ( 'NONE',  ( -0.000000000000000000, -1.000000000000000000, -0.000000000000000000 ) ) ;
#213 = DIRECTION ( 'NONE',  ( -0.000000000000000000, -1.000000000000000000, -0.000000000000000000 ) ) ;
#214 = CARTESIAN_POINT ( 'NONE',  ( -0.1874999999999999722, 0.2500000000000000000, 32.00000000000000000 ) ) ;
#215 = ADVANCED_FACE ( 'NONE', ( #288 ), #248, .F. ) ;
#216 = LINE ( 'NONE', #179, #354 ) ;
#217 = ORIENTED_EDGE ( 'NONE', *, *, #127, .T. ) ;
#218 = AXIS2_PLACEMENT_3D ( 'NONE', #320, #2, #457 ) ;
#219 = CARTESIAN_POINT ( 'NONE',  ( -0.06250000000000000000, 0.2500000000000000000, 32.00000000000000000 ) ) ;
#220 =( GEOMETRIC_REPRESENTATION_CONTEXT ( 3 ) GLOBAL_UNCERTAINTY_ASSIGNED_CONTEXT ( ( #142 ) ) GLOBAL_UNIT_ASSIGNED_CONTEXT ( ( #164, #54, #116 ) ) REPRESENTATION_CONTEXT ( 'NONE', 'WORKASPACE' ) );
#221 = VERTEX_POINT ( 'NONE', #138 ) ;
#222 = CARTESIAN_POINT ( 'NONE',  ( -0.06250000000000000000, 0.2500000000000000000, 32.00000000000000000 ) ) ;
#223 = VERTEX_POINT ( 'NONE', #106 ) ;
#224 = LENGTH_MEASURE_WITH_UNIT ( LENGTH_MEASURE( 0.02539999999999999897 ), #57 );
#225 = ORIENTED_EDGE ( 'NONE', *, *, #161, .F. ) ;
#226 = VERTEX_POINT ( 'NONE', #394 ) ;
#227 = EDGE_CURVE ( 'NONE', #404, #254, #71, .T. ) ;
#228 = ORIENTED_EDGE ( 'NONE', *, *, #1, .T. ) ;
#229 = DIRECTION ( 'NONE',  ( 1.000000000000000000, 0.000000000000000000, 0.000000000000000000 ) ) ;
#230 = CARTESIAN_POINT ( 'NONE',  ( 0.000000000000000000, 0.2500000000000000000, 0.000000000000000000 ) ) ;
#231 = ADVANCED_FACE ( 'NONE', ( #395 ), #73, .F. ) ;
#232 = ORIENTED_EDGE ( 'NONE', *, *, #24, .T. ) ;
#233 = DIRECTION ( 'NONE',  ( 0.000000000000000000, 0.000000000000000000, -1.000000000000000000 ) ) ;
#234 = DIRECTION ( 'NONE',  ( 1.000000000000000000, 0.000000000000000000, 0.000000000000000000 ) ) ;
#235 = CARTESIAN_POINT ( 'NONE',  ( -0.2500000000000000000, 0.2500000000000000000, 0.000000000000000000 ) ) ;
#236 = VECTOR ( 'NONE', #184, 39.37007874015748143 ) ;
#237 = CARTESIAN_POINT ( 'NONE',  ( -0.1874999999999999722, 0.2500000000000000000, 0.09374999999999998612 ) ) ;
#238 = CARTESIAN_POINT ( 'NONE',  ( 0.000000000000000000, 0.2500000000000000000, 0.000000000000000000 ) ) ;
#239 = CARTESIAN_POINT ( 'NONE',  ( -0.06250000000000000000, 0.2500000000000000000, 0.000000000000000000 ) ) ;
#240 = VERTEX_POINT ( 'NONE', #330 ) ;
#241 = AXIS2_PLACEMENT_3D ( 'NONE', #289, #430, #429 ) ;
#242 = AXIS2_PLACEMENT_3D ( 'NONE', #214, #357, #444 ) ;
#243 = EDGE_CURVE ( 'NONE', #371, #261, #153, .T. ) ;
#244 = LINE ( 'NONE', #246, #282 ) ;
#245 = DIRECTION ( 'NONE',  ( 1.000000000000000000, 0.000000000000000000, 0.000000000000000000 ) ) ;
#246 = CARTESIAN_POINT ( 'NONE',  ( -0.06250000000000000000, 0.2500000000000000000, 32.00000000000000000 ) ) ;
#247 = CARTESIAN_POINT ( 'NONE',  ( -0.1874999999999999722, 0.2500000000000000000, 31.49999999999999645 ) ) ;
#248 = PLANE ( 'NONE',  #197 ) ;
#249 = DIRECTION ( 'NONE',  ( 1.000000000000000000, 0.000000000000000000, 0.000000000000000000 ) ) ;
#250 = LINE ( 'NONE', #286, #172 ) ;
#251 = ORIENTED_EDGE ( 'NONE', *, *, #345, .F. ) ;
#252 = UNCERTAINTY_MEASURE_WITH_UNIT (LENGTH_MEASURE( 1.000000000000000082E-05 ), #272, 'distance_accuracy_value', 'NONE');
#253 = CARTESIAN_POINT ( 'NONE',  ( -0.1874999999999999722, 0.2500000000000000000, 32.00000000000000000 ) ) ;
#254 = VERTEX_POINT ( 'NONE', #14 ) ;
#255 = AXIS2_PLACEMENT_3D ( 'NONE', #230, #353, #307 ) ;
#256 = ADVANCED_FACE ( 'NONE', ( #335 ), #332, .F. ) ;
#257 = LINE ( 'NONE', #79, #293 ) ;
#258 = ORIENTED_EDGE ( 'NONE', *, *, #92, .F. ) ;
#259 = ADVANCED_BREP_SHAPE_REPRESENTATION ( 'amplitude-bar', ( #268, #136 ), #12 ) ;
#260 = PRESENTATION_STYLE_ASSIGNMENT (( #189 ) ) ;
#261 = VERTEX_POINT ( 'NONE', #298 ) ;
#262 = CARTESIAN_POINT ( 'NONE',  ( -0.06250000000000000000, 0.000000000000000000, 31.49999999999999645 ) ) ;
#263 = ORIENTED_EDGE ( 'NONE', *, *, #92, .T. ) ;
#264 = VECTOR ( 'NONE', #229, 39.37007874015748143 ) ;
#265 = EDGE_CURVE ( 'NONE', #7, #181, #440, .T. ) ;
#266 = CARTESIAN_POINT ( 'NONE',  ( -0.06250000000000000000, 0.2500000000000000000, 31.49999999999999645 ) ) ;
#267 = DIRECTION ( 'NONE',  ( 0.000000000000000000, 0.000000000000000000, -1.000000000000000000 ) ) ;
#268 = MANIFOLD_SOLID_BREP ( 'Boss-Extrude1', #167 ) ;
#269 = LINE ( 'NONE', #199, #379 ) ;
#270 = PRODUCT_DEFINITION_CONTEXT ( 'detailed design', #150, 'design' ) ;
#271 = CARTESIAN_POINT ( 'NONE',  ( -0.06250000000000000000, 0.2500000000000000000, 0.09374999999999998612 ) ) ;
#272 =( CONVERSION_BASED_UNIT ( 'INCH', #317 ) LENGTH_UNIT ( ) NAMED_UNIT ( #294 ) );
#273 = CARTESIAN_POINT ( 'NONE',  ( -0.06250000000000000000, 0.2500000000000000000, 0.000000000000000000 ) ) ;
#274 = PRODUCT ( 'amplitude-bar', 'amplitude-bar', '', ( #211 ) ) ;
#275 = LINE ( 'NONE', #311, #83 ) ;
#276 = VERTEX_POINT ( 'NONE', #18 ) ;
#277 = EDGE_CURVE ( 'NONE', #226, #186, #368, .T. ) ;
#278 = CARTESIAN_POINT ( 'NONE',  ( -0.2500000000000000000, 0.2500000000000000000, 32.00000000000000000 ) ) ;
#279 = EDGE_LOOP ( 'NONE', ( #402, #76, #380, #446 ) ) ;
#280 = VECTOR ( 'NONE', #267, 39.37007874015748143 ) ;
#281 = PRODUCT_DEFINITION ( 'UNKNOWN', '', #113, #270 ) ;
#282 = VECTOR ( 'NONE', #347, 39.37007874015748143 ) ;
#283 = LINE ( 'NONE', #201, #64 ) ;
#284 = CARTESIAN_POINT ( 'NONE',  ( -0.1874999999999999722, 0.2500000000000000000, 31.49999999999999645 ) ) ;
#285 = DIRECTION ( 'NONE',  ( 0.000000000000000000, 0.000000000000000000, 1.000000000000000000 ) ) ;
#286 = CARTESIAN_POINT ( 'NONE',  ( -0.1874999999999999722, 0.2500000000000000000, 0.000000000000000000 ) ) ;
#287 = SHAPE_DEFINITION_REPRESENTATION ( #204, #259 ) ;
#288 = FACE_OUTER_BOUND ( 'NONE', #453, .T. ) ;
#289 = CARTESIAN_POINT ( 'NONE',  ( -0.1874999999999999722, 0.2500000000000000000, 31.49999999999999645 ) ) ;
#290 = ORIENTED_EDGE ( 'NONE', *, *, #348, .T. ) ;
#291 = FACE_OUTER_BOUND ( 'NONE', #443, .T. ) ;
#292 = ORIENTED_EDGE ( 'NONE', *, *, #396, .F. ) ;
#293 = VECTOR ( 'NONE', #403, 39.37007874015748143 ) ;
#294 = DIMENSIONAL_EXPONENTS ( 1.000000000000000000, 0.000000000000000000, 0.000000000000000000, 0.000000000000000000, 0.000000000000000000, 0.000000000000000000, 0.000000000000000000 ) ;
#295 = DIRECTION ( 'NONE',  ( 1.000000000000000000, 0.000000000000000000, 0.000000000000000000 ) ) ;
#296 = ORIENTED_EDGE ( 'NONE', *, *, #301, .F. ) ;
#297 = ADVANCED_FACE ( 'NONE', ( #373 ), #47, .F. ) ;
#298 = CARTESIAN_POINT ( 'NONE',  ( -0.06250000000000000000, 0.000000000000000000, 0.09374999999999998612 ) ) ;
#299 = ORIENTED_EDGE ( 'NONE', *, *, #277, .F. ) ;
#300 = ORIENTED_EDGE ( 'NONE', *, *, #277, .T. ) ;
#301 = EDGE_CURVE ( 'NONE', #53, #194, #82, .T. ) ;
#302 = ORIENTED_EDGE ( 'NONE', *, *, #100, .F. ) ;
#303 = AXIS2_PLACEMENT_3D ( 'NONE', #23, #456, #169 ) ;
#304 = EDGE_LOOP ( 'NONE', ( #336, #225, #81, #117 ) ) ;
#305 = CARTESIAN_POINT ( 'NONE',  ( 0.000000000000000000, 0.000000000000000000, 32.00000000000000000 ) ) ;
#306 = VECTOR ( 'NONE', #405, 39.37007874015748143 ) ;
#307 = DIRECTION ( 'NONE',  ( 0.000000000000000000, -0.000000000000000000, 1.000000000000000000 ) ) ;
#308 = ORIENTED_EDGE ( 'NONE', *, *, #84, .F. ) ;
#309 = DIRECTION ( 'NONE',  ( 0.000000000000000000, 0.000000000000000000, 1.000000000000000000 ) ) ;
#310 = CARTESIAN_POINT ( 'NONE',  ( 0.000000000000000000, 0.2500000000000000000, 32.00000000000000000 ) ) ;
#311 = CARTESIAN_POINT ( 'NONE',  ( -0.06250000000000000000, 0.000000000000000000, 32.00000000000000000 ) ) ;
#312 = CARTESIAN_POINT ( 'NONE',  ( -0.1874999999999999722, 0.2500000000000000000, 0.09374999999999998612 ) ) ;
#313 = ORIENTED_EDGE ( 'NONE', *, *, #441, .F. ) ;
#314 = CARTESIAN_POINT ( 'NONE',  ( -0.06250000000000000000, 0.2500000000000000000, 0.09374999999999998612 ) ) ;
#315 = LINE ( 'NONE', #452, #160 ) ;
#316 = EDGE_CURVE ( 'NONE', #254, #276, #370, .T. ) ;
#317 = LENGTH_MEASURE_WITH_UNIT ( LENGTH_MEASURE( 0.02539999999999999897 ), #101 );
#318 = CARTESIAN_POINT ( 'NONE',  ( -0.1874999999999999722, 0.2500000000000000000, 0.09374999999999998612 ) ) ;
#319 = LINE ( 'NONE', #70, #206 ) ;
#320 = CARTESIAN_POINT ( 'NONE',  ( -0.1874999999999999722, 0.2500000000000000000, 0.000000000000000000 ) ) ;
#321 = LINE ( 'NONE', #141, #123 ) ;
#322 = VECTOR ( 'NONE', #374, 39.37007874015748143 ) ;
#323 =( NAMED_UNIT ( * ) SI_UNIT ( $, .STERADIAN. ) SOLID_ANGLE_UNIT ( ) );
#324 = CARTESIAN_POINT ( 'NONE',  ( -0.06250000000000000000, 0.2500000000000000000, 31.49999999999999645 ) ) ;
#325 = EDGE_CURVE ( 'NONE', #439, #120, #90, .T. ) ;
#326 = EDGE_LOOP ( 'NONE', ( #232, #290, #78, #156, #387, #329, #228, #411, #119, #128, #263, #191 ) ) ;
#327 = CARTESIAN_POINT ( 'NONE',  ( -0.06250000000000000000, 0.000000000000000000, 32.00000000000000000 ) ) ;
#328 = ADVANCED_FACE ( 'NONE', ( #22 ), #129, .F. ) ;
#329 = ORIENTED_EDGE ( 'NONE', *, *, #355, .T. ) ;
#330 = CARTESIAN_POINT ( 'NONE',  ( -0.1874999999999999722, 0.2500000000000000000, 32.00000000000000000 ) ) ;
#331 = ORIENTED_EDGE ( 'NONE', *, *, #316, .F. ) ;
#332 = PLANE ( 'NONE',  #454 ) ;
#333 = ORIENTED_EDGE ( 'NONE', *, *, #376, .F. ) ;
#334 = ADVANCED_FACE ( 'NONE', ( #11 ), #435, .F. ) ;
#335 = FACE_OUTER_BOUND ( 'NONE', #436, .T. ) ;
#336 = ORIENTED_EDGE ( 'NONE', *, *, #152, .T. ) ;
#337 = ORIENTED_EDGE ( 'NONE', *, *, #72, .F. ) ;
#338 = DIRECTION ( 'NONE',  ( -1.000000000000000000, 0.000000000000000000, 0.000000000000000000 ) ) ;
#339 = ORIENTED_EDGE ( 'NONE', *, *, #127, .F. ) ;
#340 = AXIS2_PLACEMENT_3D ( 'NONE', #193, #338, #309 ) ;
#341 = DIRECTION ( 'NONE',  ( -0.000000000000000000, -1.000000000000000000, -0.000000000000000000 ) ) ;
#342 = CARTESIAN_POINT ( 'NONE',  ( -0.1874999999999999722, 0.2500000000000000000, 0.000000000000000000 ) ) ;
#343 = FACE_OUTER_BOUND ( 'NONE', #85, .T. ) ;
#344 = PLANE ( 'NONE',  #21 ) ;
#345 = EDGE_CURVE ( 'NONE', #181, #226, #283, .T. ) ;
#346 = VECTOR ( 'NONE', #420, 39.37007874015748143 ) ;
#347 = DIRECTION ( 'NONE',  ( 1.000000000000000000, 0.000000000000000000, 0.000000000000000000 ) ) ;
#348 = EDGE_CURVE ( 'NONE', #195, #439, #168, .T. ) ;
#349 = LINE ( 'NONE', #130, #409 ) ;
#350 = LINE ( 'NONE', #55, #102 ) ;
#351 = FACE_OUTER_BOUND ( 'NONE', #13, .T. ) ;
#352 = LINE ( 'NONE', #318, #362 ) ;
#353 = DIRECTION ( 'NONE',  ( 0.000000000000000000, 1.000000000000000000, 0.000000000000000000 ) ) ;
#354 = VECTOR ( 'NONE', #249, 39.37007874015748143 ) ;
#355 = EDGE_CURVE ( 'NONE', #60, #44, #425, .T. ) ;
#356 = DIRECTION ( 'NONE',  ( 0.000000000000000000, 0.000000000000000000, -1.000000000000000000 ) ) ;
#357 = DIRECTION ( 'NONE',  ( -1.000000000000000000, 0.000000000000000000, 0.000000000000000000 ) ) ;
#358 = EDGE_CURVE ( 'NONE', #145, #186, #455, .T. ) ;
#359 = DIRECTION ( 'NONE',  ( -0.000000000000000000, -1.000000000000000000, -0.000000000000000000 ) ) ;
#360 = VECTOR ( 'NONE', #285, 39.37007874015748143 ) ;
#361 = ORIENTED_EDGE ( 'NONE', *, *, #445, .T. ) ;
#362 = VECTOR ( 'NONE', #32, 39.37007874015748143 ) ;
#363 = ADVANCED_FACE ( 'NONE', ( #29 ), #344, .F. ) ;
#364 = PLANE ( 'NONE',  #218 ) ;
#365 = ORIENTED_EDGE ( 'NONE', *, *, #185, .F. ) ;
#366 = DIRECTION ( 'NONE',  ( -1.000000000000000000, 0.000000000000000000, -0.000000000000000000 ) ) ;
#367 = ORIENTED_EDGE ( 'NONE', *, *, #52, .F. ) ;
#368 = LINE ( 'NONE', #262, #385 ) ;
#369 = ORIENTED_EDGE ( 'NONE', *, *, #325, .T. ) ;
#370 = LINE ( 'NONE', #305, #280 ) ;
#371 = VERTEX_POINT ( 'NONE', #384 ) ;
#372 = ORIENTED_EDGE ( 'NONE', *, *, #35, .T. ) ;
#373 = FACE_OUTER_BOUND ( 'NONE', #48, .T. ) ;
#374 = DIRECTION ( 'NONE',  ( 0.000000000000000000, 0.000000000000000000, 1.000000000000000000 ) ) ;
#375 = ORIENTED_EDGE ( 'NONE', *, *, #355, .F. ) ;
#376 = EDGE_CURVE ( 'NONE', #44, #223, #132, .T. ) ;
#377 = FILL_AREA_STYLE_COLOUR ( '', #205 ) ;
#378 = DIRECTION ( 'NONE',  ( -1.000000000000000000, 0.000000000000000000, 0.000000000000000000 ) ) ;
#379 = VECTOR ( 'NONE', #91, 39.37007874015748143 ) ;
#380 = ORIENTED_EDGE ( 'NONE', *, *, #49, .F. ) ;
#381 = DIRECTION ( 'NONE',  ( 1.000000000000000000, 0.000000000000000000, 0.000000000000000000 ) ) ;
#382 = DIRECTION ( 'NONE',  ( -0.000000000000000000, -1.000000000000000000, -0.000000000000000000 ) ) ;
#383 = EDGE_CURVE ( 'NONE', #439, #371, #386, .T. ) ;
#384 = CARTESIAN_POINT ( 'NONE',  ( -0.06250000000000000000, 0.2500000000000000000, 0.09374999999999998612 ) ) ;
#385 = VECTOR ( 'NONE', #408, 39.37007874015748143 ) ;
#386 = LINE ( 'NONE', #273, #66 ) ;
#387 = ORIENTED_EDGE ( 'NONE', *, *, #52, .T. ) ;
#388 = VECTOR ( 'NONE', #389, 39.37007874015748143 ) ;
#389 = DIRECTION ( 'NONE',  ( -0.000000000000000000, -1.000000000000000000, -0.000000000000000000 ) ) ;
#390 = PLANE ( 'NONE',  #303 ) ;
#391 = DIRECTION ( 'NONE',  ( -0.000000000000000000, -1.000000000000000000, -0.000000000000000000 ) ) ;
#392 = ADVANCED_FACE ( 'NONE', ( #351 ), #166, .F. ) ;
#393 = FACE_OUTER_BOUND ( 'NONE', #20, .T. ) ;
#394 = CARTESIAN_POINT ( 'NONE',  ( -0.06250000000000000000, 0.000000000000000000, 31.49999999999999645 ) ) ;
#395 = FACE_OUTER_BOUND ( 'NONE', #30, .T. ) ;
#396 = EDGE_CURVE ( 'NONE', #145, #404, #244, .T. ) ;
#397 = LINE ( 'NONE', #182, #19 ) ;
#398 = ORIENTED_EDGE ( 'NONE', *, *, #316, .T. ) ;
#399 = EDGE_CURVE ( 'NONE', #186, #254, #275, .T. ) ;
#400 = CARTESIAN_POINT ( 'NONE',  ( -0.06250000000000000000, 0.000000000000000000, 0.000000000000000000 ) ) ;
#401 = VECTOR ( 'NONE', #212, 39.37007874015748143 ) ;
#402 = ORIENTED_EDGE ( 'NONE', *, *, #185, .T. ) ;
#403 = DIRECTION ( 'NONE',  ( 0.000000000000000000, 0.000000000000000000, -1.000000000000000000 ) ) ;
#404 = VERTEX_POINT ( 'NONE', #310 ) ;
#405 = DIRECTION ( 'NONE',  ( -0.000000000000000000, -1.000000000000000000, -0.000000000000000000 ) ) ;
#406 = EDGE_CURVE ( 'NONE', #194, #223, #65, .T. ) ;
#407 = ORIENTED_EDGE ( 'NONE', *, *, #399, .F. ) ;
#408 = DIRECTION ( 'NONE',  ( 0.000000000000000000, 0.000000000000000000, 1.000000000000000000 ) ) ;
#409 = VECTOR ( 'NONE', #27, 39.37007874015748143 ) ;
#410 = ORIENTED_EDGE ( 'NONE', *, *, #100, .T. ) ;
#411 = ORIENTED_EDGE ( 'NONE', *, *, #49, .T. ) ;
#412 = VERTEX_POINT ( 'NONE', #134 ) ;
#413 = ADVANCED_FACE ( 'NONE', ( #343 ), #422, .F. ) ;
#414 = APPLICATION_CONTEXT ( 'automotive_design' ) ;
#415 = SURFACE_STYLE_FILL_AREA ( #437 ) ;
#416 = CARTESIAN_POINT ( 'NONE',  ( -0.1874999999999999722, 0.000000000000000000, 31.49999999999999645 ) ) ;
#417 = VECTOR ( 'NONE', #382, 39.37007874015748143 ) ;
#418 =( NAMED_UNIT ( * ) PLANE_ANGLE_UNIT ( ) SI_UNIT ( $, .RADIAN. ) );
#419 = CARTESIAN_POINT ( 'NONE',  ( -0.1874999999999999722, 0.000000000000000000, 0.000000000000000000 ) ) ;
#420 = DIRECTION ( 'NONE',  ( -1.000000000000000000, 0.000000000000000000, 0.000000000000000000 ) ) ;
#421 = CARTESIAN_POINT ( 'NONE',  ( -0.06250000000000000000, 0.2500000000000000000, 0.09374999999999998612 ) ) ;
#422 = PLANE ( 'NONE',  #140 ) ;
#423 = ORIENTED_EDGE ( 'NONE', *, *, #84, .T. ) ;
#424 = PRESENTATION_LAYER_ASSIGNMENT (  '', '', ( #5 ) ) ;
#425 = LINE ( 'NONE', #26, #121 ) ;
#426 = ORIENTED_EDGE ( 'NONE', *, *, #227, .F. ) ;
#427 = DIRECTION ( 'NONE',  ( 0.000000000000000000, 0.000000000000000000, -1.000000000000000000 ) ) ;
#428 = LINE ( 'NONE', #253, #236 ) ;
#429 = DIRECTION ( 'NONE',  ( -1.000000000000000000, 0.000000000000000000, -0.000000000000000000 ) ) ;
#430 = DIRECTION ( 'NONE',  ( 0.000000000000000000, 0.000000000000000000, -1.000000000000000000 ) ) ;
#431 = ORIENTED_EDGE ( 'NONE', *, *, #24, .F. ) ;
#432 = DIRECTION ( 'NONE',  ( -0.000000000000000000, -1.000000000000000000, -0.000000000000000000 ) ) ;
#433 = VECTOR ( 'NONE', #234, 39.37007874015748143 ) ;
#434 = ORIENTED_EDGE ( 'NONE', *, *, #118, .T. ) ;
#435 = PLANE ( 'NONE',  #37 ) ;
#436 = EDGE_LOOP ( 'NONE', ( #438, #80, #51, #369 ) ) ;
#437 = FILL_AREA_STYLE ('',( #377 ) ) ;
#438 = ORIENTED_EDGE ( 'NONE', *, *, #72, .T. ) ;
#439 = VERTEX_POINT ( 'NONE', #239 ) ;
#440 = LINE ( 'NONE', #50, #264 ) ;
#441 = EDGE_CURVE ( 'NONE', #276, #120, #349, .T. ) ;
#442 = VECTOR ( 'NONE', #378, 39.37007874015748143 ) ;
#443 = EDGE_LOOP ( 'NONE', ( #372, #251, #157, #423 ) ) ;
#444 = DIRECTION ( 'NONE',  ( 0.000000000000000000, 0.000000000000000000, 1.000000000000000000 ) ) ;
#445 = EDGE_CURVE ( 'NONE', #183, #53, #131, .T. ) ;
#446 = ORIENTED_EDGE ( 'NONE', *, *, #161, .T. ) ;
#447 = VERTEX_POINT ( 'NONE', #278 ) ;
#448 = DIRECTION ( 'NONE',  ( 1.000000000000000000, 0.000000000000000000, 0.000000000000000000 ) ) ;
#449 = CARTESIAN_POINT ( 'NONE',  ( -0.06250000000000000000, 0.2500000000000000000, 32.00000000000000000 ) ) ;
#450 = DIRECTION ( 'NONE',  ( 1.000000000000000000, 0.000000000000000000, 0.000000000000000000 ) ) ;
#451 = DIRECTION ( 'NONE',  ( 0.000000000000000000, 0.000000000000000000, -1.000000000000000000 ) ) ;
#452 = CARTESIAN_POINT ( 'NONE',  ( -0.2500000000000000000, 0.2500000000000000000, 0.000000000000000000 ) ) ;
#453 = EDGE_LOOP ( 'NONE', ( #111, #426, #292, #40 ) ) ;
#454 = AXIS2_PLACEMENT_3D ( 'NONE', #125, #448, #233 ) ;
#455 = LINE ( 'NONE', #449, #388 ) ;
#456 = DIRECTION ( 'NONE',  ( 0.000000000000000000, -0.000000000000000000, 1.000000000000000000 ) ) ;
#457 = DIRECTION ( 'NONE',  ( 1.000000000000000000, 0.000000000000000000, -0.000000000000000000 ) ) ;
ENDSEC;
END-ISO-10303-21;
