ISO-10303-21;
HEADER;
FILE_DESCRIPTION (( 'STEP AP214' ),
    '1' );
FILE_NAME ('oscilating-arms.STEP',
    '2025-12-04T23:43:12',
    ( '' ),
    ( '' ),
    'SwSTEP 2.0',
    'SolidWorks 2025',
    '' );
FILE_SCHEMA (( 'AUTOMOTIVE_DESIGN' ));
ENDSEC;

DATA;
#1 = APPLICATION_PROTOCOL_DEFINITION ( 'draft international standard', 'automotive_design', 1998, #32 ) ;
#2 = CIRCLE ( 'NONE', #58, 32.00000000000033396 ) ;
#3 = FACE_OUTER_BOUND ( 'NONE', #60, .T. ) ;
#4 = ORIENTED_EDGE ( 'NONE', *, *, #41, .F. ) ;
#5 = DIRECTION ( 'NONE',  ( 0.000000000000000000, 0.7919677425790850878, -0.6105629326401889045 ) ) ;
#6 = CARTESIAN_POINT ( 'NONE',  ( 0.05000000000000000278, 1.990051048614449313E-15, -32.25000000000000000 ) ) ;
#7 = AXIS2_PLACEMENT_3D ( 'NONE', #206, #304, #172 ) ;
#8 = ORIENTED_EDGE ( 'NONE', *, *, #125, .T. ) ;
#9 = PRODUCT_DEFINITION_SHAPE ( 'NONE', 'NONE',  #11 ) ;
#10 = DIRECTION ( 'NONE',  ( 0.000000000000000000, 0.000000000000000000, -1.000000000000000000 ) ) ;
#11 = PRODUCT_DEFINITION ( 'UNKNOWN', '', #27, #281 ) ;
#12 = DIRECTION ( 'NONE',  ( 1.000000000000000000, 0.000000000000000000, 0.000000000000000000 ) ) ;
#13 = FACE_OUTER_BOUND ( 'NONE', #222, .T. ) ;
#14 = DIRECTION ( 'NONE',  ( -1.000000000000000000, -0.000000000000000000, -0.000000000000000000 ) ) ;
#15 = ADVANCED_FACE ( 'NONE', ( #25 ), #167, .F. ) ;
#16 = CARTESIAN_POINT ( 'NONE',  ( 0.05000000000000000278, 1.990051048614449313E-15, -32.25000000000000000 ) ) ;
#17 = FILL_AREA_STYLE_COLOUR ( '', #292 ) ;
#18 = SURFACE_SIDE_STYLE ('',( #181 ) ) ;
#19 = LINE ( 'NONE', #107, #279 ) ;
#20 = ADVANCED_FACE ( 'NONE', ( #3 ), #114, .F. ) ;
#21 = EDGE_LOOP ( 'NONE', ( #64, #4, #80, #329 ) ) ;
#22 = FACE_BOUND ( 'NONE', #145, .T. ) ;
#23 = SURFACE_STYLE_USAGE ( .BOTH. , #18 ) ;
#24 = EDGE_CURVE ( 'NONE', #49, #120, #91, .T. ) ;
#25 = FACE_OUTER_BOUND ( 'NONE', #200, .T. ) ;
#26 = AXIS2_PLACEMENT_3D ( 'NONE', #280, #40, #36 ) ;
#27 = PRODUCT_DEFINITION_FORMATION_WITH_SPECIFIED_SOURCE ( 'ANY', '', #294, .NOT_KNOWN. ) ;
#28 = EDGE_LOOP ( 'NONE', ( #8, #248, #162, #157 ) ) ;
#29 = ORIENTED_EDGE ( 'NONE', *, *, #295, .F. ) ;
#30 = VERTEX_POINT ( 'NONE', #57 ) ;
#31 = EDGE_CURVE ( 'NONE', #115, #130, #268, .T. ) ;
#32 = APPLICATION_CONTEXT ( 'automotive_design' ) ;
#33 = ORIENTED_EDGE ( 'NONE', *, *, #144, .T. ) ;
#34 = VECTOR ( 'NONE', #245, 39.37007874015748143 ) ;
#35 = DIRECTION ( 'NONE',  ( 0.000000000000000000, 0.000000000000000000, -1.000000000000000000 ) ) ;
#36 = DIRECTION ( 'NONE',  ( 0.000000000000000000, 0.000000000000000000, -1.000000000000000000 ) ) ;
#37 = LINE ( 'NONE', #227, #237 ) ;
#38 = AXIS2_PLACEMENT_3D ( 'NONE', #331, #110, #77 ) ;
#39 =( GEOMETRIC_REPRESENTATION_CONTEXT ( 3 ) GLOBAL_UNCERTAINTY_ASSIGNED_CONTEXT ( ( #274 ) ) GLOBAL_UNIT_ASSIGNED_CONTEXT ( ( #56, #313, #241 ) ) REPRESENTATION_CONTEXT ( 'NONE', 'WORKASPACE' ) );
#40 = DIRECTION ( 'NONE',  ( -1.000000000000000000, -0.000000000000000000, -0.000000000000000000 ) ) ;
#41 = EDGE_CURVE ( 'NONE', #30, #286, #314, .T. ) ;
#42 = DIRECTION ( 'NONE',  ( 0.000000000000000000, -0.7919677425790850878, -0.6105629326401889045 ) ) ;
#43 = DIRECTION ( 'NONE',  ( 1.000000000000000000, 0.000000000000000000, 0.000000000000000000 ) ) ;
#44 = CIRCLE ( 'NONE', #7, 0.1499999999999992173 ) ;
#45 = CARTESIAN_POINT ( 'NONE',  ( -0.05000000000000000278, -5.556741685341798132, -31.51384809639065310 ) ) ;
#46 = VERTEX_POINT ( 'NONE', #168 ) ;
#47 = EDGE_CURVE ( 'NONE', #260, #285, #218, .T. ) ;
#48 = CARTESIAN_POINT ( 'NONE',  ( 0.05000000000000000278, 5.556741685341803461, -31.51384809639065310 ) ) ;
#49 = VERTEX_POINT ( 'NONE', #271 ) ;
#50 = DIRECTION ( 'NONE',  ( -1.000000000000000000, -0.000000000000000000, -0.000000000000000000 ) ) ;
#51 = AXIS2_PLACEMENT_3D ( 'NONE', #16, #12, #69 ) ;
#52 = LINE ( 'NONE', #161, #75 ) ;
#53 = ORIENTED_EDGE ( 'NONE', *, *, #204, .T. ) ;
#54 = EDGE_CURVE ( 'NONE', #46, #305, #253, .T. ) ;
#55 = ORIENTED_EDGE ( 'NONE', *, *, #219, .T. ) ;
#56 =( CONVERSION_BASED_UNIT ( 'INCH', #59 ) LENGTH_UNIT ( ) NAMED_UNIT ( #336 ) );
#57 = CARTESIAN_POINT ( 'NONE',  ( 0.05000000000000000278, 5.556741685341803461, -31.51384809639065310 ) ) ;
#58 = AXIS2_PLACEMENT_3D ( 'NONE', #250, #251, #10 ) ;
#59 = LENGTH_MEASURE_WITH_UNIT ( LENGTH_MEASURE( 0.02539999999999999897 ), #317 );
#60 = EDGE_LOOP ( 'NONE', ( #132, #212, #190, #116 ) ) ;
#61 = PLANE ( 'NONE',  #220 ) ;
#62 = DIRECTION ( 'NONE',  ( 0.000000000000000000, 0.000000000000000000, 1.000000000000000000 ) ) ;
#63 = ORIENTED_EDGE ( 'NONE', *, *, #223, .T. ) ;
#64 = ORIENTED_EDGE ( 'NONE', *, *, #270, .T. ) ;
#65 = VECTOR ( 'NONE', #85, 39.37007874015748854 ) ;
#66 = ADVANCED_FACE ( 'NONE', ( #151, #322 ), #68, .T. ) ;
#67 = DIRECTION ( 'NONE',  ( -0.000000000000000000, 0.7919677425790850878, 0.6105629326401889045 ) ) ;
#68 = PLANE ( 'NONE',  #171 ) ;
#69 = DIRECTION ( 'NONE',  ( 0.000000000000000000, 0.000000000000000000, -1.000000000000000000 ) ) ;
#70 = VECTOR ( 'NONE', #123, 39.37007874015748854 ) ;
#71 = AXIS2_PLACEMENT_3D ( 'NONE', #84, #269, #169 ) ;
#72 = DIRECTION ( 'NONE',  ( 0.000000000000000000, 0.000000000000000000, -1.000000000000000000 ) ) ;
#73 = LINE ( 'NONE', #48, #94 ) ;
#74 = ORIENTED_EDGE ( 'NONE', *, *, #54, .F. ) ;
#75 = VECTOR ( 'NONE', #328, 39.37007874015748143 ) ;
#76 = EDGE_CURVE ( 'NONE', #46, #115, #37, .T. ) ;
#77 = DIRECTION ( 'NONE',  ( 0.000000000000000000, 0.000000000000000000, 1.000000000000000000 ) ) ;
#78 = ORIENTED_EDGE ( 'NONE', *, *, #139, .T. ) ;
#79 = CYLINDRICAL_SURFACE ( 'NONE', #194, 32.50000000000062528 ) ;
#80 = ORIENTED_EDGE ( 'NONE', *, *, #265, .F. ) ;
#81 = DIRECTION ( 'NONE',  ( 1.000000000000000000, 0.000000000000000000, 0.000000000000000000 ) ) ;
#82 = ADVANCED_FACE ( 'NONE', ( #13 ), #256, .F. ) ;
#83 =( GEOMETRIC_REPRESENTATION_CONTEXT ( 3 ) GLOBAL_UNCERTAINTY_ASSIGNED_CONTEXT ( ( #97 ) ) GLOBAL_UNIT_ASSIGNED_CONTEXT ( ( #283, #215, #261 ) ) REPRESENTATION_CONTEXT ( 'NONE', 'WORKASPACE' ) );
#84 = CARTESIAN_POINT ( 'NONE',  ( 0.05000000000000000278, -5.556741685341795467, -31.51384809639065310 ) ) ;
#85 = DIRECTION ( 'NONE',  ( -0.000000000000000000, 0.7919677425790850878, 0.6105629326401889045 ) ) ;
#86 = DIRECTION ( 'NONE',  ( 0.000000000000000000, 0.000000000000000000, -1.000000000000000000 ) ) ;
#87 = CARTESIAN_POINT ( 'NONE',  ( 0.05000000000000000278, 5.556741685341803461, -31.51384809639065310 ) ) ;
#88 = EDGE_CURVE ( 'NONE', #260, #46, #278, .T. ) ;
#89 = STYLED_ITEM ( 'NONE', ( #133 ), #238 ) ;
#90 = ORIENTED_EDGE ( 'NONE', *, *, #295, .T. ) ;
#91 = LINE ( 'NONE', #312, #65 ) ;
#92 = EDGE_CURVE ( 'NONE', #185, #221, #302, .T. ) ;
#93 = ORIENTED_EDGE ( 'NONE', *, *, #76, .T. ) ;
#94 = VECTOR ( 'NONE', #179, 39.37007874015748143 ) ;
#95 = CARTESIAN_POINT ( 'NONE',  ( 0.05000000000000000278, 1.990051048614449313E-15, -32.10000000000000142 ) ) ;
#96 = PLANE ( 'NONE',  #225 ) ;
#97 = UNCERTAINTY_MEASURE_WITH_UNIT (LENGTH_MEASURE( 1.000000000000000082E-05 ), #283, 'distance_accuracy_value', 'NONE');
#98 = LINE ( 'NONE', #203, #257 ) ;
#99 = ADVANCED_FACE ( 'NONE', ( #100 ), #201, .F. ) ;
#100 = FACE_OUTER_BOUND ( 'NONE', #208, .T. ) ;
#101 = CIRCLE ( 'NONE', #26, 32.00000000000033396 ) ;
#102 = DIRECTION ( 'NONE',  ( 0.000000000000000000, 0.1564344650402332282, -0.9876883405951373263 ) ) ;
#103 = CARTESIAN_POINT ( 'NONE',  ( 0.05000000000000000278, 5.084120113807519381, -32.09987106934197243 ) ) ;
#104 = ORIENTED_EDGE ( 'NONE', *, *, #223, .F. ) ;
#105 = CARTESIAN_POINT ( 'NONE',  ( -0.05000000000000000278, 2.008420750601659743E-15, -32.39999999999999858 ) ) ;
#106 = CIRCLE ( 'NONE', #275, 32.50000000000062528 ) ;
#107 = CARTESIAN_POINT ( 'NONE',  ( 0.05000000000000000278, 1.990051048614449313E-15, -32.10000000000000142 ) ) ;
#108 = ORIENTED_EDGE ( 'NONE', *, *, #47, .F. ) ;
#109 = EDGE_CURVE ( 'NONE', #293, #120, #98, .T. ) ;
#110 = DIRECTION ( 'NONE',  ( -1.000000000000000000, -0.000000000000000000, -0.000000000000000000 ) ) ;
#111 = EDGE_LOOP ( 'NONE', ( #318, #311, #118, #232, #240, #262 ) ) ;
#112 = CARTESIAN_POINT ( 'NONE',  ( -0.05000000000000000278, 1.990051048614449313E-15, -32.10000000000000142 ) ) ;
#113 = VECTOR ( 'NONE', #149, 39.37007874015748143 ) ;
#114 = CYLINDRICAL_SURFACE ( 'NONE', #165, 0.1499999999999992173 ) ;
#115 = VERTEX_POINT ( 'NONE', #320 ) ;
#116 = ORIENTED_EDGE ( 'NONE', *, *, #183, .F. ) ;
#117 = VECTOR ( 'NONE', #5, 39.37007874015748854 ) ;
#118 = ORIENTED_EDGE ( 'NONE', *, *, #270, .F. ) ;
#119 = CARTESIAN_POINT ( 'NONE',  ( -0.05000000000000000278, 4.370956789862821150E-15, 6.294177777402462960E-13 ) ) ;
#120 = VERTEX_POINT ( 'NONE', #202 ) ;
#121 = CARTESIAN_POINT ( 'NONE',  ( 0.05000000000000000278, 5.588028578349850228, -31.71138576450967861 ) ) ;
#122 = AXIS2_PLACEMENT_3D ( 'NONE', #246, #199, #290 ) ;
#123 = DIRECTION ( 'NONE',  ( 0.000000000000000000, 0.7919677425790850878, -0.6105629326401889045 ) ) ;
#124 = DIRECTION ( 'NONE',  ( 0.000000000000000000, 0.000000000000000000, 1.000000000000000000 ) ) ;
#125 = EDGE_CURVE ( 'NONE', #285, #115, #277, .T. ) ;
#126 = DIRECTION ( 'NONE',  ( 1.000000000000000000, 0.000000000000000000, 0.000000000000000000 ) ) ;
#127 = CARTESIAN_POINT ( 'NONE',  ( 0.05000000000000000278, 5.588028578349850228, -31.71138576450967861 ) ) ;
#128 = CLOSED_SHELL ( 'NONE', ( #99, #66, #326, #333, #15, #323, #82, #159, #310, #20 ) ) ;
#129 = EDGE_LOOP ( 'NONE', ( #196, #164, #272, #53, #235, #319 ) ) ;
#130 = VERTEX_POINT ( 'NONE', #230 ) ;
#131 = LINE ( 'NONE', #337, #136 ) ;
#132 = ORIENTED_EDGE ( 'NONE', *, *, #219, .F. ) ;
#133 = PRESENTATION_STYLE_ASSIGNMENT (( #23 ) ) ;
#134 = ORIENTED_EDGE ( 'NONE', *, *, #92, .T. ) ;
#135 = ORIENTED_EDGE ( 'NONE', *, *, #31, .T. ) ;
#136 = VECTOR ( 'NONE', #178, 39.37007874015748143 ) ;
#137 = APPLICATION_CONTEXT ( 'automotive_design' ) ;
#138 = AXIS2_PLACEMENT_3D ( 'NONE', #195, #188, #141 ) ;
#139 = EDGE_CURVE ( 'NONE', #130, #49, #298, .T. ) ;
#140 = CARTESIAN_POINT ( 'NONE',  ( -0.05000000000000000278, -5.588028578349841347, -31.71138576450967861 ) ) ;
#141 = DIRECTION ( 'NONE',  ( 1.000000000000000000, 0.000000000000000000, 0.000000000000000000 ) ) ;
#142 = EDGE_LOOP ( 'NONE', ( #78, #296, #335, #63 ) ) ;
#143 = ORIENTED_EDGE ( 'NONE', *, *, #92, .F. ) ;
#144 = EDGE_CURVE ( 'NONE', #286, #285, #101, .T. ) ;
#145 = EDGE_LOOP ( 'NONE', ( #90, #155 ) ) ;
#146 = DIRECTION ( 'NONE',  ( 0.000000000000000000, 0.000000000000000000, -1.000000000000000000 ) ) ;
#147 = DIRECTION ( 'NONE',  ( 1.000000000000000000, 0.000000000000000000, 0.000000000000000000 ) ) ;
#148 = PRESENTATION_LAYER_ASSIGNMENT (  '', '', ( #89 ) ) ;
#149 = DIRECTION ( 'NONE',  ( 0.000000000000000000, -0.1564344650402332282, -0.9876883405951373263 ) ) ;
#150 = CARTESIAN_POINT ( 'NONE',  ( 0.05000000000000000278, 5.084120113807519381, -32.09987106934197243 ) ) ;
#151 = FACE_OUTER_BOUND ( 'NONE', #129, .T. ) ;
#152 = EDGE_CURVE ( 'NONE', #213, #49, #173, .T. ) ;
#153 = VECTOR ( 'NONE', #324, 39.37007874015748143 ) ;
#154 = CARTESIAN_POINT ( 'NONE',  ( -0.05000000000000000278, 5.556741685341803461, -31.51384809639065310 ) ) ;
#155 = ORIENTED_EDGE ( 'NONE', *, *, #183, .T. ) ;
#156 = CYLINDRICAL_SURFACE ( 'NONE', #38, 32.00000000000033396 ) ;
#157 = ORIENTED_EDGE ( 'NONE', *, *, #47, .T. ) ;
#158 = DIRECTION ( 'NONE',  ( 0.000000000000000000, 0.000000000000000000, 1.000000000000000000 ) ) ;
#159 = ADVANCED_FACE ( 'NONE', ( #327 ), #96, .F. ) ;
#160 = VECTOR ( 'NONE', #254, 39.37007874015748143 ) ;
#161 = CARTESIAN_POINT ( 'NONE',  ( 0.05000000000000000278, 2.008420750601659743E-15, -32.39999999999999858 ) ) ;
#162 = ORIENTED_EDGE ( 'NONE', *, *, #88, .F. ) ;
#163 = SHAPE_DEFINITION_REPRESENTATION ( #9, #247 ) ;
#164 = ORIENTED_EDGE ( 'NONE', *, *, #54, .T. ) ;
#165 = AXIS2_PLACEMENT_3D ( 'NONE', #6, #216, #62 ) ;
#166 = FACE_OUTER_BOUND ( 'NONE', #28, .T. ) ;
#167 = PLANE ( 'NONE',  #122 ) ;
#168 = CARTESIAN_POINT ( 'NONE',  ( 0.05000000000000000278, -5.588028578349841347, -31.71138576450967861 ) ) ;
#169 = DIRECTION ( 'NONE',  ( 0.000000000000000000, 0.1564344650402332282, 0.9876883405951373263 ) ) ;
#170 = ORIENTED_EDGE ( 'NONE', *, *, #198, .F. ) ;
#171 = AXIS2_PLACEMENT_3D ( 'NONE', #300, #282, #72 ) ;
#172 = DIRECTION ( 'NONE',  ( 0.000000000000000000, 0.000000000000000000, -1.000000000000000000 ) ) ;
#173 = LINE ( 'NONE', #150, #160 ) ;
#174 = DIRECTION ( 'NONE',  ( -1.000000000000000000, -0.000000000000000000, -0.000000000000000000 ) ) ;
#175 = VECTOR ( 'NONE', #291, 39.37007874015748143 ) ;
#176 = CARTESIAN_POINT ( 'NONE',  ( -0.05000000000000000278, -5.556741685341795467, -31.51384809639065310 ) ) ;
#177 = CARTESIAN_POINT ( 'NONE',  ( 0.05000000000000000278, -5.588028578349841347, -31.71138576450967861 ) ) ;
#178 = DIRECTION ( 'NONE',  ( -1.000000000000000000, -0.000000000000000000, -0.000000000000000000 ) ) ;
#179 = DIRECTION ( 'NONE',  ( -0.000000000000000000, -0.1564344650402332282, 0.9876883405951373263 ) ) ;
#180 = CIRCLE ( 'NONE', #193, 0.1499999999999992173 ) ;
#181 = SURFACE_STYLE_FILL_AREA ( #239 ) ;
#182 = ORIENTED_EDGE ( 'NONE', *, *, #189, .F. ) ;
#183 = EDGE_CURVE ( 'NONE', #297, #267, #44, .T. ) ;
#184 = CARTESIAN_POINT ( 'NONE',  ( 0.05000000000000000278, -5.556741685341798132, -31.51384809639065310 ) ) ;
#185 = VERTEX_POINT ( 'NONE', #95 ) ;
#186 = LINE ( 'NONE', #258, #288 ) ;
#187 = EDGE_LOOP ( 'NONE', ( #33, #108, #170, #315 ) ) ;
#188 = DIRECTION ( 'NONE',  ( 0.000000000000000000, 0.000000000000000000, 1.000000000000000000 ) ) ;
#189 = EDGE_CURVE ( 'NONE', #221, #185, #252, .T. ) ;
#190 = ORIENTED_EDGE ( 'NONE', *, *, #316, .T. ) ;
#191 = APPLICATION_PROTOCOL_DEFINITION ( 'draft international standard', 'automotive_design', 1998, #137 ) ;
#192 = CARTESIAN_POINT ( 'NONE',  ( 0.05000000000000000278, -5.556741685341798132, -31.51384809639065310 ) ) ;
#193 = AXIS2_PLACEMENT_3D ( 'NONE', #330, #81, #334 ) ;
#194 = AXIS2_PLACEMENT_3D ( 'NONE', #287, #50, #158 ) ;
#195 = CARTESIAN_POINT ( 'NONE',  ( 0.000000000000000000, 0.000000000000000000, 0.000000000000000000 ) ) ;
#196 = ORIENTED_EDGE ( 'NONE', *, *, #88, .T. ) ;
#197 = PLANE ( 'NONE',  #71 ) ;
#198 = EDGE_CURVE ( 'NONE', #30, #260, #2, .T. ) ;
#199 = DIRECTION ( 'NONE',  ( -0.000000000000000000, 0.6105629326401890156, 0.7919677425790851988 ) ) ;
#200 = EDGE_LOOP ( 'NONE', ( #135, #104, #74, #93 ) ) ;
#201 = CYLINDRICAL_SURFACE ( 'NONE', #306, 0.1499999999999992173 ) ;
#202 = CARTESIAN_POINT ( 'NONE',  ( -0.05000000000000000278, 5.588028578349850228, -31.71138576450967861 ) ) ;
#203 = CARTESIAN_POINT ( 'NONE',  ( 0.05000000000000000278, 5.588028578349850228, -31.71138576450967861 ) ) ;
#204 = EDGE_CURVE ( 'NONE', #213, #293, #299, .T. ) ;
#205 = DIRECTION ( 'NONE',  ( -1.000000000000000000, -0.000000000000000000, -0.000000000000000000 ) ) ;
#206 = CARTESIAN_POINT ( 'NONE',  ( -0.05000000000000000278, 1.990051048614449313E-15, -32.25000000000000000 ) ) ;
#207 =( LENGTH_UNIT ( ) NAMED_UNIT ( * ) SI_UNIT ( $, .METRE. ) );
#208 = EDGE_LOOP ( 'NONE', ( #134, #55, #29, #242 ) ) ;
#209 = CARTESIAN_POINT ( 'NONE',  ( 0.05000000000000000278, -5.084120113807505170, -32.09987106934197953 ) ) ;
#210 = AXIS2_PLACEMENT_3D ( 'NONE', #224, #126, #35 ) ;
#211 = DIRECTION ( 'NONE',  ( -1.000000000000000000, -0.000000000000000000, -0.000000000000000000 ) ) ;
#212 = ORIENTED_EDGE ( 'NONE', *, *, #189, .T. ) ;
#213 = VERTEX_POINT ( 'NONE', #103 ) ;
#214 = DIMENSIONAL_EXPONENTS ( 1.000000000000000000, 0.000000000000000000, 0.000000000000000000, 0.000000000000000000, 0.000000000000000000, 0.000000000000000000, 0.000000000000000000 ) ;
#215 =( NAMED_UNIT ( * ) PLANE_ANGLE_UNIT ( ) SI_UNIT ( $, .RADIAN. ) );
#216 = DIRECTION ( 'NONE',  ( -1.000000000000000000, -0.000000000000000000, -0.000000000000000000 ) ) ;
#217 = DIRECTION ( 'NONE',  ( 1.000000000000000000, 0.000000000000000000, 0.000000000000000000 ) ) ;
#218 = LINE ( 'NONE', #192, #175 ) ;
#219 = EDGE_CURVE ( 'NONE', #221, #297, #52, .T. ) ;
#220 = AXIS2_PLACEMENT_3D ( 'NONE', #119, #217, #86 ) ;
#221 = VERTEX_POINT ( 'NONE', #231 ) ;
#222 = EDGE_LOOP ( 'NONE', ( #273, #264, #289, #332 ) ) ;
#223 = EDGE_CURVE ( 'NONE', #305, #130, #131, .T. ) ;
#224 = CARTESIAN_POINT ( 'NONE',  ( -0.05000000000000000278, 4.370956789862821150E-15, 6.294177777402462960E-13 ) ) ;
#225 = AXIS2_PLACEMENT_3D ( 'NONE', #228, #325, #102 ) ;
#226 = CARTESIAN_POINT ( 'NONE',  ( 0.05000000000000000278, -5.556741685341795467, -31.51384809639065310 ) ) ;
#227 = CARTESIAN_POINT ( 'NONE',  ( 0.05000000000000000278, -5.588028578349841347, -31.71138576450967861 ) ) ;
#228 = CARTESIAN_POINT ( 'NONE',  ( 0.05000000000000000278, 5.556741685341803461, -31.51384809639065310 ) ) ;
#229 = MECHANICAL_DESIGN_GEOMETRIC_PRESENTATION_REPRESENTATION (  '', ( #89 ), #83 ) ;
#230 = CARTESIAN_POINT ( 'NONE',  ( -0.05000000000000000278, -5.084120113807505170, -32.09987106934197953 ) ) ;
#231 = CARTESIAN_POINT ( 'NONE',  ( 0.05000000000000000278, 2.008420750601659743E-15, -32.39999999999999858 ) ) ;
#232 = ORIENTED_EDGE ( 'NONE', *, *, #24, .F. ) ;
#233 = CARTESIAN_POINT ( 'NONE',  ( 0.05000000000000000278, 5.588028578349850228, -31.71138576450967861 ) ) ;
#234 = EDGE_CURVE ( 'NONE', #305, #213, #106, .T. ) ;
#235 = ORIENTED_EDGE ( 'NONE', *, *, #265, .T. ) ;
#236 = DIRECTION ( 'NONE',  ( 0.000000000000000000, 0.000000000000000000, -1.000000000000000000 ) ) ;
#237 = VECTOR ( 'NONE', #174, 39.37007874015748143 ) ;
#238 = MANIFOLD_SOLID_BREP ( 'Boss-Extrude1', #128 ) ;
#239 = FILL_AREA_STYLE ('',( #17 ) ) ;
#240 = ORIENTED_EDGE ( 'NONE', *, *, #139, .F. ) ;
#241 =( NAMED_UNIT ( * ) SI_UNIT ( $, .STERADIAN. ) SOLID_ANGLE_UNIT ( ) );
#242 = ORIENTED_EDGE ( 'NONE', *, *, #316, .F. ) ;
#243 = AXIS2_PLACEMENT_3D ( 'NONE', #276, #147, #146 ) ;
#244 = PRODUCT_CONTEXT ( 'NONE', #32, 'mechanical' ) ;
#245 = DIRECTION ( 'NONE',  ( -1.000000000000000000, -0.000000000000000000, -0.000000000000000000 ) ) ;
#246 = CARTESIAN_POINT ( 'NONE',  ( 0.05000000000000000278, -5.588028578349841347, -31.71138576450967861 ) ) ;
#247 = ADVANCED_BREP_SHAPE_REPRESENTATION ( 'oscilating-arms', ( #238, #138 ), #39 ) ;
#248 = ORIENTED_EDGE ( 'NONE', *, *, #76, .F. ) ;
#249 = VECTOR ( 'NONE', #67, 39.37007874015748854 ) ;
#250 = CARTESIAN_POINT ( 'NONE',  ( 0.05000000000000000278, 4.370956789862821150E-15, 3.409346296093000686E-13 ) ) ;
#251 = DIRECTION ( 'NONE',  ( -1.000000000000000000, -0.000000000000000000, -0.000000000000000000 ) ) ;
#252 = CIRCLE ( 'NONE', #243, 0.1499999999999992173 ) ;
#253 = LINE ( 'NONE', #177, #70 ) ;
#254 = DIRECTION ( 'NONE',  ( -1.000000000000000000, -0.000000000000000000, -0.000000000000000000 ) ) ;
#255 = PRODUCT_RELATED_PRODUCT_CATEGORY ( 'part', '', ( #294 ) ) ;
#256 = PLANE ( 'NONE',  #321 ) ;
#257 = VECTOR ( 'NONE', #14, 39.37007874015748143 ) ;
#258 = CARTESIAN_POINT ( 'NONE',  ( -0.05000000000000000278, 5.556741685341803461, -31.51384809639065310 ) ) ;
#259 = DIRECTION ( 'NONE',  ( -0.000000000000000000, -0.1564344650402332282, 0.9876883405951373263 ) ) ;
#260 = VERTEX_POINT ( 'NONE', #184 ) ;
#261 =( NAMED_UNIT ( * ) SI_UNIT ( $, .STERADIAN. ) SOLID_ANGLE_UNIT ( ) );
#262 = ORIENTED_EDGE ( 'NONE', *, *, #31, .F. ) ;
#263 = FACE_OUTER_BOUND ( 'NONE', #111, .T. ) ;
#264 = ORIENTED_EDGE ( 'NONE', *, *, #109, .F. ) ;
#265 = EDGE_CURVE ( 'NONE', #293, #30, #73, .T. ) ;
#266 = CARTESIAN_POINT ( 'NONE',  ( 0.05000000000000000278, 4.370956789862821150E-15, 6.294177777402462960E-13 ) ) ;
#267 = VERTEX_POINT ( 'NONE', #112 ) ;
#268 = LINE ( 'NONE', #140, #117 ) ;
#269 = DIRECTION ( 'NONE',  ( 0.000000000000000000, 0.9876883405951373263, -0.1564344650402332282 ) ) ;
#270 = EDGE_CURVE ( 'NONE', #120, #286, #186, .T. ) ;
#271 = CARTESIAN_POINT ( 'NONE',  ( -0.05000000000000000278, 5.084120113807519381, -32.09987106934197243 ) ) ;
#272 = ORIENTED_EDGE ( 'NONE', *, *, #234, .T. ) ;
#273 = ORIENTED_EDGE ( 'NONE', *, *, #24, .T. ) ;
#274 = UNCERTAINTY_MEASURE_WITH_UNIT (LENGTH_MEASURE( 1.000000000000000082E-05 ), #56, 'distance_accuracy_value', 'NONE');
#275 = AXIS2_PLACEMENT_3D ( 'NONE', #266, #43, #236 ) ;
#276 = CARTESIAN_POINT ( 'NONE',  ( 0.05000000000000000278, 1.990051048614449313E-15, -32.25000000000000000 ) ) ;
#277 = LINE ( 'NONE', #176, #113 ) ;
#278 = LINE ( 'NONE', #226, #153 ) ;
#279 = VECTOR ( 'NONE', #211, 39.37007874015748143 ) ;
#280 = CARTESIAN_POINT ( 'NONE',  ( -0.05000000000000000278, 4.370956789862821150E-15, 3.409346296093000686E-13 ) ) ;
#281 = PRODUCT_DEFINITION_CONTEXT ( 'detailed design', #137, 'design' ) ;
#282 = DIRECTION ( 'NONE',  ( 1.000000000000000000, 0.000000000000000000, 0.000000000000000000 ) ) ;
#283 =( CONVERSION_BASED_UNIT ( 'INCH', #284 ) LENGTH_UNIT ( ) NAMED_UNIT ( #214 ) );
#284 = LENGTH_MEASURE_WITH_UNIT ( LENGTH_MEASURE( 0.02539999999999999897 ), #207 );
#285 = VERTEX_POINT ( 'NONE', #45 ) ;
#286 = VERTEX_POINT ( 'NONE', #154 ) ;
#287 = CARTESIAN_POINT ( 'NONE',  ( 0.05000000000000000278, 4.370956789862821150E-15, 6.294177777402462960E-13 ) ) ;
#288 = VECTOR ( 'NONE', #259, 39.37007874015748143 ) ;
#289 = ORIENTED_EDGE ( 'NONE', *, *, #204, .F. ) ;
#290 = DIRECTION ( 'NONE',  ( 0.000000000000000000, -0.7919677425790850878, 0.6105629326401889045 ) ) ;
#291 = DIRECTION ( 'NONE',  ( -1.000000000000000000, -0.000000000000000000, -0.000000000000000000 ) ) ;
#292 = COLOUR_RGB ( '',0.7921568627450980005, 0.8196078431372548767, 0.9333333333333333481 ) ;
#293 = VERTEX_POINT ( 'NONE', #233 ) ;
#294 = PRODUCT ( 'oscilating-arms', 'oscilating-arms', '', ( #244 ) ) ;
#295 = EDGE_CURVE ( 'NONE', #267, #297, #180, .T. ) ;
#296 = ORIENTED_EDGE ( 'NONE', *, *, #152, .F. ) ;
#297 = VERTEX_POINT ( 'NONE', #105 ) ;
#298 = CIRCLE ( 'NONE', #210, 32.50000000000062528 ) ;
#299 = LINE ( 'NONE', #121, #249 ) ;
#300 = CARTESIAN_POINT ( 'NONE',  ( 0.05000000000000000278, 4.370956789862821150E-15, 6.294177777402462960E-13 ) ) ;
#301 = CARTESIAN_POINT ( 'NONE',  ( 0.05000000000000000278, 1.990051048614449313E-15, -32.25000000000000000 ) ) ;
#302 = CIRCLE ( 'NONE', #51, 0.1499999999999992173 ) ;
#303 = DIRECTION ( 'NONE',  ( 0.000000000000000000, -0.6105629326401890156, 0.7919677425790851988 ) ) ;
#304 = DIRECTION ( 'NONE',  ( 1.000000000000000000, 0.000000000000000000, 0.000000000000000000 ) ) ;
#305 = VERTEX_POINT ( 'NONE', #209 ) ;
#306 = AXIS2_PLACEMENT_3D ( 'NONE', #301, #205, #124 ) ;
#307 = FACE_OUTER_BOUND ( 'NONE', #187, .T. ) ;
#308 = FACE_OUTER_BOUND ( 'NONE', #142, .T. ) ;
#309 = EDGE_LOOP ( 'NONE', ( #143, #182 ) ) ;
#310 = ADVANCED_FACE ( 'NONE', ( #307 ), #156, .F. ) ;
#311 = ORIENTED_EDGE ( 'NONE', *, *, #144, .F. ) ;
#312 = CARTESIAN_POINT ( 'NONE',  ( -0.05000000000000000278, 5.588028578349850228, -31.71138576450967861 ) ) ;
#313 =( NAMED_UNIT ( * ) PLANE_ANGLE_UNIT ( ) SI_UNIT ( $, .RADIAN. ) );
#314 = LINE ( 'NONE', #87, #34 ) ;
#315 = ORIENTED_EDGE ( 'NONE', *, *, #41, .T. ) ;
#316 = EDGE_CURVE ( 'NONE', #185, #267, #19, .T. ) ;
#317 =( LENGTH_UNIT ( ) NAMED_UNIT ( * ) SI_UNIT ( $, .METRE. ) );
#318 = ORIENTED_EDGE ( 'NONE', *, *, #125, .F. ) ;
#319 = ORIENTED_EDGE ( 'NONE', *, *, #198, .T. ) ;
#320 = CARTESIAN_POINT ( 'NONE',  ( -0.05000000000000000278, -5.588028578349841347, -31.71138576450967861 ) ) ;
#321 = AXIS2_PLACEMENT_3D ( 'NONE', #127, #303, #42 ) ;
#322 = FACE_BOUND ( 'NONE', #309, .T. ) ;
#323 = ADVANCED_FACE ( 'NONE', ( #308 ), #79, .T. ) ;
#324 = DIRECTION ( 'NONE',  ( 0.000000000000000000, -0.1564344650402332282, -0.9876883405951373263 ) ) ;
#325 = DIRECTION ( 'NONE',  ( 0.000000000000000000, -0.9876883405951373263, -0.1564344650402332282 ) ) ;
#326 = ADVANCED_FACE ( 'NONE', ( #263, #22 ), #61, .F. ) ;
#327 = FACE_OUTER_BOUND ( 'NONE', #21, .T. ) ;
#328 = DIRECTION ( 'NONE',  ( -1.000000000000000000, -0.000000000000000000, -0.000000000000000000 ) ) ;
#329 = ORIENTED_EDGE ( 'NONE', *, *, #109, .T. ) ;
#330 = CARTESIAN_POINT ( 'NONE',  ( -0.05000000000000000278, 1.990051048614449313E-15, -32.25000000000000000 ) ) ;
#331 = CARTESIAN_POINT ( 'NONE',  ( 0.05000000000000000278, 4.370956789862821150E-15, 3.409346296093000686E-13 ) ) ;
#332 = ORIENTED_EDGE ( 'NONE', *, *, #152, .T. ) ;
#333 = ADVANCED_FACE ( 'NONE', ( #166 ), #197, .F. ) ;
#334 = DIRECTION ( 'NONE',  ( 0.000000000000000000, 0.000000000000000000, -1.000000000000000000 ) ) ;
#335 = ORIENTED_EDGE ( 'NONE', *, *, #234, .F. ) ;
#336 = DIMENSIONAL_EXPONENTS ( 1.000000000000000000, 0.000000000000000000, 0.000000000000000000, 0.000000000000000000, 0.000000000000000000, 0.000000000000000000, 0.000000000000000000 ) ;
#337 = CARTESIAN_POINT ( 'NONE',  ( 0.05000000000000000278, -5.084120113807505170, -32.09987106934197953 ) ) ;
ENDSEC;
END-ISO-10303-21;
