solid unnamed
facet normal 0 -1 0
    outer loop
        vertex -0.125 -0.125 32
        vertex -0.125 -0.125 0
        vertex 0.125 -0.125 32
    endloop
endfacet
facet normal 0 -1 -0
    outer loop
        vertex 0.125 -0.125 32
        vertex -0.125 -0.125 0
        vertex 0.125 -0.125 0
    endloop
endfacet
facet normal 1 -0 0
    outer loop
        vertex 0.125 -0.125 32
        vertex 0.125 -0.125 0
        vertex 0.125 0.125 32
    endloop
endfacet
facet normal 1 0 0
    outer loop
        vertex 0.125 0.125 32
        vertex 0.125 -0.125 0
        vertex 0.125 0.125 0
    endloop
endfacet
facet normal 0 1 0
    outer loop
        vertex 0.125 0.125 32
        vertex 0.125 0.125 0
        vertex -0.125 0.125 32
    endloop
endfacet
facet normal 0 1 0
    outer loop
        vertex -0.125 0.125 32
        vertex 0.125 0.125 0
        vertex -0.125 0.125 0
    endloop
endfacet
facet normal -1 -0 -0
    outer loop
        vertex -0.125 0.125 32
        vertex -0.125 0.125 0
        vertex -0.125 -0.125 32
    endloop
endfacet
facet normal -1 0 0
    outer loop
        vertex -0.125 -0.125 32
        vertex -0.125 0.125 0
        vertex -0.125 -0.125 0
    endloop
endfacet
facet normal 0 0 -1
    outer loop
        vertex -0.125 0.125 0
        vertex 0.125 0.125 0
        vertex -0.125 -0.125 0
    endloop
endfacet
facet normal 0 -0 -1
    outer loop
        vertex 0.125 0.125 0
        vertex 0.125 -0.125 0
        vertex -0.125 -0.125 0
    endloop
endfacet
facet normal -0 0 1
    outer loop
        vertex -0.125 0.125 32
        vertex -0.125 -0.125 32
        vertex 0.125 0.125 32
    endloop
endfacet
facet normal 0 0 1
    outer loop
        vertex 0.125 0.125 32
        vertex -0.125 -0.125 32
        vertex 0.125 -0.125 32
    endloop
endfacet
facet normal 0 -1 0
    outer loop
        vertex 0.0625 -0.125 -0.09375
        vertex 0.0625 -0.125 0
        vertex -0.0625 -0.125 -0.09375
    endloop
endfacet
facet normal 0 -1 0
    outer loop
        vertex -0.0625 -0.125 -0.09375
        vertex 0.0625 -0.125 0
        vertex -0.0625 -0.125 0
    endloop
endfacet
facet normal -1 0 0
    outer loop
        vertex -0.0625 -0.125 -0.09375
        vertex -0.0625 -0.125 0
        vertex -0.0625 0.125 -0.09375
    endloop
endfacet
facet normal -1 0 0
    outer loop
        vertex -0.0625 0.125 -0.09375
        vertex -0.0625 -0.125 0
        vertex -0.0625 0.125 0
    endloop
endfacet
facet normal 0 1 0
    outer loop
        vertex -0.0625 0.125 -0.09375
        vertex -0.0625 0.125 0
        vertex 0.0625 0.125 -0.09375
    endloop
endfacet
facet normal 0 1 -0
    outer loop
        vertex 0.0625 0.125 -0.09375
        vertex -0.0625 0.125 0
        vertex 0.0625 0.125 0
    endloop
endfacet
facet normal 1 0 -0
    outer loop
        vertex 0.0625 0.125 -0.09375
        vertex 0.0625 0.125 0
        vertex 0.0625 -0.125 -0.09375
    endloop
endfacet
facet normal 1 0 0
    outer loop
        vertex 0.0625 -0.125 -0.09375
        vertex 0.0625 0.125 0
        vertex 0.0625 -0.125 0
    endloop
endfacet
facet normal 0 0 1
    outer loop
        vertex 0.0625 0.125 0
        vertex -0.0625 0.125 0
        vertex 0.0625 -0.125 0
    endloop
endfacet
facet normal 0 0 1
    outer loop
        vertex -0.0625 0.125 0
        vertex -0.0625 -0.125 0
        vertex 0.0625 -0.125 0
    endloop
endfacet
facet normal -0 -0 -1
    outer loop
        vertex 0.0625 0.125 -0.09375
        vertex 0.0625 -0.125 -0.09375
        vertex -0.0625 0.125 -0.09375
    endloop
endfacet
facet normal 0 0 -1
    outer loop
        vertex -0.0625 0.125 -0.09375
        vertex 0.0625 -0.125 -0.09375
        vertex -0.0625 -0.125 -0.09375
    endloop
endfacet
facet normal 0 -1 0
    outer loop
        vertex -0.0625 -0.125 32
        vertex -0.0625 -0.125 31.499962
        vertex 0.0625 -0.125 32
    endloop
endfacet
facet normal 0 -1 -0
    outer loop
        vertex 0.0625 -0.125 32
        vertex -0.0625 -0.125 31.499962
        vertex 0.0625 -0.125 31.499962
    endloop
endfacet
facet normal 1 -0 0
    outer loop
        vertex 0.0625 -0.125 32
        vertex 0.0625 -0.125 31.499962
        vertex 0.0625 0.125 32
    endloop
endfacet
facet normal 1 0 0
    outer loop
        vertex 0.0625 0.125 32
        vertex 0.0625 -0.125 31.499962
        vertex 0.0625 0.125 31.499962
    endloop
endfacet
facet normal 0 1 0
    outer loop
        vertex 0.0625 0.125 32
        vertex 0.0625 0.125 31.499962
        vertex -0.0625 0.125 32
    endloop
endfacet
facet normal 0 1 0
    outer loop
        vertex -0.0625 0.125 32
        vertex 0.0625 0.125 31.499962
        vertex -0.0625 0.125 31.499962
    endloop
endfacet
facet normal -1 -0 -0
    outer loop
        vertex -0.0625 0.125 32
        vertex -0.0625 0.125 31.499962
        vertex -0.0625 -0.125 32
    endloop
endfacet
facet normal -1 0 0
    outer loop
        vertex -0.0625 -0.125 32
        vertex -0.0625 0.125 31.499962
        vertex -0.0625 -0.125 31.499962
    endloop
endfacet
facet normal 0 0 -1
    outer loop
        vertex -0.0625 0.125 31.499962
        vertex 0.0625 0.125 31.499962
        vertex -0.0625 -0.125 31.499962
    endloop
endfacet
facet normal 0 -0 -1
    outer loop
        vertex 0.0625 0.125 31.499962
        vertex 0.0625 -0.125 31.499962
        vertex -0.0625 -0.125 31.499962
    endloop
endfacet
facet normal -0 0 1
    outer loop
        vertex -0.0625 0.125 32
        vertex -0.0625 -0.125 32
        vertex 0.0625 0.125 32
    endloop
endfacet
facet normal 0 0 1
    outer loop
        vertex 0.0625 0.125 32
        vertex -0.0625 -0.125 32
        vertex 0.0625 -0.125 32
    endloop
endfacet
endsolid unnamed
