solid unnamed
facet normal 0 0 -1
    outer loop
        vertex 0 -0.25 0
        vertex 0 -0 0
        vertex 0.0625 -0.25 0
    endloop
endfacet
facet normal 0 0 -1
    outer loop
        vertex 0.0625 -0.25 0
        vertex 0 -0 0
        vertex 0.0625 -0 0
    endloop
endfacet
facet normal 1 0 0
    outer loop
        vertex 0.0625 -0.25 0
        vertex 0.0625 -0 0
        vertex 0.0625 -0.25 0.09375
    endloop
endfacet
facet normal 1 -0 0
    outer loop
        vertex 0.0625 -0.25 0.09375
        vertex 0.0625 -0 0
        vertex 0.0625 -0 0.09375
    endloop
endfacet
facet normal 0 0 -1
    outer loop
        vertex 0.0625 -0.25 0.09375
        vertex 0.0625 -0 0.09375
        vertex 0.1875 -0.25 0.09375
    endloop
endfacet
facet normal 0 0 -1
    outer loop
        vertex 0.1875 -0.25 0.09375
        vertex 0.0625 -0 0.09375
        vertex 0.1875 -0 0.09375
    endloop
endfacet
facet normal -1 0 0
    outer loop
        vertex 0.1875 -0.25 0.09375
        vertex 0.1875 -0 0.09375
        vertex 0.1875 -0.25 0
    endloop
endfacet
facet normal -1 0 0
    outer loop
        vertex 0.1875 -0.25 0
        vertex 0.1875 -0 0.09375
        vertex 0.1875 -0 0
    endloop
endfacet
facet normal 0 0 -1
    outer loop
        vertex 0.1875 -0.25 0
        vertex 0.1875 -0 0
        vertex 0.25 -0.25 0
    endloop
endfacet
facet normal 0 0 -1
    outer loop
        vertex 0.25 -0.25 0
        vertex 0.1875 -0 0
        vertex 0.25 -0 0
    endloop
endfacet
facet normal 1 -0 0
    outer loop
        vertex 0.25 -0.25 30.000002
        vertex 0.25 -0 0
        vertex 0.25 -0.25 32
    endloop
endfacet
facet normal 1 0 0
    outer loop
        vertex 0.25 -0.25 32
        vertex 0.25 -0 0
        vertex 0.25 -0 8
    endloop
endfacet
facet normal 1 0 0
    outer loop
        vertex 0.25 -0.25 32
        vertex 0.25 -0 16
        vertex 0.25 -0 24
    endloop
endfacet
facet normal 1 0 0
    outer loop
        vertex 0.25 -0.25 32
        vertex 0.25 -0 8
        vertex 0.25 -0 16
    endloop
endfacet
facet normal 1 0 0
    outer loop
        vertex 0.25 -0.25 32
        vertex 0.25 -0 24
        vertex 0.25 -0 28
    endloop
endfacet
facet normal 1 0 0
    outer loop
        vertex 0.25 -0.25 32
        vertex 0.25 -0 28
        vertex 0.25 -0 30.000002
    endloop
endfacet
facet normal 1 -0 0
    outer loop
        vertex 0.25 -0.25 32
        vertex 0.25 -0 30.000002
        vertex 0.25 -0 32
    endloop
endfacet
facet normal 1 -0 0
    outer loop
        vertex 0.25 -0.25 8
        vertex 0.25 -0 0
        vertex 0.25 -0.25 16
    endloop
endfacet
facet normal 1 0 0
    outer loop
        vertex 0.25 -0.25 0
        vertex 0.25 -0 0
        vertex 0.25 -0.25 8
    endloop
endfacet
facet normal 1 -0 0
    outer loop
        vertex 0.25 -0.25 16
        vertex 0.25 -0 0
        vertex 0.25 -0.25 24
    endloop
endfacet
facet normal 1 -0 0
    outer loop
        vertex 0.25 -0.25 24
        vertex 0.25 -0 0
        vertex 0.25 -0.25 28
    endloop
endfacet
facet normal 1 -0 0
    outer loop
        vertex 0.25 -0.25 28
        vertex 0.25 -0 0
        vertex 0.25 -0.25 30.000002
    endloop
endfacet
facet normal 0 -0 1
    outer loop
        vertex 0.25 -0.25 32
        vertex 0.25 -0 32
        vertex 0.1875 -0.25 32
    endloop
endfacet
facet normal 0 0 1
    outer loop
        vertex 0.1875 -0.25 32
        vertex 0.25 -0 32
        vertex 0.1875 -0 32
    endloop
endfacet
facet normal -1 0 0
    outer loop
        vertex 0.1875 -0.25 32
        vertex 0.1875 -0 32
        vertex 0.1875 -0.25 31.500002
    endloop
endfacet
facet normal -1 0 0
    outer loop
        vertex 0.1875 -0.25 31.500002
        vertex 0.1875 -0 32
        vertex 0.1875 -0 31.500002
    endloop
endfacet
facet normal 0 -0 1
    outer loop
        vertex 0.1875 -0.25 31.500002
        vertex 0.1875 -0 31.500002
        vertex 0.0625 -0.25 31.500002
    endloop
endfacet
facet normal 0 0 1
    outer loop
        vertex 0.0625 -0.25 31.500002
        vertex 0.1875 -0 31.500002
        vertex 0.0625 -0 31.500002
    endloop
endfacet
facet normal 1 0 0
    outer loop
        vertex 0.0625 -0.25 31.500002
        vertex 0.0625 -0 31.500002
        vertex 0.0625 -0.25 32
    endloop
endfacet
facet normal 1 -0 0
    outer loop
        vertex 0.0625 -0.25 32
        vertex 0.0625 -0 31.500002
        vertex 0.0625 -0 32
    endloop
endfacet
facet normal 0 -0 1
    outer loop
        vertex 0.0625 -0.25 32
        vertex 0.0625 -0 32
        vertex -0.000000000000000017483829 -0.25 32
    endloop
endfacet
facet normal 0 0 1
    outer loop
        vertex -0.000000000000000017483829 -0.25 32
        vertex 0.0625 -0 32
        vertex -0.000000000000000017483829 -0 32
    endloop
endfacet
facet normal -1 0 -0
    outer loop
        vertex -0.000000000000000004370957 -0.25 8
        vertex -0.000000000000000017483829 -0 32
        vertex 0 -0.25 0
    endloop
endfacet
facet normal -1 0 -0
    outer loop
        vertex 0 -0.25 0
        vertex -0.000000000000000017483829 -0 32
        vertex -0.000000000000000016391088 -0 30.000002
    endloop
endfacet
facet normal -1 0 -0
    outer loop
        vertex 0 -0.25 0
        vertex -0.000000000000000008741914 -0 16
        vertex -0.000000000000000004370957 -0 8
    endloop
endfacet
facet normal -1 -0 -0
    outer loop
        vertex 0 -0.25 0
        vertex -0.000000000000000013112871 -0 24
        vertex -0.000000000000000008741914 -0 16
    endloop
endfacet
facet normal -1 0 -0
    outer loop
        vertex 0 -0.25 0
        vertex -0.00000000000000001529835 -0 28
        vertex -0.000000000000000013112871 -0 24
    endloop
endfacet
facet normal -1 -0 -0
    outer loop
        vertex 0 -0.25 0
        vertex -0.000000000000000016391088 -0 30.000002
        vertex -0.00000000000000001529835 -0 28
    endloop
endfacet
facet normal -1 0 -0
    outer loop
        vertex 0 -0.25 0
        vertex -0.000000000000000004370957 -0 8
        vertex 0 -0 0
    endloop
endfacet
facet normal -1 -0 -0
    outer loop
        vertex -0.000000000000000013112871 -0.25 24
        vertex -0.000000000000000017483829 -0 32
        vertex -0.000000000000000008741914 -0.25 16
    endloop
endfacet
facet normal -1 0 -0
    outer loop
        vertex -0.00000000000000001529835 -0.25 28
        vertex -0.000000000000000017483829 -0 32
        vertex -0.000000000000000013112871 -0.25 24
    endloop
endfacet
facet normal -1 -0 -0
    outer loop
        vertex -0.000000000000000016391088 -0.25 30.000002
        vertex -0.000000000000000017483829 -0 32
        vertex -0.00000000000000001529835 -0.25 28
    endloop
endfacet
facet normal -1 0 -0
    outer loop
        vertex -0.000000000000000017483829 -0.25 32
        vertex -0.000000000000000017483829 -0 32
        vertex -0.000000000000000016391088 -0.25 30.000002
    endloop
endfacet
facet normal -1 0 -0
    outer loop
        vertex -0.000000000000000008741914 -0.25 16
        vertex -0.000000000000000017483829 -0 32
        vertex -0.000000000000000004370957 -0.25 8
    endloop
endfacet
facet normal 0 1 -0
    outer loop
        vertex -0.000000000000000004370957 -0 8
        vertex -0.000000000000000008741914 -0 16
        vertex 0.25 -0 8
    endloop
endfacet
facet normal 0 1 -0
    outer loop
        vertex -0.000000000000000016391088 -0 30.000002
        vertex -0.000000000000000017483829 -0 32
        vertex 0.0625 -0 31.500002
    endloop
endfacet
facet normal -0 1 0
    outer loop
        vertex -0.00000000000000001529835 -0 28
        vertex 0.25 -0 28
        vertex -0.000000000000000013112871 -0 24
    endloop
endfacet
facet normal -0 1 0
    outer loop
        vertex -0.000000000000000013112871 -0 24
        vertex 0.25 -0 24
        vertex -0.000000000000000008741914 -0 16
    endloop
endfacet
facet normal 0 1 0
    outer loop
        vertex -0.000000000000000008741914 -0 16
        vertex 0.25 -0 24
        vertex 0.25 -0 16
    endloop
endfacet
facet normal -0 1 0
    outer loop
        vertex 0.0625 -0 31.500002
        vertex 0.1875 -0 31.500002
        vertex 0.25 -0 30.000002
    endloop
endfacet
facet normal 0 1 0
    outer loop
        vertex 0.25 -0 30.000002
        vertex -0.00000000000000001529835 -0 28
        vertex -0.000000000000000016391088 -0 30.000002
    endloop
endfacet
facet normal 0 1 0
    outer loop
        vertex 0.25 -0 8
        vertex 0.25 -0 0
        vertex 0.1875 -0 0.09375
    endloop
endfacet
facet normal 0 1 0
    outer loop
        vertex 0.25 -0 16
        vertex 0.25 -0 8
        vertex -0.000000000000000008741914 -0 16
    endloop
endfacet
facet normal -0 1 0
    outer loop
        vertex -0.000000000000000017483829 -0 32
        vertex 0.0625 -0 32
        vertex 0.0625 -0 31.500002
    endloop
endfacet
facet normal 0 1 0
    outer loop
        vertex 0.0625 -0 0.09375
        vertex 0 -0 0
        vertex -0.000000000000000004370957 -0 8
    endloop
endfacet
facet normal 0 1 0
    outer loop
        vertex 0.25 -0 8
        vertex 0.1875 -0 0.09375
        vertex 0.0625 -0 0.09375
    endloop
endfacet
facet normal 0 1 0
    outer loop
        vertex -0.00000000000000001529835 -0 28
        vertex 0.25 -0 30.000002
        vertex 0.25 -0 28
    endloop
endfacet
facet normal 0 1 0
    outer loop
        vertex 0.25 -0 32
        vertex 0.1875 -0 31.500002
        vertex 0.1875 -0 32
    endloop
endfacet
facet normal 0 1 0
    outer loop
        vertex 0.25 -0 0
        vertex 0.1875 -0 0
        vertex 0.1875 -0 0.09375
    endloop
endfacet
facet normal -0 1 0
    outer loop
        vertex 0.1875 -0 31.500002
        vertex 0.25 -0 32
        vertex 0.25 -0 30.000002
    endloop
endfacet
facet normal 0 1 0
    outer loop
        vertex -0.000000000000000016391088 -0 30.000002
        vertex 0.0625 -0 31.500002
        vertex 0.25 -0 30.000002
    endloop
endfacet
facet normal 0 1 -0
    outer loop
        vertex 0.25 -0 24
        vertex -0.000000000000000013112871 -0 24
        vertex 0.25 -0 28
    endloop
endfacet
facet normal -0 1 0
    outer loop
        vertex -0.000000000000000004370957 -0 8
        vertex 0.25 -0 8
        vertex 0.0625 -0 0.09375
    endloop
endfacet
facet normal 0 1 -0
    outer loop
        vertex 0.0625 -0 0
        vertex 0 -0 0
        vertex 0.0625 -0 0.09375
    endloop
endfacet
facet normal 0 -1 0
    outer loop
        vertex -0.000000000000000004370957 -0.25 8
        vertex 0.25 -0.25 8
        vertex -0.000000000000000008741914 -0.25 16
    endloop
endfacet
facet normal 0 -1 0
    outer loop
        vertex -0.000000000000000016391088 -0.25 30.000002
        vertex 0.0625 -0.25 31.500002
        vertex -0.000000000000000017483829 -0.25 32
    endloop
endfacet
facet normal 0 -1 0
    outer loop
        vertex -0.00000000000000001529835 -0.25 28
        vertex -0.000000000000000013112871 -0.25 24
        vertex 0.25 -0.25 28
    endloop
endfacet
facet normal 0 -1 0
    outer loop
        vertex -0.000000000000000013112871 -0.25 24
        vertex -0.000000000000000008741914 -0.25 16
        vertex 0.25 -0.25 24
    endloop
endfacet
facet normal 0 -1 0
    outer loop
        vertex -0.000000000000000008741914 -0.25 16
        vertex 0.25 -0.25 16
        vertex 0.25 -0.25 24
    endloop
endfacet
facet normal 0 -1 0
    outer loop
        vertex 0.0625 -0.25 31.500002
        vertex 0.25 -0.25 30.000002
        vertex 0.1875 -0.25 31.500002
    endloop
endfacet
facet normal -0 -1 0
    outer loop
        vertex 0.25 -0.25 30.000002
        vertex -0.000000000000000016391088 -0.25 30.000002
        vertex -0.00000000000000001529835 -0.25 28
    endloop
endfacet
facet normal 0 -1 -0
    outer loop
        vertex 0.25 -0.25 8
        vertex 0.1875 -0.25 0.09375
        vertex 0.25 -0.25 0
    endloop
endfacet
facet normal -0 -1 -0
    outer loop
        vertex 0.25 -0.25 16
        vertex -0.000000000000000008741914 -0.25 16
        vertex 0.25 -0.25 8
    endloop
endfacet
facet normal 0 -1 0
    outer loop
        vertex -0.000000000000000017483829 -0.25 32
        vertex 0.0625 -0.25 31.500002
        vertex 0.0625 -0.25 32
    endloop
endfacet
facet normal -0 -1 0
    outer loop
        vertex 0.0625 -0.25 0.09375
        vertex -0.000000000000000004370957 -0.25 8
        vertex 0 -0.25 0
    endloop
endfacet
facet normal 0 -1 0
    outer loop
        vertex 0.25 -0.25 8
        vertex 0.0625 -0.25 0.09375
        vertex 0.1875 -0.25 0.09375
    endloop
endfacet
facet normal 0 -1 0
    outer loop
        vertex -0.00000000000000001529835 -0.25 28
        vertex 0.25 -0.25 28
        vertex 0.25 -0.25 30.000002
    endloop
endfacet
facet normal -0 -1 0
    outer loop
        vertex 0.25 -0.25 32
        vertex 0.1875 -0.25 32
        vertex 0.1875 -0.25 31.500002
    endloop
endfacet
facet normal 0 -1 0
    outer loop
        vertex 0.25 -0.25 0
        vertex 0.1875 -0.25 0.09375
        vertex 0.1875 -0.25 0
    endloop
endfacet
facet normal 0 -1 0
    outer loop
        vertex 0.1875 -0.25 31.500002
        vertex 0.25 -0.25 30.000002
        vertex 0.25 -0.25 32
    endloop
endfacet
facet normal 0 -1 0
    outer loop
        vertex -0.000000000000000016391088 -0.25 30.000002
        vertex 0.25 -0.25 30.000002
        vertex 0.0625 -0.25 31.500002
    endloop
endfacet
facet normal 0 -1 0
    outer loop
        vertex 0.25 -0.25 24
        vertex 0.25 -0.25 28
        vertex -0.000000000000000013112871 -0.25 24
    endloop
endfacet
facet normal 0 -1 0
    outer loop
        vertex -0.000000000000000004370957 -0.25 8
        vertex 0.0625 -0.25 0.09375
        vertex 0.25 -0.25 8
    endloop
endfacet
facet normal 0 -1 0
    outer loop
        vertex 0.0625 -0.25 0
        vertex 0.0625 -0.25 0.09375
        vertex 0 -0.25 0
    endloop
endfacet
endsolid unnamed
