  0
SECTION
  2
HEADER
  9
$ACADVER
  1
AC1015
  9
$HANDSEED
  5
32
  9
$INSUNITS
 70
4
  9
$MEASUREMENT
 70
1
  9
$INSBASE
 10
0.0
 20
0.0
 30
0.0
  9
$EXTMIN
 10
217.639091
 20
60.218495
 30
0.0
  9
$EXTMAX
 10
219.860909
 20
63.781505
 30
0.0
  0
ENDSEC
  0
SECTION
  2
CLASSES
  0
ENDSEC
  0
SECTION
  2
TABLES
  0
TABLE
  2
VPORT
  5
8
330
0
100
AcDbSymbolTable
 70
0
  0
ENDTAB
  0
TABLE
  2
VIEW
  5
6
330
0
100
AcDbSymbolTable
 70
0
  0
ENDTAB
  0
TABLE
  2
UCS
  5
7
330
0
100
AcDbSymbolTable
 70
0
  0
ENDTAB
  0
TABLE
  2
LTYPE
  5
5
330
0
100
AcDbSymbolTable
 70
3
  0
LTYPE
  5
14
330
5
100
AcDbSymbolTableRecord
100
AcDbLinetypeTableRecord
  2
ByBlock
 70
0
  3

 72
65
 73
0
 40
0.0
  0
LTYPE
  5
15
330
5
100
AcDbSymbolTableRecord
100
AcDbLinetypeTableRecord
  2
ByLayer
 70
0
  3

 72
65
 73
0
 40
0.0
  0
LTYPE
  5
16
330
5
100
AcDbSymbolTableRecord
100
AcDbLinetypeTableRecord
  2
Continuous
 70
0
  3

 72
65
 73
0
 40
0.0
  0
ENDTAB
  0
TABLE
  2
LAYER
  5
2
330
0
100
AcDbSymbolTable
 70
1
  0
LAYER
  5
10
330
2
100
AcDbSymbolTableRecord
100
AcDbLayerTableRecord
  2
0
 70
0
 62
7
  6
Continuous
370
-3
390
F
  0
ENDTAB
  0
TABLE
  2
STYLE
  5
3
330
0
100
AcDbSymbolTable
 70
1
  0
STYLE
  5
11
330
3
100
AcDbSymbolTableRecord
100
AcDbTextStyleTableRecord
  2
Standard
 70
0
 40
0.0
 41
1.0
 50
0.0
 71
0
 42
2.5
  3
txt
  4

  0
ENDTAB
  0
TABLE
  2
APPID
  5
9
330
0
100
AcDbSymbolTable
 70
1
  0
APPID
  5
12
330
9
100
AcDbSymbolTableRecord
100
AcDbRegAppTableRecord
  2
ACAD
 70
0
  0
ENDTAB
  0
TABLE
  2
DIMSTYLE
  5
A
330
0
100
AcDbSymbolTable
 70
0
100
AcDbDimStyleTable
 71
0
  0
ENDTAB
  0
TABLE
  2
BLOCK_RECORD
  5
1
330
0
100
AcDbSymbolTable
 70
2
  0
BLOCK_RECORD
  5
1F
330
1
100
AcDbSymbolTableRecord
100
AcDbBlockTableRecord
  2
*Model_Space
340
0
  0
BLOCK_RECORD
  5
1B
330
1
100
AcDbSymbolTableRecord
100
AcDbBlockTableRecord
  2
*Paper_Space
340
0
  0
ENDTAB
  0
ENDSEC
  0
SECTION
  2
BLOCKS
  0
BLOCK
  5
20
330
1F
100
AcDbEntity
  8
0
100
AcDbBlockBegin
  2
*Model_Space
 70
0
 10
0.0
 20
0.0
 30
0.0
  3
*Model_Space
  1

  0
ENDBLK
  5
21
330
1F
100
AcDbEntity
  8
0
100
AcDbBlockEnd
  0
BLOCK
  5
1C
330
1B
100
AcDbEntity
  8
0
 67
1
100
AcDbBlockBegin
  2
*Paper_Space
 70
0
 10
0.0
 20
0.0
 30
0.0
  3
*Paper_Space
  1

  0
ENDBLK
  5
1D
330
1B
100
AcDbEntity
  8
0
 67
1
100
AcDbBlockEnd
  0
ENDSEC
  0
SECTION
  2
ENTITIES
  0
LWPOLYLINE
  5
30
330
1F
100
AcDbEntity
  8
0
100
AcDbPolyline
 90
133
 70
1
 10
218.208423
 20
60.616802
 10
219.860909
 20
60.616802
 10
219.860909
 20
60.218495
 10
217.639091
 20
60.218495
 10
217.639091
 20
60.616802
 10
217.709472
 20
60.689539
 10
217.785972
 20
60.768230
 10
217.868589
 20
60.852875
 10
217.957324
 20
60.943474
 10
218.052178
 20
61.040027
 10
218.153149
 20
61.142534
 10
218.260239
 20
61.250995
 10
218.373446
 20
61.365409
 10
218.484486
 20
61.477773
 10
218.584695
 20
61.579706
 10
218.674075
 20
61.671207
 10
218.752625
 20
61.752277
 10
218.820346
 20
61.822916
 10
218.877237
 20
61.883124
 10
218.923298
 20
61.932901
 10
218.958530
 20
61.972246
 10
219.013206
 20
62.034786
 10
219.063592
 20
62.094889
 10
219.109688
 20
62.152553
 10
219.151495
 20
62.207780
 10
219.189012
 20
62.260568
 10
219.222239
 20
62.310919
 10
219.251177
 20
62.358833
 10
219.275825
 20
62.404308
 10
219.297098
 20
62.448470
 10
219.315534
 20
62.492445
 10
219.331134
 20
62.536233
 10
219.343897
 20
62.579833
 10
219.353825
 20
62.623245
 10
219.360915
 20
62.666470
 10
219.365170
 20
62.709508
 10
219.366588
 20
62.752357
 10
219.363529
 20
62.820500
 10
219.354352
 20
62.885408
 10
219.339057
 20
62.947081
 10
219.317644
 20
63.005519
 10
219.290112
 20
63.060722
 10
219.256463
 20
63.112690
 10
219.216696
 20
63.161424
 10
219.170810
 20
63.206922
 10
219.120014
 20
63.248237
 10
219.065514
 20
63.284043
 10
219.007310
 20
63.314340
 10
218.945403
 20
63.339129
 10
218.879792
 20
63.358409
 10
218.810477
 20
63.372180
 10
218.737459
 20
63.380443
 10
218.660737
 20
63.383198
 10
218.604655
 20
63.381990
 10
218.547799
 20
63.378369
 10
218.490170
 20
63.372333
 10
218.431767
 20
63.363882
 10
218.372591
 20
63.353018
 10
218.312641
 20
63.339738
 10
218.251917
 20
63.324045
 10
218.190420
 20
63.305937
 10
218.128185
 20
63.285367
 10
218.064871
 20
63.262290
 10
218.000479
 20
63.236704
 10
217.935009
 20
63.208610
 10
217.868460
 20
63.178008
 10
217.800833
 20
63.144898
 10
217.732128
 20
63.109280
 10
217.662345
 20
63.071153
 10
217.662345
 20
63.549721
 10
217.733206
 20
63.577534
 10
217.802896
 20
63.603588
 10
217.871414
 20
63.627885
 10
217.938759
 20
63.650423
 10
218.004933
 20
63.671204
 10
218.069934
 20
63.690226
 10
218.133764
 20
63.707490
 10
218.196421
 20
63.722996
 10
218.258012
 20
63.736709
 10
218.318266
 20
63.748594
 10
218.377185
 20
63.758650
 10
218.434767
 20
63.766877
 10
218.491014
 20
63.773277
 10
218.545924
 20
63.777848
 10
218.599498
 20
63.780590
 10
218.651736
 20
63.781505
 10
218.784247
 20
63.777250
 10
218.909867
 20
63.764486
 10
219.028594
 20
63.743214
 10
219.140431
 20
63.713432
 10
219.245375
 20
63.675142
 10
219.343429
 20
63.628342
 10
219.434590
 20
63.573033
 10
219.518860
 20
63.509216
 10
219.594632
 20
63.438471
 10
219.660302
 20
63.362007
 10
219.715868
 20
63.279823
 10
219.761332
 20
63.191920
 10
219.796692
 20
63.098298
 10
219.821950
 20
62.998955
 10
219.837105
 20
62.893893
 10
219.842156
 20
62.783112
 10
219.840890
 20
62.729456
 10
219.837093
 20
62.676503
 10
219.830764
 20
62.624253
 10
219.821903
 20
62.572707
 10
219.810511
 20
62.521864
 10
219.796587
 20
62.471724
 10
219.780132
 20
62.422287
 10
219.761144
 20
62.373553
 10
219.738993
 20
62.324269
 10
219.712669
 20
62.272805
 10
219.682172
 20
62.219160
 10
219.647503
 20
62.163336
 10
219.608662
 20
62.105331
 10
219.565648
 20
62.045147
 10
219.518461
 20
61.982783
 10
219.467102
 20
61.918238
 10
219.448479
 20
61.897165
 10
219.421862
 20
61.868075
 10
219.387251
 20
61.830968
 10
219.344647
 20
61.785844
 10
219.294050
 20
61.732704
 10
219.235460
 20
61.671547
 10
219.168876
 20
61.602373
 10
219.094299
 20
61.525182
 10
219.011869
 20
61.439940
 10
218.921353
 20
61.346610
 10
218.822749
 20
61.245193
 10
218.716058
 20
61.135689
 10
218.601280
 20
61.018098
 10
218.478414
 20
60.892420
 10
218.347462
 20
60.758655
  0
ENDSEC
  0
SECTION
  2
OBJECTS
  0
DICTIONARY
  5
C
330
0
100
AcDbDictionary
281
1
  3
ACAD_GROUP
350
D
  0
DICTIONARY
  5
D
330
C
100
AcDbDictionary
281
1
  0
ENDSEC
  0
EOF
