  0
SECTION
  2
HEADER
  9
$ACADVER
  1
AC1015
  9
$HANDSEED
  5
32
  9
$INSUNITS
 70
4
  9
$MEASUREMENT
 70
1
  9
$INSBASE
 10
0.0
 20
0.0
 30
0.0
  9
$EXTMIN
 10
159.889091
 20
-126.031505
 30
0.0
  9
$EXTMAX
 10
162.110909
 20
-122.468495
 30
0.0
  0
ENDSEC
  0
SECTION
  2
CLASSES
  0
ENDSEC
  0
SECTION
  2
TABLES
  0
TABLE
  2
VPORT
  5
8
330
0
100
AcDbSymbolTable
 70
0
  0
ENDTAB
  0
TABLE
  2
VIEW
  5
6
330
0
100
AcDbSymbolTable
 70
0
  0
ENDTAB
  0
TABLE
  2
UCS
  5
7
330
0
100
AcDbSymbolTable
 70
0
  0
ENDTAB
  0
TABLE
  2
LTYPE
  5
5
330
0
100
AcDbSymbolTable
 70
3
  0
LTYPE
  5
14
330
5
100
AcDbSymbolTableRecord
100
AcDbLinetypeTableRecord
  2
ByBlock
 70
0
  3

 72
65
 73
0
 40
0.0
  0
LTYPE
  5
15
330
5
100
AcDbSymbolTableRecord
100
AcDbLinetypeTableRecord
  2
ByLayer
 70
0
  3

 72
65
 73
0
 40
0.0
  0
LTYPE
  5
16
330
5
100
AcDbSymbolTableRecord
100
AcDbLinetypeTableRecord
  2
Continuous
 70
0
  3

 72
65
 73
0
 40
0.0
  0
ENDTAB
  0
TABLE
  2
LAYER
  5
2
330
0
100
AcDbSymbolTable
 70
1
  0
LAYER
  5
10
330
2
100
AcDbSymbolTableRecord
100
AcDbLayerTableRecord
  2
0
 70
0
 62
7
  6
Continuous
370
-3
390
F
  0
ENDTAB
  0
TABLE
  2
STYLE
  5
3
330
0
100
AcDbSymbolTable
 70
1
  0
STYLE
  5
11
330
3
100
AcDbSymbolTableRecord
100
AcDbTextStyleTableRecord
  2
Standard
 70
0
 40
0.0
 41
1.0
 50
0.0
 71
0
 42
2.5
  3
txt
  4

  0
ENDTAB
  0
TABLE
  2
APPID
  5
9
330
0
100
AcDbSymbolTable
 70
1
  0
APPID
  5
12
330
9
100
AcDbSymbolTableRecord
100
AcDbRegAppTableRecord
  2
ACAD
 70
0
  0
ENDTAB
  0
TABLE
  2
DIMSTYLE
  5
A
330
0
100
AcDbSymbolTable
 70
0
100
AcDbDimStyleTable
 71
0
  0
ENDTAB
  0
TABLE
  2
BLOCK_RECORD
  5
1
330
0
100
AcDbSymbolTable
 70
2
  0
BLOCK_RECORD
  5
1F
330
1
100
AcDbSymbolTableRecord
100
AcDbBlockTableRecord
  2
*Model_Space
340
0
  0
BLOCK_RECORD
  5
1B
330
1
100
AcDbSymbolTableRecord
100
AcDbBlockTableRecord
  2
*Paper_Space
340
0
  0
ENDTAB
  0
ENDSEC
  0
SECTION
  2
BLOCKS
  0
BLOCK
  5
20
330
1F
100
AcDbEntity
  8
0
100
AcDbBlockBegin
  2
*Model_Space
 70
0
 10
0.0
 20
0.0
 30
0.0
  3
*Model_Space
  1

  0
ENDBLK
  5
21
330
1F
100
AcDbEntity
  8
0
100
AcDbBlockEnd
  0
BLOCK
  5
1C
330
1B
100
AcDbEntity
  8
0
 67
1
100
AcDbBlockBegin
  2
*Paper_Space
 70
0
 10
0.0
 20
0.0
 30
0.0
  3
*Paper_Space
  1

  0
ENDBLK
  5
1D
330
1B
100
AcDbEntity
  8
0
 67
1
100
AcDbBlockEnd
  0
ENDSEC
  0
SECTION
  2
ENTITIES
  0
LWPOLYLINE
  5
30
330
1F
100
AcDbEntity
  8
0
100
AcDbPolyline
 90
133
 70
1
 10
160.458423
 20
-122.866802
 10
162.110909
 20
-122.866802
 10
162.110909
 20
-122.468495
 10
159.889091
 20
-122.468495
 10
159.889091
 20
-122.866802
 10
159.959472
 20
-122.939539
 10
160.035972
 20
-123.018230
 10
160.118589
 20
-123.102875
 10
160.207324
 20
-123.193474
 10
160.302178
 20
-123.290027
 10
160.403149
 20
-123.392534
 10
160.510239
 20
-123.500995
 10
160.623446
 20
-123.615409
 10
160.734486
 20
-123.727773
 10
160.834695
 20
-123.829706
 10
160.924075
 20
-123.921207
 10
161.002625
 20
-124.002277
 10
161.070346
 20
-124.072916
 10
161.127237
 20
-124.133124
 10
161.173298
 20
-124.182901
 10
161.208530
 20
-124.222246
 10
161.263206
 20
-124.284786
 10
161.313592
 20
-124.344889
 10
161.359688
 20
-124.402553
 10
161.401495
 20
-124.457780
 10
161.439012
 20
-124.510568
 10
161.472239
 20
-124.560919
 10
161.501177
 20
-124.608833
 10
161.525825
 20
-124.654308
 10
161.547098
 20
-124.698470
 10
161.565534
 20
-124.742445
 10
161.581134
 20
-124.786233
 10
161.593897
 20
-124.829833
 10
161.603825
 20
-124.873245
 10
161.610915
 20
-124.916470
 10
161.615170
 20
-124.959508
 10
161.616588
 20
-125.002357
 10
161.613529
 20
-125.070500
 10
161.604352
 20
-125.135408
 10
161.589057
 20
-125.197081
 10
161.567644
 20
-125.255519
 10
161.540112
 20
-125.310722
 10
161.506463
 20
-125.362690
 10
161.466696
 20
-125.411424
 10
161.420810
 20
-125.456922
 10
161.370014
 20
-125.498237
 10
161.315514
 20
-125.534043
 10
161.257310
 20
-125.564340
 10
161.195403
 20
-125.589129
 10
161.129792
 20
-125.608409
 10
161.060477
 20
-125.622180
 10
160.987459
 20
-125.630443
 10
160.910737
 20
-125.633198
 10
160.854655
 20
-125.631990
 10
160.797799
 20
-125.628369
 10
160.740170
 20
-125.622333
 10
160.681767
 20
-125.613882
 10
160.622591
 20
-125.603018
 10
160.562641
 20
-125.589738
 10
160.501917
 20
-125.574045
 10
160.440420
 20
-125.555937
 10
160.378185
 20
-125.535367
 10
160.314871
 20
-125.512290
 10
160.250479
 20
-125.486704
 10
160.185009
 20
-125.458610
 10
160.118460
 20
-125.428008
 10
160.050833
 20
-125.394898
 10
159.982128
 20
-125.359280
 10
159.912345
 20
-125.321153
 10
159.912345
 20
-125.799721
 10
159.983206
 20
-125.827534
 10
160.052896
 20
-125.853588
 10
160.121414
 20
-125.877885
 10
160.188759
 20
-125.900423
 10
160.254933
 20
-125.921204
 10
160.319934
 20
-125.940226
 10
160.383764
 20
-125.957490
 10
160.446421
 20
-125.972996
 10
160.508012
 20
-125.986709
 10
160.568266
 20
-125.998594
 10
160.627185
 20
-126.008650
 10
160.684767
 20
-126.016877
 10
160.741014
 20
-126.023277
 10
160.795924
 20
-126.027848
 10
160.849498
 20
-126.030590
 10
160.901736
 20
-126.031505
 10
161.034247
 20
-126.027250
 10
161.159867
 20
-126.014486
 10
161.278594
 20
-125.993214
 10
161.390431
 20
-125.963432
 10
161.495375
 20
-125.925142
 10
161.593429
 20
-125.878342
 10
161.684590
 20
-125.823033
 10
161.768860
 20
-125.759216
 10
161.844632
 20
-125.688471
 10
161.910302
 20
-125.612007
 10
161.965868
 20
-125.529823
 10
162.011332
 20
-125.441920
 10
162.046692
 20
-125.348298
 10
162.071950
 20
-125.248955
 10
162.087105
 20
-125.143893
 10
162.092156
 20
-125.033112
 10
162.090890
 20
-124.979456
 10
162.087093
 20
-124.926503
 10
162.080764
 20
-124.874253
 10
162.071903
 20
-124.822707
 10
162.060511
 20
-124.771864
 10
162.046587
 20
-124.721724
 10
162.030132
 20
-124.672287
 10
162.011144
 20
-124.623553
 10
161.988993
 20
-124.574269
 10
161.962669
 20
-124.522805
 10
161.932172
 20
-124.469160
 10
161.897503
 20
-124.413336
 10
161.858662
 20
-124.355331
 10
161.815648
 20
-124.295147
 10
161.768461
 20
-124.232783
 10
161.717102
 20
-124.168238
 10
161.698479
 20
-124.147165
 10
161.671862
 20
-124.118075
 10
161.637251
 20
-124.080968
 10
161.594647
 20
-124.035844
 10
161.544050
 20
-123.982704
 10
161.485460
 20
-123.921547
 10
161.418876
 20
-123.852373
 10
161.344299
 20
-123.775182
 10
161.261869
 20
-123.689940
 10
161.171353
 20
-123.596610
 10
161.072749
 20
-123.495193
 10
160.966058
 20
-123.385689
 10
160.851280
 20
-123.268098
 10
160.728414
 20
-123.142420
 10
160.597462
 20
-123.008655
  0
ENDSEC
  0
SECTION
  2
OBJECTS
  0
DICTIONARY
  5
C
330
0
100
AcDbDictionary
281
1
  3
ACAD_GROUP
350
D
  0
DICTIONARY
  5
D
330
C
100
AcDbDictionary
281
1
  0
ENDSEC
  0
EOF
