  0
SECTION
  2
HEADER
  9
$ACADVER
  1
AC1015
  9
$HANDSEED
  5
44
  9
$INSUNITS
 70
4
  9
$MEASUREMENT
 70
1
  9
$INSBASE
 10
0.0
 20
0.0
 30
0.0
  9
$EXTMIN
 10
58.300000
 20
1.392713
 30
0.0
  9
$EXTMAX
 10
198.700000
 20
4.400000
 30
0.0
  0
ENDSEC
  0
SECTION
  2
CLASSES
  0
ENDSEC
  0
SECTION
  2
TABLES
  0
TABLE
  2
VPORT
  5
8
330
0
100
AcDbSymbolTable
 70
0
  0
ENDTAB
  0
TABLE
  2
VIEW
  5
6
330
0
100
AcDbSymbolTable
 70
0
  0
ENDTAB
  0
TABLE
  2
UCS
  5
7
330
0
100
AcDbSymbolTable
 70
0
  0
ENDTAB
  0
TABLE
  2
LTYPE
  5
5
330
0
100
AcDbSymbolTable
 70
3
  0
LTYPE
  5
14
330
5
100
AcDbSymbolTableRecord
100
AcDbLinetypeTableRecord
  2
ByBlock
 70
0
  3

 72
65
 73
0
 40
0.0
  0
LTYPE
  5
15
330
5
100
AcDbSymbolTableRecord
100
AcDbLinetypeTableRecord
  2
ByLayer
 70
0
  3

 72
65
 73
0
 40
0.0
  0
LTYPE
  5
16
330
5
100
AcDbSymbolTableRecord
100
AcDbLinetypeTableRecord
  2
Continuous
 70
0
  3

 72
65
 73
0
 40
0.0
  0
ENDTAB
  0
TABLE
  2
LAYER
  5
2
330
0
100
AcDbSymbolTable
 70
1
  0
LAYER
  5
10
330
2
100
AcDbSymbolTableRecord
100
AcDbLayerTableRecord
  2
0
 70
0
 62
7
  6
Continuous
370
-3
390
F
  0
ENDTAB
  0
TABLE
  2
STYLE
  5
3
330
0
100
AcDbSymbolTable
 70
1
  0
STYLE
  5
11
330
3
100
AcDbSymbolTableRecord
100
AcDbTextStyleTableRecord
  2
Standard
 70
0
 40
0.0
 41
1.0
 50
0.0
 71
0
 42
2.5
  3
txt
  4

  0
ENDTAB
  0
TABLE
  2
APPID
  5
9
330
0
100
AcDbSymbolTable
 70
1
  0
APPID
  5
12
330
9
100
AcDbSymbolTableRecord
100
AcDbRegAppTableRecord
  2
ACAD
 70
0
  0
ENDTAB
  0
TABLE
  2
DIMSTYLE
  5
A
330
0
100
AcDbSymbolTable
 70
0
100
AcDbDimStyleTable
 71
0
  0
ENDTAB
  0
TABLE
  2
BLOCK_RECORD
  5
1
330
0
100
AcDbSymbolTable
 70
2
  0
BLOCK_RECORD
  5
1F
330
1
100
AcDbSymbolTableRecord
100
AcDbBlockTableRecord
  2
*Model_Space
340
0
  0
BLOCK_RECORD
  5
1B
330
1
100
AcDbSymbolTableRecord
100
AcDbBlockTableRecord
  2
*Paper_Space
340
0
  0
ENDTAB
  0
ENDSEC
  0
SECTION
  2
BLOCKS
  0
BLOCK
  5
20
330
1F
100
AcDbEntity
  8
0
100
AcDbBlockBegin
  2
*Model_Space
 70
0
 10
0.0
 20
0.0
 30
0.0
  3
*Model_Space
  1

  0
ENDBLK
  5
21
330
1F
100
AcDbEntity
  8
0
100
AcDbBlockEnd
  0
BLOCK
  5
1C
330
1B
100
AcDbEntity
  8
0
 67
1
100
AcDbBlockBegin
  2
*Paper_Space
 70
0
 10
0.0
 20
0.0
 30
0.0
  3
*Paper_Space
  1

  0
ENDBLK
  5
1D
330
1B
100
AcDbEntity
  8
0
 67
1
100
AcDbBlockEnd
  0
ENDSEC
  0
SECTION
  2
ENTITIES
  0
LWPOLYLINE
  5
30
330
1F
100
AcDbEntity
  8
0
100
AcDbPolyline
 90
64
 70
1
 10
60.160694
 20
3.708616
 10
60.157480
 20
3.658044
 10
60.147835
 20
3.610700
 10
60.131762
 20
3.566584
 10
60.109258
 20
3.525697
 10
60.080326
 20
3.488037
 10
60.044964
 20
3.453606
 10
60.003172
 20
3.422403
 10
59.954951
 20
3.394428
 10
59.900380
 20
3.369815
 10
59.839327
 20
3.348484
 10
59.771791
 20
3.330434
 10
59.697771
 20
3.315667
 10
59.617269
 20
3.304181
 10
59.530283
 20
3.295976
 10
59.436814
 20
3.291054
 10
59.336862
 20
3.289413
 10
59.237306
 20
3.291054
 10
59.144165
 20
3.295976
 10
59.057441
 20
3.304181
 10
58.977132
 20
3.315667
 10
58.903240
 20
3.330434
 10
58.835764
 20
3.348484
 10
58.774704
 20
3.369815
 10
58.720060
 20
3.394428
 10
58.671839
 20
3.422403
 10
58.630047
 20
3.453606
 10
58.594685
 20
3.488037
 10
58.565752
 20
3.525697
 10
58.543249
 20
3.566584
 10
58.527175
 20
3.610700
 10
58.517531
 20
3.658044
 10
58.514316
 20
3.708616
 10
58.517531
 20
3.759583
 10
58.527175
 20
3.807255
 10
58.543249
 20
3.851631
 10
58.565752
 20
3.892713
 10
58.594685
 20
3.930500
 10
58.630047
 20
3.964991
 10
58.671839
 20
3.996188
 10
58.720060
 20
4.024089
 10
58.774704
 20
4.048803
 10
58.835764
 20
4.070221
 10
58.903240
 20
4.088344
 10
58.977132
 20
4.103172
 10
59.057441
 20
4.114705
 10
59.144165
 20
4.122943
 10
59.237306
 20
4.127885
 10
59.336862
 20
4.129533
 10
59.436814
 20
4.127885
 10
59.530283
 20
4.122943
 10
59.617269
 20
4.114705
 10
59.697771
 20
4.103172
 10
59.771791
 20
4.088344
 10
59.839327
 20
4.070221
 10
59.900380
 20
4.048803
 10
59.954951
 20
4.024089
 10
60.003172
 20
3.996188
 10
60.044964
 20
3.964991
 10
60.080326
 20
3.930500
 10
60.109258
 20
3.892713
 10
60.131762
 20
3.851631
 10
60.147835
 20
3.807255
 10
60.157480
 20
3.759583
  0
LWPOLYLINE
  5
31
330
1F
100
AcDbEntity
  8
0
100
AcDbPolyline
 90
64
 70
1
 10
60.375011
 20
3.708616
 10
60.370852
 20
3.790250
 10
60.358374
 20
3.866915
 10
60.337579
 20
3.938610
 10
60.308465
 20
4.005336
 10
60.271034
 20
4.067093
 10
60.225284
 20
4.123880
 10
60.171216
 20
4.175698
 10
60.108830
 20
4.222546
 10
60.038635
 20
4.264137
 10
59.960925
 20
4.300182
 10
59.875701
 20
4.330682
 10
59.782962
 20
4.355637
 10
59.682709
 20
4.375046
 10
59.574941
 20
4.388909
 10
59.459659
 20
4.397227
 10
59.336862
 20
4.400000
 10
59.214361
 20
4.397227
 10
59.099320
 20
4.388909
 10
58.991739
 20
4.375046
 10
58.891620
 20
4.355637
 10
58.798962
 20
4.330682
 10
58.713764
 20
4.300182
 10
58.636028
 20
4.264137
 10
58.565752
 20
4.222546
 10
58.503467
 20
4.175698
 10
58.449486
 20
4.123880
 10
58.403809
 20
4.067093
 10
58.366438
 20
4.005336
 10
58.337371
 20
3.938610
 10
58.316610
 20
3.866915
 10
58.304152
 20
3.790250
 10
58.300000
 20
3.708616
 10
58.304152
 20
3.627082
 10
58.316610
 20
3.550504
 10
58.337371
 20
3.478882
 10
58.366438
 20
3.412216
 10
58.403809
 20
3.350506
 10
58.449486
 20
3.293753
 10
58.503467
 20
3.241955
 10
58.565752
 20
3.195114
 10
58.636028
 20
3.153523
 10
58.713764
 20
3.117477
 10
58.798962
 20
3.086978
 10
58.891620
 20
3.062023
 10
58.991739
 20
3.042614
 10
59.099320
 20
3.028751
 10
59.214361
 20
3.020432
 10
59.336862
 20
3.017660
 10
59.459659
 20
3.020432
 10
59.574941
 20
3.028751
 10
59.682709
 20
3.042614
 10
59.782962
 20
3.062023
 10
59.875701
 20
3.086978
 10
59.960925
 20
3.117477
 10
60.038635
 20
3.153523
 10
60.108830
 20
3.195114
 10
60.171216
 20
3.241955
 10
60.225284
 20
3.293753
 10
60.271034
 20
3.350506
 10
60.308465
 20
3.412216
 10
60.337579
 20
3.478882
 10
60.358374
 20
3.550504
 10
60.370852
 20
3.627082
  0
LWPOLYLINE
  5
32
330
1F
100
AcDbEntity
  8
0
100
AcDbPolyline
 90
11
 70
1
 10
72.727604
 20
3.248264
 10
72.727604
 20
3.690184
 10
74.253536
 20
3.690184
 10
74.157094
 20
3.209258
 10
74.403558
 20
3.209258
 10
74.500000
 20
3.687613
 10
74.500000
 20
3.958080
 10
72.727604
 20
3.958080
 10
72.727604
 20
4.400000
 10
72.500000
 20
4.400000
 10
72.500000
 20
3.248264
  0
LWPOLYLINE
  5
33
330
1F
100
AcDbEntity
  8
0
100
AcDbPolyline
 90
133
 70
1
 10
86.927604
 20
3.455722
 10
86.927604
 20
4.400000
 10
86.700000
 20
4.400000
 10
86.700000
 20
3.130390
 10
86.927604
 20
3.130390
 10
86.969168
 20
3.170608
 10
87.014134
 20
3.214322
 10
87.062503
 20
3.261532
 10
87.114273
 20
3.312237
 10
87.169447
 20
3.366439
 10
87.228022
 20
3.424137
 10
87.289999
 20
3.485331
 10
87.355379
 20
3.550021
 10
87.419587
 20
3.613472
 10
87.477834
 20
3.670735
 10
87.530121
 20
3.721809
 10
87.576447
 20
3.766695
 10
87.616812
 20
3.805393
 10
87.651216
 20
3.837902
 10
87.679660
 20
3.864223
 10
87.702143
 20
3.884355
 10
87.737880
 20
3.915598
 10
87.772225
 20
3.944390
 10
87.805176
 20
3.970731
 10
87.836734
 20
3.994621
 10
87.866899
 20
4.016059
 10
87.895671
 20
4.035046
 10
87.923050
 20
4.051582
 10
87.949036
 20
4.065667
 10
87.974271
 20
4.077822
 10
87.999400
 20
4.088357
 10
88.024421
 20
4.097271
 10
88.049336
 20
4.104565
 10
88.074143
 20
4.110238
 10
88.098843
 20
4.114290
 10
88.123435
 20
4.116721
 10
88.147921
 20
4.117531
 10
88.186860
 20
4.115783
 10
88.223950
 20
4.110539
 10
88.259191
 20
4.101799
 10
88.292585
 20
4.089563
 10
88.324129
 20
4.073831
 10
88.353826
 20
4.054602
 10
88.381673
 20
4.031878
 10
88.407673
 20
4.005658
 10
88.431281
 20
3.976631
 10
88.451741
 20
3.945489
 10
88.469054
 20
3.912229
 10
88.483219
 20
3.876854
 10
88.494236
 20
3.839362
 10
88.502106
 20
3.799754
 10
88.506827
 20
3.758029
 10
88.508401
 20
3.714188
 10
88.507711
 20
3.682141
 10
88.505642
 20
3.649652
 10
88.502193
 20
3.616721
 10
88.497364
 20
3.583348
 10
88.491155
 20
3.549533
 10
88.483567
 20
3.515275
 10
88.474599
 20
3.480576
 10
88.464252
 20
3.445435
 10
88.452498
 20
3.409872
 10
88.439311
 20
3.373693
 10
88.424691
 20
3.336897
 10
88.408637
 20
3.299486
 10
88.391150
 20
3.261458
 10
88.372230
 20
3.222814
 10
88.351877
 20
3.183554
 10
88.330090
 20
3.143678
 10
88.603558
 20
3.143678
 10
88.619451
 20
3.184170
 10
88.634339
 20
3.223993
 10
88.648223
 20
3.263146
 10
88.661102
 20
3.301629
 10
88.672976
 20
3.339442
 10
88.683846
 20
3.376586
 10
88.693711
 20
3.413060
 10
88.702572
 20
3.448864
 10
88.710408
 20
3.484059
 10
88.717199
 20
3.518490
 10
88.722945
 20
3.552158
 10
88.727647
 20
3.585062
 10
88.731304
 20
3.617203
 10
88.733916
 20
3.648580
 10
88.735483
 20
3.679194
 10
88.736005
 20
3.709044
 10
88.733574
 20
3.784765
 10
88.726281
 20
3.856547
 10
88.714125
 20
3.924392
 10
88.697107
 20
3.988298
 10
88.675226
 20
4.048267
 10
88.648484
 20
4.104297
 10
88.616879
 20
4.156389
 10
88.580411
 20
4.204544
 10
88.539986
 20
4.247842
 10
88.496292
 20
4.285368
 10
88.449330
 20
4.317120
 10
88.399100
 20
4.343099
 10
88.345601
 20
4.363305
 10
88.288834
 20
4.377738
 10
88.228799
 20
4.386398
 10
88.165495
 20
4.389284
 10
88.134834
 20
4.388561
 10
88.104576
 20
4.386391
 10
88.074719
 20
4.382774
 10
88.045264
 20
4.377711
 10
88.016210
 20
4.371201
 10
87.987559
 20
4.363245
 10
87.959309
 20
4.353842
 10
87.931462
 20
4.342992
 10
87.903299
 20
4.330334
 10
87.873891
 20
4.315291
 10
87.843237
 20
4.297865
 10
87.811337
 20
4.278054
 10
87.778192
 20
4.255859
 10
87.743801
 20
4.231279
 10
87.708164
 20
4.204316
 10
87.671282
 20
4.174968
 10
87.659240
 20
4.164326
 10
87.642617
 20
4.149116
 10
87.621413
 20
4.129339
 10
87.595628
 20
4.104994
 10
87.565262
 20
4.076081
 10
87.530315
 20
4.042601
 10
87.490787
 20
4.004553
 10
87.446678
 20
3.961937
 10
87.397968
 20
3.914835
 10
87.344637
 20
3.863111
 10
87.286684
 20
3.806766
 10
87.224111
 20
3.745799
 10
87.156916
 20
3.680212
 10
87.085100
 20
3.610003
 10
87.008662
 20
3.535173
  0
LWPOLYLINE
  5
34
330
1F
100
AcDbEntity
  8
0
100
AcDbPolyline
 90
197
 70
1
 10
102.017445
 20
3.987655
 10
102.005645
 20
4.034865
 10
101.991031
 20
4.079410
 10
101.973604
 20
4.121288
 10
101.953365
 20
4.160502
 10
101.930312
 20
4.197049
 10
101.904447
 20
4.230931
 10
101.875769
 20
4.262148
 10
101.844278
 20
4.290699
 10
101.810523
 20
4.316316
 10
101.774839
 20
4.338518
 10
101.737227
 20
4.357304
 10
101.697685
 20
4.372675
 10
101.656215
 20
4.384630
 10
101.612816
 20
4.393169
 10
101.567488
 20
4.398292
 10
101.520231
 20
4.400000
 10
101.448375
 20
4.396819
 10
101.380685
 20
4.387275
 10
101.317160
 20
4.371369
 10
101.257801
 20
4.349100
 10
101.202608
 20
4.320469
 10
101.151581
 20
4.285475
 10
101.104719
 20
4.244118
 10
101.062023
 20
4.196399
 10
101.024049
 20
4.142820
 10
100.991138
 20
4.083883
 10
100.963290
 20
4.019589
 10
100.940506
 20
3.949936
 10
100.922785
 20
3.874925
 10
100.910126
 20
3.794556
 10
100.902532
 20
3.708830
 10
100.900000
 20
3.617745
 10
100.900388
 20
3.586227
 10
100.901554
 20
3.554468
 10
100.903496
 20
3.522468
 10
100.906215
 20
3.490227
 10
100.909711
 20
3.457745
 10
100.913984
 20
3.425021
 10
100.919034
 20
3.392057
 10
100.924861
 20
3.358851
 10
100.931464
 20
3.325391
 10
100.938845
 20
3.291663
 10
100.947002
 20
3.257667
 10
100.955937
 20
3.223403
 10
100.965648
 20
3.188872
 10
100.976136
 20
3.154072
 10
100.987401
 20
3.119005
 10
100.999443
 20
3.083669
 10
101.260480
 20
3.083669
 10
101.244587
 20
3.112079
 10
101.229699
 20
3.141159
 10
101.215815
 20
3.170909
 10
101.202936
 20
3.201329
 10
101.191062
 20
3.232418
 10
101.180192
 20
3.264177
 10
101.170327
 20
3.296606
 10
101.161466
 20
3.329704
 10
101.153630
 20
3.363432
 10
101.146839
 20
3.397535
 10
101.141092
 20
3.432014
 10
101.136391
 20
3.466867
 10
101.132734
 20
3.502095
 10
101.130122
 20
3.537698
 10
101.128555
 20
3.573677
 10
101.128033
 20
3.610030
 10
101.129600
 20
3.671686
 10
101.134301
 20
3.729565
 10
101.142137
 20
3.783666
 10
101.153108
 20
3.833991
 10
101.167212
 20
3.880537
 10
101.184451
 20
3.923307
 10
101.204825
 20
3.962299
 10
101.228333
 20
3.997514
 10
101.254834
 20
4.028757
 10
101.284189
 20
4.055835
 10
101.316397
 20
4.078747
 10
101.351457
 20
4.097492
 10
101.389371
 20
4.112073
 10
101.430138
 20
4.122487
 10
101.473758
 20
4.128736
 10
101.520231
 20
4.130819
 10
101.563276
 20
4.128883
 10
101.603895
 20
4.123077
 10
101.642090
 20
4.113399
 10
101.677861
 20
4.099850
 10
101.711207
 20
4.082430
 10
101.742129
 20
4.061139
 10
101.770627
 20
4.035977
 10
101.796700
 20
4.006944
 10
101.820107
 20
3.974462
 10
101.840393
 20
3.938952
 10
101.857559
 20
3.900415
 10
101.871603
 20
3.858851
 10
101.882527
 20
3.814260
 10
101.890329
 20
3.766642
 10
101.895010
 20
3.715996
 10
101.896571
 20
3.662323
 10
101.896571
 20
3.429147
 10
102.119031
 20
3.429147
 10
102.119031
 20
3.673039
 10
102.120277
 20
3.721408
 10
102.124014
 20
3.766856
 10
102.130243
 20
3.809384
 10
102.138963
 20
3.848993
 10
102.150174
 20
3.885681
 10
102.163877
 20
3.919449
 10
102.180071
 20
3.950297
 10
102.198757
 20
3.978225
 10
102.219787
 20
4.003039
 10
102.243013
 20
4.024545
 10
102.268437
 20
4.042741
 10
102.296057
 20
4.057630
 10
102.325873
 20
4.069209
 10
102.357887
 20
4.077481
 10
102.392097
 20
4.082443
 10
102.428504
 20
4.084098
 10
102.465855
 20
4.082390
 10
102.500970
 20
4.077266
 10
102.533847
 20
4.068727
 10
102.564488
 20
4.056772
 10
102.592891
 20
4.041402
 10
102.619058
 20
4.022616
 10
102.642988
 20
4.000414
 10
102.664681
 20
3.974796
 10
102.684070
 20
3.946098
 10
102.700873
 20
3.914440
 10
102.715092
 20
3.879821
 10
102.726725
 20
3.842242
 10
102.735773
 20
3.801702
 10
102.742236
 20
3.758203
 10
102.746114
 20
3.711743
 10
102.747407
 20
3.662323
 10
102.747025
 20
3.634214
 10
102.745880
 20
3.605610
 10
102.743971
 20
3.576510
 10
102.741299
 20
3.546914
 10
102.737863
 20
3.516822
 10
102.733664
 20
3.486236
 10
102.728701
 20
3.455153
 10
102.722975
 20
3.423575
 10
102.716559
 20
3.391354
 10
102.709312
 20
3.358342
 10
102.701235
 20
3.324541
 10
102.692327
 20
3.289949
 10
102.682589
 20
3.254566
 10
102.672021
 20
3.218394
 10
102.660622
 20
3.181431
 10
102.648393
 20
3.143678
 10
102.889284
 20
3.143678
 10
102.899665
 20
3.181947
 10
102.909376
 20
3.219599
 10
102.918418
 20
3.256636
 10
102.926790
 20
3.293056
 10
102.934492
 20
3.328860
 10
102.941524
 20
3.364048
 10
102.947886
 20
3.398620
 10
102.953579
 20
3.432576
 10
102.958602
 20
3.465983
 10
102.962955
 20
3.498907
 10
102.966639
 20
3.531349
 10
102.969653
 20
3.563309
 10
102.971997
 20
3.594787
 10
102.973671
 20
3.625782
 10
102.974676
 20
3.656296
 10
102.975011
 20
3.686327
 10
102.972821
 20
3.761357
 10
102.966251
 20
3.832356
 10
102.955300
 20
3.899324
 10
102.939970
 20
3.962259
 10
102.920260
 20
4.021162
 10
102.896169
 20
4.076034
 10
102.867699
 20
4.126874
 10
102.834848
 20
4.173682
 10
102.798374
 20
4.215775
 10
102.758819
 20
4.252256
 10
102.716184
 20
4.283124
 10
102.670467
 20
4.308380
 10
102.621670
 20
4.328023
 10
102.569792
 20
4.342054
 10
102.514833
 20
4.350473
 10
102.456794
 20
4.353279
 10
102.416027
 20
4.351792
 10
102.376881
 20
4.347332
 10
102.339355
 20
4.339898
 10
102.303450
 20
4.329490
 10
102.269167
 20
4.316109
 10
102.236503
 20
4.299754
 10
102.205461
 20
4.280425
 10
102.176039
 20
4.258123
 10
102.148527
 20
4.233081
 10
102.123210
 20
4.205535
 10
102.100091
 20
4.175484
 10
102.079168
 20
4.142928
 10
102.060443
 20
4.107867
 10
102.043913
 20
4.070301
 10
102.029581
 20
4.030231
  0
LWPOLYLINE
  5
35
330
1F
100
AcDbEntity
  8
0
100
AcDbPolyline
 90
3
 70
1
 10
116.864252
 20
3.845349
 10
115.796528
 20
3.162109
 10
115.796528
 20
3.845349
  0
LWPOLYLINE
  5
36
330
1F
100
AcDbEntity
  8
0
100
AcDbPolyline
 90
11
 70
1
 10
117.100000
 20
3.774196
 10
117.100000
 20
4.114531
 10
115.796528
 20
4.114531
 10
115.796528
 20
4.400000
 10
115.571496
 20
4.400000
 10
115.571496
 20
4.114531
 10
115.100000
 20
4.114531
 10
115.100000
 20
3.845349
 10
115.571496
 20
3.845349
 10
115.571496
 20
2.942649
 10
115.832533
 20
2.942649
  0
LWPOLYLINE
  5
37
330
1F
100
AcDbEntity
  8
0
100
AcDbPolyline
 90
134
 70
1
 10
131.339006
 20
3.190399
 10
131.339006
 20
4.252550
 10
131.110973
 20
4.252550
 10
131.110973
 20
3.438148
 10
130.621046
 20
3.438148
 10
130.625922
 20
3.452829
 10
130.630476
 20
3.467510
 10
130.634709
 20
3.482190
 10
130.638620
 20
3.496871
 10
130.642210
 20
3.511552
 10
130.645478
 20
3.526232
 10
130.648425
 20
3.540913
 10
130.651050
 20
3.555594
 10
130.653361
 20
3.570381
 10
130.655363
 20
3.585169
 10
130.657058
 20
3.599957
 10
130.658444
 20
3.614745
 10
130.659522
 20
3.629533
 10
130.660293
 20
3.644321
 10
130.660755
 20
3.659108
 10
130.660909
 20
3.673896
 10
130.658042
 20
3.755410
 10
130.649443
 20
3.832571
 10
130.635110
 20
3.905378
 10
130.615045
 20
3.973832
 10
130.589247
 20
4.037933
 10
130.557715
 20
4.097680
 10
130.520451
 20
4.153074
 10
130.477454
 20
4.204115
 10
130.429561
 20
4.250025
 10
130.377609
 20
4.289815
 10
130.321599
 20
4.323482
 10
130.261530
 20
4.351029
 10
130.197403
 20
4.372454
 10
130.129217
 20
4.387757
 10
130.056972
 20
4.396939
 10
129.980669
 20
4.400000
 10
129.902222
 20
4.396859
 10
129.828263
 20
4.387436
 10
129.758791
 20
4.371730
 10
129.693806
 20
4.349743
 10
129.633309
 20
4.321473
 10
129.577299
 20
4.286921
 10
129.525776
 20
4.246087
 10
129.478740
 20
4.198971
 10
129.436848
 20
4.146142
 10
129.400541
 20
4.088170
 10
129.369820
 20
4.025054
 10
129.344685
 20
3.956794
 10
129.325135
 20
3.883390
 10
129.311171
 20
3.804844
 10
129.302793
 20
3.721153
 10
129.300000
 20
3.632319
 10
129.300335
 20
3.600741
 10
129.301339
 20
3.569015
 10
129.303014
 20
3.537142
 10
129.305358
 20
3.505122
 10
129.308372
 20
3.472955
 10
129.312055
 20
3.440640
 10
129.316409
 20
3.408178
 10
129.321432
 20
3.375568
 10
129.327124
 20
3.342851
 10
129.333487
 20
3.309853
 10
129.340519
 20
3.276574
 10
129.348221
 20
3.243013
 10
129.356593
 20
3.209171
 10
129.365634
 20
3.175048
 10
129.375346
 20
3.140644
 10
129.385727
 20
3.105958
 10
129.657908
 20
3.105958
 10
129.642035
 20
3.136197
 10
129.627207
 20
3.166690
 10
129.613424
 20
3.197438
 10
129.600686
 20
3.228440
 10
129.588992
 20
3.259696
 10
129.578343
 20
3.291208
 10
129.568739
 20
3.322973
 10
129.560180
 20
3.354994
 10
129.552645
 20
3.387369
 10
129.546116
 20
3.420199
 10
129.540590
 20
3.453485
 10
129.536069
 20
3.487227
 10
129.532553
 20
3.521424
 10
129.530042
 20
3.556076
 10
129.528535
 20
3.591184
 10
129.528033
 20
3.626747
 10
129.529935
 20
3.683206
 10
129.535641
 20
3.736637
 10
129.545151
 20
3.787042
 10
129.558465
 20
3.834419
 10
129.575584
 20
3.878769
 10
129.596507
 20
3.920092
 10
129.621233
 20
3.958388
 10
129.649764
 20
3.993656
 10
129.681563
 20
4.025402
 10
129.716095
 20
4.052915
 10
129.753359
 20
4.076195
 10
129.793356
 20
4.095242
 10
129.836086
 20
4.110057
 10
129.881547
 20
4.120639
 10
129.929742
 20
4.126988
 10
129.980669
 20
4.129104
 10
130.031495
 20
4.126988
 10
130.079602
 20
4.120639
 10
130.124991
 20
4.110057
 10
130.167660
 20
4.095242
 10
130.207610
 20
4.076195
 10
130.244840
 20
4.052915
 10
130.279352
 20
4.025402
 10
130.311144
 20
3.993656
 10
130.339776
 20
3.958388
 10
130.364590
 20
3.920092
 10
130.385586
 20
3.878769
 10
130.402765
 20
3.834419
 10
130.416126
 20
3.787042
 10
130.425670
 20
3.736637
 10
130.431396
 20
3.683206
 10
130.433305
 20
3.626747
 10
130.432930
 20
3.599642
 10
130.431805
 20
3.572551
 10
130.429929
 20
3.545474
 10
130.427304
 20
3.518410
 10
130.423928
 20
3.491359
 10
130.419803
 20
3.464322
 10
130.414927
 20
3.437298
 10
130.409301
 20
3.410287
 10
130.402879
 20
3.383317
 10
130.395612
 20
3.356199
 10
130.387501
 20
3.328934
 10
130.378547
 20
3.301522
 10
130.368749
 20
3.273962
 10
130.358107
 20
3.246255
 10
130.346620
 20
3.218400
 10
130.334291
 20
3.190399
  0
LWPOLYLINE
  5
38
330
1F
100
AcDbEntity
  8
0
100
AcDbPolyline
 90
64
 70
1
 10
144.646592
 20
3.733048
 10
144.644643
 20
3.688684
 10
144.638797
 20
3.646678
 10
144.629052
 20
3.607030
 10
144.615409
 20
3.569739
 10
144.597869
 20
3.534805
 10
144.576431
 20
3.502229
 10
144.551094
 20
3.472010
 10
144.521860
 20
3.444149
 10
144.489338
 20
3.419235
 10
144.453922
 20
3.397643
 10
144.415613
 20
3.379372
 10
144.374411
 20
3.364423
 10
144.330315
 20
3.352797
 10
144.283326
 20
3.344492
 10
144.233444
 20
3.339509
 10
144.180669
 20
3.337848
 10
144.128175
 20
3.339509
 10
144.078493
 20
3.344492
 10
144.031625
 20
3.352797
 10
143.987570
 20
3.364423
 10
143.946327
 20
3.379372
 10
143.907898
 20
3.397643
 10
143.872281
 20
3.419235
 10
143.839477
 20
3.444149
 10
143.810143
 20
3.472010
 10
143.784719
 20
3.502229
 10
143.763207
 20
3.534805
 10
143.745607
 20
3.569739
 10
143.731917
 20
3.607030
 10
143.722139
 20
3.646678
 10
143.716272
 20
3.688684
 10
143.714316
 20
3.733048
 10
143.716272
 20
3.777404
 10
143.722139
 20
3.819390
 10
143.731917
 20
3.859005
 10
143.745607
 20
3.896249
 10
143.763207
 20
3.931123
 10
143.784719
 20
3.963625
 10
143.810143
 20
3.993757
 10
143.839477
 20
4.021517
 10
143.872281
 20
4.046432
 10
143.907898
 20
4.068024
 10
143.946327
 20
4.086294
 10
143.987570
 20
4.101243
 10
144.031625
 20
4.112870
 10
144.078493
 20
4.121174
 10
144.128175
 20
4.126157
 10
144.180669
 20
4.127818
 10
144.233444
 20
4.126157
 10
144.283326
 20
4.121174
 10
144.330315
 20
4.112870
 10
144.374411
 20
4.101243
 10
144.415613
 20
4.086294
 10
144.453922
 20
4.068024
 10
144.489338
 20
4.046432
 10
144.521860
 20
4.021517
 10
144.551094
 20
3.993757
 10
144.576431
 20
3.963625
 10
144.597869
 20
3.931123
 10
144.615409
 20
3.896249
 10
144.629052
 20
3.859005
 10
144.638797
 20
3.819390
 10
144.644643
 20
3.777404
  0
LWPOLYLINE
  5
39
330
1F
100
AcDbEntity
  8
0
100
AcDbPolyline
 90
129
 70
1
 10
145.494856
 20
4.270124
 10
145.248393
 20
4.270124
 10
145.260039
 20
4.244594
 10
145.270976
 20
4.219010
 10
145.281203
 20
4.193372
 10
145.290720
 20
4.167681
 10
145.299527
 20
4.141936
 10
145.307624
 20
4.116138
 10
145.315012
 20
4.090286
 10
145.321689
 20
4.064381
 10
145.327716
 20
4.038475
 10
145.332940
 20
4.012623
 10
145.337361
 20
3.986825
 10
145.340977
 20
3.961080
 10
145.343790
 20
3.935389
 10
145.345799
 20
3.909751
 10
145.347005
 20
3.884167
 10
145.347407
 20
3.858637
 10
145.344580
 20
3.793639
 10
145.336102
 20
3.732592
 10
145.321970
 20
3.675497
 10
145.302186
 20
3.622353
 10
145.276749
 20
3.573161
 10
145.245660
 20
3.527920
 10
145.208918
 20
3.486631
 10
145.166524
 20
3.449293
 10
145.118416
 20
3.415926
 10
145.064536
 20
3.386337
 10
145.004882
 20
3.360526
 10
144.939456
 20
3.338491
 10
144.868256
 20
3.320234
 10
144.791283
 20
3.305754
 10
144.708536
 20
3.295052
 10
144.620017
 20
3.288127
 10
144.648314
 20
3.308474
 10
144.674909
 20
3.330079
 10
144.699803
 20
3.352944
 10
144.722996
 20
3.377068
 10
144.744488
 20
3.402451
 10
144.764279
 20
3.429093
 10
144.782368
 20
3.456995
 10
144.798757
 20
3.486155
 10
144.813324
 20
3.516421
 10
144.825948
 20
3.547423
 10
144.836631
 20
3.579162
 10
144.845371
 20
3.611637
 10
144.852169
 20
3.644850
 10
144.857024
 20
3.678799
 10
144.859938
 20
3.713485
 10
144.860909
 20
3.748907
 10
144.858049
 20
3.822263
 10
144.849470
 20
3.891668
 10
144.835171
 20
3.957122
 10
144.815152
 20
4.018624
 10
144.789414
 20
4.076175
 10
144.757956
 20
4.129774
 10
144.720779
 20
4.179422
 10
144.677883
 20
4.225118
 10
144.630170
 20
4.266106
 10
144.578333
 20
4.301629
 10
144.522369
 20
4.331687
 10
144.462280
 20
4.356279
 10
144.398066
 20
4.375407
 10
144.329726
 20
4.389070
 10
144.257260
 20
4.397267
 10
144.180669
 20
4.400000
 10
144.105524
 20
4.397154
 10
144.034183
 20
4.388614
 10
143.966647
 20
4.374383
 10
143.902915
 20
4.354458
 10
143.842986
 20
4.328840
 10
143.786862
 20
4.297530
 10
143.734542
 20
4.260527
 10
143.686027
 20
4.217831
 10
143.642427
 20
4.170407
 10
143.604640
 20
4.119219
 10
143.572667
 20
4.064267
 10
143.546507
 20
4.005551
 10
143.526160
 20
3.943071
 10
143.511627
 20
3.876827
 10
143.502907
 20
3.806819
 10
143.500000
 20
3.733048
 10
143.504152
 20
3.648808
 10
143.516610
 20
3.569685
 10
143.537371
 20
3.495679
 10
143.566438
 20
3.426790
 10
143.603809
 20
3.363017
 10
143.649486
 20
3.304361
 10
143.703467
 20
3.250822
 10
143.765752
 20
3.202400
 10
143.836028
 20
3.159403
 10
143.913764
 20
3.122139
 10
143.998962
 20
3.090608
 10
144.091620
 20
3.064809
 10
144.191739
 20
3.044744
 10
144.299320
 20
3.030411
 10
144.414361
 20
3.021812
 10
144.536862
 20
3.018946
 10
144.652379
 20
3.022462
 10
144.761895
 20
3.033010
 10
144.865409
 20
3.050591
 10
144.962923
 20
3.075204
 10
145.054436
 20
3.106849
 10
145.139949
 20
3.145526
 10
145.219460
 20
3.191236
 10
145.292970
 20
3.243978
 10
145.359074
 20
3.302640
 10
145.416363
 20
3.366111
 10
145.464839
 20
3.434391
 10
145.504501
 20
3.507480
 10
145.535349
 20
3.585377
 10
145.557383
 20
3.668083
 10
145.570604
 20
3.755598
 10
145.575011
 20
3.847921
 10
145.574696
 20
3.873452
 10
145.573752
 20
3.899036
 10
145.572178
 20
3.924673
 10
145.569974
 20
3.950364
 10
145.567141
 20
3.976109
 10
145.563679
 20
4.001907
 10
145.559587
 20
4.027759
 10
145.554865
 20
4.053665
 10
145.549520
 20
4.079738
 10
145.543560
 20
4.106092
 10
145.536983
 20
4.132727
 10
145.529790
 20
4.159644
 10
145.521981
 20
4.186842
 10
145.513556
 20
4.214322
 10
145.504514
 20
4.242082
  0
LWPOLYLINE
  5
3A
330
1F
100
AcDbEntity
  8
0
100
AcDbPolyline
 90
7
 70
1
 10
159.700000
 20
3.114102
 10
159.700000
 20
4.400000
 10
159.584698
 20
4.400000
 10
157.700000
 20
3.673896
 10
157.700000
 20
3.391427
 10
159.471967
 20
4.074668
 10
159.471967
 20
3.114102
  0
LWPOLYLINE
  5
3B
330
1F
100
AcDbEntity
  8
0
100
AcDbPolyline
 90
64
 70
1
 10
172.888856
 20
3.714188
 10
172.887241
 20
3.667252
 10
172.882399
 20
3.622889
 10
172.874329
 20
3.581097
 10
172.863030
 20
3.541877
 10
172.848504
 20
3.505229
 10
172.830749
 20
3.471153
 10
172.809766
 20
3.439649
 10
172.785555
 20
3.410716
 10
172.758524
 20
3.384897
 10
172.729083
 20
3.362521
 10
172.697230
 20
3.343588
 10
172.662966
 20
3.328097
 10
172.626291
 20
3.316048
 10
172.587205
 20
3.307442
 10
172.545708
 20
3.302278
 10
172.501800
 20
3.300557
 10
172.457792
 20
3.302278
 10
172.416208
 20
3.307442
 10
172.377048
 20
3.316048
 10
172.340313
 20
3.328097
 10
172.306002
 20
3.343588
 10
172.274116
 20
3.362521
 10
172.244654
 20
3.384897
 10
172.217617
 20
3.410716
 10
172.193406
 20
3.439649
 10
172.172423
 20
3.471153
 10
172.154668
 20
3.505229
 10
172.140141
 20
3.541877
 10
172.128843
 20
3.581097
 10
172.120773
 20
3.622889
 10
172.115930
 20
3.667252
 10
172.114316
 20
3.714188
 10
172.115937
 20
3.761130
 10
172.120799
 20
3.805513
 10
172.128903
 20
3.847338
 10
172.140249
 20
3.886605
 10
172.154836
 20
3.923314
 10
172.172664
 20
3.957464
 10
172.193734
 20
3.989055
 10
172.218045
 20
4.018088
 10
172.245264
 20
4.044208
 10
172.274839
 20
4.066845
 10
172.306772
 20
4.086000
 10
172.341063
 20
4.101672
 10
172.377711
 20
4.113861
 10
172.416717
 20
4.122568
 10
172.458080
 20
4.127791
 10
172.501800
 20
4.129533
 10
172.545708
 20
4.127805
 10
172.587205
 20
4.122621
 10
172.626291
 20
4.113981
 10
172.662966
 20
4.101886
 10
172.697230
 20
4.086335
 10
172.729083
 20
4.067327
 10
172.758524
 20
4.044864
 10
172.785555
 20
4.018946
 10
172.809766
 20
3.990087
 10
172.830749
 20
3.958589
 10
172.848504
 20
3.924452
 10
172.863030
 20
3.887677
 10
172.874329
 20
3.848263
 10
172.882399
 20
3.806210
 10
172.887241
 20
3.761518
  0
LWPOLYLINE
  5
3C
330
1F
100
AcDbEntity
  8
0
100
AcDbPolyline
 90
128
 70
1
 10
173.003729
 20
3.443721
 10
173.015637
 20
3.401413
 10
173.029929
 20
3.361503
 10
173.046606
 20
3.323991
 10
173.065667
 20
3.288877
 10
173.087112
 20
3.256160
 10
173.110941
 20
3.225841
 10
173.137154
 20
3.197920
 10
173.165752
 20
3.172396
 10
173.196460
 20
3.149692
 10
173.228788
 20
3.130015
 10
173.262737
 20
3.113365
 10
173.298307
 20
3.099743
 10
173.335497
 20
3.089148
 10
173.374309
 20
3.081580
 10
173.414741
 20
3.077039
 10
173.456794
 20
3.075525
 10
173.515128
 20
3.078191
 10
173.570328
 20
3.086187
 10
173.622393
 20
3.099515
 10
173.671324
 20
3.118174
 10
173.717121
 20
3.142164
 10
173.759784
 20
3.171485
 10
173.799312
 20
3.206137
 10
173.835705
 20
3.246121
 10
173.868355
 20
3.290846
 10
173.896651
 20
3.339509
 10
173.920594
 20
3.392110
 10
173.940184
 20
3.448650
 10
173.955421
 20
3.509127
 10
173.966304
 20
3.573543
 10
173.972834
 20
3.641896
 10
173.975011
 20
3.714188
 10
173.972834
 20
3.786868
 10
173.966304
 20
3.855529
 10
173.955421
 20
3.920173
 10
173.940184
 20
3.980797
 10
173.920594
 20
4.037404
 10
173.896651
 20
4.089991
 10
173.868355
 20
4.138561
 10
173.835705
 20
4.183112
 10
173.799312
 20
4.222995
 10
173.759784
 20
4.257560
 10
173.717121
 20
4.286807
 10
173.671324
 20
4.310737
 10
173.622393
 20
4.329349
 10
173.570328
 20
4.342644
 10
173.515128
 20
4.350620
 10
173.456794
 20
4.353279
 10
173.414741
 20
4.351759
 10
173.374309
 20
4.347198
 10
173.335497
 20
4.339596
 10
173.298307
 20
4.328954
 10
173.262737
 20
4.315271
 10
173.228788
 20
4.298548
 10
173.196460
 20
4.278784
 10
173.165752
 20
4.255979
 10
173.137154
 20
4.230576
 10
173.110941
 20
4.202802
 10
173.087112
 20
4.172657
 10
173.065667
 20
4.140141
 10
173.046606
 20
4.105255
 10
173.029929
 20
4.067997
 10
173.015637
 20
4.028369
 10
173.003729
 20
3.986369
 10
172.991004
 20
4.033881
 10
172.975547
 20
4.078686
 10
172.957356
 20
4.120786
 10
172.936434
 20
4.160180
 10
172.912779
 20
4.196868
 10
172.886391
 20
4.230851
 10
172.857271
 20
4.262128
 10
172.825418
 20
4.290699
 10
172.791389
 20
4.316316
 10
172.755524
 20
4.338518
 10
172.717824
 20
4.357304
 10
172.678290
 20
4.372675
 10
172.636920
 20
4.384630
 10
172.593715
 20
4.393169
 10
172.548675
 20
4.398292
 10
172.501800
 20
4.400000
 10
172.431156
 20
4.397227
 10
172.364745
 20
4.388909
 10
172.302566
 20
4.375046
 10
172.244621
 20
4.355637
 10
172.190908
 20
4.330682
 10
172.141427
 20
4.300182
 10
172.096180
 20
4.264137
 10
172.055165
 20
4.222546
 10
172.018798
 20
4.175785
 10
171.987280
 20
4.124228
 10
171.960611
 20
4.067877
 10
171.938791
 20
4.006730
 10
171.921820
 20
3.940787
 10
171.909698
 20
3.870049
 10
171.902424
 20
3.794516
 10
171.900000
 20
3.714188
 10
171.902424
 20
3.633953
 10
171.909698
 20
3.558487
 10
171.921820
 20
3.487789
 10
171.938791
 20
3.421860
 10
171.960611
 20
3.360700
 10
171.987280
 20
3.304308
 10
172.018798
 20
3.252684
 10
172.055165
 20
3.205829
 10
172.096180
 20
3.164239
 10
172.141427
 20
3.128193
 10
172.190908
 20
3.097693
 10
172.244621
 20
3.072739
 10
172.302566
 20
3.053330
 10
172.364745
 20
3.039466
 10
172.431156
 20
3.031148
 10
172.501800
 20
3.028375
 10
172.548675
 20
3.030090
 10
172.593715
 20
3.035234
 10
172.636920
 20
3.043806
 10
172.678290
 20
3.055808
 10
172.717824
 20
3.071239
 10
172.755524
 20
3.090099
 10
172.791389
 20
3.112387
 10
172.825418
 20
3.138105
 10
172.857271
 20
3.166978
 10
172.886391
 20
3.198516
 10
172.912779
 20
3.232719
 10
172.936434
 20
3.269589
 10
172.957356
 20
3.309123
 10
172.975547
 20
3.351323
 10
172.991004
 20
3.396189
  0
LWPOLYLINE
  5
3D
330
1F
100
AcDbEntity
  8
0
100
AcDbPolyline
 90
64
 70
1
 10
173.431076
 20
3.344706
 10
173.393349
 20
3.346220
 10
173.357753
 20
3.350761
 10
173.324286
 20
3.358329
 10
173.292949
 20
3.368924
 10
173.263742
 20
3.382547
 10
173.236664
 20
3.399196
 10
173.211716
 20
3.418873
 10
173.188898
 20
3.441577
 10
173.168505
 20
3.467121
 10
173.150830
 20
3.495103
 10
173.135875
 20
3.525522
 10
173.123639
 20
3.558380
 10
173.114122
 20
3.593675
 10
173.107324
 20
3.631408
 10
173.103246
 20
3.671579
 10
173.101886
 20
3.714188
 10
173.103246
 20
3.756609
 10
173.107324
 20
3.796646
 10
173.114122
 20
3.834299
 10
173.123639
 20
3.869567
 10
173.135875
 20
3.902451
 10
173.150830
 20
3.932951
 10
173.168505
 20
3.961067
 10
173.188898
 20
3.986798
 10
173.211716
 20
4.009904
 10
173.236664
 20
4.029929
 10
173.263742
 20
4.046874
 10
173.292949
 20
4.060737
 10
173.324286
 20
4.071520
 10
173.357753
 20
4.079222
 10
173.393349
 20
4.083843
 10
173.431076
 20
4.085384
 10
173.468903
 20
4.083843
 10
173.504586
 20
4.079222
 10
173.538127
 20
4.071520
 10
173.569524
 20
4.060737
 10
173.598778
 20
4.046874
 10
173.625889
 20
4.029929
 10
173.650857
 20
4.009904
 10
173.673682
 20
3.986798
 10
173.694075
 20
3.961067
 10
173.711750
 20
3.932951
 10
173.726705
 20
3.902451
 10
173.738941
 20
3.869567
 10
173.748458
 20
3.834299
 10
173.755256
 20
3.796646
 10
173.759335
 20
3.756609
 10
173.760694
 20
3.714188
 10
173.759335
 20
3.671579
 10
173.755256
 20
3.631408
 10
173.748458
 20
3.593675
 10
173.738941
 20
3.558380
 10
173.726705
 20
3.525522
 10
173.711750
 20
3.495103
 10
173.694075
 20
3.467121
 10
173.673682
 20
3.441577
 10
173.650857
 20
3.418873
 10
173.625889
 20
3.399196
 10
173.598778
 20
3.382547
 10
173.569524
 20
3.368924
 10
173.538127
 20
3.358329
 10
173.504586
 20
3.350761
 10
173.468903
 20
3.346220
  0
LWPOLYLINE
  5
3E
330
1F
100
AcDbEntity
  8
0
100
AcDbPolyline
 90
129
 70
1
 10
186.180583
 20
3.148821
 10
186.427047
 20
3.148821
 10
186.415300
 20
3.174358
 10
186.404276
 20
3.199962
 10
186.393975
 20
3.225634
 10
186.384398
 20
3.251372
 10
186.375544
 20
3.277177
 10
186.367413
 20
3.303049
 10
186.360006
 20
3.328988
 10
186.353322
 20
3.354994
 10
186.347395
 20
3.381080
 10
186.342258
 20
3.407046
 10
186.337911
 20
3.432891
 10
186.334355
 20
3.458616
 10
186.331589
 20
3.484220
 10
186.329613
 20
3.509703
 10
186.328428
 20
3.535066
 10
186.328033
 20
3.560309
 10
186.330845
 20
3.625300
 10
186.339284
 20
3.686327
 10
186.353349
 20
3.743388
 10
186.373039
 20
3.796485
 10
186.398355
 20
3.845617
 10
186.429297
 20
3.890784
 10
186.465865
 20
3.931987
 10
186.508058
 20
3.969224
 10
186.555991
 20
4.002691
 10
186.609778
 20
4.032367
 10
186.669418
 20
4.058253
 10
186.734912
 20
4.080347
 10
186.806259
 20
4.098651
 10
186.883460
 20
4.113164
 10
186.966514
 20
4.123887
 10
187.055422
 20
4.130819
 10
187.027434
 20
4.110767
 10
187.001120
 20
4.089402
 10
186.976480
 20
4.066725
 10
186.953515
 20
4.042735
 10
186.932224
 20
4.017432
 10
186.912607
 20
3.990817
 10
186.894665
 20
3.962888
 10
186.878397
 20
3.933648
 10
186.863931
 20
3.903463
 10
186.851393
 20
3.872487
 10
186.840784
 20
3.840721
 10
186.832105
 20
3.808165
 10
186.825354
 20
3.774819
 10
186.820532
 20
3.740683
 10
186.817638
 20
3.705756
 10
186.816674
 20
3.670039
 10
186.819507
 20
3.596983
 10
186.828006
 20
3.527840
 10
186.842171
 20
3.462607
 10
186.862002
 20
3.401286
 10
186.887499
 20
3.343876
 10
186.918662
 20
3.290377
 10
186.955491
 20
3.240790
 10
186.997985
 20
3.195114
 10
187.045503
 20
3.154126
 10
187.097187
 20
3.118603
 10
187.153037
 20
3.088545
 10
187.213052
 20
3.063952
 10
187.277233
 20
3.044824
 10
187.345580
 20
3.031162
 10
187.418092
 20
3.022964
 10
187.494771
 20
3.020231
 10
187.569808
 20
3.023078
 10
187.641042
 20
3.031617
 10
187.708471
 20
3.045849
 10
187.772096
 20
3.065774
 10
187.831917
 20
3.091391
 10
187.887934
 20
3.122701
 10
187.940147
 20
3.159705
 10
187.988556
 20
3.202400
 10
188.032256
 20
3.249825
 10
188.070130
 20
3.301013
 10
188.102177
 20
3.355965
 10
188.128397
 20
3.414681
 10
188.148790
 20
3.477161
 10
188.163357
 20
3.543404
 10
188.172097
 20
3.613412
 10
188.175011
 20
3.687184
 10
188.170852
 20
3.771410
 10
188.158374
 20
3.850493
 10
188.137579
 20
3.924432
 10
188.108465
 20
3.993228
 10
188.071034
 20
4.056880
 10
188.025284
 20
4.115388
 10
187.971216
 20
4.168753
 10
187.908830
 20
4.216974
 10
187.838635
 20
4.259871
 10
187.760925
 20
4.297048
 10
187.675701
 20
4.328505
 10
187.582962
 20
4.354243
 10
187.482709
 20
4.374262
 10
187.374941
 20
4.388561
 10
187.259659
 20
4.397140
 10
187.136862
 20
4.400000
 10
187.021647
 20
4.396491
 10
186.912393
 20
4.385962
 10
186.809099
 20
4.368415
 10
186.711766
 20
4.343849
 10
186.620394
 20
4.312264
 10
186.534982
 20
4.273661
 10
186.455531
 20
4.228038
 10
186.382040
 20
4.175396
 10
186.315937
 20
4.116935
 10
186.258648
 20
4.053638
 10
186.210172
 20
3.985506
 10
186.170510
 20
3.912538
 10
186.139662
 20
3.834734
 10
186.117628
 20
3.752095
 10
186.104407
 20
3.664620
 10
186.100000
 20
3.572310
 10
186.100315
 20
3.546767
 10
186.101259
 20
3.521142
 10
186.102833
 20
3.495438
 10
186.105036
 20
3.469653
 10
186.107869
 20
3.443788
 10
186.111332
 20
3.417842
 10
186.115424
 20
3.391816
 10
186.120146
 20
3.365709
 10
186.125497
 20
3.339536
 10
186.131478
 20
3.313095
 10
186.138088
 20
3.286386
 10
186.145328
 20
3.259408
 10
186.153197
 20
3.232164
 10
186.161696
 20
3.204651
 10
186.170825
 20
3.176870
  0
LWPOLYLINE
  5
3F
330
1F
100
AcDbEntity
  8
0
100
AcDbPolyline
 90
64
 70
1
 10
187.028418
 20
3.687184
 10
187.030361
 20
3.731541
 10
187.036187
 20
3.773527
 10
187.045899
 20
3.813142
 10
187.059494
 20
3.850386
 10
187.076974
 20
3.885259
 10
187.098339
 20
3.917761
 10
187.123588
 20
3.947893
 10
187.152722
 20
3.975654
 10
187.185351
 20
4.000668
 10
187.220874
 20
4.022348
 10
187.259291
 20
4.040692
 10
187.300600
 20
4.055701
 10
187.344803
 20
4.067374
 10
187.391899
 20
4.075713
 10
187.441888
 20
4.080716
 10
187.494771
 20
4.082383
 10
187.547258
 20
4.080716
 10
187.596919
 20
4.075713
 10
187.643754
 20
4.067374
 10
187.687763
 20
4.055701
 10
187.728945
 20
4.040692
 10
187.767301
 20
4.022348
 10
187.802830
 20
4.000668
 10
187.835534
 20
3.975654
 10
187.864868
 20
3.947893
 10
187.890291
 20
3.917761
 10
187.911803
 20
3.885259
 10
187.929404
 20
3.850386
 10
187.943094
 20
3.813142
 10
187.952872
 20
3.773527
 10
187.958739
 20
3.731541
 10
187.960694
 20
3.687184
 10
187.958739
 20
3.642827
 10
187.952872
 20
3.600841
 10
187.943094
 20
3.561226
 10
187.929404
 20
3.523982
 10
187.911803
 20
3.489109
 10
187.890291
 20
3.456606
 10
187.864868
 20
3.426475
 10
187.835534
 20
3.398714
 10
187.802830
 20
3.373800
 10
187.767301
 20
3.352207
 10
187.728945
 20
3.333937
 10
187.687763
 20
3.318988
 10
187.643754
 20
3.307362
 10
187.596919
 20
3.299057
 10
187.547258
 20
3.294074
 10
187.494771
 20
3.292413
 10
187.441888
 20
3.294074
 10
187.391899
 20
3.299057
 10
187.344803
 20
3.307362
 10
187.300600
 20
3.318988
 10
187.259291
 20
3.333937
 10
187.220874
 20
3.352207
 10
187.185351
 20
3.373800
 10
187.152722
 20
3.398714
 10
187.123588
 20
3.426475
 10
187.098339
 20
3.456606
 10
187.076974
 20
3.489109
 10
187.059494
 20
3.523982
 10
187.045899
 20
3.561226
 10
187.036187
 20
3.600841
 10
187.030361
 20
3.642827
  0
LWPOLYLINE
  5
40
330
1F
100
AcDbEntity
  8
0
100
AcDbPolyline
 90
11
 70
1
 10
196.891599
 20
1.431719
 10
196.891599
 20
1.873639
 10
198.417531
 20
1.873639
 10
198.321089
 20
1.392713
 10
198.567553
 20
1.392713
 10
198.663995
 20
1.871067
 10
198.663995
 20
2.141535
 10
196.891599
 20
2.141535
 10
196.891599
 20
2.583455
 10
196.663995
 20
2.583455
 10
196.663995
 20
1.431719
  0
LWPOLYLINE
  5
41
330
1F
100
AcDbEntity
  8
0
100
AcDbPolyline
 90
64
 70
1
 10
198.485684
 20
3.708616
 10
198.482469
 20
3.658044
 10
198.472825
 20
3.610700
 10
198.456751
 20
3.566584
 10
198.434248
 20
3.525697
 10
198.405315
 20
3.488037
 10
198.369953
 20
3.453606
 10
198.328161
 20
3.422403
 10
198.279940
 20
3.394428
 10
198.225370
 20
3.369815
 10
198.164316
 20
3.348484
 10
198.096780
 20
3.330434
 10
198.022760
 20
3.315667
 10
197.942258
 20
3.304181
 10
197.855272
 20
3.295976
 10
197.761803
 20
3.291054
 10
197.661852
 20
3.289413
 10
197.562295
 20
3.291054
 10
197.469155
 20
3.295976
 10
197.382430
 20
3.304181
 10
197.302122
 20
3.315667
 10
197.228229
 20
3.330434
 10
197.160753
 20
3.348484
 10
197.099693
 20
3.369815
 10
197.045049
 20
3.394428
 10
196.996828
 20
3.422403
 10
196.955036
 20
3.453606
 10
196.919674
 20
3.488037
 10
196.890742
 20
3.525697
 10
196.868238
 20
3.566584
 10
196.852165
 20
3.610700
 10
196.842520
 20
3.658044
 10
196.839306
 20
3.708616
 10
196.842520
 20
3.759583
 10
196.852165
 20
3.807255
 10
196.868238
 20
3.851631
 10
196.890742
 20
3.892713
 10
196.919674
 20
3.930500
 10
196.955036
 20
3.964991
 10
196.996828
 20
3.996188
 10
197.045049
 20
4.024089
 10
197.099693
 20
4.048803
 10
197.160753
 20
4.070221
 10
197.228229
 20
4.088344
 10
197.302122
 20
4.103172
 10
197.382430
 20
4.114705
 10
197.469155
 20
4.122943
 10
197.562295
 20
4.127885
 10
197.661852
 20
4.129533
 10
197.761803
 20
4.127885
 10
197.855272
 20
4.122943
 10
197.942258
 20
4.114705
 10
198.022760
 20
4.103172
 10
198.096780
 20
4.088344
 10
198.164316
 20
4.070221
 10
198.225370
 20
4.048803
 10
198.279940
 20
4.024089
 10
198.328161
 20
3.996188
 10
198.369953
 20
3.964991
 10
198.405315
 20
3.930500
 10
198.434248
 20
3.892713
 10
198.456751
 20
3.851631
 10
198.472825
 20
3.807255
 10
198.482469
 20
3.759583
  0
LWPOLYLINE
  5
42
330
1F
100
AcDbEntity
  8
0
100
AcDbPolyline
 90
64
 70
1
 10
198.700000
 20
3.708616
 10
198.695841
 20
3.790250
 10
198.683364
 20
3.866915
 10
198.662568
 20
3.938610
 10
198.633455
 20
4.005336
 10
198.596023
 20
4.067093
 10
198.550273
 20
4.123880
 10
198.496205
 20
4.175698
 10
198.433819
 20
4.222546
 10
198.363624
 20
4.264137
 10
198.285914
 20
4.300182
 10
198.200690
 20
4.330682
 10
198.107951
 20
4.355637
 10
198.007698
 20
4.375046
 10
197.899930
 20
4.388909
 10
197.784648
 20
4.397227
 10
197.661852
 20
4.400000
 10
197.539350
 20
4.397227
 10
197.424309
 20
4.388909
 10
197.316729
 20
4.375046
 10
197.216610
 20
4.355637
 10
197.123951
 20
4.330682
 10
197.038754
 20
4.300182
 10
196.961017
 20
4.264137
 10
196.890742
 20
4.222546
 10
196.828456
 20
4.175698
 10
196.774475
 20
4.123880
 10
196.728799
 20
4.067093
 10
196.691427
 20
4.005336
 10
196.662361
 20
3.938610
 10
196.641599
 20
3.866915
 10
196.629142
 20
3.790250
 10
196.624989
 20
3.708616
 10
196.629142
 20
3.627082
 10
196.641599
 20
3.550504
 10
196.662361
 20
3.478882
 10
196.691427
 20
3.412216
 10
196.728799
 20
3.350506
 10
196.774475
 20
3.293753
 10
196.828456
 20
3.241955
 10
196.890742
 20
3.195114
 10
196.961017
 20
3.153523
 10
197.038754
 20
3.117477
 10
197.123951
 20
3.086978
 10
197.216610
 20
3.062023
 10
197.316729
 20
3.042614
 10
197.424309
 20
3.028751
 10
197.539350
 20
3.020432
 10
197.661852
 20
3.017660
 10
197.784648
 20
3.020432
 10
197.899930
 20
3.028751
 10
198.007698
 20
3.042614
 10
198.107951
 20
3.062023
 10
198.200690
 20
3.086978
 10
198.285914
 20
3.117477
 10
198.363624
 20
3.153523
 10
198.433819
 20
3.195114
 10
198.496205
 20
3.241955
 10
198.550273
 20
3.293753
 10
198.596023
 20
3.350506
 10
198.633455
 20
3.412216
 10
198.662568
 20
3.478882
 10
198.683364
 20
3.550504
 10
198.695841
 20
3.627082
  0
ENDSEC
  0
SECTION
  2
OBJECTS
  0
DICTIONARY
  5
C
330
0
100
AcDbDictionary
281
1
  3
ACAD_GROUP
350
D
  0
DICTIONARY
  5
D
330
C
100
AcDbDictionary
281
1
  0
ENDSEC
  0
EOF
