  0
SECTION
  2
HEADER
  9
$ACADVER
  1
AC1015
  9
$HANDSEED
  5
44
  9
$INSUNITS
 70
4
  9
$MEASUREMENT
 70
1
  9
$INSBASE
 10
0.0
 20
0.0
 30
0.0
  9
$EXTMIN
 10
57.300000
 20
1.392713
 30
0.0
  9
$EXTMAX
 10
197.700000
 20
4.400000
 30
0.0
  0
ENDSEC
  0
SECTION
  2
CLASSES
  0
ENDSEC
  0
SECTION
  2
TABLES
  0
TABLE
  2
VPORT
  5
8
330
0
100
AcDbSymbolTable
 70
0
  0
ENDTAB
  0
TABLE
  2
VIEW
  5
6
330
0
100
AcDbSymbolTable
 70
0
  0
ENDTAB
  0
TABLE
  2
UCS
  5
7
330
0
100
AcDbSymbolTable
 70
0
  0
ENDTAB
  0
TABLE
  2
LTYPE
  5
5
330
0
100
AcDbSymbolTable
 70
3
  0
LTYPE
  5
14
330
5
100
AcDbSymbolTableRecord
100
AcDbLinetypeTableRecord
  2
ByBlock
 70
0
  3

 72
65
 73
0
 40
0.0
  0
LTYPE
  5
15
330
5
100
AcDbSymbolTableRecord
100
AcDbLinetypeTableRecord
  2
ByLayer
 70
0
  3

 72
65
 73
0
 40
0.0
  0
LTYPE
  5
16
330
5
100
AcDbSymbolTableRecord
100
AcDbLinetypeTableRecord
  2
Continuous
 70
0
  3

 72
65
 73
0
 40
0.0
  0
ENDTAB
  0
TABLE
  2
LAYER
  5
2
330
0
100
AcDbSymbolTable
 70
1
  0
LAYER
  5
10
330
2
100
AcDbSymbolTableRecord
100
AcDbLayerTableRecord
  2
0
 70
0
 62
7
  6
Continuous
370
-3
390
F
  0
ENDTAB
  0
TABLE
  2
STYLE
  5
3
330
0
100
AcDbSymbolTable
 70
1
  0
STYLE
  5
11
330
3
100
AcDbSymbolTableRecord
100
AcDbTextStyleTableRecord
  2
Standard
 70
0
 40
0.0
 41
1.0
 50
0.0
 71
0
 42
2.5
  3
txt
  4

  0
ENDTAB
  0
TABLE
  2
APPID
  5
9
330
0
100
AcDbSymbolTable
 70
1
  0
APPID
  5
12
330
9
100
AcDbSymbolTableRecord
100
AcDbRegAppTableRecord
  2
ACAD
 70
0
  0
ENDTAB
  0
TABLE
  2
DIMSTYLE
  5
A
330
0
100
AcDbSymbolTable
 70
0
100
AcDbDimStyleTable
 71
0
  0
ENDTAB
  0
TABLE
  2
BLOCK_RECORD
  5
1
330
0
100
AcDbSymbolTable
 70
2
  0
BLOCK_RECORD
  5
1F
330
1
100
AcDbSymbolTableRecord
100
AcDbBlockTableRecord
  2
*Model_Space
340
0
  0
BLOCK_RECORD
  5
1B
330
1
100
AcDbSymbolTableRecord
100
AcDbBlockTableRecord
  2
*Paper_Space
340
0
  0
ENDTAB
  0
ENDSEC
  0
SECTION
  2
BLOCKS
  0
BLOCK
  5
20
330
1F
100
AcDbEntity
  8
0
100
AcDbBlockBegin
  2
*Model_Space
 70
0
 10
0.0
 20
0.0
 30
0.0
  3
*Model_Space
  1

  0
ENDBLK
  5
21
330
1F
100
AcDbEntity
  8
0
100
AcDbBlockEnd
  0
BLOCK
  5
1C
330
1B
100
AcDbEntity
  8
0
 67
1
100
AcDbBlockBegin
  2
*Paper_Space
 70
0
 10
0.0
 20
0.0
 30
0.0
  3
*Paper_Space
  1

  0
ENDBLK
  5
1D
330
1B
100
AcDbEntity
  8
0
 67
1
100
AcDbBlockEnd
  0
ENDSEC
  0
SECTION
  2
ENTITIES
  0
LWPOLYLINE
  5
30
330
1F
100
AcDbEntity
  8
0
100
AcDbPolyline
 90
64
 70
1
 10
59.160694
 20
3.708616
 10
59.157480
 20
3.658044
 10
59.147835
 20
3.610700
 10
59.131762
 20
3.566584
 10
59.109258
 20
3.525697
 10
59.080326
 20
3.488037
 10
59.044964
 20
3.453606
 10
59.003172
 20
3.422403
 10
58.954951
 20
3.394428
 10
58.900380
 20
3.369815
 10
58.839327
 20
3.348484
 10
58.771791
 20
3.330434
 10
58.697771
 20
3.315667
 10
58.617269
 20
3.304181
 10
58.530283
 20
3.295976
 10
58.436814
 20
3.291054
 10
58.336862
 20
3.289413
 10
58.237306
 20
3.291054
 10
58.144165
 20
3.295976
 10
58.057441
 20
3.304181
 10
57.977132
 20
3.315667
 10
57.903240
 20
3.330434
 10
57.835764
 20
3.348484
 10
57.774704
 20
3.369815
 10
57.720060
 20
3.394428
 10
57.671839
 20
3.422403
 10
57.630047
 20
3.453606
 10
57.594685
 20
3.488037
 10
57.565752
 20
3.525697
 10
57.543249
 20
3.566584
 10
57.527175
 20
3.610700
 10
57.517531
 20
3.658044
 10
57.514316
 20
3.708616
 10
57.517531
 20
3.759583
 10
57.527175
 20
3.807255
 10
57.543249
 20
3.851631
 10
57.565752
 20
3.892713
 10
57.594685
 20
3.930500
 10
57.630047
 20
3.964991
 10
57.671839
 20
3.996188
 10
57.720060
 20
4.024089
 10
57.774704
 20
4.048803
 10
57.835764
 20
4.070221
 10
57.903240
 20
4.088344
 10
57.977132
 20
4.103172
 10
58.057441
 20
4.114705
 10
58.144165
 20
4.122943
 10
58.237306
 20
4.127885
 10
58.336862
 20
4.129533
 10
58.436814
 20
4.127885
 10
58.530283
 20
4.122943
 10
58.617269
 20
4.114705
 10
58.697771
 20
4.103172
 10
58.771791
 20
4.088344
 10
58.839327
 20
4.070221
 10
58.900380
 20
4.048803
 10
58.954951
 20
4.024089
 10
59.003172
 20
3.996188
 10
59.044964
 20
3.964991
 10
59.080326
 20
3.930500
 10
59.109258
 20
3.892713
 10
59.131762
 20
3.851631
 10
59.147835
 20
3.807255
 10
59.157480
 20
3.759583
  0
LWPOLYLINE
  5
31
330
1F
100
AcDbEntity
  8
0
100
AcDbPolyline
 90
64
 70
1
 10
59.375011
 20
3.708616
 10
59.370852
 20
3.790250
 10
59.358374
 20
3.866915
 10
59.337579
 20
3.938610
 10
59.308465
 20
4.005336
 10
59.271034
 20
4.067093
 10
59.225284
 20
4.123880
 10
59.171216
 20
4.175698
 10
59.108830
 20
4.222546
 10
59.038635
 20
4.264137
 10
58.960925
 20
4.300182
 10
58.875701
 20
4.330682
 10
58.782962
 20
4.355637
 10
58.682709
 20
4.375046
 10
58.574941
 20
4.388909
 10
58.459659
 20
4.397227
 10
58.336862
 20
4.400000
 10
58.214361
 20
4.397227
 10
58.099320
 20
4.388909
 10
57.991739
 20
4.375046
 10
57.891620
 20
4.355637
 10
57.798962
 20
4.330682
 10
57.713764
 20
4.300182
 10
57.636028
 20
4.264137
 10
57.565752
 20
4.222546
 10
57.503467
 20
4.175698
 10
57.449486
 20
4.123880
 10
57.403809
 20
4.067093
 10
57.366438
 20
4.005336
 10
57.337371
 20
3.938610
 10
57.316610
 20
3.866915
 10
57.304152
 20
3.790250
 10
57.300000
 20
3.708616
 10
57.304152
 20
3.627082
 10
57.316610
 20
3.550504
 10
57.337371
 20
3.478882
 10
57.366438
 20
3.412216
 10
57.403809
 20
3.350506
 10
57.449486
 20
3.293753
 10
57.503467
 20
3.241955
 10
57.565752
 20
3.195114
 10
57.636028
 20
3.153523
 10
57.713764
 20
3.117477
 10
57.798962
 20
3.086978
 10
57.891620
 20
3.062023
 10
57.991739
 20
3.042614
 10
58.099320
 20
3.028751
 10
58.214361
 20
3.020432
 10
58.336862
 20
3.017660
 10
58.459659
 20
3.020432
 10
58.574941
 20
3.028751
 10
58.682709
 20
3.042614
 10
58.782962
 20
3.062023
 10
58.875701
 20
3.086978
 10
58.960925
 20
3.117477
 10
59.038635
 20
3.153523
 10
59.108830
 20
3.195114
 10
59.171216
 20
3.241955
 10
59.225284
 20
3.293753
 10
59.271034
 20
3.350506
 10
59.308465
 20
3.412216
 10
59.337579
 20
3.478882
 10
59.358374
 20
3.550504
 10
59.370852
 20
3.627082
  0
LWPOLYLINE
  5
32
330
1F
100
AcDbEntity
  8
0
100
AcDbPolyline
 90
11
 70
1
 10
71.727604
 20
3.248264
 10
71.727604
 20
3.690184
 10
73.253536
 20
3.690184
 10
73.157094
 20
3.209258
 10
73.403558
 20
3.209258
 10
73.500000
 20
3.687613
 10
73.500000
 20
3.958080
 10
71.727604
 20
3.958080
 10
71.727604
 20
4.400000
 10
71.500000
 20
4.400000
 10
71.500000
 20
3.248264
  0
LWPOLYLINE
  5
33
330
1F
100
AcDbEntity
  8
0
100
AcDbPolyline
 90
133
 70
1
 10
85.927604
 20
3.455722
 10
85.927604
 20
4.400000
 10
85.700000
 20
4.400000
 10
85.700000
 20
3.130390
 10
85.927604
 20
3.130390
 10
85.969168
 20
3.170608
 10
86.014134
 20
3.214322
 10
86.062503
 20
3.261532
 10
86.114273
 20
3.312237
 10
86.169447
 20
3.366439
 10
86.228022
 20
3.424137
 10
86.289999
 20
3.485331
 10
86.355379
 20
3.550021
 10
86.419587
 20
3.613472
 10
86.477834
 20
3.670735
 10
86.530121
 20
3.721809
 10
86.576447
 20
3.766695
 10
86.616812
 20
3.805393
 10
86.651216
 20
3.837902
 10
86.679660
 20
3.864223
 10
86.702143
 20
3.884355
 10
86.737880
 20
3.915598
 10
86.772225
 20
3.944390
 10
86.805176
 20
3.970731
 10
86.836734
 20
3.994621
 10
86.866899
 20
4.016059
 10
86.895671
 20
4.035046
 10
86.923050
 20
4.051582
 10
86.949036
 20
4.065667
 10
86.974271
 20
4.077822
 10
86.999400
 20
4.088357
 10
87.024421
 20
4.097271
 10
87.049336
 20
4.104565
 10
87.074143
 20
4.110238
 10
87.098843
 20
4.114290
 10
87.123435
 20
4.116721
 10
87.147921
 20
4.117531
 10
87.186860
 20
4.115783
 10
87.223950
 20
4.110539
 10
87.259191
 20
4.101799
 10
87.292585
 20
4.089563
 10
87.324129
 20
4.073831
 10
87.353826
 20
4.054602
 10
87.381673
 20
4.031878
 10
87.407673
 20
4.005658
 10
87.431281
 20
3.976631
 10
87.451741
 20
3.945489
 10
87.469054
 20
3.912229
 10
87.483219
 20
3.876854
 10
87.494236
 20
3.839362
 10
87.502106
 20
3.799754
 10
87.506827
 20
3.758029
 10
87.508401
 20
3.714188
 10
87.507711
 20
3.682141
 10
87.505642
 20
3.649652
 10
87.502193
 20
3.616721
 10
87.497364
 20
3.583348
 10
87.491155
 20
3.549533
 10
87.483567
 20
3.515275
 10
87.474599
 20
3.480576
 10
87.464252
 20
3.445435
 10
87.452498
 20
3.409872
 10
87.439311
 20
3.373693
 10
87.424691
 20
3.336897
 10
87.408637
 20
3.299486
 10
87.391150
 20
3.261458
 10
87.372230
 20
3.222814
 10
87.351877
 20
3.183554
 10
87.330090
 20
3.143678
 10
87.603558
 20
3.143678
 10
87.619451
 20
3.184170
 10
87.634339
 20
3.223993
 10
87.648223
 20
3.263146
 10
87.661102
 20
3.301629
 10
87.672976
 20
3.339442
 10
87.683846
 20
3.376586
 10
87.693711
 20
3.413060
 10
87.702572
 20
3.448864
 10
87.710408
 20
3.484059
 10
87.717199
 20
3.518490
 10
87.722945
 20
3.552158
 10
87.727647
 20
3.585062
 10
87.731304
 20
3.617203
 10
87.733916
 20
3.648580
 10
87.735483
 20
3.679194
 10
87.736005
 20
3.709044
 10
87.733574
 20
3.784765
 10
87.726281
 20
3.856547
 10
87.714125
 20
3.924392
 10
87.697107
 20
3.988298
 10
87.675226
 20
4.048267
 10
87.648484
 20
4.104297
 10
87.616879
 20
4.156389
 10
87.580411
 20
4.204544
 10
87.539986
 20
4.247842
 10
87.496292
 20
4.285368
 10
87.449330
 20
4.317120
 10
87.399100
 20
4.343099
 10
87.345601
 20
4.363305
 10
87.288834
 20
4.377738
 10
87.228799
 20
4.386398
 10
87.165495
 20
4.389284
 10
87.134834
 20
4.388561
 10
87.104576
 20
4.386391
 10
87.074719
 20
4.382774
 10
87.045264
 20
4.377711
 10
87.016210
 20
4.371201
 10
86.987559
 20
4.363245
 10
86.959309
 20
4.353842
 10
86.931462
 20
4.342992
 10
86.903299
 20
4.330334
 10
86.873891
 20
4.315291
 10
86.843237
 20
4.297865
 10
86.811337
 20
4.278054
 10
86.778192
 20
4.255859
 10
86.743801
 20
4.231279
 10
86.708164
 20
4.204316
 10
86.671282
 20
4.174968
 10
86.659240
 20
4.164326
 10
86.642617
 20
4.149116
 10
86.621413
 20
4.129339
 10
86.595628
 20
4.104994
 10
86.565262
 20
4.076081
 10
86.530315
 20
4.042601
 10
86.490787
 20
4.004553
 10
86.446678
 20
3.961937
 10
86.397968
 20
3.914835
 10
86.344637
 20
3.863111
 10
86.286684
 20
3.806766
 10
86.224111
 20
3.745799
 10
86.156916
 20
3.680212
 10
86.085100
 20
3.610003
 10
86.008662
 20
3.535173
  0
LWPOLYLINE
  5
34
330
1F
100
AcDbEntity
  8
0
100
AcDbPolyline
 90
197
 70
1
 10
101.017445
 20
3.987655
 10
101.005645
 20
4.034865
 10
100.991031
 20
4.079410
 10
100.973604
 20
4.121288
 10
100.953365
 20
4.160502
 10
100.930312
 20
4.197049
 10
100.904447
 20
4.230931
 10
100.875769
 20
4.262148
 10
100.844278
 20
4.290699
 10
100.810523
 20
4.316316
 10
100.774839
 20
4.338518
 10
100.737227
 20
4.357304
 10
100.697685
 20
4.372675
 10
100.656215
 20
4.384630
 10
100.612816
 20
4.393169
 10
100.567488
 20
4.398292
 10
100.520231
 20
4.400000
 10
100.448375
 20
4.396819
 10
100.380685
 20
4.387275
 10
100.317160
 20
4.371369
 10
100.257801
 20
4.349100
 10
100.202608
 20
4.320469
 10
100.151581
 20
4.285475
 10
100.104719
 20
4.244118
 10
100.062023
 20
4.196399
 10
100.024049
 20
4.142820
 10
99.991138
 20
4.083883
 10
99.963290
 20
4.019589
 10
99.940506
 20
3.949936
 10
99.922785
 20
3.874925
 10
99.910126
 20
3.794556
 10
99.902532
 20
3.708830
 10
99.900000
 20
3.617745
 10
99.900388
 20
3.586227
 10
99.901554
 20
3.554468
 10
99.903496
 20
3.522468
 10
99.906215
 20
3.490227
 10
99.909711
 20
3.457745
 10
99.913984
 20
3.425021
 10
99.919034
 20
3.392057
 10
99.924861
 20
3.358851
 10
99.931464
 20
3.325391
 10
99.938845
 20
3.291663
 10
99.947002
 20
3.257667
 10
99.955937
 20
3.223403
 10
99.965648
 20
3.188872
 10
99.976136
 20
3.154072
 10
99.987401
 20
3.119005
 10
99.999443
 20
3.083669
 10
100.260480
 20
3.083669
 10
100.244587
 20
3.112079
 10
100.229699
 20
3.141159
 10
100.215815
 20
3.170909
 10
100.202936
 20
3.201329
 10
100.191062
 20
3.232418
 10
100.180192
 20
3.264177
 10
100.170327
 20
3.296606
 10
100.161466
 20
3.329704
 10
100.153630
 20
3.363432
 10
100.146839
 20
3.397535
 10
100.141092
 20
3.432014
 10
100.136391
 20
3.466867
 10
100.132734
 20
3.502095
 10
100.130122
 20
3.537698
 10
100.128555
 20
3.573677
 10
100.128033
 20
3.610030
 10
100.129600
 20
3.671686
 10
100.134301
 20
3.729565
 10
100.142137
 20
3.783666
 10
100.153108
 20
3.833991
 10
100.167212
 20
3.880537
 10
100.184451
 20
3.923307
 10
100.204825
 20
3.962299
 10
100.228333
 20
3.997514
 10
100.254834
 20
4.028757
 10
100.284189
 20
4.055835
 10
100.316397
 20
4.078747
 10
100.351457
 20
4.097492
 10
100.389371
 20
4.112073
 10
100.430138
 20
4.122487
 10
100.473758
 20
4.128736
 10
100.520231
 20
4.130819
 10
100.563276
 20
4.128883
 10
100.603895
 20
4.123077
 10
100.642090
 20
4.113399
 10
100.677861
 20
4.099850
 10
100.711207
 20
4.082430
 10
100.742129
 20
4.061139
 10
100.770627
 20
4.035977
 10
100.796700
 20
4.006944
 10
100.820107
 20
3.974462
 10
100.840393
 20
3.938952
 10
100.857559
 20
3.900415
 10
100.871603
 20
3.858851
 10
100.882527
 20
3.814260
 10
100.890329
 20
3.766642
 10
100.895010
 20
3.715996
 10
100.896571
 20
3.662323
 10
100.896571
 20
3.429147
 10
101.119031
 20
3.429147
 10
101.119031
 20
3.673039
 10
101.120277
 20
3.721408
 10
101.124014
 20
3.766856
 10
101.130243
 20
3.809384
 10
101.138963
 20
3.848993
 10
101.150174
 20
3.885681
 10
101.163877
 20
3.919449
 10
101.180071
 20
3.950297
 10
101.198757
 20
3.978225
 10
101.219787
 20
4.003039
 10
101.243013
 20
4.024545
 10
101.268437
 20
4.042741
 10
101.296057
 20
4.057630
 10
101.325873
 20
4.069209
 10
101.357887
 20
4.077481
 10
101.392097
 20
4.082443
 10
101.428504
 20
4.084098
 10
101.465855
 20
4.082390
 10
101.500970
 20
4.077266
 10
101.533847
 20
4.068727
 10
101.564488
 20
4.056772
 10
101.592891
 20
4.041402
 10
101.619058
 20
4.022616
 10
101.642988
 20
4.000414
 10
101.664681
 20
3.974796
 10
101.684070
 20
3.946098
 10
101.700873
 20
3.914440
 10
101.715092
 20
3.879821
 10
101.726725
 20
3.842242
 10
101.735773
 20
3.801702
 10
101.742236
 20
3.758203
 10
101.746114
 20
3.711743
 10
101.747407
 20
3.662323
 10
101.747025
 20
3.634214
 10
101.745880
 20
3.605610
 10
101.743971
 20
3.576510
 10
101.741299
 20
3.546914
 10
101.737863
 20
3.516822
 10
101.733664
 20
3.486236
 10
101.728701
 20
3.455153
 10
101.722975
 20
3.423575
 10
101.716559
 20
3.391354
 10
101.709312
 20
3.358342
 10
101.701235
 20
3.324541
 10
101.692327
 20
3.289949
 10
101.682589
 20
3.254566
 10
101.672021
 20
3.218394
 10
101.660622
 20
3.181431
 10
101.648393
 20
3.143678
 10
101.889284
 20
3.143678
 10
101.899665
 20
3.181947
 10
101.909376
 20
3.219599
 10
101.918418
 20
3.256636
 10
101.926790
 20
3.293056
 10
101.934492
 20
3.328860
 10
101.941524
 20
3.364048
 10
101.947886
 20
3.398620
 10
101.953579
 20
3.432576
 10
101.958602
 20
3.465983
 10
101.962955
 20
3.498907
 10
101.966639
 20
3.531349
 10
101.969653
 20
3.563309
 10
101.971997
 20
3.594787
 10
101.973671
 20
3.625782
 10
101.974676
 20
3.656296
 10
101.975011
 20
3.686327
 10
101.972821
 20
3.761357
 10
101.966251
 20
3.832356
 10
101.955300
 20
3.899324
 10
101.939970
 20
3.962259
 10
101.920260
 20
4.021162
 10
101.896169
 20
4.076034
 10
101.867699
 20
4.126874
 10
101.834848
 20
4.173682
 10
101.798374
 20
4.215775
 10
101.758819
 20
4.252256
 10
101.716184
 20
4.283124
 10
101.670467
 20
4.308380
 10
101.621670
 20
4.328023
 10
101.569792
 20
4.342054
 10
101.514833
 20
4.350473
 10
101.456794
 20
4.353279
 10
101.416027
 20
4.351792
 10
101.376881
 20
4.347332
 10
101.339355
 20
4.339898
 10
101.303450
 20
4.329490
 10
101.269167
 20
4.316109
 10
101.236503
 20
4.299754
 10
101.205461
 20
4.280425
 10
101.176039
 20
4.258123
 10
101.148527
 20
4.233081
 10
101.123210
 20
4.205535
 10
101.100091
 20
4.175484
 10
101.079168
 20
4.142928
 10
101.060443
 20
4.107867
 10
101.043913
 20
4.070301
 10
101.029581
 20
4.030231
  0
LWPOLYLINE
  5
35
330
1F
100
AcDbEntity
  8
0
100
AcDbPolyline
 90
3
 70
1
 10
115.864252
 20
3.845349
 10
114.796528
 20
3.162109
 10
114.796528
 20
3.845349
  0
LWPOLYLINE
  5
36
330
1F
100
AcDbEntity
  8
0
100
AcDbPolyline
 90
11
 70
1
 10
116.100000
 20
3.774196
 10
116.100000
 20
4.114531
 10
114.796528
 20
4.114531
 10
114.796528
 20
4.400000
 10
114.571496
 20
4.400000
 10
114.571496
 20
4.114531
 10
114.100000
 20
4.114531
 10
114.100000
 20
3.845349
 10
114.571496
 20
3.845349
 10
114.571496
 20
2.942649
 10
114.832533
 20
2.942649
  0
LWPOLYLINE
  5
37
330
1F
100
AcDbEntity
  8
0
100
AcDbPolyline
 90
134
 70
1
 10
130.339006
 20
3.190399
 10
130.339006
 20
4.252550
 10
130.110973
 20
4.252550
 10
130.110973
 20
3.438148
 10
129.621046
 20
3.438148
 10
129.625922
 20
3.452829
 10
129.630476
 20
3.467510
 10
129.634709
 20
3.482190
 10
129.638620
 20
3.496871
 10
129.642210
 20
3.511552
 10
129.645478
 20
3.526232
 10
129.648425
 20
3.540913
 10
129.651050
 20
3.555594
 10
129.653361
 20
3.570381
 10
129.655363
 20
3.585169
 10
129.657058
 20
3.599957
 10
129.658444
 20
3.614745
 10
129.659522
 20
3.629533
 10
129.660293
 20
3.644321
 10
129.660755
 20
3.659108
 10
129.660909
 20
3.673896
 10
129.658042
 20
3.755410
 10
129.649443
 20
3.832571
 10
129.635110
 20
3.905378
 10
129.615045
 20
3.973832
 10
129.589247
 20
4.037933
 10
129.557715
 20
4.097680
 10
129.520451
 20
4.153074
 10
129.477454
 20
4.204115
 10
129.429561
 20
4.250025
 10
129.377609
 20
4.289815
 10
129.321599
 20
4.323482
 10
129.261530
 20
4.351029
 10
129.197403
 20
4.372454
 10
129.129217
 20
4.387757
 10
129.056972
 20
4.396939
 10
128.980669
 20
4.400000
 10
128.902222
 20
4.396859
 10
128.828263
 20
4.387436
 10
128.758791
 20
4.371730
 10
128.693806
 20
4.349743
 10
128.633309
 20
4.321473
 10
128.577299
 20
4.286921
 10
128.525776
 20
4.246087
 10
128.478740
 20
4.198971
 10
128.436848
 20
4.146142
 10
128.400541
 20
4.088170
 10
128.369820
 20
4.025054
 10
128.344685
 20
3.956794
 10
128.325135
 20
3.883390
 10
128.311171
 20
3.804844
 10
128.302793
 20
3.721153
 10
128.300000
 20
3.632319
 10
128.300335
 20
3.600741
 10
128.301339
 20
3.569015
 10
128.303014
 20
3.537142
 10
128.305358
 20
3.505122
 10
128.308372
 20
3.472955
 10
128.312055
 20
3.440640
 10
128.316409
 20
3.408178
 10
128.321432
 20
3.375568
 10
128.327124
 20
3.342851
 10
128.333487
 20
3.309853
 10
128.340519
 20
3.276574
 10
128.348221
 20
3.243013
 10
128.356593
 20
3.209171
 10
128.365634
 20
3.175048
 10
128.375346
 20
3.140644
 10
128.385727
 20
3.105958
 10
128.657908
 20
3.105958
 10
128.642035
 20
3.136197
 10
128.627207
 20
3.166690
 10
128.613424
 20
3.197438
 10
128.600686
 20
3.228440
 10
128.588992
 20
3.259696
 10
128.578343
 20
3.291208
 10
128.568739
 20
3.322973
 10
128.560180
 20
3.354994
 10
128.552645
 20
3.387369
 10
128.546116
 20
3.420199
 10
128.540590
 20
3.453485
 10
128.536069
 20
3.487227
 10
128.532553
 20
3.521424
 10
128.530042
 20
3.556076
 10
128.528535
 20
3.591184
 10
128.528033
 20
3.626747
 10
128.529935
 20
3.683206
 10
128.535641
 20
3.736637
 10
128.545151
 20
3.787042
 10
128.558465
 20
3.834419
 10
128.575584
 20
3.878769
 10
128.596507
 20
3.920092
 10
128.621233
 20
3.958388
 10
128.649764
 20
3.993656
 10
128.681563
 20
4.025402
 10
128.716095
 20
4.052915
 10
128.753359
 20
4.076195
 10
128.793356
 20
4.095242
 10
128.836086
 20
4.110057
 10
128.881547
 20
4.120639
 10
128.929742
 20
4.126988
 10
128.980669
 20
4.129104
 10
129.031495
 20
4.126988
 10
129.079602
 20
4.120639
 10
129.124991
 20
4.110057
 10
129.167660
 20
4.095242
 10
129.207610
 20
4.076195
 10
129.244840
 20
4.052915
 10
129.279352
 20
4.025402
 10
129.311144
 20
3.993656
 10
129.339776
 20
3.958388
 10
129.364590
 20
3.920092
 10
129.385586
 20
3.878769
 10
129.402765
 20
3.834419
 10
129.416126
 20
3.787042
 10
129.425670
 20
3.736637
 10
129.431396
 20
3.683206
 10
129.433305
 20
3.626747
 10
129.432930
 20
3.599642
 10
129.431805
 20
3.572551
 10
129.429929
 20
3.545474
 10
129.427304
 20
3.518410
 10
129.423928
 20
3.491359
 10
129.419803
 20
3.464322
 10
129.414927
 20
3.437298
 10
129.409301
 20
3.410287
 10
129.402879
 20
3.383317
 10
129.395612
 20
3.356199
 10
129.387501
 20
3.328934
 10
129.378547
 20
3.301522
 10
129.368749
 20
3.273962
 10
129.358107
 20
3.246255
 10
129.346620
 20
3.218400
 10
129.334291
 20
3.190399
  0
LWPOLYLINE
  5
38
330
1F
100
AcDbEntity
  8
0
100
AcDbPolyline
 90
64
 70
1
 10
143.646592
 20
3.733048
 10
143.644643
 20
3.688684
 10
143.638797
 20
3.646678
 10
143.629052
 20
3.607030
 10
143.615409
 20
3.569739
 10
143.597869
 20
3.534805
 10
143.576431
 20
3.502229
 10
143.551094
 20
3.472010
 10
143.521860
 20
3.444149
 10
143.489338
 20
3.419235
 10
143.453922
 20
3.397643
 10
143.415613
 20
3.379372
 10
143.374411
 20
3.364423
 10
143.330315
 20
3.352797
 10
143.283326
 20
3.344492
 10
143.233444
 20
3.339509
 10
143.180669
 20
3.337848
 10
143.128175
 20
3.339509
 10
143.078493
 20
3.344492
 10
143.031625
 20
3.352797
 10
142.987570
 20
3.364423
 10
142.946327
 20
3.379372
 10
142.907898
 20
3.397643
 10
142.872281
 20
3.419235
 10
142.839477
 20
3.444149
 10
142.810143
 20
3.472010
 10
142.784719
 20
3.502229
 10
142.763207
 20
3.534805
 10
142.745607
 20
3.569739
 10
142.731917
 20
3.607030
 10
142.722139
 20
3.646678
 10
142.716272
 20
3.688684
 10
142.714316
 20
3.733048
 10
142.716272
 20
3.777404
 10
142.722139
 20
3.819390
 10
142.731917
 20
3.859005
 10
142.745607
 20
3.896249
 10
142.763207
 20
3.931123
 10
142.784719
 20
3.963625
 10
142.810143
 20
3.993757
 10
142.839477
 20
4.021517
 10
142.872281
 20
4.046432
 10
142.907898
 20
4.068024
 10
142.946327
 20
4.086294
 10
142.987570
 20
4.101243
 10
143.031625
 20
4.112870
 10
143.078493
 20
4.121174
 10
143.128175
 20
4.126157
 10
143.180669
 20
4.127818
 10
143.233444
 20
4.126157
 10
143.283326
 20
4.121174
 10
143.330315
 20
4.112870
 10
143.374411
 20
4.101243
 10
143.415613
 20
4.086294
 10
143.453922
 20
4.068024
 10
143.489338
 20
4.046432
 10
143.521860
 20
4.021517
 10
143.551094
 20
3.993757
 10
143.576431
 20
3.963625
 10
143.597869
 20
3.931123
 10
143.615409
 20
3.896249
 10
143.629052
 20
3.859005
 10
143.638797
 20
3.819390
 10
143.644643
 20
3.777404
  0
LWPOLYLINE
  5
39
330
1F
100
AcDbEntity
  8
0
100
AcDbPolyline
 90
129
 70
1
 10
144.494856
 20
4.270124
 10
144.248393
 20
4.270124
 10
144.260039
 20
4.244594
 10
144.270976
 20
4.219010
 10
144.281203
 20
4.193372
 10
144.290720
 20
4.167681
 10
144.299527
 20
4.141936
 10
144.307624
 20
4.116138
 10
144.315012
 20
4.090286
 10
144.321689
 20
4.064381
 10
144.327716
 20
4.038475
 10
144.332940
 20
4.012623
 10
144.337361
 20
3.986825
 10
144.340977
 20
3.961080
 10
144.343790
 20
3.935389
 10
144.345799
 20
3.909751
 10
144.347005
 20
3.884167
 10
144.347407
 20
3.858637
 10
144.344580
 20
3.793639
 10
144.336102
 20
3.732592
 10
144.321970
 20
3.675497
 10
144.302186
 20
3.622353
 10
144.276749
 20
3.573161
 10
144.245660
 20
3.527920
 10
144.208918
 20
3.486631
 10
144.166524
 20
3.449293
 10
144.118416
 20
3.415926
 10
144.064536
 20
3.386337
 10
144.004882
 20
3.360526
 10
143.939456
 20
3.338491
 10
143.868256
 20
3.320234
 10
143.791283
 20
3.305754
 10
143.708536
 20
3.295052
 10
143.620017
 20
3.288127
 10
143.648314
 20
3.308474
 10
143.674909
 20
3.330079
 10
143.699803
 20
3.352944
 10
143.722996
 20
3.377068
 10
143.744488
 20
3.402451
 10
143.764279
 20
3.429093
 10
143.782368
 20
3.456995
 10
143.798757
 20
3.486155
 10
143.813324
 20
3.516421
 10
143.825948
 20
3.547423
 10
143.836631
 20
3.579162
 10
143.845371
 20
3.611637
 10
143.852169
 20
3.644850
 10
143.857024
 20
3.678799
 10
143.859938
 20
3.713485
 10
143.860909
 20
3.748907
 10
143.858049
 20
3.822263
 10
143.849470
 20
3.891668
 10
143.835171
 20
3.957122
 10
143.815152
 20
4.018624
 10
143.789414
 20
4.076175
 10
143.757956
 20
4.129774
 10
143.720779
 20
4.179422
 10
143.677883
 20
4.225118
 10
143.630170
 20
4.266106
 10
143.578333
 20
4.301629
 10
143.522369
 20
4.331687
 10
143.462280
 20
4.356279
 10
143.398066
 20
4.375407
 10
143.329726
 20
4.389070
 10
143.257260
 20
4.397267
 10
143.180669
 20
4.400000
 10
143.105524
 20
4.397154
 10
143.034183
 20
4.388614
 10
142.966647
 20
4.374383
 10
142.902915
 20
4.354458
 10
142.842986
 20
4.328840
 10
142.786862
 20
4.297530
 10
142.734542
 20
4.260527
 10
142.686027
 20
4.217831
 10
142.642427
 20
4.170407
 10
142.604640
 20
4.119219
 10
142.572667
 20
4.064267
 10
142.546507
 20
4.005551
 10
142.526160
 20
3.943071
 10
142.511627
 20
3.876827
 10
142.502907
 20
3.806819
 10
142.500000
 20
3.733048
 10
142.504152
 20
3.648808
 10
142.516610
 20
3.569685
 10
142.537371
 20
3.495679
 10
142.566438
 20
3.426790
 10
142.603809
 20
3.363017
 10
142.649486
 20
3.304361
 10
142.703467
 20
3.250822
 10
142.765752
 20
3.202400
 10
142.836028
 20
3.159403
 10
142.913764
 20
3.122139
 10
142.998962
 20
3.090608
 10
143.091620
 20
3.064809
 10
143.191739
 20
3.044744
 10
143.299320
 20
3.030411
 10
143.414361
 20
3.021812
 10
143.536862
 20
3.018946
 10
143.652379
 20
3.022462
 10
143.761895
 20
3.033010
 10
143.865409
 20
3.050591
 10
143.962923
 20
3.075204
 10
144.054436
 20
3.106849
 10
144.139949
 20
3.145526
 10
144.219460
 20
3.191236
 10
144.292970
 20
3.243978
 10
144.359074
 20
3.302640
 10
144.416363
 20
3.366111
 10
144.464839
 20
3.434391
 10
144.504501
 20
3.507480
 10
144.535349
 20
3.585377
 10
144.557383
 20
3.668083
 10
144.570604
 20
3.755598
 10
144.575011
 20
3.847921
 10
144.574696
 20
3.873452
 10
144.573752
 20
3.899036
 10
144.572178
 20
3.924673
 10
144.569974
 20
3.950364
 10
144.567141
 20
3.976109
 10
144.563679
 20
4.001907
 10
144.559587
 20
4.027759
 10
144.554865
 20
4.053665
 10
144.549520
 20
4.079738
 10
144.543560
 20
4.106092
 10
144.536983
 20
4.132727
 10
144.529790
 20
4.159644
 10
144.521981
 20
4.186842
 10
144.513556
 20
4.214322
 10
144.504514
 20
4.242082
  0
LWPOLYLINE
  5
3A
330
1F
100
AcDbEntity
  8
0
100
AcDbPolyline
 90
7
 70
1
 10
158.700000
 20
3.114102
 10
158.700000
 20
4.400000
 10
158.584698
 20
4.400000
 10
156.700000
 20
3.673896
 10
156.700000
 20
3.391427
 10
158.471967
 20
4.074668
 10
158.471967
 20
3.114102
  0
LWPOLYLINE
  5
3B
330
1F
100
AcDbEntity
  8
0
100
AcDbPolyline
 90
64
 70
1
 10
171.888856
 20
3.714188
 10
171.887241
 20
3.667252
 10
171.882399
 20
3.622889
 10
171.874329
 20
3.581097
 10
171.863030
 20
3.541877
 10
171.848504
 20
3.505229
 10
171.830749
 20
3.471153
 10
171.809766
 20
3.439649
 10
171.785555
 20
3.410716
 10
171.758524
 20
3.384897
 10
171.729083
 20
3.362521
 10
171.697230
 20
3.343588
 10
171.662966
 20
3.328097
 10
171.626291
 20
3.316048
 10
171.587205
 20
3.307442
 10
171.545708
 20
3.302278
 10
171.501800
 20
3.300557
 10
171.457792
 20
3.302278
 10
171.416208
 20
3.307442
 10
171.377048
 20
3.316048
 10
171.340313
 20
3.328097
 10
171.306002
 20
3.343588
 10
171.274116
 20
3.362521
 10
171.244654
 20
3.384897
 10
171.217617
 20
3.410716
 10
171.193406
 20
3.439649
 10
171.172423
 20
3.471153
 10
171.154668
 20
3.505229
 10
171.140141
 20
3.541877
 10
171.128843
 20
3.581097
 10
171.120773
 20
3.622889
 10
171.115930
 20
3.667252
 10
171.114316
 20
3.714188
 10
171.115937
 20
3.761130
 10
171.120799
 20
3.805513
 10
171.128903
 20
3.847338
 10
171.140249
 20
3.886605
 10
171.154836
 20
3.923314
 10
171.172664
 20
3.957464
 10
171.193734
 20
3.989055
 10
171.218045
 20
4.018088
 10
171.245264
 20
4.044208
 10
171.274839
 20
4.066845
 10
171.306772
 20
4.086000
 10
171.341063
 20
4.101672
 10
171.377711
 20
4.113861
 10
171.416717
 20
4.122568
 10
171.458080
 20
4.127791
 10
171.501800
 20
4.129533
 10
171.545708
 20
4.127805
 10
171.587205
 20
4.122621
 10
171.626291
 20
4.113981
 10
171.662966
 20
4.101886
 10
171.697230
 20
4.086335
 10
171.729083
 20
4.067327
 10
171.758524
 20
4.044864
 10
171.785555
 20
4.018946
 10
171.809766
 20
3.990087
 10
171.830749
 20
3.958589
 10
171.848504
 20
3.924452
 10
171.863030
 20
3.887677
 10
171.874329
 20
3.848263
 10
171.882399
 20
3.806210
 10
171.887241
 20
3.761518
  0
LWPOLYLINE
  5
3C
330
1F
100
AcDbEntity
  8
0
100
AcDbPolyline
 90
128
 70
1
 10
172.003729
 20
3.443721
 10
172.015637
 20
3.401413
 10
172.029929
 20
3.361503
 10
172.046606
 20
3.323991
 10
172.065667
 20
3.288877
 10
172.087112
 20
3.256160
 10
172.110941
 20
3.225841
 10
172.137154
 20
3.197920
 10
172.165752
 20
3.172396
 10
172.196460
 20
3.149692
 10
172.228788
 20
3.130015
 10
172.262737
 20
3.113365
 10
172.298307
 20
3.099743
 10
172.335497
 20
3.089148
 10
172.374309
 20
3.081580
 10
172.414741
 20
3.077039
 10
172.456794
 20
3.075525
 10
172.515128
 20
3.078191
 10
172.570328
 20
3.086187
 10
172.622393
 20
3.099515
 10
172.671324
 20
3.118174
 10
172.717121
 20
3.142164
 10
172.759784
 20
3.171485
 10
172.799312
 20
3.206137
 10
172.835705
 20
3.246121
 10
172.868355
 20
3.290846
 10
172.896651
 20
3.339509
 10
172.920594
 20
3.392110
 10
172.940184
 20
3.448650
 10
172.955421
 20
3.509127
 10
172.966304
 20
3.573543
 10
172.972834
 20
3.641896
 10
172.975011
 20
3.714188
 10
172.972834
 20
3.786868
 10
172.966304
 20
3.855529
 10
172.955421
 20
3.920173
 10
172.940184
 20
3.980797
 10
172.920594
 20
4.037404
 10
172.896651
 20
4.089991
 10
172.868355
 20
4.138561
 10
172.835705
 20
4.183112
 10
172.799312
 20
4.222995
 10
172.759784
 20
4.257560
 10
172.717121
 20
4.286807
 10
172.671324
 20
4.310737
 10
172.622393
 20
4.329349
 10
172.570328
 20
4.342644
 10
172.515128
 20
4.350620
 10
172.456794
 20
4.353279
 10
172.414741
 20
4.351759
 10
172.374309
 20
4.347198
 10
172.335497
 20
4.339596
 10
172.298307
 20
4.328954
 10
172.262737
 20
4.315271
 10
172.228788
 20
4.298548
 10
172.196460
 20
4.278784
 10
172.165752
 20
4.255979
 10
172.137154
 20
4.230576
 10
172.110941
 20
4.202802
 10
172.087112
 20
4.172657
 10
172.065667
 20
4.140141
 10
172.046606
 20
4.105255
 10
172.029929
 20
4.067997
 10
172.015637
 20
4.028369
 10
172.003729
 20
3.986369
 10
171.991004
 20
4.033881
 10
171.975547
 20
4.078686
 10
171.957356
 20
4.120786
 10
171.936434
 20
4.160180
 10
171.912779
 20
4.196868
 10
171.886391
 20
4.230851
 10
171.857271
 20
4.262128
 10
171.825418
 20
4.290699
 10
171.791389
 20
4.316316
 10
171.755524
 20
4.338518
 10
171.717824
 20
4.357304
 10
171.678290
 20
4.372675
 10
171.636920
 20
4.384630
 10
171.593715
 20
4.393169
 10
171.548675
 20
4.398292
 10
171.501800
 20
4.400000
 10
171.431156
 20
4.397227
 10
171.364745
 20
4.388909
 10
171.302566
 20
4.375046
 10
171.244621
 20
4.355637
 10
171.190908
 20
4.330682
 10
171.141427
 20
4.300182
 10
171.096180
 20
4.264137
 10
171.055165
 20
4.222546
 10
171.018798
 20
4.175785
 10
170.987280
 20
4.124228
 10
170.960611
 20
4.067877
 10
170.938791
 20
4.006730
 10
170.921820
 20
3.940787
 10
170.909698
 20
3.870049
 10
170.902424
 20
3.794516
 10
170.900000
 20
3.714188
 10
170.902424
 20
3.633953
 10
170.909698
 20
3.558487
 10
170.921820
 20
3.487789
 10
170.938791
 20
3.421860
 10
170.960611
 20
3.360700
 10
170.987280
 20
3.304308
 10
171.018798
 20
3.252684
 10
171.055165
 20
3.205829
 10
171.096180
 20
3.164239
 10
171.141427
 20
3.128193
 10
171.190908
 20
3.097693
 10
171.244621
 20
3.072739
 10
171.302566
 20
3.053330
 10
171.364745
 20
3.039466
 10
171.431156
 20
3.031148
 10
171.501800
 20
3.028375
 10
171.548675
 20
3.030090
 10
171.593715
 20
3.035234
 10
171.636920
 20
3.043806
 10
171.678290
 20
3.055808
 10
171.717824
 20
3.071239
 10
171.755524
 20
3.090099
 10
171.791389
 20
3.112387
 10
171.825418
 20
3.138105
 10
171.857271
 20
3.166978
 10
171.886391
 20
3.198516
 10
171.912779
 20
3.232719
 10
171.936434
 20
3.269589
 10
171.957356
 20
3.309123
 10
171.975547
 20
3.351323
 10
171.991004
 20
3.396189
  0
LWPOLYLINE
  5
3D
330
1F
100
AcDbEntity
  8
0
100
AcDbPolyline
 90
64
 70
1
 10
172.431076
 20
3.344706
 10
172.393349
 20
3.346220
 10
172.357753
 20
3.350761
 10
172.324286
 20
3.358329
 10
172.292949
 20
3.368924
 10
172.263742
 20
3.382547
 10
172.236664
 20
3.399196
 10
172.211716
 20
3.418873
 10
172.188898
 20
3.441577
 10
172.168505
 20
3.467121
 10
172.150830
 20
3.495103
 10
172.135875
 20
3.525522
 10
172.123639
 20
3.558380
 10
172.114122
 20
3.593675
 10
172.107324
 20
3.631408
 10
172.103246
 20
3.671579
 10
172.101886
 20
3.714188
 10
172.103246
 20
3.756609
 10
172.107324
 20
3.796646
 10
172.114122
 20
3.834299
 10
172.123639
 20
3.869567
 10
172.135875
 20
3.902451
 10
172.150830
 20
3.932951
 10
172.168505
 20
3.961067
 10
172.188898
 20
3.986798
 10
172.211716
 20
4.009904
 10
172.236664
 20
4.029929
 10
172.263742
 20
4.046874
 10
172.292949
 20
4.060737
 10
172.324286
 20
4.071520
 10
172.357753
 20
4.079222
 10
172.393349
 20
4.083843
 10
172.431076
 20
4.085384
 10
172.468903
 20
4.083843
 10
172.504586
 20
4.079222
 10
172.538127
 20
4.071520
 10
172.569524
 20
4.060737
 10
172.598778
 20
4.046874
 10
172.625889
 20
4.029929
 10
172.650857
 20
4.009904
 10
172.673682
 20
3.986798
 10
172.694075
 20
3.961067
 10
172.711750
 20
3.932951
 10
172.726705
 20
3.902451
 10
172.738941
 20
3.869567
 10
172.748458
 20
3.834299
 10
172.755256
 20
3.796646
 10
172.759335
 20
3.756609
 10
172.760694
 20
3.714188
 10
172.759335
 20
3.671579
 10
172.755256
 20
3.631408
 10
172.748458
 20
3.593675
 10
172.738941
 20
3.558380
 10
172.726705
 20
3.525522
 10
172.711750
 20
3.495103
 10
172.694075
 20
3.467121
 10
172.673682
 20
3.441577
 10
172.650857
 20
3.418873
 10
172.625889
 20
3.399196
 10
172.598778
 20
3.382547
 10
172.569524
 20
3.368924
 10
172.538127
 20
3.358329
 10
172.504586
 20
3.350761
 10
172.468903
 20
3.346220
  0
LWPOLYLINE
  5
3E
330
1F
100
AcDbEntity
  8
0
100
AcDbPolyline
 90
129
 70
1
 10
185.180583
 20
3.148821
 10
185.427047
 20
3.148821
 10
185.415300
 20
3.174358
 10
185.404276
 20
3.199962
 10
185.393975
 20
3.225634
 10
185.384398
 20
3.251372
 10
185.375544
 20
3.277177
 10
185.367413
 20
3.303049
 10
185.360006
 20
3.328988
 10
185.353322
 20
3.354994
 10
185.347395
 20
3.381080
 10
185.342258
 20
3.407046
 10
185.337911
 20
3.432891
 10
185.334355
 20
3.458616
 10
185.331589
 20
3.484220
 10
185.329613
 20
3.509703
 10
185.328428
 20
3.535066
 10
185.328033
 20
3.560309
 10
185.330845
 20
3.625300
 10
185.339284
 20
3.686327
 10
185.353349
 20
3.743388
 10
185.373039
 20
3.796485
 10
185.398355
 20
3.845617
 10
185.429297
 20
3.890784
 10
185.465865
 20
3.931987
 10
185.508058
 20
3.969224
 10
185.555991
 20
4.002691
 10
185.609778
 20
4.032367
 10
185.669418
 20
4.058253
 10
185.734912
 20
4.080347
 10
185.806259
 20
4.098651
 10
185.883460
 20
4.113164
 10
185.966514
 20
4.123887
 10
186.055422
 20
4.130819
 10
186.027434
 20
4.110767
 10
186.001120
 20
4.089402
 10
185.976480
 20
4.066725
 10
185.953515
 20
4.042735
 10
185.932224
 20
4.017432
 10
185.912607
 20
3.990817
 10
185.894665
 20
3.962888
 10
185.878397
 20
3.933648
 10
185.863931
 20
3.903463
 10
185.851393
 20
3.872487
 10
185.840784
 20
3.840721
 10
185.832105
 20
3.808165
 10
185.825354
 20
3.774819
 10
185.820532
 20
3.740683
 10
185.817638
 20
3.705756
 10
185.816674
 20
3.670039
 10
185.819507
 20
3.596983
 10
185.828006
 20
3.527840
 10
185.842171
 20
3.462607
 10
185.862002
 20
3.401286
 10
185.887499
 20
3.343876
 10
185.918662
 20
3.290377
 10
185.955491
 20
3.240790
 10
185.997985
 20
3.195114
 10
186.045503
 20
3.154126
 10
186.097187
 20
3.118603
 10
186.153037
 20
3.088545
 10
186.213052
 20
3.063952
 10
186.277233
 20
3.044824
 10
186.345580
 20
3.031162
 10
186.418092
 20
3.022964
 10
186.494771
 20
3.020231
 10
186.569808
 20
3.023078
 10
186.641042
 20
3.031617
 10
186.708471
 20
3.045849
 10
186.772096
 20
3.065774
 10
186.831917
 20
3.091391
 10
186.887934
 20
3.122701
 10
186.940147
 20
3.159705
 10
186.988556
 20
3.202400
 10
187.032256
 20
3.249825
 10
187.070130
 20
3.301013
 10
187.102177
 20
3.355965
 10
187.128397
 20
3.414681
 10
187.148790
 20
3.477161
 10
187.163357
 20
3.543404
 10
187.172097
 20
3.613412
 10
187.175011
 20
3.687184
 10
187.170852
 20
3.771410
 10
187.158374
 20
3.850493
 10
187.137579
 20
3.924432
 10
187.108465
 20
3.993228
 10
187.071034
 20
4.056880
 10
187.025284
 20
4.115388
 10
186.971216
 20
4.168753
 10
186.908830
 20
4.216974
 10
186.838635
 20
4.259871
 10
186.760925
 20
4.297048
 10
186.675701
 20
4.328505
 10
186.582962
 20
4.354243
 10
186.482709
 20
4.374262
 10
186.374941
 20
4.388561
 10
186.259659
 20
4.397140
 10
186.136862
 20
4.400000
 10
186.021647
 20
4.396491
 10
185.912393
 20
4.385962
 10
185.809099
 20
4.368415
 10
185.711766
 20
4.343849
 10
185.620394
 20
4.312264
 10
185.534982
 20
4.273661
 10
185.455531
 20
4.228038
 10
185.382040
 20
4.175396
 10
185.315937
 20
4.116935
 10
185.258648
 20
4.053638
 10
185.210172
 20
3.985506
 10
185.170510
 20
3.912538
 10
185.139662
 20
3.834734
 10
185.117628
 20
3.752095
 10
185.104407
 20
3.664620
 10
185.100000
 20
3.572310
 10
185.100315
 20
3.546767
 10
185.101259
 20
3.521142
 10
185.102833
 20
3.495438
 10
185.105036
 20
3.469653
 10
185.107869
 20
3.443788
 10
185.111332
 20
3.417842
 10
185.115424
 20
3.391816
 10
185.120146
 20
3.365709
 10
185.125497
 20
3.339536
 10
185.131478
 20
3.313095
 10
185.138088
 20
3.286386
 10
185.145328
 20
3.259408
 10
185.153197
 20
3.232164
 10
185.161696
 20
3.204651
 10
185.170825
 20
3.176870
  0
LWPOLYLINE
  5
3F
330
1F
100
AcDbEntity
  8
0
100
AcDbPolyline
 90
64
 70
1
 10
186.028418
 20
3.687184
 10
186.030361
 20
3.731541
 10
186.036187
 20
3.773527
 10
186.045899
 20
3.813142
 10
186.059494
 20
3.850386
 10
186.076974
 20
3.885259
 10
186.098339
 20
3.917761
 10
186.123588
 20
3.947893
 10
186.152722
 20
3.975654
 10
186.185351
 20
4.000668
 10
186.220874
 20
4.022348
 10
186.259291
 20
4.040692
 10
186.300600
 20
4.055701
 10
186.344803
 20
4.067374
 10
186.391899
 20
4.075713
 10
186.441888
 20
4.080716
 10
186.494771
 20
4.082383
 10
186.547258
 20
4.080716
 10
186.596919
 20
4.075713
 10
186.643754
 20
4.067374
 10
186.687763
 20
4.055701
 10
186.728945
 20
4.040692
 10
186.767301
 20
4.022348
 10
186.802830
 20
4.000668
 10
186.835534
 20
3.975654
 10
186.864868
 20
3.947893
 10
186.890291
 20
3.917761
 10
186.911803
 20
3.885259
 10
186.929404
 20
3.850386
 10
186.943094
 20
3.813142
 10
186.952872
 20
3.773527
 10
186.958739
 20
3.731541
 10
186.960694
 20
3.687184
 10
186.958739
 20
3.642827
 10
186.952872
 20
3.600841
 10
186.943094
 20
3.561226
 10
186.929404
 20
3.523982
 10
186.911803
 20
3.489109
 10
186.890291
 20
3.456606
 10
186.864868
 20
3.426475
 10
186.835534
 20
3.398714
 10
186.802830
 20
3.373800
 10
186.767301
 20
3.352207
 10
186.728945
 20
3.333937
 10
186.687763
 20
3.318988
 10
186.643754
 20
3.307362
 10
186.596919
 20
3.299057
 10
186.547258
 20
3.294074
 10
186.494771
 20
3.292413
 10
186.441888
 20
3.294074
 10
186.391899
 20
3.299057
 10
186.344803
 20
3.307362
 10
186.300600
 20
3.318988
 10
186.259291
 20
3.333937
 10
186.220874
 20
3.352207
 10
186.185351
 20
3.373800
 10
186.152722
 20
3.398714
 10
186.123588
 20
3.426475
 10
186.098339
 20
3.456606
 10
186.076974
 20
3.489109
 10
186.059494
 20
3.523982
 10
186.045899
 20
3.561226
 10
186.036187
 20
3.600841
 10
186.030361
 20
3.642827
  0
LWPOLYLINE
  5
40
330
1F
100
AcDbEntity
  8
0
100
AcDbPolyline
 90
11
 70
1
 10
195.891599
 20
1.431719
 10
195.891599
 20
1.873639
 10
197.417531
 20
1.873639
 10
197.321089
 20
1.392713
 10
197.567553
 20
1.392713
 10
197.663995
 20
1.871067
 10
197.663995
 20
2.141535
 10
195.891599
 20
2.141535
 10
195.891599
 20
2.583455
 10
195.663995
 20
2.583455
 10
195.663995
 20
1.431719
  0
LWPOLYLINE
  5
41
330
1F
100
AcDbEntity
  8
0
100
AcDbPolyline
 90
64
 70
1
 10
197.485684
 20
3.708616
 10
197.482469
 20
3.658044
 10
197.472825
 20
3.610700
 10
197.456751
 20
3.566584
 10
197.434248
 20
3.525697
 10
197.405315
 20
3.488037
 10
197.369953
 20
3.453606
 10
197.328161
 20
3.422403
 10
197.279940
 20
3.394428
 10
197.225370
 20
3.369815
 10
197.164316
 20
3.348484
 10
197.096780
 20
3.330434
 10
197.022760
 20
3.315667
 10
196.942258
 20
3.304181
 10
196.855272
 20
3.295976
 10
196.761803
 20
3.291054
 10
196.661852
 20
3.289413
 10
196.562295
 20
3.291054
 10
196.469155
 20
3.295976
 10
196.382430
 20
3.304181
 10
196.302122
 20
3.315667
 10
196.228229
 20
3.330434
 10
196.160753
 20
3.348484
 10
196.099693
 20
3.369815
 10
196.045049
 20
3.394428
 10
195.996828
 20
3.422403
 10
195.955036
 20
3.453606
 10
195.919674
 20
3.488037
 10
195.890742
 20
3.525697
 10
195.868238
 20
3.566584
 10
195.852165
 20
3.610700
 10
195.842520
 20
3.658044
 10
195.839306
 20
3.708616
 10
195.842520
 20
3.759583
 10
195.852165
 20
3.807255
 10
195.868238
 20
3.851631
 10
195.890742
 20
3.892713
 10
195.919674
 20
3.930500
 10
195.955036
 20
3.964991
 10
195.996828
 20
3.996188
 10
196.045049
 20
4.024089
 10
196.099693
 20
4.048803
 10
196.160753
 20
4.070221
 10
196.228229
 20
4.088344
 10
196.302122
 20
4.103172
 10
196.382430
 20
4.114705
 10
196.469155
 20
4.122943
 10
196.562295
 20
4.127885
 10
196.661852
 20
4.129533
 10
196.761803
 20
4.127885
 10
196.855272
 20
4.122943
 10
196.942258
 20
4.114705
 10
197.022760
 20
4.103172
 10
197.096780
 20
4.088344
 10
197.164316
 20
4.070221
 10
197.225370
 20
4.048803
 10
197.279940
 20
4.024089
 10
197.328161
 20
3.996188
 10
197.369953
 20
3.964991
 10
197.405315
 20
3.930500
 10
197.434248
 20
3.892713
 10
197.456751
 20
3.851631
 10
197.472825
 20
3.807255
 10
197.482469
 20
3.759583
  0
LWPOLYLINE
  5
42
330
1F
100
AcDbEntity
  8
0
100
AcDbPolyline
 90
64
 70
1
 10
197.700000
 20
3.708616
 10
197.695841
 20
3.790250
 10
197.683364
 20
3.866915
 10
197.662568
 20
3.938610
 10
197.633455
 20
4.005336
 10
197.596023
 20
4.067093
 10
197.550273
 20
4.123880
 10
197.496205
 20
4.175698
 10
197.433819
 20
4.222546
 10
197.363624
 20
4.264137
 10
197.285914
 20
4.300182
 10
197.200690
 20
4.330682
 10
197.107951
 20
4.355637
 10
197.007698
 20
4.375046
 10
196.899930
 20
4.388909
 10
196.784648
 20
4.397227
 10
196.661852
 20
4.400000
 10
196.539350
 20
4.397227
 10
196.424309
 20
4.388909
 10
196.316729
 20
4.375046
 10
196.216610
 20
4.355637
 10
196.123951
 20
4.330682
 10
196.038754
 20
4.300182
 10
195.961017
 20
4.264137
 10
195.890742
 20
4.222546
 10
195.828456
 20
4.175698
 10
195.774475
 20
4.123880
 10
195.728799
 20
4.067093
 10
195.691427
 20
4.005336
 10
195.662361
 20
3.938610
 10
195.641599
 20
3.866915
 10
195.629142
 20
3.790250
 10
195.624989
 20
3.708616
 10
195.629142
 20
3.627082
 10
195.641599
 20
3.550504
 10
195.662361
 20
3.478882
 10
195.691427
 20
3.412216
 10
195.728799
 20
3.350506
 10
195.774475
 20
3.293753
 10
195.828456
 20
3.241955
 10
195.890742
 20
3.195114
 10
195.961017
 20
3.153523
 10
196.038754
 20
3.117477
 10
196.123951
 20
3.086978
 10
196.216610
 20
3.062023
 10
196.316729
 20
3.042614
 10
196.424309
 20
3.028751
 10
196.539350
 20
3.020432
 10
196.661852
 20
3.017660
 10
196.784648
 20
3.020432
 10
196.899930
 20
3.028751
 10
197.007698
 20
3.042614
 10
197.107951
 20
3.062023
 10
197.200690
 20
3.086978
 10
197.285914
 20
3.117477
 10
197.363624
 20
3.153523
 10
197.433819
 20
3.195114
 10
197.496205
 20
3.241955
 10
197.550273
 20
3.293753
 10
197.596023
 20
3.350506
 10
197.633455
 20
3.412216
 10
197.662568
 20
3.478882
 10
197.683364
 20
3.550504
 10
197.695841
 20
3.627082
  0
ENDSEC
  0
SECTION
  2
OBJECTS
  0
DICTIONARY
  5
C
330
0
100
AcDbDictionary
281
1
  3
ACAD_GROUP
350
D
  0
DICTIONARY
  5
D
330
C
100
AcDbDictionary
281
1
  0
ENDSEC
  0
EOF
