  0
SECTION
  2
HEADER
  9
$ACADVER
  1
AC1027
  9
$ACADMAINTVER
 70
105
  9
$DWGCODEPAGE
  3
ANSI_1252
  9
$LASTSAVEDBY
  1
ezdxf
  9
$REQUIREDVERSIONS
160
0
  9
$INSBASE
 10
0.0
 20
0.0
 30
0.0
  9
$EXTMIN
 10
1e+20
 20
1e+20
 30
1e+20
  9
$EXTMAX
 10
-1e+20
 20
-1e+20
 30
-1e+20
  9
$LIMMIN
 10
0.0
 20
0.0
  9
$LIMMAX
 10
420.0
 20
297.0
  9
$ORTHOMODE
 70
0
  9
$REGENMODE
 70
1
  9
$FILLMODE
 70
1
  9
$QTEXTMODE
 70
0
  9
$MIRRTEXT
 70
1
  9
$LTSCALE
 40
1.0
  9
$ATTMODE
 70
1
  9
$TEXTSIZE
 40
2.5
  9
$TRACEWID
 40
1.0
  9
$TEXTSTYLE
  7
Standard
  9
$CLAYER
  8
0
  9
$CELTYPE
  6
ByLayer
  9
$CECOLOR
 62
256
  9
$CELTSCALE
 40
1.0
  9
$DISPSILH
 70
0
  9
$DIMSCALE
 40
1.0
  9
$DIMASZ
 40
2.5
  9
$DIMEXO
 40
0.625
  9
$DIMDLI
 40
3.75
  9
$DIMRND
 40
0.0
  9
$DIMDLE
 40
0.0
  9
$DIMEXE
 40
1.25
  9
$DIMTP
 40
0.0
  9
$DIMTM
 40
0.0
  9
$DIMTXT
 40
2.5
  9
$DIMCEN
 40
2.5
  9
$DIMTSZ
 40
0.0
  9
$DIMTOL
 70
0
  9
$DIMLIM
 70
0
  9
$DIMTIH
 70
0
  9
$DIMTOH
 70
0
  9
$DIMSE1
 70
0
  9
$DIMSE2
 70
0
  9
$DIMTAD
 70
1
  9
$DIMZIN
 70
8
  9
$DIMBLK
  1

  9
$DIMASO
 70
1
  9
$DIMSHO
 70
1
  9
$DIMPOST
  1

  9
$DIMAPOST
  1

  9
$DIMALT
 70
0
  9
$DIMALTD
 70
3
  9
$DIMALTF
 40
0.03937007874
  9
$DIMLFAC
 40
1.0
  9
$DIMTOFL
 70
1
  9
$DIMTVP
 40
0.0
  9
$DIMTIX
 70
0
  9
$DIMSOXD
 70
0
  9
$DIMSAH
 70
0
  9
$DIMBLK1
  1

  9
$DIMBLK2
  1

  9
$DIMSTYLE
  2
ISO-25
  9
$DIMCLRD
 70
0
  9
$DIMCLRE
 70
0
  9
$DIMCLRT
 70
0
  9
$DIMTFAC
 40
1.0
  9
$DIMGAP
 40
0.625
  9
$DIMJUST
 70
0
  9
$DIMSD1
 70
0
  9
$DIMSD2
 70
0
  9
$DIMTOLJ
 70
0
  9
$DIMTZIN
 70
8
  9
$DIMALTZ
 70
0
  9
$DIMALTTZ
 70
0
  9
$DIMUPT
 70
0
  9
$DIMDEC
 70
2
  9
$DIMTDEC
 70
2
  9
$DIMALTU
 70
2
  9
$DIMALTTD
 70
3
  9
$DIMTXSTY
  7
Standard
  9
$DIMAUNIT
 70
0
  9
$DIMADEC
 70
0
  9
$DIMALTRND
 40
0.0
  9
$DIMAZIN
 70
0
  9
$DIMDSEP
 70
44
  9
$DIMATFIT
 70
3
  9
$DIMFRAC
 70
0
  9
$DIMLDRBLK
  1

  9
$DIMLUNIT
 70
2
  9
$DIMLWD
 70
-2
  9
$DIMLWE
 70
-2
  9
$DIMTMOVE
 70
0
  9
$DIMFXL
 40
1.0
  9
$DIMFXLON
 70
0
  9
$DIMJOGANG
 40
0.785398163397
  9
$DIMTFILL
 70
0
  9
$DIMTFILLCLR
 70
0
  9
$DIMARCSYM
 70
0
  9
$DIMLTYPE
  6

  9
$DIMLTEX1
  6

  9
$DIMLTEX2
  6

  9
$DIMTXTDIRECTION
 70
0
  9
$LUNITS
 70
2
  9
$LUPREC
 70
4
  9
$SKETCHINC
 40
1.0
  9
$FILLETRAD
 40
10.0
  9
$AUNITS
 70
0
  9
$AUPREC
 70
2
  9
$MENU
  1
.
  9
$ELEVATION
 40
0.0
  9
$PELEVATION
 40
0.0
  9
$THICKNESS
 40
0.0
  9
$LIMCHECK
 70
0
  9
$CHAMFERA
 40
0.0
  9
$CHAMFERB
 40
0.0
  9
$CHAMFERC
 40
0.0
  9
$CHAMFERD
 40
0.0
  9
$SKPOLY
 70
0
  9
$TDCREATE
 40
2461211.7670486113
  9
$TDUCREATE
 40
2458532.153996898
  9
$TDUPDATE
 40
2461211.7670486113
  9
$TDUUPDATE
 40
2458532.1544311
  9
$TDINDWG
 40
0.0
  9
$TDUSRTIMER
 40
0.0
  9
$USRTIMER
 70
1
  9
$ANGBASE
 50
0.0
  9
$ANGDIR
 70
0
  9
$PDMODE
 70
0
  9
$PDSIZE
 40
0.0
  9
$PLINEWID
 40
0.0
  9
$SPLFRAME
 70
0
  9
$SPLINETYPE
 70
6
  9
$SPLINESEGS
 70
8
  9
$HANDSEED
  5
5F
  9
$SURFTAB1
 70
6
  9
$SURFTAB2
 70
6
  9
$SURFTYPE
 70
6
  9
$SURFU
 70
6
  9
$SURFV
 70
6
  9
$UCSBASE
  2

  9
$UCSNAME
  2

  9
$UCSORG
 10
0.0
 20
0.0
 30
0.0
  9
$UCSXDIR
 10
1.0
 20
0.0
 30
0.0
  9
$UCSYDIR
 10
0.0
 20
1.0
 30
0.0
  9
$UCSORTHOREF
  2

  9
$UCSORTHOVIEW
 70
0
  9
$UCSORGTOP
 10
0.0
 20
0.0
 30
0.0
  9
$UCSORGBOTTOM
 10
0.0
 20
0.0
 30
0.0
  9
$UCSORGLEFT
 10
0.0
 20
0.0
 30
0.0
  9
$UCSORGRIGHT
 10
0.0
 20
0.0
 30
0.0
  9
$UCSORGFRONT
 10
0.0
 20
0.0
 30
0.0
  9
$UCSORGBACK
 10
0.0
 20
0.0
 30
0.0
  9
$PUCSBASE
  2

  9
$PUCSNAME
  2

  9
$PUCSORG
 10
0.0
 20
0.0
 30
0.0
  9
$PUCSXDIR
 10
1.0
 20
0.0
 30
0.0
  9
$PUCSYDIR
 10
0.0
 20
1.0
 30
0.0
  9
$PUCSORTHOREF
  2

  9
$PUCSORTHOVIEW
 70
0
  9
$PUCSORGTOP
 10
0.0
 20
0.0
 30
0.0
  9
$PUCSORGBOTTOM
 10
0.0
 20
0.0
 30
0.0
  9
$PUCSORGLEFT
 10
0.0
 20
0.0
 30
0.0
  9
$PUCSORGRIGHT
 10
0.0
 20
0.0
 30
0.0
  9
$PUCSORGFRONT
 10
0.0
 20
0.0
 30
0.0
  9
$PUCSORGBACK
 10
0.0
 20
0.0
 30
0.0
  9
$USERI1
 70
0
  9
$USERI2
 70
0
  9
$USERI3
 70
0
  9
$USERI4
 70
0
  9
$USERI5
 70
0
  9
$USERR1
 40
0.0
  9
$USERR2
 40
0.0
  9
$USERR3
 40
0.0
  9
$USERR4
 40
0.0
  9
$USERR5
 40
0.0
  9
$WORLDVIEW
 70
1
  9
$SHADEDGE
 70
3
  9
$SHADEDIF
 70
70
  9
$TILEMODE
 70
1
  9
$MAXACTVP
 70
64
  9
$PINSBASE
 10
0.0
 20
0.0
 30
0.0
  9
$PLIMCHECK
 70
0
  9
$PEXTMIN
 10
1e+20
 20
1e+20
 30
1e+20
  9
$PEXTMAX
 10
-1e+20
 20
-1e+20
 30
-1e+20
  9
$PLIMMIN
 10
0.0
 20
0.0
  9
$PLIMMAX
 10
420.0
 20
297.0
  9
$UNITMODE
 70
0
  9
$VISRETAIN
 70
1
  9
$PLINEGEN
 70
0
  9
$PSLTSCALE
 70
1
  9
$TREEDEPTH
 70
3020
  9
$CMLSTYLE
  2
Standard
  9
$CMLJUST
 70
0
  9
$CMLSCALE
 40
20.0
  9
$PROXYGRAPHICS
 70
1
  9
$MEASUREMENT
 70
1
  9
$CELWEIGHT
370
-1
  9
$ENDCAPS
280
0
  9
$JOINSTYLE
280
0
  9
$LWDISPLAY
290
0
  9
$INSUNITS
 70
4
  9
$HYPERLINKBASE
  1

  9
$STYLESHEET
  1

  9
$XEDIT
290
1
  9
$CEPSNTYPE
380
0
  9
$PSTYLEMODE
290
1
  9
$FINGERPRINTGUID
  2
{D0F353C5-680F-43D0-A59A-60B12422B67C}
  9
$VERSIONGUID
  2
{2EC11A01-5014-4B82-8646-4A5C04B3A757}
  9
$EXTNAMES
290
1
  9
$PSVPSCALE
 40
0.0
  9
$OLESTARTUP
290
0
  9
$SORTENTS
280
127
  9
$INDEXCTL
280
0
  9
$HIDETEXT
280
1
  9
$XCLIPFRAME
280
1
  9
$HALOGAP
280
0
  9
$OBSCOLOR
 70
257
  9
$OBSLTYPE
280
0
  9
$INTERSECTIONDISPLAY
280
0
  9
$INTERSECTIONCOLOR
 70
257
  9
$DIMASSOC
280
2
  9
$PROJECTNAME
  1

  9
$CAMERADISPLAY
290
0
  9
$LENSLENGTH
 40
50.0
  9
$CAMERAHEIGHT
 40
0.0
  9
$STEPSPERSEC
 40
24.0
  9
$STEPSIZE
 40
100.0
  9
$3DDWFPREC
 40
2.0
  9
$PSOLWIDTH
 40
0.005
  9
$PSOLHEIGHT
 40
0.08
  9
$LOFTANG1
 40
1.570796326795
  9
$LOFTANG2
 40
1.570796326795
  9
$LOFTMAG1
 40
0.0
  9
$LOFTMAG2
 40
0.0
  9
$LOFTPARAM
 70
7
  9
$LOFTNORMALS
280
1
  9
$LATITUDE
 40
37.795
  9
$LONGITUDE
 40
-122.394
  9
$NORTHDIRECTION
 40
0.0
  9
$TIMEZONE
 70
-8000
  9
$LIGHTGLYPHDISPLAY
280
1
  9
$TILEMODELIGHTSYNCH
280
1
  9
$CMATERIAL
347
20
  9
$SOLIDHIST
280
0
  9
$SHOWHIST
280
1
  9
$DWFFRAME
280
2
  9
$DGNFRAME
280
2
  9
$REALWORLDSCALE
290
1
  9
$INTERFERECOLOR
 62
256
  9
$CSHADOW
280
0
  9
$SHADOWPLANELOCATION
 40
0.0
  0
ENDSEC
  0
SECTION
  2
CLASSES
  0
CLASS
  1
ACDBDICTIONARYWDFLT
  2
AcDbDictionaryWithDefault
  3
ObjectDBX Classes
 90
0
 91
0
280
0
281
0
  0
CLASS
  1
SUN
  2
AcDbSun
  3
SCENEOE
 90
1153
 91
0
280
0
281
0
  0
CLASS
  1
VISUALSTYLE
  2
AcDbVisualStyle
  3
ObjectDBX Classes
 90
4095
 91
0
280
0
281
0
  0
CLASS
  1
MATERIAL
  2
AcDbMaterial
  3
ObjectDBX Classes
 90
1153
 91
0
280
0
281
0
  0
CLASS
  1
SCALE
  2
AcDbScale
  3
ObjectDBX Classes
 90
1153
 91
0
280
0
281
0
  0
CLASS
  1
TABLESTYLE
  2
AcDbTableStyle
  3
ObjectDBX Classes
 90
4095
 91
0
280
0
281
0
  0
CLASS
  1
MLEADERSTYLE
  2
AcDbMLeaderStyle
  3
ACDB_MLEADERSTYLE_CLASS
 90
4095
 91
0
280
0
281
0
  0
CLASS
  1
DICTIONARYVAR
  2
AcDbDictionaryVar
  3
ObjectDBX Classes
 90
0
 91
0
280
0
281
0
  0
CLASS
  1
CELLSTYLEMAP
  2
AcDbCellStyleMap
  3
ObjectDBX Classes
 90
1152
 91
0
280
0
281
0
  0
CLASS
  1
MENTALRAYRENDERSETTINGS
  2
AcDbMentalRayRenderSettings
  3
SCENEOE
 90
1024
 91
0
280
0
281
0
  0
CLASS
  1
ACDBDETAILVIEWSTYLE
  2
AcDbDetailViewStyle
  3
ObjectDBX Classes
 90
1025
 91
0
280
0
281
0
  0
CLASS
  1
ACDBSECTIONVIEWSTYLE
  2
AcDbSectionViewStyle
  3
ObjectDBX Classes
 90
1025
 91
0
280
0
281
0
  0
CLASS
  1
RASTERVARIABLES
  2
AcDbRasterVariables
  3
ISM
 90
0
 91
0
280
0
281
0
  0
CLASS
  1
ACDBPLACEHOLDER
  2
AcDbPlaceHolder
  3
ObjectDBX Classes
 90
0
 91
0
280
0
281
0
  0
CLASS
  1
LAYOUT
  2
AcDbLayout
  3
ObjectDBX Classes
 90
0
 91
0
280
0
281
0
  0
ENDSEC
  0
SECTION
  2
TABLES
  0
TABLE
  2
VPORT
  5
8
330
0
100
AcDbSymbolTable
 70
1
  0
VPORT
  5
23
330
8
100
AcDbSymbolTableRecord
100
AcDbViewportTableRecord
  2
*Active
 70
0
 10
0.0
 20
0.0
 11
1.0
 21
1.0
 12
0.0
 22
0.0
 13
0.0
 23
0.0
 14
0.5
 24
0.5
 15
0.5
 25
0.5
 16
0.0
 26
0.0
 36
1.0
 17
0.0
 27
0.0
 37
0.0
 40
1000.0
 41
1.34
 42
50.0
 43
0.0
 44
0.0
 50
0.0
 51
0.0
 71
0
 72
1000
 73
1
 74
3
 75
0
 76
0
 77
0
 78
0
281
0
 65
0
146
0.0
  0
ENDTAB
  0
TABLE
  2
LTYPE
  5
2
330
0
100
AcDbSymbolTable
 70
3
  0
LTYPE
  5
24
330
2
100
AcDbSymbolTableRecord
100
AcDbLinetypeTableRecord
  2
ByBlock
 70
0
  3

 72
65
 73
0
 40
0.0
  0
LTYPE
  5
25
330
2
100
AcDbSymbolTableRecord
100
AcDbLinetypeTableRecord
  2
ByLayer
 70
0
  3

 72
65
 73
0
 40
0.0
  0
LTYPE
  5
26
330
2
100
AcDbSymbolTableRecord
100
AcDbLinetypeTableRecord
  2
Continuous
 70
0
  3

 72
65
 73
0
 40
0.0
  0
ENDTAB
  0
TABLE
  2
LAYER
  5
1
330
0
100
AcDbSymbolTable
 70
2
  0
LAYER
  5
27
330
1
100
AcDbSymbolTableRecord
100
AcDbLayerTableRecord
  2
0
 70
0
 62
7
  6
Continuous
370
-3
390
13
347
21
  0
LAYER
  5
28
330
1
100
AcDbSymbolTableRecord
100
AcDbLayerTableRecord
  2
Defpoints
 70
0
 62
7
  6
Continuous
290
0
370
-3
390
13
347
21
  0
ENDTAB
  0
TABLE
  2
STYLE
  5
5
330
0
100
AcDbSymbolTable
 70
1
  0
STYLE
  5
29
330
5
100
AcDbSymbolTableRecord
100
AcDbTextStyleTableRecord
  2
Standard
 70
0
 40
0.0
 41
1.0
 50
0.0
 71
0
 42
2.5
  3
txt
  4

  0
ENDTAB
  0
TABLE
  2
VIEW
  5
7
330
0
100
AcDbSymbolTable
 70
0
  0
ENDTAB
  0
TABLE
  2
UCS
  5
6
330
0
100
AcDbSymbolTable
 70
0
  0
ENDTAB
  0
TABLE
  2
APPID
  5
3
330
0
100
AcDbSymbolTable
 70
3
  0
APPID
  5
2A
330
3
100
AcDbSymbolTableRecord
100
AcDbRegAppTableRecord
  2
ACAD
 70
0
  0
APPID
  5
5C
330
3
100
AcDbSymbolTableRecord
100
AcDbRegAppTableRecord
  2
HATCHBACKGROUNDCOLOR
 70
0
  0
APPID
  5
5D
330
3
100
AcDbSymbolTableRecord
100
AcDbRegAppTableRecord
  2
EZDXF
 70
0
  0
ENDTAB
  0
TABLE
  2
DIMSTYLE
  5
4
330
0
100
AcDbSymbolTable
 70
1
100
AcDbDimStyleTable
  0
DIMSTYLE
105
2B
330
4
100
AcDbSymbolTableRecord
100
AcDbDimStyleTableRecord
  2
Standard
 70
0
 40
1.0
 41
2.5
 42
0.625
 43
3.75
 44
1.25
 45
0.0
 46
0.0
 47
0.0
 48
0.0
 49
2.5
140
2.5
141
2.5
142
0.0
143
0.03937007874
144
1.0
145
0.0
146
1.0
147
0.625
148
0.0
 69
0
 70
0
 71
0
 72
0
 73
0
 74
0
 75
0
 76
0
 77
1
 78
8
 79
3
170
0
171
3
172
1
173
0
174
0
175
0
176
0
177
0
178
0
179
2
271
2
272
2
273
2
274
3
275
0
276
0
277
2
278
44
279
0
280
0
281
0
282
0
283
0
284
8
285
0
286
0
288
0
289
3
290
0
371
-2
372
-2
  0
ENDTAB
  0
TABLE
  2
BLOCK_RECORD
  5
9
330
0
100
AcDbSymbolTable
 70
2
  0
BLOCK_RECORD
  5
17
330
9
100
AcDbSymbolTableRecord
100
AcDbBlockTableRecord
  2
*Model_Space
340
1A
 70
0
280
1
281
0
  0
BLOCK_RECORD
  5
1B
330
9
100
AcDbSymbolTableRecord
100
AcDbBlockTableRecord
  2
*Paper_Space
340
1E
 70
0
280
1
281
0
  0
ENDTAB
  0
ENDSEC
  0
SECTION
  2
BLOCKS
  0
BLOCK
  5
18
330
17
100
AcDbEntity
  8
0
100
AcDbBlockBegin
  2
*Model_Space
 70
0
 10
0.0
 20
0.0
 30
0.0
  3
*Model_Space
  1

  0
ENDBLK
  5
19
330
17
100
AcDbEntity
  8
0
100
AcDbBlockEnd
  0
BLOCK
  5
1C
330
1B
100
AcDbEntity
  8
0
100
AcDbBlockBegin
  2
*Paper_Space
 70
0
 10
0.0
 20
0.0
 30
0.0
  3
*Paper_Space
  1

  0
ENDBLK
  5
1D
330
1B
100
AcDbEntity
  8
0
100
AcDbBlockEnd
  0
ENDSEC
  0
SECTION
  2
ENTITIES
  0
LWPOLYLINE
  5
2F
330
17
100
AcDbEntity
  8
0
100
AcDbPolyline
 90
92
 70
1
 10
18.27389443651926
 20
40.50523004246166
 10
18.194642767586487
 20
39.335472553160656
 10
18.216833095577748
 20
39.07869651892386
 10
18.194642767586487
 20
38.821920484687055
 10
18.23268308108952
 20
38.53661377997949
 10
18.169282268355477
 20
38.27983774574269
 10
18.188302425106993
 20
38.05159238197664
 10
18.150261240916997
 20
37.79481634773984
 10
18.17879191138775
 20
37.59510165444454
 10
18.153431412156742
 20
37.19567226785396
 10
18.169282268355477
 20
37.05618908673992
 10
18.207322581858506
 20
36.98961723207917
 10
18.35948644793153
 20
36.93255589113766
 10
18.987161198288163
 20
36.92304624810538
 10
19.09811370893144
 20
36.95474621912892
 10
19.18053554910396
 20
37.053018915500175
 10
19.212236390814464
 20
37.25273360879547
 10
19.186875891583455
 20
38.42249109809647
 10
19.215406562054213
 20
38.67926713233327
 10
19.243937232524967
 20
39.96314730351729
 10
19.291488059747238
 20
40.093120406255565
 10
19.386590584878746
 20
40.14067166882133
 10
19.469012425051268
 20
40.11531073424683
 10
19.53558427971202
 20
40.04873931492956
 10
19.66238677586707
 20
39.763432610222
 10
19.808210299460594
 20
39.16428853033612
 10
19.915992638864125
 20
38.96457383704083
 10
19.90648299583185
 20
38.821920484687055
 10
20.011095163995634
 20
38.47955243903798
 10
20.182279186820168
 20
37.709224336327566
 10
20.378823708875714
 20
37.08154958597093
 10
20.454906077255707
 20
36.96425673284816
 10
20.64194008559201
 20
36.9103655631464
 10
20.927246790299577
 20
36.91670590562589
 10
21.02868878722361
 20
36.96108656160841
 10
21.104771155603604
 20
37.053018915500175
 10
21.453479543732172
 20
38.05159238197664
 10
21.713424878521757
 20
39.02163517798235
 10
22.027262253700073
 20
39.82049395116351
 10
22.141384935583098
 20
39.98216746026881
 10
22.21746730396309
 20
40.01069813073957
 10
22.32524964336662
 20
39.934616633046545
 10
22.37280134127586
 20
39.73490193975125
 10
22.353780313837376
 20
38.393960427625714
 10
22.296718972895867
 20
37.25273360879547
 10
22.331589985846115
 20
37.053018915500175
 10
22.39499166926712
 20
36.96108656160841
 10
22.524964336661917
 20
36.913535734386144
 10
22.781740370898717
 20
36.93255589113766
 10
23.12410841654779
 20
36.9103655631464
 10
23.254081083942584
 20
36.957916390368666
 10
23.31748276736359
 20
37.08154958597093
 10
23.36820376582561
 20
37.709224336327566
 10
23.323823109843083
 20
38.19424573433042
 10
23.349184479761057
 20
38.45102176856722
 10
23.35235378031384
 20
39.39253389410217
 10
23.380884450784595
 20
39.64930992833898
 10
23.374544108305102
 20
40.676414065286195
 10
23.409415121255353
 20
41.30408881564283
 10
23.409415121255353
 20
41.67498753176265
 10
23.311142424884096
 20
42.20121984985177
 10
23.20970042796006
 20
42.24877111241753
 10
22.12553495007133
 20
42.28047195412803
 10
21.957520227799577
 20
42.25511101955354
 10
21.843397545916552
 20
42.19170977147601
 10
21.583452211126964
 20
41.47527283846736
 10
21.38373751783167
 20
40.76200607669847
 10
21.364717361080157
 20
40.62252289558444
 10
21.412268188302427
 20
40.4449985302804
 10
21.402757674583185
 20
40.362576690107886
 10
21.21572366624688
 20
40.15652165433309
 10
21.003328287992602
 20
39.60175910111671
 10
20.917736276580335
 20
39.519337260944184
 10
20.813124108416552
 20
39.48129607675419
 10
20.73070226824403
 20
39.503486404745445
 10
20.651450599311254
 20
39.592248587397464
 10
20.467585891527733
 20
40.07726998540032
 10
20.372483366396224
 20
40.50523004246166
 10
20.290061526223703
 20
40.73347540622771
 10
20.042796005706137
 20
41.8461715545872
 10
19.903312824592103
 20
42.17585935062077
 10
19.814550641940087
 20
42.23292069156227
 10
19.586305278174038
 20
42.26145136203303
 10
19.129814550641942
 20
42.245600941177784
 10
18.7018544935806
 20
42.27096144040878
 10
18.530670470756064
 20
42.258281190793284
 10
18.372167132890517
 20
42.18219925775678
 10
18.32144526374153
 20
42.07441691835325
 10
18.27389443651926
 20
41.61792619082115
 10
18.292914593270776
 20
41.04731278140602
 10
18.334125948700517
 20
40.79687708964872
 10
18.27389443651926
 20
40.50523004246166
  0
LWPOLYLINE
  5
30
330
17
100
AcDbEntity
  8
0
100
AcDbPolyline
 90
109
 70
1
 10
16.397210527928856
 20
42.16000892976551
 10
16.308448345276837
 20
41.93176356599946
 10
16.016801298089785
 20
40.590822053873936
 10
15.899508444967013
 20
40.248454008224854
 10
15.870977774496257
 20
39.90608596257579
 10
15.798066448042977
 20
39.706371269280496
 10
15.65224292444945
 20
38.996274678751334
 10
15.525439557607438
 20
38.65073646186252
 10
15.443017717434916
 20
38.56831462168999
 10
15.363766048502143
 20
38.54295412245899
 10
15.255983709098611
 20
38.584164607201764
 10
15.183071511958365
 20
38.67926713233327
 10
15.011887489133828
 20
39.183308687087646
 10
14.999207674861808
 20
39.39253389410217
 10
14.86923413678005
 20
40.13433132634184
 10
14.688540470923236
 20
40.76200607669847
 10
14.457124935917442
 20
42.017355577411735
 10
14.336661911554923
 20
42.27413161164854
 10
14.276430399373666
 20
42.28998203250379
 10
14.051355206847363
 20
42.26145136203303
 10
13.56633380884451
 20
42.302662282119286
 10
13.423680456490729
 20
42.28998203250379
 10
13.2461560911867
 20
42.21390009946728
 10
13.160564079774431
 20
42.09977741758425
 10
12.903788045537627
 20
41.18996613375981
 10
12.719923773097587
 20
40.41963803104939
 10
12.513869172666283
 20
39.791963280692755
 10
12.425106990014267
 20
39.364003223631414
 10
12.326834728986494
 20
39.05333601969285
 10
12.342685149841746
 20
38.90434232485957
 10
12.158820877401705
 20
38.60318563464024
 10
12.025677603423683
 20
38.54295412245899
 10
11.943255763251162
 20
38.56831462168999
 10
11.876683908590408
 20
38.62537596263151
 10
11.803772582137128
 20
38.76485914374554
 10
11.632588559312591
 20
39.64930992833898
 10
11.604057888841837
 20
39.99167797398805
 10
11.486765035719063
 20
40.33404601963713
 10
11.467744443624067
 20
40.70494473575695
 10
11.33143143374978
 20
41.67498753176265
 10
11.179267567676758
 20
42.23609086280203
 10
11.131716740454486
 20
42.2836416900243
 10
11.055634807417977
 20
42.302662282119286
 10
10.256776034236808
 20
42.302662282119286
 10
10.142653352353783
 20
42.28047195412803
 10
10.066571636989014
 20
42.23292069156227
 10
10.009510296047502
 20
42.13147825929475
 10
10.000000000000002
 20
42.017355577411735
 10
10.155333601969287
 20
41.07584345187678
 10
10.65937559206714
 20
38.593675120921006
 10
10.744967603479406
 20
38.40981041313748
 10
10.713266761768903
 20
38.27349740326319
 10
10.75764785309491
 20
38.232286918520415
 10
10.811539022796676
 20
38.30202807373395
 10
10.878110442113947
 20
38.19424573433042
 10
10.897131034208945
 20
37.85187768868135
 10
10.865430192498442
 20
37.65216299538605
 10
10.874940706217682
 20
37.480978972561516
 10
10.973212967245455
 20
37.13861092691245
 10
11.020763794467726
 20
36.53946684702657
 10
11.084165477888732
 20
36.140037460435984
 10
11.169757489301002
 20
35.82620008525767
 10
11.23632890861827
 20
35.734267731365904
 10
11.340941512125537
 20
35.67720639042439
 10
11.483594864479318
 20
35.655016062433134
 10
12.25392296718973
 20
35.667696747392114
 10
12.418766647534774
 20
35.734267731365904
 10
12.504358658947043
 20
35.82620008525767
 10
12.574100684847542
 20
36.02591477855296
 10
12.643842275404559
 20
36.4538748356143
 10
13.201775435204176
 20
38.365429757154956
 10
13.366619115549216
 20
39.02163517798235
 10
13.575843887220268
 20
39.44959523504369
 10
13.651925820256778
 20
39.50982674722495
 10
13.737517831669047
 20
39.53518724645595
 10
13.867490934407321
 20
39.484466247993936
 10
13.940402696204085
 20
39.40838387961395
 10
14.092566126933624
 20
38.78704947173681
 10
14.184498480825386
 20
38.549294464938484
 10
14.21302915129614
 20
38.02306171150588
 10
14.438103908478961
 20
36.96742690408791
 10
14.457124935917442
 20
36.71065086985111
 10
14.58075726083274
 20
36.082976119494475
 10
14.669519443484756
 20
35.778649258035394
 10
14.717071141393994
 20
35.721587917093885
 10
14.821683309557777
 20
35.67720639042439
 10
15.135520684736093
 20
35.626485391962376
 10
15.620542082738947
 20
35.639166076921356
 10
15.788555934323737
 20
35.683546732903885
 10
15.880488288215497
 20
35.75011858756464
 10
15.959739957148273
 20
35.911792096669934
 10
16.24504666185583
 20
36.93889623361716
 10
16.321128159548863
 20
37.360515948199
 10
16.47329202562188
 20
37.709224336327566
 10
16.587414707504905
 20
38.25130707527193
 10
16.736408402338178
 20
38.76485914374554
 10
16.926612581914235
 20
39.62077925786822
 10
16.94563360935271
 20
39.96314730351729
 10
17.0122045933265
 20
40.30551534916637
 10
17.28483148376204
 20
40.87612875858149
 10
17.50356633380885
 20
41.589395520350394
 10
17.63036970065086
 20
42.102947588823994
 10
17.62719952941111
 20
42.18219925775678
 10
17.579647831501873
 20
42.245600941177784
 10
17.417974322396578
 20
42.29315220374353
 10
17.10413694721826
 20
42.27413161164854
 10
16.8188302425107
 20
42.29949211087954
 10
16.53352353780314
 20
42.26462153327277
 10
16.397210527928856
 20
42.16000892976551
  0
LWPOLYLINE
  5
31
330
17
100
AcDbEntity
  8
0
100
AcDbPolyline
 90
50
 70
1
 10
32.31098430813124
 20
38.08012305244739
 10
32.1524809702657
 20
37.3668562906785
 10
31.70233058521309
 20
35.854730755728426
 10
31.705499885765875
 20
35.68671690414364
 10
31.75305158367511
 20
35.62965556320212
 10
31.854493580599147
 20
35.59795472149162
 10
32.596291012838805
 20
35.58527403653263
 10
32.88159771754637
 20
35.62965556320212
 10
32.96718972895863
 20
35.71207740337464
 10
33.017910727420656
 20
35.82620008525767
 10
33.258836776145685
 20
36.824773551734125
 10
33.398319086572755
 20
37.01180756007044
 10
33.537803138373754
 20
37.091060099690175
 10
33.7660485021398
 20
37.13861092691245
 10
34.0228245363766
 20
37.11008025644169
 10
34.850213980028535
 20
37.119590770160926
 10
35.16405135520685
 20
37.040338230541195
 10
35.31938539251962
 20
36.88183489267564
 10
35.496909757823644
 20
36.140037460435984
 10
35.534950071326676
 20
35.854730755728426
 10
35.636392068250714
 20
35.645505548713885
 10
35.763195435092726
 20
35.59795472149162
 10
36.3623395149786
 20
35.56942405102086
 10
36.79029957203994
 20
35.59161437901213
 10
36.85687229738767
 20
35.639166076921356
 10
36.894910869516764
 20
35.71207740337464
 10
36.879060884005
 20
35.883261426199184
 10
36.76176890156919
 20
36.311221483260525
 10
36.64447691913338
 20
36.596528187968076
 10
36.543034922209344
 20
36.995957574558666
 10
36.454270127496436
 20
37.53804031350303
 10
36.34332022891405
 20
37.8804083591521
 10
36.27357820301356
 20
38.27983774574269
 10
36.12458450818028
 20
38.67926713233327
 10
35.98827149830599
 20
39.364003223631414
 10
35.798066448042974
 20
40.07726998540032
 10
35.696624451118936
 20
40.33404601963713
 10
35.563480741797434
 20
40.81906741763997
 10
35.30036436508114
 20
42.07441691835325
 10
35.16405135520685
 20
42.20121984985177
 10
34.99286733238232
 20
42.24243076993804
 10
34.650499286733236
 20
42.22024044194677
 10
34.365192582025685
 20
42.251941283657274
 10
33.680456490727536
 20
42.24877111241753
 10
33.56950310939729
 20
42.223410613186516
 10
33.47757249687946
 20
42.15366858728602
 10
33.404659429052245
 20
42.017355577411735
 10
33.22079646264265
 20
41.3896808270551
 10
32.878428416993586
 20
40.04873931492956
 10
32.31098430813124
 20
38.08012305244739
  0
LWPOLYLINE
  5
32
330
17
100
AcDbEntity
  8
0
100
AcDbPolyline
 90
19
 70
1
 10
34.850213980028535
 20
38.09597303795917
 10
34.679029957203994
 20
38.026231882745634
 10
34.20351820223342
 20
38.00721172599411
 10
33.908701854493586
 20
38.03574239646487
 10
33.79774847316334
 20
38.092803737406385
 10
33.73751783166905
 20
38.165715063859665
 10
33.6963064762393
 20
38.3368990866842
 10
33.70581786064551
 20
38.53661377997949
 10
33.9055325539408
 20
39.39253389410217
 10
34.04818590629458
 20
39.82049395116351
 10
34.17498753176267
 20
40.387937189338885
 10
34.25741024262215
 20
40.470359029511414
 10
34.40957323800821
 20
40.514740120837416
 10
34.49833629134719
 20
40.51157038494115
 10
34.55222659036198
 20
40.448168701520146
 10
34.717070270707026
 20
39.53518724645595
 10
34.92946564896131
 20
38.65073646186252
 10
34.954827018879286
 20
38.25130707527193
 10
34.850213980028535
 20
38.09597303795917
  0
LWPOLYLINE
  5
33
330
17
100
AcDbEntity
  8
0
100
AcDbPolyline
 90
96
 70
1
 10
26.173720856365907
 20
40.33721619087687
 10
26.252972525298684
 20
40.213582995274606
 10
26.271991811363232
 20
40.13433132634184
 10
26.233951497860204
 20
39.506656575985204
 10
26.233951497860204
 20
37.45244830209076
 10
26.29735318128121
 20
37.053018915500175
 10
26.386114493246257
 20
36.71065086985111
 10
26.525598545047256
 20
36.396813494672784
 10
26.680932582360025
 20
36.168568130906735
 10
26.83309557774608
 20
36.01323409359397
 10
27.232524964336665
 20
35.72475808833363
 10
27.63195435092725
 20
35.572594222260605
 10
28.002853067047077
 20
35.499682025120364
 10
28.43081312410842
 20
35.48066186836885
 10
29.029957203994297
 20
35.60112489273136
 10
29.229671897289588
 20
35.67720639042439
 10
29.7432239657632
 20
35.99104376560271
 10
29.88587731811698
 20
36.038595463511946
 10
29.971469329529246
 20
36.029084949792704
 10
30.079251668932777
 20
35.95934292389221
 10
30.17118402282454
 20
35.82620008525767
 10
30.24092604872504
 20
35.65818623367288
 10
30.3170066757311
 20
35.5789345647401
 10
30.485021398002857
 20
35.559913537301625
 10
30.808368416213447
 20
35.60746523521085
 10
30.8527508135699
 20
35.683546732903885
 10
30.855920114122686
 20
35.96885343761144
 10
30.897131469552427
 20
36.28269081278977
 10
30.874941141561166
 20
36.625058858438834
 10
30.912981455064198
 20
36.96742690408791
 10
30.890791127072934
 20
37.19567226785396
 10
30.90347181203192
 20
37.42391763162001
 10
30.86226045660218
 20
37.68069366585681
 10
30.90030077010521
 20
38.365429757154956
 10
30.95736211104672
 20
38.622205791391764
 10
30.91932179754369
 20
38.73315830203504
 10
30.798858773181173
 20
38.840940641438564
 10
30.570613409415124
 20
38.89800198238008
 10
29.94293865905849
 20
38.878981825628564
 10
29.65763195435093
 20
38.90751249609932
 10
29.2867332382311
 20
38.86313184011679
 10
28.972895863052784
 20
38.90751249609932
 10
28.687589158345222
 20
38.882151996868316
 10
28.586147161421188
 20
38.834601169646035
 10
28.53859546351195
 20
38.70779780280403
 10
28.53859546351195
 20
38.27983774574269
 10
28.586147161421188
 20
38.172055406339155
 10
28.71611982881598
 20
38.13084405090942
 10
29.429386590584883
 20
38.05159238197664
 10
29.559359257979676
 20
37.959660028084876
 10
29.62276094140068
 20
37.82334701821059
 10
29.60691095588891
 20
37.25273360879547
 10
29.502297917038163
 20
36.9103655631464
 10
29.2867332382311
 20
36.63139920091833
 10
28.94436519258203
 20
36.43802485010253
 10
28.744650499286735
 20
36.39364332343304
 10
28.231098430813127
 20
36.368282824202026
 10
28.05991440798859
 20
36.39998366591253
 10
27.95213206858506
 20
36.46655552057329
 10
27.676335006909774
 20
36.9103655631464
 10
27.600254379903713
 20
37.13861092691245
 10
27.517831669044224
 20
37.53804031350303
 10
27.574893009985736
 20
38.47955243903798
 10
27.574893009985736
 20
39.99167797398805
 10
27.692184992421545
 20
40.73347540622771
 10
27.742907732257493
 20
40.87612875858149
 10
27.87922074213178
 20
41.07584345187678
 10
28.05991440798859
 20
41.253367817180816
 10
28.28815977175464
 20
41.361150156584344
 10
28.601997146932955
 20
41.40870141915009
 10
28.972895863052784
 20
41.367490499063834
 10
29.258202567760346
 20
41.212156461751064
 10
29.46742690408791
 20
40.99025144046452
 10
29.597401312856636
 20
40.61935272434468
 10
29.644951269391942
 20
40.27698467869561
 10
29.702012610333455
 20
40.1945628385231
 10
30.057061340941516
 20
40.13750149758158
 10
30.855920114122686
 20
40.15652165433309
 10
30.922491098096472
 20
40.19139266728334
 10
30.97004279600571
 20
40.27698467869561
 10
30.95736211104672
 20
40.676414065286195
 10
30.8432394291637
 20
41.04731278140602
 10
30.659374721380175
 20
41.41821149752586
 10
30.377239058599326
 20
41.76691988565442
 10
30.228245363766053
 20
41.88421230343371
 10
29.629101283880175
 20
42.172689179381024
 10
29.172610556348076
 20
42.29315220374353
 10
28.773181169757493
 20
42.331192952590044
 10
28.202567760342372
 20
42.30900262459879
 10
27.77460770328103
 20
42.23292069156227
 10
27.34664764621969
 20
42.07441691835325
 10
26.861626248216837
 20
41.73204887270417
 10
26.56997920102978
 20
41.361150156584344
 10
26.373435549661203
 20
40.933190099523
 10
26.287843538248932
 20
40.476699371990904
 10
26.173720856365907
 20
40.33721619087687
  0
LWPOLYLINE
  5
34
330
17
100
AcDbEntity
  8
0
100
AcDbPolyline
 90
63
 70
1
 10
42.89586305278174
 20
40.162861996812595
 10
42.86733238231099
 20
39.90608596257579
 10
42.88635166837554
 20
39.050165848453105
 10
42.86733238231099
 20
36.995957574558666
 10
42.88952445167618
 20
36.79624288126337
 10
42.86733238231099
 20
35.79766941478691
 10
42.899032353334526
 20
35.68671690414364
 10
42.956093694276035
 20
35.62965556320212
 10
43.038516405135525
 20
35.60112489273136
 10
43.89443651925821
 20
35.56942405102086
 10
44.06562054208274
 20
35.582104735979854
 10
44.173404622860204
 20
35.661356404912624
 10
44.22095457939551
 20
35.911792096669934
 10
44.179743223965765
 20
36.65358952890959
 10
44.217785278842726
 20
37.25273360879547
 10
44.179743223965765
 20
37.509509643032274
 10
44.224123879948294
 20
38.10865372291815
 10
44.28435452144259
 20
38.24813690403219
 10
44.37945791726106
 20
38.32421840172521
 10
44.57917261055635
 20
38.365429757154956
 10
44.893009985734665
 20
38.34640960040344
 10
45.03249403753566
 20
38.27983774574269
 10
45.130766733906924
 20
38.187905391850926
 10
45.21635874531919
 20
38.05159238197664
 10
45.460454094597004
 20
37.39538696114925
 10
45.688699458363054
 20
36.9103655631464
 10
45.783799371433666
 20
36.596528187968076
 10
46.167378772512485
 20
35.740608073845394
 10
46.24346288226641
 20
35.639166076921356
 10
46.31954350927247
 20
35.59161437901213
 10
46.433666191155496
 20
35.56942405102086
 10
47.375178316690445
 20
35.56942405102086
 10
47.530512354003214
 20
35.60746523521085
 10
47.55587372392119
 20
35.67720639042439
 10
47.46077032810271
 20
35.854730755728426
 10
47.36249763173146
 20
36.22562947184825
 10
46.67459223988053
 20
37.737755006798324
 10
46.41464690509095
 20
38.45102176856722
 10
46.44951617666727
 20
38.593675120921006
 10
46.52876958697397
 20
38.695117117845044
 10
46.890156918687595
 20
38.955063323321596
 10
47.12157158300642
 20
39.19281920080688
 10
47.286417004725394
 20
39.478125905514446
 10
47.419558972672974
 20
39.82049395116351
 10
47.4734510130617
 20
40.04873931492956
 10
47.44175104203816
 20
40.56229138340318
 10
47.29909768968438
 20
41.10437412234754
 10
47.15327155402996
 20
41.3896808270551
 10
46.83309557774608
 20
41.67815770300241
 10
46.54778887303852
 20
41.8461715545872
 10
46.14835948644794
 20
42.036376169506724
 10
45.60627674750357
 20
42.172689179381024
 10
44.69329529243937
 20
42.20756019233127
 10
44.350927246790306
 20
42.18219925775678
 10
43.922967189728965
 20
42.21390009946728
 10
43.295292439372325
 20
42.217070270707026
 10
43.09557774607703
 20
42.19804967861202
 10
42.956093694276035
 20
42.15366858728602
 10
42.899032353334526
 20
42.096607246344504
 10
42.86099378120542
 20
41.98882490694098
 10
42.86733238231099
 20
41.44674216799662
 10
42.83880171184023
 20
41.21849680423057
 10
42.89586305278174
 20
40.162861996812595
  0
LWPOLYLINE
  5
35
330
17
100
AcDbEntity
  8
0
100
AcDbPolyline
 90
20
 70
1
 10
45.88207206780493
 20
40.96172076999376
 10
46.040575405670474
 20
40.676414065286195
 10
46.088128844953644
 20
40.13433132634184
 10
46.00887543464694
 20
39.791963280692755
 10
45.888414151658345
 20
39.592248587397464
 10
45.771122169222544
 20
39.46227592000267
 10
45.43509272467903
 20
39.284751554698644
 10
44.95007132667618
 20
39.22452004251738
 10
44.43651925820257
 20
39.256220884227886
 10
44.32239657631955
 20
39.30060154021041
 10
44.246315949313484
 20
39.36717339487116
 10
44.179743223965765
 20
39.53518724645595
 10
44.173404622860204
 20
40.61935272434468
 10
44.21144319498931
 20
41.07584345187678
 10
44.297035206401574
 20
41.23434722508581
 10
44.43651925820257
 20
41.30091864440308
 10
44.66476462196862
 20
41.332619486113586
 10
45.2639087018545
 20
41.294578737267074
 10
45.60627674750357
 20
41.16777580576854
 10
45.88207206780493
 20
40.96172076999376
  0
LWPOLYLINE
  5
36
330
17
100
AcDbEntity
  8
0
100
AcDbPolyline
 90
76
 70
1
 10
37.817403708987165
 20
40.07726998540032
 10
37.82691509339337
 20
38.70779780280403
 10
37.79204233906919
 20
38.45102176856722
 10
37.817403708987165
 20
38.19424573433042
 10
37.78887303851641
 20
37.76628567726908
 10
37.817403708987165
 20
37.45244830209076
 10
37.817403708987165
 20
36.567997517497325
 10
37.78887303851641
 20
35.854730755728426
 10
37.82691509339337
 20
35.68671690414364
 10
37.88397643433488
 20
35.62965556320212
 10
37.96005706134095
 20
35.60112489273136
 10
38.530670470756064
 20
35.59795472149162
 10
38.78744650499287
 20
35.56942405102086
 10
39.24393723252497
 20
35.59161437901213
 10
40.01426533523538
 20
35.56942405102086
 10
40.5848787446505
 20
35.588444207772376
 10
41.46932952924394
 20
35.5408933805501
 10
41.74829763284594
 20
35.60429506397111
 10
41.82754756040478
 20
35.71207740337464
 10
41.852908930322755
 20
35.9973841080822
 10
41.78950550552782
 20
36.368282824202026
 10
41.72610556348074
 20
36.46655552057329
 10
41.659532838133025
 20
36.51410634779556
 10
40.756062767475036
 20
36.51410634779556
 10
40.47075606276748
 20
36.48874584856455
 10
40.071326676176895
 20
36.523616861514796
 10
39.81455064194009
 20
36.49508619104404
 10
39.415121255349504
 20
36.517276519035306
 10
39.21857586260699
 20
36.60920887292707
 10
39.16151452166548
 20
36.68212019938035
 10
39.129814550641946
 20
36.79624288126337
 10
39.12347594953638
 20
38.02306171150588
 10
39.148833836706494
 20
38.393960427625714
 10
39.21857586260699
 20
38.50174276702924
 10
39.35805991440799
 20
38.593675120921006
 10
39.50071326676177
 20
38.622205791391764
 10
39.95720399429387
 20
38.61903562015202
 10
40.44222539229672
 20
38.56831462168999
 10
40.756062767475036
 20
38.57148479292974
 10
41.02551948667083
 20
38.65390663310227
 10
41.07306944320614
 20
38.710967974043776
 10
41.09526151257133
 20
38.821920484687055
 10
41.06038875824715
 20
39.335472553160656
 10
40.984308131241086
 20
39.48763641923368
 10
40.90505472093438
 20
39.563717916926706
 10
40.61340941512126
 20
39.53518724645595
 10
39.55777460770329
 20
39.52250656149697
 10
39.32952924393724
 20
39.5763986018857
 10
39.205895177648
 20
39.68418094128923
 10
39.1583452211127
 20
39.763432610222
 10
39.129814550641946
 20
39.90608596257579
 10
39.13615315174751
 20
40.96172076999376
 10
39.19955657654244
 20
41.132904792818294
 10
39.332698544490015
 20
41.259707724316826
 10
39.52924393723253
 20
41.30408881564283
 10
39.95720399429387
 20
41.27555814517207
 10
40.89871611982882
 20
41.27555814517207
 10
41.12696148359487
 20
41.25019764594107
 10
41.61198288159772
 20
41.288238394787584
 10
41.703913494115554
 20
41.345299735729085
 10
41.74829763284594
 20
41.44674216799662
 10
41.7546362339515
 20
41.874702225057945
 10
41.722936262927966
 20
41.97931482856522
 10
41.64051355206848
 20
42.05222659036198
 10
41.41226818830243
 20
42.169519008141265
 10
41.12696148359487
 20
42.217070270707026
 10
39.81455064194009
 20
42.217070270707026
 10
39.186875891583455
 20
42.18853960023627
 10
38.416547788873046
 20
42.23292069156227
 10
38.15977175463624
 20
42.217070270707026
 10
37.934695691422974
 20
42.137818601774256
 10
37.87763435048146
 20
42.08709716796875
 10
37.8491036800107
 20
42.017355577411735
 10
37.801553723475394
 20
41.3896808270551
 10
37.83959577835236
 20
40.27698467869561
 10
37.817403708987165
 20
40.07726998540032
  0
LWPOLYLINE
  5
37
330
17
100
AcDbEntity
  8
0
100
AcDbPolyline
 90
24
 70
1
 10
19.72895863052782
 20
35.48383203960859
 10
21.269614835948648
 20
35.48383203960859
 10
21.526390870185452
 20
35.45530136913784
 10
23.238231098430816
 20
35.44262068417885
 10
23.33333275287536
 20
35.477491697129096
 10
23.380884450784595
 20
35.59795472149162
 10
23.380884450784595
 20
35.911792096669934
 10
23.33333275287536
 20
36.035425292272194
 10
23.238231098430816
 20
36.07980594825472
 10
22.810271041369475
 20
36.111506789965226
 10
22.32524964336662
 20
36.082976119494475
 10
20.356633380884453
 20
36.11467696120498
 10
20.01426533523538
 20
36.09248663321371
 10
19.67189728958631
 20
36.13369711795649
 10
19.215406562054213
 20
36.11467696120498
 10
18.50213980028531
 20
36.1590576171875
 10
18.388017118402285
 20
36.127356775477
 10
18.330955777460773
 20
36.07980594825472
 10
18.280234778998754
 20
35.79766941478691
 10
18.318275092501786
 20
35.5789345647401
 10
18.391187289642033
 20
35.515532881319096
 10
18.473609129814555
 20
35.49651272456758
 10
19.472182596291013
 20
35.51236271007935
 10
19.72895863052782
 20
35.48383203960859
  0
LWPOLYLINE
  5
38
330
17
100
AcDbEntity
  8
0
100
AcDbPolyline
 90
139
 70
1
 10
37.845934379457915
 20
28.592090470644614
 10
38.15977175463624
 20
28.595259771197394
 10
39.01569186875892
 20
28.794974464492686
 10
40.128388017118404
 20
29.340228245363765
 10
40.35663338088445
 20
29.40679922933755
 10
40.69900142653353
 20
29.57798325216209
 10
41.497860199714694
 20
29.841099628878386
 10
41.7546362339515
 20
29.98692228178495
 10
42.26818830242511
 20
30.018623994182416
 10
42.66761768901569
 20
30.13591597661822
 10
43.35235378031384
 20
30.20248870196594
 10
43.751783166904424
 20
30.29125001393099
 10
44.06562054208274
 20
30.29125001393099
 10
45.37803138373752
 20
30.421222681325784
 10
45.63480741797433
 20
30.41171303829351
 10
45.92011412268189
 20
30.45609369427603
 10
46.17689015691869
 20
30.43390336628477
 10
47.20399429386591
 20
30.544856747615015
 10
47.71754636233952
 20
30.55436639064729
 10
48.20256776034237
 20
30.617768074068294
 10
48.716119828815984
 20
30.792121397445612
 10
49.08701854493581
 20
30.975986105229136
 10
49.48644793152639
 20
31.286654179854672
 10
49.686162624821684
 20
31.343715520796184
 10
49.828815977175466
 20
31.28031383737518
 10
50.285306704707565
 20
30.868203765825605
 10
50.39942938659059
 20
30.795292439372325
 10
51.08416547788873
 20
30.57655671863855
 10
51.28388017118402
 20
30.53534536320881
 10
51.48359486447932
 20
30.544856747615015
 10
52.339514978602004
 20
30.34197101239301
 10
53.33808844507846
 20
30.25320970042796
 10
53.680456490727536
 20
30.16444664708898
 10
53.93723252496434
 20
30.16761768901569
 10
56.27674750356634
 20
29.825249643366618
 10
58.33095577746077
 20
29.267315177536553
 10
58.84450784593438
 20
29.08345221112696
 10
59.04422253922968
 20
29.04541015625
 10
59.55777460770329
 20
28.794974464492686
 10
60.128388017118404
 20
28.620621141115368
 10
60.38516405135521
 20
28.51600810226462
 10
60.69900142653353
 20
28.45894676132311
 10
61.24108416547789
 20
28.47796778876159
 10
61.64051355206848
 20
28.598430813124107
 10
62.119196348965765
 20
28.880566475904956
 10
62.236488331401574
 20
29.035900513217722
 10
62.31891104226106
 20
29.264145876983772
 10
62.29671897289587
 20
29.463860570279063
 10
62.20161557707739
 20
29.749167274986625
 10
62.03994293865906
 20
29.97424333819989
 10
61.897289586305284
 20
30.085194978156203
 10
61.55492154065621
 20
30.259550042907453
 10
61.12696148359487
 20
30.421222681325784
 10
60.962116061875896
 20
30.408541996366797
 10
60.911396804787806
 20
30.338801711840226
 10
61.02235018611805
 20
29.920351297811163
 10
61.00332741730564
 20
29.749167274986625
 10
60.92407748974679
 20
29.63821389365638
 10
60.84165477888731
 20
29.574813951609308
 10
60.756062767475036
 20
29.5653025672031
 10
60.49611743268545
 20
29.765017260498393
 10
60.328102710413695
 20
29.815738258960412
 10
60.40418333741976
 20
29.663575263574355
 10
60.3978447363142
 20
29.520921911220576
 10
60.293233438837376
 20
29.359247531428316
 10
60.09985734664765
 20
29.29584584800731
 10
59.95720399429387
 20
29.31169757489301
 10
59.78601997146934
 20
29.378268558866797
 10
59.415121255349504
 20
29.463860570279063
 10
58.50213980028531
 20
29.79671897289586
 10
57.64621968616263
 20
30.05666430768545
 10
57.07560627674751
 20
30.173958031495182
 10
56.8188302425107
 20
30.25320970042796
 10
55.82025677603424
 20
30.440243708764264
 10
55.42082738944366
 20
30.560706733126782
 10
54.907275320970044
 20
30.57655671863855
 10
53.36661911554922
 20
30.8048020824046
 10
52.796005706134096
 20
30.846013437834344
 10
52.45363766048502
 20
30.972816804676352
 10
52.19686162624822
 20
30.991836090740904
 10
51.940085592011414
 20
31.058408816088622
 10
51.76890156918688
 20
31.12814910061519
 10
51.62941751738588
 20
31.23593144001872
 10
51.53748690486805
 20
31.37541549181972
 10
51.51846413605564
 20
31.518068844173502
 10
51.59137894525678
 20
31.689252866998036
 10
51.76890156918688
 20
31.882627217813837
 10
51.91155492154066
 20
31.968219229226104
 10
52.12711960034772
 20
32.031620912647114
 10
52.146138886412274
 20
32.07283226807685
 10
52.02567760342368
 20
32.15208393700963
 10
51.654778887303856
 20
32.25986627641316
 10
50.42796005706134
 20
32.25035663338088
 10
50.085592011412274
 20
32.114043623506596
 10
49.80028530670471
 20
31.92700787379636
 10
49.686162624821684
 20
31.895307902772824
 10
49.572039942938666
 20
31.936519258202566
 10
49.34379457917262
 20
32.12355326653887
 10
49.201141226818834
 20
32.20597423602443
 10
49.0299572039943
 20
32.253525933933666
 10
47.43223965763196
 20
32.253525933933666
 10
47.3339669612607
 20
32.20914527795114
 10
47.32128627630171
 20
32.13940325205064
 10
47.574893009985736
 20
31.993580599144078
 10
47.73973843170471
 20
31.83190621935182
 10
47.80630767430457
 20
31.717783537468794
 10
47.803138373751786
 20
31.575130185115015
 10
47.68901569186876
 20
31.403946162290477
 10
47.574893009985736
 20
31.32152345143099
 10
47.06134094151213
 20
31.172531497971647
 10
46.17689015691869
 20
31.03304744617065
 10
45.03566333808845
 20
30.975986105229136
 10
44.122681883024256
 20
30.86186342334611
 10
43.523537803138375
 20
30.817482767363586
 10
42.18259629101284
 20
30.624108416547788
 10
40.87018544935806
 20
30.250038658501246
 10
40.299572039942944
 20
30.04398362272646
 10
39.67189728958631
 20
29.75550761746612
 10
38.958630527817405
 20
29.479710555790835
 10
38.502139800285306
 20
29.378268558866797
 10
38.045649072753214
 20
29.40679922933755
 10
37.90299572039943
 20
29.47654125523805
 10
37.833253694498936
 20
29.549452581691334
 10
37.77619235355742
 20
29.663575263574355
 10
37.760342368045656
 20
29.834759286398892
 10
37.782534437410845
 20
29.977412638752675
 10
37.89348433599323
 20
30.281740370898714
 10
37.817403708987165
 20
30.36099203983149
 10
37.646219686162624
 20
30.370501682863765
 10
37.30385164051356
 20
30.294419314483772
 10
36.970994979270685
 20
30.07568533512393
 10
36.82516884361627
 20
29.86328995686965
 10
36.75225751716299
 20
29.6350445931036
 10
36.75859960101641
 20
29.378268558866797
 10
36.79029957203994
 20
29.235615206513014
 10
36.898083652817405
 20
29.035900513217722
 10
36.99001426533523
 20
28.93762781684647
 10
37.44650499286733
 20
28.690363167015867
 10
37.845934379457915
 20
28.592090470644614
  0
LWPOLYLINE
  5
39
330
17
100
AcDbEntity
  8
0
100
AcDbPolyline
 90
83
 70
1
 10
36.73323823109843
 20
28.718893837486625
 10
36.3623395149786
 20
28.845695462954705
 10
36.01997146932953
 20
28.931287474366975
 10
35.335235378031385
 20
28.86788579094597
 10
34.96433666191156
 20
28.715722795559913
 10
34.793152639087026
 20
28.579409785685627
 10
34.577587960279956
 20
28.351164421919577
 10
34.39689255304922
 20
27.951735035328994
 10
34.45395389399073
 20
27.60936698967992
 10
34.53003626237073
 20
27.438182966855383
 10
34.650499286733236
 20
27.305039257533878
 10
34.878744650499286
 20
27.20042796005706
 10
34.98969803182953
 20
27.228958630527817
 10
35.084799686274074
 20
27.580836319209165
 10
35.36376604850214
 20
27.88833335190799
 10
35.50641940085592
 20
27.977096405246968
 10
35.93437945791726
 20
28.10706907264176
 10
36.07703281027105
 20
28.100728730162267
 10
36.41940085592012
 20
27.986606048279242
 10
36.676176890156924
 20
27.774210670024964
 10
36.8188302425107
 20
27.60936698967992
 10
36.88540296785842
 20
27.46671363732614
 10
36.88223018455778
 20
27.324060284972358
 10
36.77444958652818
 20
26.896100227911017
 10
36.669838289051356
 20
26.724916205086483
 10
36.447931526390875
 20
26.515691868758914
 10
36.219686162624825
 20
26.38254815943741
 10
36.01997146932953
 20
26.293786847472358
 10
35.791726105563484
 20
26.26208513507489
 10
35.534950071326676
 20
26.157472096224144
 10
35.278174037089876
 20
26.125772125200605
 10
34.56490727532098
 20
26.17015278118313
 10
34.25106990014265
 20
26.236725506530846
 10
33.16690442225392
 20
26.623474208162445
 10
32.596291012838805
 20
26.90244057039051
 10
31.82596291012839
 20
27.387461968393364
 10
31.027104136947223
 20
27.83761235344597
 10
30.570613409415124
 20
28.011965676823287
 10
30.370898716119832
 20
28.03732704674126
 10
29.800285306704712
 20
28.046836689773535
 10
29.51497860199715
 20
27.970756062767475
 10
29.229671897289588
 20
27.8217623679342
 10
28.915834522111272
 20
27.593517004168152
 10
28.776350470310273
 20
27.438182966855383
 10
28.671739172833455
 20
27.067284250735554
 10
28.659058487874468
 20
26.896100227911017
 10
28.68441985779244
 20
26.781977546027996
 10
28.776350470310273
 20
26.61079352320346
 10
28.931684507623043
 20
26.411078829908167
 10
29.05848787446505
 20
26.296956148025142
 10
29.31526390870186
 20
26.147962453191866
 10
29.7432239657632
 20
26.024330128276567
 10
29.971469329529246
 20
26.01164944331758
 10
30.228245363766053
 20
26.0623704417796
 10
30.301156690219333
 20
26.128941425753386
 10
30.272626019748575
 20
26.186002766694898
 10
30.088761311965055
 20
26.354017488966655
 10
29.99683069944722
 20
26.496670841320434
 10
29.97780967200874
 20
26.696385534615725
 10
30.041211355429745
 20
26.839038886969508
 10
30.17118402282454
 20
26.962671211884807
 10
30.399429386590587
 20
27.092645620653528
 10
30.713266761768903
 20
27.14970696159504
 10
30.827389443651928
 20
27.133855234709344
 10
31.141226818830244
 20
26.9690115543643
 10
31.91155492154066
 20
26.464970870296895
 10
33.45221112696149
 20
25.685131383180277
 10
33.7660485021398
 20
25.593199029288513
 10
34.25106990014265
 20
25.51077805980296
 10
35.278174037089876
 20
25.412505363431702
 10
35.93437945791726
 20
25.51077805980296
 10
36.50499286733239
 20
25.675621740148003
 10
37.161198288159774
 20
26.049689756820612
 10
37.288001655001786
 20
26.160643138150853
 10
37.81423440843439
 20
26.781977546027996
 10
37.86495366552247
 20
26.924630898381775
 10
37.906165020952216
 20
27.352590955443116
 10
37.871295749375896
 20
27.580836319209165
 10
37.782534437410845
 20
27.80908168297521
 10
37.5923276457739
 20
28.122919058153528
 10
37.38310505082026
 20
28.351164421919577
 10
37.18972895863053
 20
28.484308131241082
 10
36.73323823109843
 20
28.718893837486625
  0
LWPOLYLINE
  5
3A
330
17
100
AcDbEntity
  8
0
100
AcDbPolyline
 90
17
 70
1
 10
27.061340941512128
 20
26.499840141873214
 10
27.232524964336665
 20
26.46814017084968
 10
27.68901569186876
 20
26.553732182261946
 10
27.876049700205066
 20
26.696385534615725
 10
27.98700308153531
 20
26.95316156885253
 10
27.96481275354405
 20
27.124345591677066
 10
27.82532870174305
 20
27.352590955443116
 10
27.48930099857347
 20
27.675937973653706
 10
27.375178316690445
 20
27.739339657074712
 10
27.203994293865907
 20
27.758360684513192
 10
26.91868758915835
 20
27.64423800263017
 10
26.731653580822044
 20
27.526944278820434
 10
26.633380884450787
 20
27.352590955443116
 10
26.579488844062055
 20
27.0387535802648
 10
26.65874225436876
 20
26.781977546027996
 10
26.77920353735735
 20
26.639324193674213
 10
27.061340941512128
 20
26.499840141873214
  0
LWPOLYLINE
  5
3B
330
17
100
AcDbEntity
  8
0
100
AcDbPolyline
 90
131
 70
1
 10
37.13266761768902
 20
24.09058487874465
 10
37.61768901569187
 20
23.95427186887036
 10
37.728642397022114
 20
23.944760484464158
 10
37.78887303851641
 20
23.976462196861625
 10
37.7413230819811
 20
24.356870556013728
 10
37.78887303851641
 20
24.499523908367507
 10
37.909334321505
 20
24.667538630639264
 10
38.045649072753214
 20
24.772149928116082
 10
38.27389443651926
 20
24.87359192504012
 10
38.64479315263909
 20
24.895783994405313
 10
39.1583452211127
 20
24.7689806275633
 10
39.415121255349504
 20
24.73410961461305
 10
40.15691868758916
 20
24.470993237896753
 10
40.47075606276748
 20
24.398081911443473
 10
40.756062767475036
 20
24.366380199046006
 10
41.32667617689016
 20
24.169836547677424
 10
42.43937232524965
 20
23.919400855920113
 10
43.09557774607703
 20
23.830637802581133
 10
43.40941512125535
 20
23.75772647612785
 10
43.980028530670474
 20
23.75455717557507
 10
46.14835948644794
 20
23.61824242432685
 10
46.80456490727533
 20
23.516800427402817
 10
47.318116975748936
 20
23.377318116975747
 10
47.68901569186876
 20
23.326597118513728
 10
47.831669044222544
 20
23.282214721157274
 10
47.974322396576326
 20
23.18394376615995
 10
48.12648713333631
 20
23.015929043888192
 10
48.17403708987162
 20
22.901806362005168
 10
48.18037569097718
 20
22.787683680122143
 10
48.13282573444187
 20
22.58796898682685
 10
47.974322396576326
 20
22.359723623060802
 10
47.77460770328103
 20
22.185370299683484
 10
47.77460770328103
 20
22.150499286733236
 10
47.831669044222544
 20
22.131478259294756
 10
48.915834522111275
 20
22.140987902327034
 10
49.2867332382311
 20
22.267791269169045
 10
49.39768661956134
 20
22.359723623060802
 10
49.606909214514985
 20
22.613330356744825
 10
49.7432239657632
 20
22.679901340718615
 10
49.88587731811698
 20
22.610159314818116
 10
50.1997146932953
 20
22.286812296607522
 10
50.542082738944366
 20
22.140987902327034
 10
51.96227766137661
 20
22.144158944253743
 10
51.68330955777461
 20
22.223410613186516
 10
51.48359486447932
 20
22.340702595622325
 10
51.33143012771934
 20
22.502376975414585
 10
51.28388017118402
 20
22.645030327768367
 10
51.32192222606099
 20
22.8162143505929
 10
51.455064194008564
 20
22.987398373417438
 10
51.711840228245364
 20
23.22515338021576
 10
51.883024251069905
 20
23.31074539162803
 10
52.368045649072755
 20
23.361466390090047
 10
53.10984308131241
 20
23.358297089537267
 10
53.88017118402283
 20
23.478760113899785
 10
54.50784593437946
 20
23.519971469329526
 10
55.13552068473609
 20
23.624582766806345
 10
55.62054208273895
 20
23.659453779756596
 10
56.19115549215407
 20
23.748216833095576
 10
56.79029957203995
 20
23.900379828481633
 10
57.78887303851641
 20
24.07156385130617
 10
59.01569186875892
 20
24.407591554475747
 10
59.44365192582026
 20
24.455143252384985
 10
60.18544935805992
 20
24.651686903753564
 10
60.69900142653353
 20
24.727769272133557
 10
61.0413694721826
 20
24.670707931192045
 10
61.19353420894259
 20
24.55658524930902
 10
61.22523417996612
 20
24.385401226484486
 10
61.05405015714159
 20
23.909889471513907
 10
61.13013078414765
 20
23.8464877880929
 10
61.2981455064194
 20
23.855999172499107
 10
61.69757489300999
 20
23.970121854382132
 10
62.125534950071334
 20
24.19519617622147
 10
62.252338316913345
 20
24.309318858104493
 10
62.347441712731815
 20
24.442462567426
 10
62.41084165477889
 20
24.670707931192045
 10
62.40450305367333
 20
24.898953294958094
 10
62.31891104226106
 20
25.127198658724144
 10
62.154065620542085
 20
25.311063366507668
 10
61.81169757489302
 20
25.574179743223965
 10
61.15549215406563
 20
25.678791040700784
 10
60.556348074179745
 20
25.631241084165477
 10
60.328102710413695
 20
25.571008701297252
 10
59.72895863052782
 20
25.345934379457915
 10
59.04422253922968
 20
25.149388986715405
 10
58.4450784593438
 20
24.886272609999107
 10
57.56062767475036
 20
24.58828522033256
 10
56.932952924393724
 20
24.480502880929027
 10
56.647646219686166
 20
24.39491086951676
 10
55.70613409415122
 20
24.277618887080955
 10
54.73609129814551
 20
24.11594450728869
 10
53.708987161198294
 20
24.096925221224144
 10
53.480741797432245
 20
24.062054208273892
 10
53.28102710413695
 20
24.07156385130617
 10
52.796005706134096
 20
23.98914114044668
 10
52.39657631954351
 20
24.014502510364657
 10
51.02710413694722
 20
23.900379828481633
 10
50.68473609129815
 20
23.783087846045827
 10
50.39942938659059
 20
23.63409415121255
 10
49.94293865905849
 20
23.21881303773627
 10
49.80028530670471
 20
23.158582396241975
 10
49.686162624821684
 20
23.21881303773627
 10
49.42938659058488
 20
23.500950441891046
 10
49.201141226818834
 20
23.649944136724322
 10
48.65905848787447
 20
23.84331848754012
 10
48.20256776034237
 20
23.957441169423145
 10
47.74607703281028
 20
24.014502510364657
 10
47.06134094151213
 20
24.052542823867686
 10
45.83452211126962
 20
24.242747874130703
 10
45.57774607703281
 20
24.220557546139442
 10
44.95007132667618
 20
24.309318858104493
 10
44.122681883024256
 20
24.356870556013728
 10
43.60912981455065
 20
24.451972210458273
 10
42.353780313837376
 20
24.604136947218258
 10
41.61198288159772
 20
24.743619257645328
 10
41.24108416547789
 20
24.851401597048856
 10
40.84165477888731
 20
24.924314664876068
 10
39.24393723252497
 20
25.56466835881776
 10
38.473609129814555
 20
25.72634273861002
 10
38.074179743223965
 20
25.754873409080776
 10
37.90299572039943
 20
25.74219272412179
 10
37.560627674750364
 20
25.666112097115725
 10
36.99001426533523
 20
25.437866733349676
 10
36.76176890156919
 20
25.273021311630703
 10
36.62228484976819
 20
25.12085831624465
 10
36.55571560716834
 20
24.98454530637036
 10
36.50816216788517
 20
24.78483061307507
 10
36.52401215339694
 20
24.670707931192045
 10
36.59692347985022
 20
24.499523908367507
 10
36.67934619070971
 20
24.385401226484486
 10
36.8188302425107
 20
24.264938202121968
 10
37.13266761768902
 20
24.09058487874465
  0
LWPOLYLINE
  5
3C
330
17
100
AcDbEntity
  8
0
100
AcDbPolyline
 90
71
 70
1
 10
25.885243109731636
 20
19.49397589102621
 10
25.834522111269617
 20
19.392533894102172
 10
25.805991440798863
 20
19.19281920080688
 10
25.7838011128076
 20
18.365429757154956
 10
25.79965109831937
 20
17.509509643032274
 10
25.777460770328105
 20
17.404898345555456
 10
25.71088978635432
 20
17.309794949736983
 10
25.577746077032813
 20
17.227372238877493
 10
25.406562054208276
 20
17.179822282342187
 10
25.007132667617693
 20
17.14494952801801
 10
24.579172610556352
 20
17.16080299627764
 10
24.43651925820257
 20
17.192502967301174
 10
24.23997386546006
 20
17.29394496422521
 10
24.148043252942227
 20
17.423917631620007
 10
24.122681883024253
 20
17.82334701821059
 10
24.195593209477536
 20
19.392533894102172
 10
24.144872211015517
 20
19.51616621901747
 10
24.037089871611986
 20
19.570058259406203
 10
23.894436519258207
 20
19.5763986018857
 10
23.6376604850214
 20
19.535187246455955
 10
23.273102111381064
 20
19.557377574447216
 10
23.003645392185273
 20
19.497146932952923
 10
23.06704707560628
 20
19.021635177982347
 10
22.981455064194012
 20
16.425344165143542
 10
23.000476091632493
 20
15.911792096669934
 10
22.952924393723254
 20
15.369709357725569
 10
22.962434036755532
 20
15.055871982547252
 10
22.930734065731993
 20
14.570850584544399
 10
22.96560507868224
 20
14.314074550307595
 10
22.933903366284774
 20
14.003406475682059
 10
22.990964707226286
 20
13.905133779310805
 10
23.095577746077037
 20
13.870264507734484
 10
23.466476462196866
 20
13.829053152304741
 10
23.91979788917618
 20
13.84490313781651
 10
23.99587851618224
 20
13.89879517820524
 10
24.08147052759451
 20
14.599381255015155
 10
24.071960884562234
 20
15.826200085257666
 10
24.110001198065266
 20
16.140037460435984
 10
24.16706253900678
 20
16.247821541213444
 10
24.265335235378036
 20
16.33341355262571
 10
24.693295292439377
 20
16.485574806637835
 10
25.406562054208276
 20
16.412663480184555
 10
25.634807417974326
 20
16.308052182707737
 10
25.74893009985735
 20
16.16856813090674
 10
25.777460770328105
 20
15.997384108082203
 10
25.701378401948112
 20
14.884687959722715
 10
25.720399429386593
 20
14.627911925485911
 10
25.676018773404067
 20
14.371135891249107
 10
25.691868758915838
 20
14.028767845600033
 10
25.723568729939377
 20
13.924156548123214
 10
25.834522111269617
 20
13.854414522222715
 10
26.17689015691869
 20
13.806861082939548
 10
26.6904422253923
 20
13.832222452857522
 10
26.79822456479583
 20
13.89562587765246
 10
26.85211660518456
 20
14.171421197953814
 10
26.83309557774608
 20
14.77056527783969
 10
26.861626248216837
 20
15.027341312076496
 10
26.83309557774608
 20
15.369709357725569
 10
26.861626248216837
 20
15.626485391962373
 10
26.84894556325785
 20
16.197098801377493
 10
26.804564907275324
 20
16.539466847026567
 10
26.893326219240375
 20
16.93889623361715
 10
26.861626248216837
 20
17.709224336327566
 10
26.953558602108597
 20
18.850451155157806
 10
26.93770861659683
 20
19.42106456457293
 10
26.839435920225572
 20
19.5763986018857
 10
26.70946325283078
 20
19.59858892987696
 10
26.46219686162625
 20
19.56371791692671
 10
26.11982881597718
 20
19.592248587397464
 10
25.977175463623396
 20
19.56371791692671
 10
25.885243109731636
 20
19.49397589102621
  0
LWPOLYLINE
  5
3D
330
17
100
AcDbEntity
  8
0
100
AcDbPolyline
 90
38
 70
1
 10
28.522745478000182
 20
18.27983774574269
 10
28.554445449023717
 20
17.794816347739832
 10
28.51640513552069
 20
17.538040313503032
 10
28.548105106544224
 20
17.281264279266225
 10
28.51640513552069
 20
16.967426904087908
 10
28.544935805991443
 20
16.567997517497325
 10
28.491043765602715
 20
15.79766941478691
 10
28.510064793041195
 20
15.084402653018008
 10
28.453003452099683
 20
14.627911925485911
 10
28.459343794579176
 20
14.085829186541545
 10
28.503724450561702
 20
13.917814464269792
 10
28.55761649095043
 20
13.857583822775497
 10
28.630527817403713
 20
13.829053152304741
 10
29.08701854493581
 20
13.822714551199178
 10
29.429386590584883
 20
13.848072438369293
 10
29.53716892998841
 20
13.901964478758021
 10
29.568870642385882
 20
14.028767845600033
 10
29.56569960045917
 20
14.742034607368936
 10
29.594230270929923
 20
14.99881064160574
 10
29.572039942938662
 20
15.255586675842544
 10
29.600570613409417
 20
15.51236271007935
 10
29.572039942938662
 20
15.883261426199178
 10
29.597401312856636
 20
16.111506789965226
 10
29.591060970377143
 20
16.710650869851104
 10
29.629101283880175
 20
16.995957574558666
 10
29.610080256441695
 20
17.281264279266225
 10
29.629101283880175
 20
18.165715063859665
 10
29.597401312856636
 20
18.422491098096465
 10
29.667141597383207
 20
18.679267132333273
 10
29.67665298178941
 20
19.392533894102172
 10
29.632270584432955
 20
19.49080659047343
 10
29.51497860199715
 20
19.551037231967722
 10
28.744650499286735
 20
19.557377574447216
 10
28.66222778842725
 20
19.528846903976458
 10
28.586147161421188
 20
19.446425934490904
 10
28.548105106544224
 20
19.107227189394614
 10
28.5734664764622
 20
18.593675120921006
 10
28.522745478000182
 20
18.27983774574269
  0
LWPOLYLINE
  5
3E
330
17
100
AcDbEntity
  8
0
100
AcDbPolyline
 90
76
 70
1
 10
31.626248216833098
 20
18.96457383704083
 10
31.34411081267832
 20
18.422491098096465
 10
31.226818830242514
 20
17.709224336327566
 10
31.25534950071327
 20
17.252733608795467
 10
31.198288159771757
 20
16.710650869851104
 10
31.22047848776302
 20
16.4538748356143
 10
31.195118859218976
 20
16.082976119494468
 10
31.283880171184027
 20
15.483832039608593
 10
31.29022051366352
 20
15.027341312076496
 10
31.480425563926538
 20
14.485258573132132
 10
31.75305158367511
 20
14.155571212442045
 10
32.02567760342369
 20
13.96536790355296
 10
32.56776034236805
 20
13.781503195769435
 10
33.08131241084166
 20
13.724441854827923
 10
33.965763195435095
 20
13.787841796874998
 10
34.16547788873039
 20
13.838564536710948
 10
34.365192582025685
 20
13.94951443529333
 10
34.75828162613677
 20
14.314074550307595
 10
35.02456730340585
 20
14.742034607368936
 10
35.084799686274074
 20
14.884687959722715
 10
35.16405135520685
 20
15.2841173463133
 10
35.15771101272736
 20
15.597954721491618
 10
35.11649965729761
 20
15.680377432351104
 10
35.049928673323826
 20
15.737438773292617
 10
34.9358059914408
 20
15.769138744316153
 10
34.621968616262485
 20
15.769138744316153
 10
34.365192582025685
 20
15.810350099745897
 10
34.222539229671895
 20
15.791330813681347
 10
34.121097232747864
 20
15.72792738888641
 10
34.07354553483863
 20
15.655016062433129
 10
34.032334179408885
 20
15.455301369137837
 10
34.016484193897114
 20
15.112933323488765
 10
33.93406322441156
 20
14.941749300664227
 10
33.75653885910753
 20
14.735696006263371
 10
33.59486447931526
 20
14.605719856120718
 10
33.45221112696149
 20
14.542319914073643
 10
33.28102710413695
 20
14.513789243602886
 10
32.85306704707561
 20
14.558169899585412
 10
32.68188302425107
 20
14.631081226038692
 10
32.5328893294178
 20
14.799095948310448
 10
32.383895634584526
 20
15.112933323488765
 10
32.32683429364302
 20
15.312648016784056
 10
32.35536496411377
 20
16.967426904087908
 10
32.29830362317226
 20
17.59510165444454
 10
32.32683429364302
 20
18.05159238197664
 10
32.37755529210503
 20
18.19424573433042
 10
32.54873931492956
 20
18.47955243903798
 10
32.6565216543331
 20
18.606355805879993
 10
32.85306704707561
 20
18.733159172722004
 10
33.024251069900146
 20
18.79973015669579
 10
33.30955777460771
 20
18.821920484687052
 10
33.45221112696149
 20
18.796559114769078
 10
33.73751783166905
 20
18.650736461862515
 10
33.91187115504637
 20
18.47955243903798
 10
34.010143851417624
 20
18.27983774574269
 10
34.064035891806355
 20
17.880408359152103
 10
34.143287560739125
 20
17.775797061675284
 10
34.450784593437945
 20
17.709224336327566
 10
34.907275320970044
 20
17.709224336327566
 10
35.10382071371256
 20
17.75043569175731
 10
35.16088205465407
 20
17.804327732146042
 10
35.189412725124825
 20
17.880408359152103
 10
35.179901340718615
 20
18.10865372291815
 10
35.10382071371256
 20
18.422491098096465
 10
34.89776567793777
 20
18.850451155157806
 10
34.76462196861627
 20
19.018465877429563
 10
34.422253922967194
 20
19.284751554698644
 10
34.10841654778888
 20
19.446425934490904
 10
33.85164051355207
 20
19.487635548546717
 10
33.59486447931526
 20
19.589079286844687
 10
33.28102710413695
 20
19.636629243379993
 10
32.65335235378032
 20
19.551037231967722
 10
32.19686162624822
 20
19.414724222093437
 10
31.8830242510699
 20
19.22769021375713
 10
31.740370898716122
 20
19.107227189394614
 10
31.626248216833098
 20
18.96457383704083
  0
LWPOLYLINE
  5
3F
330
17
100
AcDbEntity
  8
0
100
AcDbPolyline
 90
73
 70
1
 10
17.738152040054388
 20
18.593675120921006
 10
17.560627674750357
 20
17.709224336327566
 10
17.560627674750357
 20
17.36685629067849
 10
17.605008330732886
 20
17.14812231131865
 10
17.532097004279603
 20
16.853304222204883
 10
17.509906676288338
 20
16.22562947184825
 10
17.532097004279603
 20
15.883261426199178
 10
17.50356633380885
 20
15.569424051020862
 10
17.573308359709344
 20
15.055871982547252
 10
17.646219686162627
 20
14.684973266427424
 10
17.71913101261591
 20
14.545489214626425
 10
17.966397403820437
 20
14.19678256787179
 10
18.27389443651926
 20
13.959025819699534
 10
18.758915834522114
 20
13.800522481833985
 10
19.472182596291013
 20
13.730780455933486
 10
20.071326676176895
 20
13.762480426957023
 10
20.699001426533528
 20
14.012917860088265
 10
20.911396804787806
 20
14.174590498506596
 10
21.17451231081714
 20
14.444047217702387
 10
21.279125349667886
 20
14.627911925485911
 10
21.415438359542172
 20
14.99881064160574
 10
21.50420054219419
 20
15.51236271007935
 10
21.49469002847495
 20
15.70890810282186
 10
21.431288345053943
 20
15.788158030380703
 10
21.269614835948648
 20
15.842050070769435
 10
20.613409415121257
 20
15.864242140134627
 10
20.521477061229497
 20
15.832538686363229
 10
20.34712286716521
 20
15.455301369137837
 10
20.30274221118269
 20
15.169994664430277
 10
20.179109015580423
 20
14.884687959722715
 10
19.985734664764625
 20
14.672292581468437
 10
19.78601997146933
 20
14.545489214626425
 10
19.643366619115554
 20
14.513789243602886
 10
19.472182596291013
 20
14.513789243602886
 10
19.186875891583455
 20
14.555000599032631
 10
19.015691868758918
 20
14.621573324380348
 10
18.854018359653622
 20
14.748373208474499
 10
18.724044821571866
 20
14.941749300664227
 10
18.641622981399344
 20
15.169994664430277
 10
18.61626248216833
 20
15.341178687254812
 10
18.613092310928586
 20
16.082976119494468
 10
18.673323823109847
 20
16.59652818796808
 10
18.647963323878834
 20
16.824773551734125
 10
18.673323823109847
 20
17.081549585970933
 10
18.65430366635833
 20
17.652162995386053
 10
18.708194836060095
 20
18.19424573433042
 10
18.84450784593438
 20
18.451021768567223
 10
19.07275320970043
 20
18.69194781729226
 10
19.27246790299572
 20
18.793389814216297
 10
19.557774607703283
 20
18.850451155157806
 10
19.8716119828816
 20
18.790220513663513
 10
20.175938844340678
 20
18.612696148359483
 10
20.271041369472186
 20
18.47955243903798
 10
20.40101403686698
 20
18.19424573433042
 10
20.423205235545204
 20
17.86138907308755
 10
20.556348074179745
 20
17.772624278374643
 10
21.155492154065623
 20
17.709224336327566
 10
21.440798858773185
 20
17.75360499231009
 10
21.523220698945707
 20
17.82968561931615
 10
21.55175136941646
 20
17.908939029622857
 10
21.532731212664945
 20
18.25130707527193
 10
21.412268188302427
 20
18.679267132333273
 10
21.352036676121166
 20
18.806070499175284
 10
21.079410656372595
 20
19.180138515847894
 10
20.78776360918554
 20
19.383024251069898
 10
20.657790071103783
 20
19.52567760342368
 10
19.985734664764625
 20
19.630288900900496
 10
19.07275320970043
 20
19.627119600347715
 10
18.64479315263909
 20
19.49080659047343
 10
18.43239777438481
 20
19.392533894102172
 10
18.254874279767744
 20
19.26573052726016
 10
17.98224738933221
 20
19.021635177982347
 10
17.738152040054388
 20
18.593675120921006
  0
LWPOLYLINE
  5
40
330
17
100
AcDbEntity
  8
0
100
AcDbPolyline
 90
100
 70
1
 10
41.95118162669401
 20
18.165715063859665
 10
41.925820256776035
 20
17.85187768868135
 10
41.99873158322932
 20
17.509509643032274
 10
41.9321588578816
 20
17.224202938324712
 10
41.94801232614123
 20
16.910365563146396
 10
41.90997027126427
 20
16.625058858438834
 10
41.95435092724679
 20
15.911792096669934
 10
41.92898955732882
 20
15.597954721491618
 10
41.963862311652996
 20
15.255586675842544
 10
42.03994293865906
 20
14.884687959722715
 10
42.19844627652461
 20
14.542319914073643
 10
42.37914168375535
 20
14.263351810471645
 10
42.66761768901569
 20
14.003406475682059
 10
42.89586305278174
 20
13.879775892140689
 10
43.35235378031384
 20
13.743461140892473
 10
43.694721825962915
 20
13.714930470421717
 10
44.23680456490728
 20
13.794183880728422
 10
44.569661226150146
 20
13.89879517820524
 10
44.864479315263914
 20
14.079490585435982
 10
45.03566333808845
 20
14.136551926377495
 10
45.20050875980742
 20
14.088998487094328
 10
45.359012097672974
 20
13.920983764822573
 10
45.46362339514979
 20
13.854414522222715
 10
45.57774607703281
 20
13.84490313781651
 10
45.83135281071684
 20
13.882945192693473
 10
45.91060273827568
 20
13.952687218593972
 10
45.932794807640875
 20
14.028767845600033
 10
45.87890276725214
 20
15.51236271007935
 10
45.94547549259986
 20
15.911792096669934
 10
45.89792205331669
 20
16.482405506085055
 10
45.84720279622861
 20
16.587016803561873
 10
45.720399429386596
 20
16.650420228356808
 10
45.46362339514979
 20
16.66627021386858
 10
45.327308643901574
 20
16.701139485444898
 10
45.121255349500714
 20
16.67260881497414
 10
44.870817916369475
 20
16.697970184892117
 10
44.66476462196862
 20
16.653589528909592
 10
44.407988587731815
 20
16.675781598274785
 10
44.26533523537803
 20
16.64725092780403
 10
44.052939857123754
 20
16.650420228356808
 10
43.922967189728965
 20
16.55848613309112
 10
43.856394464381246
 20
16.311221483260518
 10
43.87224444989301
 20
16.143206760988765
 10
43.922967189728965
 20
16.067126133982704
 10
43.93564787468795
 20
16.111506789965226
 10
43.98319783122326
 20
16.108337489412445
 10
44.20827389443652
 20
15.981534122570434
 10
44.52211126961484
 20
15.918130697775497
 10
44.690125991886596
 20
15.83571146966387
 10
44.797906589916195
 20
15.683546732903885
 10
44.8074179743224
 20
15.341178687254812
 10
44.71548736180457
 20
14.941749300664227
 10
44.652083937009635
 20
14.830795919333985
 10
44.5506419400856
 20
14.729353922409949
 10
44.37945791726106
 20
14.60889263942136
 10
44.20827389443652
 20
14.532808529667438
 10
43.83737517831669
 20
14.507450642497323
 10
43.523537803138375
 20
14.574019885097181
 10
43.393565135743586
 20
14.65961189650945
 10
43.231892497325255
 20
14.827626618781203
 10
43.10825843103602
 20
15.055871982547252
 10
43.03534710458274
 20
15.341178687254812
 10
43.04802778954173
 20
16.311221483260518
 10
42.99730504970578
 20
16.59652818796808
 10
43.038516405135525
 20
16.967426904087908
 10
43.000474350258564
 20
17.224202938324712
 10
43.0638777750535
 20
17.538040313503032
 10
43.06704707560628
 20
17.908939029622857
 10
43.038516405135525
 20
18.165715063859665
 10
43.20653112740728
 20
18.47955243903798
 10
43.32382310984308
 20
18.615865448912267
 10
43.495007132667624
 20
18.726818830242507
 10
43.83737517831669
 20
18.793389814216297
 10
44.03708987161199
 20
18.7870494717368
 10
44.26533523537803
 20
18.71413814528352
 10
44.407988587731815
 20
18.638055776903528
 10
44.50309198355029
 20
18.53661377997949
 10
44.55698054119116
 20
18.422491098096465
 10
44.62038396598609
 20
18.137184393388907
 10
44.76937591944544
 20
17.826516318763375
 10
44.893009985734665
 20
17.763116376716297
 10
45.09272467902996
 20
17.766285677269078
 10
45.63480741797433
 20
17.709224336327566
 10
45.82501072686341
 20
17.763116376716297
 10
45.89158345221113
 20
17.908939029622857
 10
45.80599144079886
 20
18.422491098096465
 10
45.70138014332204
 20
18.736328473274785
 10
45.17831669044223
 20
19.284751554698644
 10
45.00713266761769
 20
19.360833923078637
 10
44.69329529243937
 20
19.446425934490904
 10
44.465049928673324
 20
19.551037231967722
 10
43.980028530670474
 20
19.62077925786822
 10
43.66619115549216
 20
19.62077925786822
 10
43.09874704662982
 20
19.535187246455955
 10
42.965605078682245
 20
19.49080659047343
 10
42.753209700427966
 20
19.37034356611091
 10
42.37279959990193
 20
19.085036861403353
 10
42.23014624754815
 20
18.936043166570077
 10
42.04628153976463
 20
18.565144450450248
 10
41.95118162669401
 20
18.165715063859665
  0
LWPOLYLINE
  5
41
330
17
100
AcDbEntity
  8
0
100
AcDbPolyline
 90
53
 70
1
 10
37.40846293799038
 20
17.966000370564373
 10
37.27849027059558
 20
17.652162995386053
 10
37.22142892965407
 20
17.281264279266225
 10
37.07560627674751
 20
16.910365563146396
 10
36.89174156896398
 20
15.997384108082203
 10
36.78396097093439
 20
15.740608073845397
 10
36.739576832203994
 20
15.51236271007935
 10
36.647646219686166
 20
15.255586675842544
 10
36.52718493669758
 20
14.627911925485911
 10
36.3845315843438
 20
14.285543879836839
 10
36.32112815954886
 20
13.97170650465852
 10
36.330639543955066
 20
13.867095207181702
 10
36.375020199937595
 20
13.829053152304741
 10
36.99001426533523
 20
13.768822510810448
 10
37.18655965807775
 20
13.841733837263728
 10
37.27849027059558
 20
13.920983764822573
 10
37.35774368090229
 20
14.05729851607079
 10
37.49722773270328
 20
14.542319914073643
 10
37.5225856198734
 20
14.799095948310448
 10
37.589158345221115
 20
14.935410699558664
 10
37.677919657186166
 20
15.017829927670292
 10
37.78887303851641
 20
15.07172196805902
 10
38.188302425107
 20
15.144633294512301
 10
38.901569186875896
 20
15.128783309000534
 10
39.186875891583455
 20
15.052702681994472
 10
39.29148718906028
 20
14.986129956646753
 10
39.41829055590229
 20
14.799095948310448
 10
39.56411320880885
 20
14.05729851607079
 10
39.59581666258025
 20
13.978045105764085
 10
39.67506659013909
 20
13.89879517820524
 10
39.78601997146933
 20
13.86392242388106
 10
40.35663338088445
 20
13.81003386624019
 10
40.499286733238236
 20
13.822714551199178
 10
40.600728730162274
 20
13.89879517820524
 10
40.61657871567404
 20
13.97170650465852
 10
40.572198059691516
 20
14.228482538895326
 10
40.343952695925466
 20
15.14146399395952
 10
40.23934139844865
 20
15.455301369137837
 10
40.1188766327122
 20
16.16856813090674
 10
39.91916193941691
 20
16.767712210792617
 10
39.83040062745186
 20
17.195672267853958
 10
39.72895863052782
 20
17.45244830209076
 10
39.61800524919758
 20
18.05159238197664
 10
39.49437466565621
 20
18.39396042762571
 10
39.30099857346648
 20
19.19281920080688
 10
39.19004519213624
 20
19.376683908590405
 10
39.01252256820614
 20
19.519337260944184
 10
38.045649072753214
 20
19.53201794590317
 10
37.86495366552247
 20
19.433745249531917
 10
37.68426174103959
 20
19.249880541748393
 10
37.56696627585592
 20
18.679267132333273
 10
37.42431292350214
 20
18.222776404801174
 10
37.40846293799038
 20
17.966000370564373
  0
LWPOLYLINE
  5
42
330
17
100
AcDbEntity
  8
0
100
AcDbPolyline
 90
20
 70
1
 10
39.00618048435271
 20
16.653589528909592
 10
39.04422253922967
 20
16.4538748356143
 10
39.041053238676895
 20
16.16856813090674
 10
38.993499799393724
 20
16.067126133982704
 10
38.901569186875896
 20
16.010064793041188
 10
38.15977175463624
 20
16.010064793041188
 10
38.04881837330599
 20
16.054445449023714
 10
37.96322636189373
 20
16.16856813090674
 10
37.95054567693474
 20
16.311221483260518
 10
38.01394910172968
 20
16.767712210792617
 10
38.245363766048506
 20
17.423917631620007
 10
38.302425106990015
 20
17.709224336327566
 10
38.37216713289052
 20
17.81700841710503
 10
38.4450784593438
 20
17.867727674193116
 10
38.502139800285306
 20
17.874069758046538
 10
38.584562511144796
 20
17.83919700372236
 10
38.69868519302782
 20
17.680693665856808
 10
38.80646579105742
 20
17.36685629067849
 10
38.82865786042261
 20
17.02448824502942
 10
39.00618048435271
 20
16.653589528909592
  0
LWPOLYLINE
  5
43
330
17
100
AcDbEntity
  8
0
100
AcDbPolyline
 90
39
 70
1
 10
47.46710892920828
 20
18.365429757154956
 10
47.384689701096654
 20
17.82334701821059
 10
47.4037089871612
 20
17.45244830209076
 10
47.375178316690445
 20
16.16856813090674
 10
47.4037089871612
 20
15.683546732903885
 10
47.375178316690445
 20
15.398240028196325
 10
47.45125894369651
 20
14.970279971134984
 10
47.59074299549751
 20
14.570850584544399
 10
47.80630767430457
 20
14.228482538895326
 10
47.9774916971291
 20
14.060467816623571
 10
48.54493580599144
 20
13.775161111916011
 10
49.00142653352354
 20
13.692738401056523
 10
49.400855920114125
 20
13.676888415544756
 10
49.77175463623396
 20
13.756141825851461
 10
50.285306704707565
 20
13.816372467345754
 10
50.48502139800286
 20
13.873433808287267
 10
50.65620542082739
 20
13.94951443529333
 10
50.805197374286735
 20
14.054129215518008
 10
51.11903474946505
 20
14.42819723219062
 10
51.309241541102004
 20
14.941749300664227
 10
51.372641483149074
 20
15.369709357725569
 10
51.33143012771934
 20
16.197098801377493
 10
51.34411081267832
 20
16.51093617655581
 10
51.309241541102004
 20
16.767712210792617
 10
51.35996079819009
 20
17.45244830209076
 10
51.32192222606099
 20
17.652162995386053
 10
51.31241084165478
 20
18.165715063859665
 10
51.27436878677782
 20
18.365429757154956
 10
51.20145746032454
 20
18.593675120921006
 10
50.91932005616976
 20
19.01529483550285
 10
50.37089871611983
 20
19.42106456457293
 10
49.857346647646224
 20
19.54152758893545
 10
49.25820256776034
 20
19.592248587397464
 10
48.687589158345226
 20
19.54152758893545
 10
48.487874465049934
 20
19.474956604961662
 10
47.974322396576326
 20
19.186478858327387
 10
47.81581905871077
 20
19.021635177982347
 10
47.59391229605029
 20
18.70779780280403
 10
47.46710892920828
 20
18.365429757154956
  0
LWPOLYLINE
  5
44
330
17
100
AcDbEntity
  8
0
100
AcDbPolyline
 90
30
 70
1
 10
50.25677603423681
 20
17.45244830209076
 10
50.22824536376605
 20
16.02591477855296
 10
50.1775226239301
 20
15.655016062433129
 10
50.21873397935985
 20
15.369709357725569
 10
50.158503337865554
 20
15.055871982547252
 10
50.076080627006064
 20
14.827626618781203
 10
49.91440798858773
 20
14.605719856120718
 10
49.77175463623396
 20
14.516958544155669
 10
49.48644793152639
 20
14.456727902661374
 10
49.0394685884005
 20
14.529639229114656
 10
48.754161883692944
 20
14.742034607368936
 10
48.65271988676891
 20
14.884687959722715
 10
48.58614716142119
 20
15.055871982547252
 10
48.516405135520685
 20
15.540893380550106
 10
48.516405135520685
 20
15.997384108082203
 10
48.54493580599144
 20
16.25416014231901
 10
48.52274373662625
 20
16.59652818796808
 10
48.54493580599144
 20
17.39538696114925
 10
48.52274373662625
 20
17.652162995386053
 10
48.59565854582739
 20
18.19424573433042
 10
48.687589158345226
 20
18.39396042762571
 10
48.85877318116976
 20
18.568313751003032
 10
49.0299572039943
 20
18.65707680434201
 10
49.37232524964337
 20
18.736328473274785
 10
49.54350927246791
 20
18.726818830242507
 10
49.77175463623396
 20
18.650736461862515
 10
50.0
 20
18.49540242454975
 10
50.08876131196505
 20
18.39396042762571
 10
50.2092260777015
 20
18.05159238197664
 10
50.25677603423681
 20
17.45244830209076
  0
LWPOLYLINE
  5
45
330
17
100
AcDbEntity
  8
0
100
AcDbPolyline
 90
35
 70
1
 10
85.93596759094152
 20
39.96314730351729
 10
86.0152140357525
 20
39.135757859865365
 10
86.0342368045649
 20
38.47955243903798
 10
86.0786209432953
 20
38.08012305244739
 10
86.23078219730743
 20
37.53804031350303
 10
86.57631954350927
 20
37.06252942921942
 10
87.08987161198289
 20
36.73918154032186
 10
87.31811697574892
 20
36.65358952890959
 10
87.68901569186878
 20
36.57750803121657
 10
88.25962910128388
 20
36.53946684702657
 10
88.77318116975749
 20
36.60286853044757
 10
89.11554921540656
 20
36.72016138357034
 10
89.45791726105563
 20
36.92938571989791
 10
89.6227626827746
 20
37.11008025644169
 10
89.83198527772825
 20
37.509509643032274
 10
89.92708519079886
 20
37.937469700093615
 10
89.9207465896933
 20
38.19424573433042
 10
89.95244656071685
 20
38.45102176856722
 10
89.82881597717548
 20
39.53518724645595
 10
89.77175463623396
 20
40.50523004246166
 10
89.74005466521041
 20
40.70494473575695
 10
89.61007851506776
 20
41.07584345187678
 10
89.38500245185449
 20
41.42455184000535
 10
89.14407988587732
 20
41.6527972037714
 10
88.71611982881598
 20
41.8905526459132
 10
88.34522111269615
 20
42.011015234932245
 10
87.94579172610557
 20
42.07441691835325
 10
87.48930099857347
 20
42.07441691835325
 10
87.08987161198289
 20
42.023695919891225
 10
86.71897289586306
 20
41.89372281715295
 10
86.43366619115551
 20
41.706688373473156
 10
86.24662870007134
 20
41.52282410103312
 10
86.02472890290656
 20
41.10437412234754
 10
85.95815269481099
 20
40.81906741763997
 10
85.93596759094152
 20
39.96314730351729
  0
LWPOLYLINE
  5
46
330
17
100
AcDbEntity
  8
0
100
AcDbPolyline
 90
27
 70
1
 10
88.67491195613411
 20
40.50523004246166
 10
88.72245842992155
 20
39.42106456457293
 10
88.83024251069901
 20
38.50808310950873
 10
88.81438904243939
 20
37.99453104103513
 10
88.74465049928673
 20
37.709224336327566
 10
88.65905848787446
 20
37.56657098397379
 10
88.43081312410843
 20
37.37319663315799
 10
88.28815977175464
 20
37.32564493524875
 10
87.97432239657633
 20
37.281264279266225
 10
87.71754636233953
 20
37.3288151064885
 10
87.48930099857347
 20
37.46512898704975
 10
87.3022635074893
 20
37.68069366585681
 10
87.20082499331312
 20
37.90893902962286
 10
87.1469329529244
 20
38.22277640480118
 10
87.03281027104137
 20
40.13433132634184
 10
87.03281027104137
 20
40.64788339481544
 10
87.05183303985379
 20
40.79053674716923
 10
87.12157158300641
 20
40.96172076999376
 10
87.26105563480743
 20
41.132904792818294
 10
87.4037089871612
 20
41.24068713222182
 10
87.57489300998574
 20
41.30408881564283
 10
87.77460770328102
 20
41.332619486113586
 10
88.0599144079886
 20
41.30408881564283
 10
88.25962910128388
 20
41.22166697547031
 10
88.46251309513195
 20
41.06316320226128
 10
88.55761300820257
 20
40.904659429052245
 10
88.67491195613411
 20
40.50523004246166
  0
LWPOLYLINE
  5
47
330
17
100
AcDbEntity
  8
0
100
AcDbPolyline
 90
56
 70
1
 10
48.21207914474858
 20
41.338959828593076
 10
48.34522111269615
 20
41.30408881564283
 10
49.42938659058488
 20
41.29774847316334
 10
49.54350927246791
 20
41.26287789555657
 10
49.65763195435093
 20
41.18996613375981
 10
49.7527353501694
 20
41.09486404397178
 10
49.80979669111092
 20
40.99025144046452
 10
49.83515457828103
 20
40.248454008224854
 10
49.80028530670471
 20
39.99167797398805
 10
49.857346647646224
 20
39.53518724645595
 10
49.828815977175466
 20
39.050165848453105
 10
49.85417734709344
 20
38.56514445045025
 10
49.857346647646224
 20
36.96742690408791
 10
49.88587731811698
 20
36.71065086985111
 10
49.879538717011414
 20
35.79766941478691
 10
49.901727303628746
 20
35.68671690414364
 10
49.95561934401748
 20
35.62965556320212
 10
50.02853067047076
 20
35.60746523521085
 10
50.31383737517832
 20
35.645505548713885
 10
50.941512125534956
 20
35.55674336606187
 10
51.11269614835949
 20
35.572594222260605
 10
51.19511885921898
 20
35.639166076921356
 10
51.226818830242514
 20
35.740608073845394
 10
51.22048022913695
 20
36.79624288126337
 10
51.19828815977176
 20
36.995957574558666
 10
51.226818830242514
 20
37.39538696114925
 10
51.169757489301
 20
38.02306171150588
 10
51.160246104894796
 20
38.878981825628564
 10
51.12854613387126
 20
39.050165848453105
 10
51.144396119383025
 20
39.592248587397464
 10
51.115865448912274
 20
39.90608596257579
 10
51.14122681883025
 20
40.162861996812595
 10
51.13171543442404
 20
40.87612875858149
 10
51.15707680434201
 20
41.01878211093528
 10
51.25851880126605
 20
41.1772858841443
 10
51.455064194008564
 20
41.26287789555657
 10
52.51069900142654
 20
41.27555814517207
 10
52.707244394169045
 20
41.31993923649809
 10
52.789667105028535
 20
41.39602116953459
 10
52.81819777549929
 20
41.47527283846736
 10
52.824536376604854
 20
41.874702225057945
 10
52.802344307239665
 20
41.98882490694098
 10
52.73260576408702
 20
42.096607246344504
 10
52.62482168330956
 20
42.166349272245
 10
52.310984308131246
 20
42.19804967861202
 10
50.97004279600571
 20
42.18853960023627
 10
50.65620542082739
 20
42.23292069156227
 10
50.42796005706134
 20
42.19170977147601
 10
49.08701854493581
 20
42.18853960023627
 10
48.687589158345226
 20
42.217070270707026
 10
48.259629101283885
 20
42.19487994271576
 10
48.177206390424395
 20
42.12513791681526
 10
48.14550641940086
 20
42.017355577411735
 10
48.13282573444187
 20
41.47527283846736
 10
48.15818710435985
 20
41.39602116953459
 10
48.21207914474858
 20
41.338959828593076
  0
LWPOLYLINE
  5
48
330
17
100
AcDbEntity
  8
0
100
AcDbPolyline
 90
92
 70
1
 10
53.680456490727536
 20
39.82049395116351
 10
53.680456490727536
 20
39.364003223631414
 10
53.708987161198294
 20
39.107227189394614
 10
53.68362579128032
 20
38.73632847327478
 10
53.73434853111627
 20
38.10865372291815
 10
53.702648560092726
 20
37.22420293832471
 10
53.753367817180816
 20
36.625058858438834
 10
53.737517831669045
 20
35.79766941478691
 10
53.775559886546006
 20
35.64233537747414
 10
53.854809814104854
 20
35.582104735979854
 10
53.965763195435095
 20
35.553574065509096
 10
54.82168330955778
 20
35.5408933805501
 10
54.957998060806
 20
35.57576439350036
 10
55.04675937277104
 20
35.683546732903885
 10
55.06260935828281
 20
35.76913874431615
 10
55.02139800285307
 20
36.02591477855296
 10
55.02139800285307
 20
36.824773551734125
 10
54.97701734687055
 20
37.08154958597093
 10
55.02139800285307
 20
37.42391763162001
 10
54.96433666191156
 20
37.8804083591521
 10
54.9358059914408
 20
38.7933898142163
 10
55.00237871678852
 20
39.2498805417484
 10
55.068947959388375
 20
39.34181289564016
 10
55.13868998528888
 20
39.357662881151924
 10
55.22111269614836
 20
39.329132210681166
 10
55.3225546930724
 20
39.24354019926891
 10
55.496908016449716
 20
38.99310450751159
 10
56.3845315843438
 20
37.3668562906785
 10
56.59058487874466
 20
37.11008025644169
 10
56.837849528575255
 20
36.567997517497325
 10
57.110475548323826
 20
36.111506789965226
 10
57.25947098453103
 20
35.79766941478691
 10
57.35774368090229
 20
35.661356404912624
 10
57.478204963890875
 20
35.572594222260605
 10
57.61768901569187
 20
35.544063551789854
 10
58.38801711840229
 20
35.53772320931036
 10
58.49897049973253
 20
35.56942405102086
 10
58.55603184067404
 20
35.62965556320212
 10
58.584562511144796
 20
35.71207740337464
 10
58.58773181169758
 20
36.19709880137749
 10
58.530670470756064
 20
37.45244830209076
 10
58.50213980028531
 20
39.107227189394614
 10
58.435567074937595
 20
39.53518724645595
 10
58.473609129814555
 20
40.76200607669847
 10
58.4450784593438
 20
41.01878211093528
 10
58.4450784593438
 20
41.789110213645685
 10
58.3753364334433
 20
42.017355577411735
 10
58.24853306660129
 20
42.169519008141265
 10
58.18513312455421
 20
42.19804967861202
 10
57.9885877318117
 20
42.16000892976551
 10
57.7318116975749
 20
42.18853960023627
 10
57.332382310984315
 20
42.179029521860514
 10
57.234109614613054
 20
42.1346484305345
 10
57.170709672565984
 20
42.04588624788249
 10
57.14534830264801
 20
41.8461715545872
 10
57.2055789441423
 20
40.676414065286195
 10
57.18972895863053
 20
40.27698467869561
 10
57.25947098453103
 20
39.706371269280496
 10
57.22777101350749
 20
39.22134987127764
 10
57.265809585636596
 20
38.9804238225526
 10
57.33555161153709
 20
38.89166251058755
 10
57.459185677826326
 20
38.80923979972806
 10
57.49088564884986
 20
38.73315830203504
 10
57.41797432239658
 20
38.549294464938484
 10
57.22142892965407
 20
38.444681426087726
 10
57.10730624777104
 20
38.283007916982434
 10
57.018544935806
 20
38.25130707527193
 10
56.8188302425107
 20
38.27666757450294
 10
56.641307618580605
 20
38.343239429163695
 10
56.409889471513914
 20
38.359089414675466
 10
56.292597489078105
 20
38.438341083608236
 10
56.26723611916013
 20
38.61269527767252
 10
56.2830861046719
 20
38.69194781729226
 10
56.36233951497861
 20
38.77753982870453
 10
56.56839280937946
 20
38.90434232485957
 10
56.64447691913338
 20
38.989934336271844
 10
56.6793461907097
 20
39.062846533412085
 10
56.676176890156924
 20
39.16428853033612
 10
56.51133146843795
 20
39.39253389410217
 10
55.70296479359843
 20
40.84759808811073
 10
55.36693534905493
 20
41.50380350893812
 10
55.02456730340585
 20
42.030035827027234
 10
54.850213980028535
 20
42.137818601774256
 10
54.41274253856099
 20
42.223410613186516
 10
54.247900599589876
 20
42.17585935062077
 10
54.05135520684736
 20
42.18219925775678
 10
53.72483714671006
 20
42.12513791681526
 10
53.680456490727536
 20
42.04271607664275
 10
53.64558721915122
 20
41.50380350893812
 10
53.680456490727536
 20
40.73347540622771
 10
53.72166784615728
 20
40.476699371990904
 10
53.680456490727536
 20
39.82049395116351
  0
LWPOLYLINE
  5
49
330
17
100
AcDbEntity
  8
0
100
AcDbPolyline
 90
65
 70
1
 10
64.83594864479315
 20
39.84902462163427
 10
64.87399069967012
 20
39.592248587397464
 10
64.85179863030493
 20
39.335472553160656
 10
64.88032930077568
 20
38.67926713233327
 10
64.8644793152639
 20
38.42249109809647
 10
64.92154065620542
 20
37.96600037056437
 10
64.90252137014087
 20
37.39538696114925
 10
64.93105204061163
 20
36.96742690408791
 10
64.9373906417172
 20
36.082976119494475
 10
65.01347126872326
 20
35.610635406450605
 10
65.07053260966477
 20
35.559913537301625
 10
65.17831669044223
 20
35.52504339503834
 10
65.86305278174038
 20
35.51236271007935
 10
66.14835948644793
 20
35.553574065509096
 10
66.26882076943653
 20
35.632825734441866
 10
66.30052074046006
 20
35.740608073845394
 10
66.2339514978602
 20
36.05444544902372
 10
66.21809802960058
 20
36.596528187968076
 10
66.25297426667262
 20
36.96742690408791
 10
66.18956735912982
 20
37.6236323249153
 10
66.21175942849501
 20
38.02306171150588
 10
66.24980496611983
 20
38.13718439338891
 10
66.32905141093082
 20
38.22277640480118
 10
66.4336661911555
 20
38.27032723202345
 10
66.66191155492155
 20
38.30836841621344
 10
67.00427960057061
 20
38.24813690403219
 10
67.16912502228959
 20
38.10865372291815
 10
67.5019782007846
 20
37.39538696114925
 10
67.77777700383382
 20
36.68212019938035
 10
67.97115309602354
 20
36.311221483260525
 10
68.17403708987162
 20
35.82620008525767
 10
68.30718254056706
 20
35.60746523521085
 10
68.43081312410843
 20
35.5408933805501
 10
68.60199714693296
 20
35.51870305255885
 10
68.85877318116977
 20
35.53772320931036
 10
69.51497860199714
 20
35.51236271007935
 10
69.61959338222184
 20
35.544063551789854
 10
69.6608012549037
 20
35.60112489273136
 10
69.6481240526926
 20
35.71207740337464
 10
68.6305278174037
 20
37.85187768868135
 10
68.45934379457918
 20
38.165715063859665
 10
68.40228245363767
 20
38.365429757154956
 10
68.45300519347362
 20
38.527103266260255
 10
68.77318116975749
 20
38.76485914374554
 10
68.99508793241799
 20
39.107227189394614
 10
69.23917979894793
 20
39.364003223631414
 10
69.32794111091299
 20
39.53518724645595
 10
69.38500245185449
 20
39.73490193975125
 10
69.41036382177248
 20
40.07726998540032
 10
69.38500245185449
 20
40.50523004246166
 10
69.21381842902997
 20
41.01878211093528
 10
68.99508793241799
 20
41.3896808270551
 10
68.83024251069901
 20
41.55769467863989
 10
68.45934379457918
 20
41.81764088411644
 10
68.1169757489301
 20
41.96029423647022
 10
67.6034236804565
 20
42.090267339208495
 10
66.57631954350927
 20
42.102947588823994
 10
65.54921540656206
 20
42.16000892976551
 10
65.03566333808845
 20
42.16000892976551
 10
64.84546002919936
 20
42.102947588823994
 10
64.77888730385165
 20
41.96029423647022
 10
64.80107937321684
 20
41.67498753176265
 10
64.77888730385165
 20
41.07584345187678
 10
64.83277934424038
 20
40.61935272434468
 10
64.83594864479315
 20
39.84902462163427
  0
LWPOLYLINE
  5
4A
330
17
100
AcDbEntity
  8
0
100
AcDbPolyline
 90
22
 70
1
 10
67.6034236804565
 20
41.07901362311652
 10
67.8380076453281
 20
40.9014892578125
 10
67.95846892831669
 20
40.676414065286195
 10
68.05040650633025
 20
40.39110736057863
 10
68.04723720577746
 20
39.90608596257579
 10
67.9996837664943
 20
39.73490193975125
 10
67.93311452389443
 20
39.62077925786822
 10
67.65731572084522
 20
39.33230238192091
 10
67.43223965763195
 20
39.218179700037894
 10
67.1469329529244
 20
39.16428853033612
 10
66.49072753209701
 20
39.16111835909638
 10
66.34807417974324
 20
39.19281920080688
 10
66.22444359620187
 20
39.284751554698644
 10
66.14835948644793
 20
39.478125905514446
 10
66.09446744605921
 20
40.590822053873936
 10
66.12616741708274
 20
41.01878211093528
 10
66.21175942849501
 20
41.1772858841443
 10
66.34807417974324
 20
41.24385730346157
 10
66.57631954350927
 20
41.27555814517207
 10
66.8901569186876
 20
41.27555814517207
 10
67.20399429386592
 20
41.23751739632556
 10
67.6034236804565
 20
41.07901362311652
  0
LWPOLYLINE
  5
4B
330
17
100
AcDbEntity
  8
0
100
AcDbPolyline
 90
77
 70
1
 10
61.7546362339515
 20
42.04588624788249
 10
61.2981455064194
 20
42.08709716796875
 10
60.071326676176895
 20
42.090267339208495
 10
59.85259269681705
 20
42.05856649749799
 10
59.74797791659237
 20
41.96029423647022
 10
59.716277945568834
 20
41.8461715545872
 10
59.716277945568834
 20
41.27555814517207
 10
59.760658601551356
 20
40.87612875858149
 10
59.75748930099858
 20
40.19139266728334
 10
59.805039257533885
 20
39.934616633046545
 10
59.770169985957565
 20
39.706371269280496
 10
59.77650858706313
 20
39.22134987127764
 10
59.81455064194009
 20
38.96457383704083
 10
59.81455064194009
 20
38.22277640480118
 10
59.85259269681705
 20
37.96600037056437
 10
59.843081312410845
 20
37.6236323249153
 10
59.89063126894615
 20
36.311221483260525
 10
59.8716119828816
 20
35.76913874431615
 10
59.90331195390514
 20
35.65818623367288
 10
59.960373294846654
 20
35.60112489273136
 10
60.299572039942944
 20
35.53772320931036
 10
62.18259629101284
 20
35.5408933805501
 10
62.63908701854494
 20
35.51236271007935
 10
63.29529243937233
 20
35.5408933805501
 10
63.6376604850214
 20
35.5091925388396
 10
63.83737517831669
 20
35.53455303807061
 10
63.91979788917618
 20
35.60429506397111
 10
63.951497860199716
 20
35.76913874431615
 10
63.913455805322755
 20
36.22562947184825
 10
63.87224444989302
 20
36.36511265296228
 10
63.79933312343973
 20
36.434854678862784
 10
63.15263908701855
 20
36.4855756773248
 10
62.89586305278174
 20
36.4538748356143
 10
62.03994293865906
 20
36.450704664374555
 10
61.78316690442226
 20
36.42534416514354
 10
61.52639087018545
 20
36.44753449313481
 10
61.383737517831676
 20
36.47923533484531
 10
61.247422766583455
 20
36.57116768873707
 10
61.177684223430816
 20
36.68212019938035
 10
61.15549215406563
 20
36.79624288126337
 10
61.123792183042085
 20
37.96600037056437
 10
61.14598076965942
 20
38.30836841621344
 10
61.19353420894259
 20
38.42249109809647
 10
61.35520684736092
 20
38.53661377997949
 10
61.52639087018545
 20
38.56514445045025
 10
62.154065620542085
 20
38.53661377997949
 10
62.83880171184023
 20
38.53661377997949
 10
62.94658579261769
 20
38.55880410797076
 10
63.022666419623754
 20
38.628546133871254
 10
63.05753569120007
 20
38.73632847327478
 10
63.073385676711844
 20
39.19281920080688
 10
63.01315503521755
 20
39.37985320914319
 10
62.949755093170474
 20
39.42740490705242
 10
62.83880171184023
 20
39.45593557752318
 10
62.18259629101284
 20
39.478125905514446
 10
61.61198288159772
 20
39.4432548925642
 10
61.35520684736092
 20
39.4749557342747
 10
61.16183075517119
 20
39.573228430645955
 10
61.08258082761235
 20
39.706371269280496
 10
61.02551948667083
 20
40.04873931492956
 10
61.07623874375892
 20
40.39110736057863
 10
61.0413694721826
 20
40.87612875858149
 10
61.06990014265335
 20
41.01878211093528
 10
61.19353420894259
 20
41.18045605538404
 10
61.383737517831676
 20
41.24702747470131
 10
63.43794579172611
 20
41.23117705384607
 10
63.577429843527106
 20
41.25653755307708
 10
63.63449118446862
 20
41.31042915812232
 10
63.66302185493937
 20
41.3896808270551
 10
63.685210441556706
 20
41.76057954317493
 10
63.621810499509635
 20
41.95395389399073
 10
63.5203685025856
 20
42.05856649749799
 10
63.13044701765335
 20
42.150498851389756
 10
62.9243937232525
 20
42.096607246344504
 10
62.353780313837376
 20
42.077587089592996
 10
62.125534950071334
 20
42.09977741758425
 10
61.7546362339515
 20
42.04588624788249
  0
LWPOLYLINE
  5
4C
330
17
100
AcDbEntity
  8
0
100
AcDbPolyline
 90
81
 70
1
 10
72.7389443651926
 20
40.476699371990904
 10
72.79917500668688
 20
40.162861996812595
 10
72.89427491975749
 20
39.90608596257579
 10
73.02108176934738
 20
39.70320109804075
 10
73.08448171139443
 20
39.44959523504369
 10
73.30004987294936
 20
39.050165848453105
 10
73.33491914452568
 20
38.878981825628564
 10
73.31589637571327
 20
38.7933898142163
 10
73.24932713311341
 20
38.68560747481277
 10
72.96718972895863
 20
38.38762008514622
 10
72.6343295849679
 20
37.96600037056437
 10
72.42827629056706
 20
37.45244830209076
 10
72.36487634851997
 20
37.1671415973832
 10
72.36804564907277
 20
36.73918154032186
 10
72.40291492064907
 20
36.53946684702657
 10
72.52020690308487
 20
36.28269081278977
 10
72.64701375267475
 20
36.12418747492421
 10
73.10984308131242
 20
35.734267731365904
 10
73.42368045649073
 20
35.55674336606187
 10
73.7660485021398
 20
35.44262068417885
 10
74.19400855920114
 20
35.388729514477085
 10
74.679029957204
 20
35.37921987144481
 10
75.36376604850216
 20
35.5472337230296
 10
75.64907275320971
 20
35.721587917093885
 10
75.86464091476464
 20
35.89594211115816
 10
75.99144079885878
 20
35.93715259590094
 10
76.10556348074181
 20
35.94032276714069
 10
76.27674750356633
 20
35.90862192543019
 10
76.61911554921542
 20
35.721587917093885
 10
77.33238231098431
 20
35.41092071315531
 10
77.53209700427959
 20
35.37287952896531
 10
77.63671178450429
 20
35.40141019943607
 10
77.68425825829172
 20
35.45847154037759
 10
77.70011172655137
 20
35.5408933805501
 10
77.65572758782096
 20
36.02591477855296
 10
77.60818111403353
 20
36.190758458898
 10
77.50356633380886
 20
36.28586098402951
 10
77.21825962910128
 20
36.38096350916102
 10
76.93295292439373
 20
36.55531683253834
 10
76.80932234085236
 20
36.68212019938035
 10
76.76810750267475
 20
36.76771221079262
 10
76.78713027148717
 20
36.9103655631464
 10
76.88856878566335
 20
37.08154958597093
 10
77.22459823020685
 20
37.8804083591521
 10
77.27215166949003
 20
38.19424573433042
 10
77.22776753075962
 20
38.32421840172521
 10
77.16119828815977
 20
38.37811044211394
 10
76.9741607970756
 20
38.44785159732748
 10
76.3623395149786
 20
38.454191939806975
 10
76.28942470577746
 20
38.43517178305545
 10
76.22285546317761
 20
38.3368990866842
 10
76.05484074090586
 20
37.737755006798324
 10
75.96291012838802
 20
37.65216299538605
 10
75.82025677603423
 20
37.626802496155044
 10
75.67760342368047
 20
37.67118315213757
 10
75.51592730251426
 20
37.78847600526034
 10
75.22111269614837
 20
38.149865078347894
 10
74.99920593348787
 20
38.371770099634446
 10
74.80900610734665
 20
38.682437303573025
 10
74.81217540789945
 20
38.7933898142163
 10
74.91044462152283
 20
38.96457383704083
 10
75.34791258024251
 20
39.39253389410217
 10
75.40180462063125
 20
39.4749557342747
 10
75.4144887883381
 20
39.62077925786822
 10
75.569819342903
 20
39.665159913850744
 10
75.7885568050107
 20
39.99167797398805
 10
76.00094870051711
 20
40.61935272434468
 10
75.95974082783525
 20
41.04731278140602
 10
75.82025677603423
 20
41.41821149752586
 10
75.61103418108061
 20
41.67498753176265
 10
75.47788873038516
 20
41.795450556125175
 10
74.85021398002854
 20
42.1092879313035
 10
74.70756062767475
 20
42.13147825929475
 10
74.02282453637662
 20
42.121968180919
 10
73.68045649072752
 20
42.036376169506724
 10
73.48074179743224
 20
41.941273644375215
 10
73.11935098297076
 20
41.63694678291614
 10
73.03058967100571
 20
41.53233417940888
 10
72.82453637660487
 20
41.132904792818294
 10
72.73260576408703
 20
40.81906741763997
 10
72.7389443651926
 20
40.476699371990904
  0
LWPOLYLINE
  5
4D
330
17
100
AcDbEntity
  8
0
100
AcDbPolyline
 90
23
 70
1
 10
74.91044462152283
 20
37.148121440631684
 10
75.06260587553496
 20
37.1671415973832
 10
75.06260587553496
 20
36.93889623361716
 10
75.15771275410128
 20
36.71065086985111
 10
75.15771275410128
 20
36.65358952890959
 10
75.07845934379458
 20
36.49508619104404
 10
74.93580599144082
 20
36.36194248172254
 10
74.79315263908703
 20
36.28586098402951
 10
74.62196861626248
 20
36.25416014231901
 10
74.2225392296719
 20
36.28586098402951
 10
73.93723252496434
 20
36.41900382266405
 10
73.71215646175108
 20
36.65358952890959
 10
73.60120308042085
 20
36.85330422220488
 10
73.54097243892653
 20
37.1671415973832
 10
73.58852587820971
 20
37.45244830209076
 10
73.64241791859843
 20
37.59510165444454
 10
73.72484062945793
 20
37.737755006798324
 10
73.82310984308131
 20
37.83919700372236
 10
73.9657631954351
 20
37.915279372102354
 10
74.13060861715408
 20
37.89942851590362
 10
74.25740850124822
 20
37.79481634773984
 10
74.7994912401926
 20
37.202012610333455
 10
74.91044462152283
 20
37.148121440631684
  0
LWPOLYLINE
  5
4E
330
17
100
AcDbEntity
  8
0
100
AcDbPolyline
 90
18
 70
1
 10
74.8755753499465
 20
40.39110736057863
 10
74.78047543687589
 20
40.162861996812595
 10
74.50784593437947
 20
39.82049395116351
 10
74.36519258202568
 20
39.72222125479226
 10
74.27960057061341
 20
39.70320109804075
 10
74.13377791770685
 20
39.785622938213265
 10
73.84213261189373
 20
40.162861996812595
 10
73.7470257333274
 20
40.590822053873936
 10
73.73751783166904
 20
40.87612875858149
 10
73.8104326408702
 20
41.18996613375981
 10
73.91504045559915
 20
41.361150156584344
 10
74.13694721825962
 20
41.51014385141761
 10
74.36519258202568
 20
41.560864849879636
 10
74.65049928673324
 20
41.481613180946866
 10
74.82485261011055
 20
41.332619486113586
 10
74.93263669088802
 20
41.10437412234754
 10
74.95165945970044
 20
40.87612875858149
 10
74.8755753499465
 20
40.39110736057863
  0
LWPOLYLINE
  5
4F
330
17
100
AcDbEntity
  8
0
100
AcDbPolyline
 90
73
 70
1
 10
80.35663338088446
 20
40.162861996812595
 10
80.49928673323822
 20
37.45244830209076
 10
80.63560148448644
 20
36.76771221079262
 10
80.69583212598076
 20
36.596528187968076
 10
80.86701614880528
 20
36.25416014231901
 10
81.26961483594866
 20
35.816689571538426
 10
81.58345221112697
 20
35.59478455025187
 10
82.12553495007134
 20
35.39189968571684
 10
82.98145506419402
 20
35.2841173463133
 10
83.32382310984309
 20
35.2841173463133
 10
83.78031383737519
 20
35.35702867276658
 10
84.17974322396577
 20
35.47432152588935
 10
84.35092724679029
 20
35.56308370854137
 10
84.71548736180458
 20
35.838880770216655
 10
84.94056342501784
 20
36.082976119494475
 10
85.05151680634808
 20
36.25416014231901
 10
85.21952456312411
 20
36.9103655631464
 10
85.23537803138373
 20
37.45244830209076
 10
85.21635526257134
 20
37.52852979978379
 10
85.14661671941869
 20
37.59510165444454
 10
84.97860199714694
 20
37.6236323249153
 10
84.66476462196863
 20
37.60461216816378
 10
84.03708987161198
 20
37.66801298089783
 10
83.93247509138732
 20
37.648992824146305
 10
83.88492861759985
 20
37.56657098397379
 10
83.89443651925822
 20
37.08154958597093
 10
83.81518310895152
 20
36.71065086985111
 10
83.66619115549216
 20
36.48240550608506
 10
83.49500713266761
 20
36.32707146877229
 10
83.3808844507846
 20
36.263670656038244
 10
83.15263908701854
 20
36.206609315096735
 10
82.78174037089872
 20
36.18124881586573
 10
82.21429626203638
 20
36.457045006854045
 10
82.11602704841297
 20
36.57116768873707
 10
81.97020439550641
 20
36.9103655631464
 10
81.87509751694009
 20
37.33832562020774
 10
81.86558961528175
 20
37.56657098397379
 10
81.8148668754458
 20
37.79481634773984
 10
81.75463623395152
 20
38.96457383704083
 10
81.75463623395152
 20
39.592248587397464
 10
81.69757489301
 20
40.04873931492956
 10
81.71342836126962
 20
40.476699371990904
 10
81.82437477710414
 20
40.81906741763997
 10
81.90679748796362
 20
40.93001992828326
 10
82.03994293865907
 20
41.04097243892653
 10
82.18259629101286
 20
41.10754429358728
 10
82.52496433666192
 20
41.18996613375981
 10
82.89586305278175
 20
41.17411571290455
 10
83.06704707560627
 20
41.132904792818294
 10
83.20970042796006
 20
41.06316320226128
 10
83.47281506330242
 20
40.81906741763997
 10
83.60912981455064
 20
40.53376071293242
 10
83.72008319588087
 20
40.02337881569855
 10
83.81201380839872
 20
39.925106119327296
 10
84.03708987161198
 20
39.87755529210503
 10
84.80741797432239
 20
39.90608596257579
 10
84.97226339604137
 20
39.9568069610378
 10
85.06102470800641
 20
40.102630484631334
 10
85.05468610690087
 20
40.229433416129865
 10
84.91203275454708
 20
40.73347540622771
 10
84.73133386456848
 20
41.132904792818294
 10
84.37311931615551
 20
41.53550435064862
 10
84.12268188302426
 20
41.71302828060918
 10
83.6376604850214
 20
41.94761398685472
 10
83.23823109843082
 20
42.05856649749799
 10
82.9243937232525
 20
42.102947588823994
 10
82.2681883024251
 20
42.102947588823994
 10
81.72610556348076
 20
42.04271607664275
 10
81.21255349500714
 20
41.81764088411644
 10
80.81946270952213
 20
41.52282410103312
 10
80.57220154243939
 20
41.18996613375981
 10
80.4295481900856
 20
40.79053674716923
 10
80.35663338088446
 20
40.162861996812595
  0
LWPOLYLINE
  5
50
330
17
100
AcDbEntity
  8
0
100
AcDbPolyline
 90
18
 70
1
 10
89.7432239657632
 20
35.2841173463133
 10
89.85734664764621
 20
35.30630767430456
 10
89.93343075740015
 20
35.353859372213805
 10
90.0
 20
35.51236271007935
 10
89.99683069944723
 20
35.740608073845394
 10
89.9619614278709
 20
35.85156058448868
 10
89.90490008692939
 20
35.91813243914943
 10
89.77175463623396
 20
35.96251309513195
 10
88.83024251069901
 20
35.927642082181706
 10
86.80456490727533
 20
35.96885343761144
 10
86.67458875713268
 20
35.933982424661195
 10
86.63971948555636
 20
35.85156058448868
 10
86.7284807975214
 20
35.40141019943607
 10
86.83309557774609
 20
35.31264801678405
 10
87.00427960057061
 20
35.2841173463133
 10
87.63195435092726
 20
35.32849800229583
 10
89.40085592011414
 20
35.31264801678405
 10
89.7432239657632
 20
35.2841173463133
  0
LWPOLYLINE
  5
51
330
17
100
AcDbEntity
  8
0
100
AcDbPolyline
 90
19
 70
1
 10
71.85449358059915
 20
26.83269854449001
 10
72.2824536376605
 20
26.93097124086127
 10
72.41876838890872
 20
26.984861539876068
 10
72.52020690308487
 20
27.124345591677066
 10
72.57092964292085
 20
27.40965229638463
 10
72.478999030403
 20
27.666428330621432
 10
72.51386830197933
 20
27.853462338957737
 10
72.49484553316691
 20
27.885164051355204
 10
72.25392296718974
 20
27.82810271041369
 10
71.8259629101284
 20
27.9453946928495
 10
71.42019492243224
 20
27.96441572028798
 10
71.34411081267831
 20
27.916864022378743
 10
71.12220405001784
 20
27.637897660150678
 10
71.09367337954708
 20
27.552305648738407
 10
71.1095268478067
 20
27.38112162591387
 10
71.25534950071327
 20
27.070453551288338
 10
71.34411081267831
 20
26.959501911332023
 10
71.51212553495009
 20
26.870738857993043
 10
71.85449358059915
 20
26.83269854449001
  0
LWPOLYLINE
  5
52
330
17
100
AcDbEntity
  8
0
100
AcDbPolyline
 90
139
 70
1
 10
39.129814550641946
 20
26.277935120586662
 10
39.23442584811876
 20
26.094072154177066
 10
39.50071326676177
 20
26.002139800285306
 10
39.649705220221115
 20
25.79291372258381
 10
39.75748930099858
 20
25.76121375156027
 10
40.04279600570614
 20
25.74219272412179
 10
40.15374938703638
 20
25.68830242510699
 10
40.35663338088445
 20
25.504437717323466
 10
40.64194008559201
 20
25.450545676934734
 10
40.89871611982882
 20
25.358613323042974
 10
41.15549215406563
 20
25.33325369449893
 10
41.35520684736092
 20
25.24449064115995
 10
42.01141226818831
 20
25.038437346759093
 10
42.325249643366625
 20
25.047946989791367
 10
42.89586305278174
 20
24.99405494940264
 10
43.18116975748931
 20
24.895783994405313
 10
43.66619115549216
 20
24.80068059858684
 10
44.23680456490728
 20
24.813361283545827
 10
44.72182596291013
 20
24.727769272133557
 10
45.00713266761769
 20
24.702407902215583
 10
45.2639087018545
 20
24.71508858717457
 10
45.57774607703281
 20
24.677048273671538
 10
45.89158345221113
 20
24.600965905291545
 10
46.26248216833096
 20
24.55658524930902
 10
46.918687589158345
 20
24.55658524930902
 10
47.17546362339515
 20
24.528054578838265
 10
47.660485021398
 20
24.540735263797252
 10
48.23109843081313
 20
24.470993237896753
 10
48.405451754190445
 20
24.490014265335233
 10
48.65905848787447
 20
24.73093857268634
 10
48.944365192582026
 20
24.743619257645328
 10
49.2867332382311
 20
24.94016465038784
 10
49.51497860199715
 20
24.946504992867332
 10
49.67982402371612
 20
24.908462937990368
 10
49.70835469418688
 20
24.84189195401658
 10
49.69567400922789
 20
24.791170955554563
 10
49.5339978880617
 20
24.680217574224322
 10
49.489617232079176
 20
24.613646590250532
 10
49.47059794601463
 20
24.499523908367507
 10
49.53082858750892
 20
24.41076259640246
 10
49.65763195435093
 20
24.401251211996254
 10
49.91440798858773
 20
24.493183565888014
 10
50.12046128298859
 20
24.382231925931702
 10
50.285306704707565
 20
24.334680228022467
 10
50.770328102710415
 20
24.299809215072216
 10
51.05563480741798
 20
24.347360912981454
 10
51.28388017118402
 20
24.32517058499019
 10
51.51212553495007
 20
24.350530213534235
 10
51.76890156918688
 20
24.299809215072216
 10
52.56776034236805
 20
24.379060884004993
 10
53.480741797432245
 20
24.385401226484486
 10
54.25106990014266
 20
24.48684322340852
 10
54.850213980028535
 20
24.528054578838265
 10
55.10699001426534
 20
24.59145626225927
 10
55.44935805991441
 20
24.60730624777104
 10
56.73323823109843
 20
24.80385164051355
 10
57.24679029957204
 20
24.936993608461126
 10
57.47503566333809
 20
24.96552427893188
 10
57.70328102710414
 20
25.044775947864657
 10
57.9885877318117
 20
25.092327645773892
 10
58.58773181169758
 20
25.345934379457915
 10
59.04422253922968
 20
25.456886019414227
 10
59.843081312410845
 20
25.8689960909638
 10
60.08400736113588
 20
26.075051126738586
 10
60.43905609174394
 20
26.46814017084968
 10
60.638770785039235
 20
26.81050821649875
 10
60.689490042127325
 20
27.0387535802648
 10
60.65779007110378
 20
27.23846827356009
 10
60.489775348832026
 20
27.580836319209165
 10
60.34078339537268
 20
27.780551012504457
 10
60.01426533523538
 20
28.132428701185805
 10
59.55777460770329
 20
28.414566105340583
 10
59.04422253922968
 20
28.614280798635875
 10
58.81597717546363
 20
28.73157278107168
 10
58.302425106990015
 20
28.877397175352176
 10
57.67475035663338
 20
29.1151521821505
 10
56.84736091298146
 20
29.289507246901746
 10
56.30527817403709
 20
29.470200912758557
 10
55.848787446505
 20
29.53043155425285
 10
55.47788873038517
 20
29.628704250624107
 10
54.4793152639087
 20
29.749167274986625
 10
54.2225392296719
 20
29.73648659002764
 10
53.537803138373754
 20
29.86328995686965
 10
52.62482168330956
 20
29.920351297811163
 10
51.940085592011414
 20
30.018623994182416
 10
50.570613409415124
 20
30.14859666157721
 10
50.085592011412274
 20
30.145427361024428
 10
49.400855920114125
 20
30.00911260977621
 10
49.35013318027818
 20
29.977412638752675
 10
49.32160250980742
 20
29.91401095533167
 10
49.39768661956134
 20
29.77769794545738
 10
49.40719452121969
 20
29.692105934045113
 10
49.33745597806705
 20
29.587492895194362
 10
49.25820256776034
 20
29.558962224723608
 10
48.944365192582026
 20
29.587492895194362
 10
48.861942481722544
 20
29.619194607591833
 10
48.82390390959344
 20
29.720636604515867
 10
48.871453866128746
 20
29.907670612852176
 10
48.798542539675466
 20
29.977412638752675
 10
48.54493580599144
 20
30.015452952255703
 10
48.28815977175464
 20
30.13591597661822
 10
47.974322396576326
 20
30.151765962129993
 10
47.68901569186876
 20
30.04081432217368
 10
47.4037089871612
 20
30.123235291659235
 10
46.77603423680457
 20
30.09787566311519
 10
46.51925820256776
 20
30.120065991106454
 10
46.09129814550642
 20
30.107385306147467
 10
45.777460770328105
 20
30.04081432217368
 10
45.549215406562055
 20
30.050323965205955
 10
45.23537803138374
 20
29.990093323711662
 10
44.97860199714694
 20
29.860120656316866
 10
44.77888730385165
 20
29.860120656316866
 10
44.49358059914408
 20
29.761847959945612
 10
44.407988587731815
 20
29.761847959945612
 10
44.23680456490728
 20
29.83158998584611
 10
44.0941512125535
 20
29.84426892943117
 10
42.66761768901569
 20
29.660405963021574
 10
42.2111269614836
 20
29.43849920036109
 10
41.98288159771755
 20
29.49239124074982
 10
41.7546362339515
 20
29.428989557328816
 10
41.497860199714694
 20
29.40362992878477
 10
41.26961483594865
 20
29.31169757489301
 10
41.12696148359487
 20
29.29901688993402
 10
40.5848787446505
 20
29.092961854159235
 10
40.38516405135521
 20
28.982008472828994
 10
40.15691868758916
 20
28.947139201252675
 10
39.93501192492867
 20
28.829845477442937
 10
39.85259269681705
 20
28.63964042717992
 10
39.78601997146933
 20
28.58575012816512
 10
39.32952924393724
 20
28.493817774273356
 10
38.87303851640514
 20
28.135599743112515
 10
38.67332382310985
 20
27.923204364858236
 10
38.57822042729137
 20
27.7520203420337
 10
38.38801711840229
 20
27.124345591677066
 10
38.41020918776748
 20
26.839038886969508
 10
38.530670470756064
 20
26.54105149730296
 10
38.75574653396933
 20
26.45545948589069
 10
38.90790778798146
 20
26.34767714648716
 10
39.129814550641946
 20
26.277935120586662
  0
LWPOLYLINE
  5
53
330
17
100
AcDbEntity
  8
0
100
AcDbPolyline
 90
90
 70
1
 10
62.382310984308134
 20
25.748533066601283
 10
62.83880171184023
 20
25.58052008570346
 10
63.60912981455065
 20
25.475907046852708
 10
64.20827389443653
 20
25.558328016338265
 10
64.77888730385165
 20
25.720002396130525
 10
65.57774607703281
 20
25.995799457805813
 10
66.34807417974324
 20
26.36669817392564
 10
66.60485021398003
 20
26.442778800931702
 10
67.26105563480742
 20
26.73759689004547
 10
67.68901569186876
 20
26.975351896843794
 10
68.37375178316691
 20
27.247977916592365
 10
68.71611982881598
 20
27.33991027048413
 10
69.00142653352354
 20
27.35893129792261
 10
69.20114122681883
 20
27.324060284972358
 10
69.34379457917262
 20
27.23529897300731
 10
69.46108656160843
 20
27.067284250735554
 10
69.47377072931528
 20
26.896100227911017
 10
69.41670938837376
 20
26.781977546027996
 10
69.11554921540656
 20
26.528370812343972
 10
68.78268907141583
 20
26.411078829908167
 10
68.74465049928673
 20
26.36352713199893
 10
68.78268907141583
 20
26.27159477810717
 10
68.88730385164052
 20
26.182833466142117
 10
69.17261055634808
 20
26.097241454729847
 10
69.34379457917262
 20
26.075051126738586
 10
69.7432239657632
 20
26.103581797209344
 10
70.08242271085949
 20
26.249404450115904
 10
70.2219067626605
 20
26.38254815943741
 10
70.418452155403
 20
26.639324193674213
 10
70.49135999910843
 20
26.81050821649875
 10
70.51355206847362
 20
26.95316156885253
 10
70.47234419579172
 20
27.266998944030846
 10
70.39942938659058
 20
27.46671363732614
 10
70.30432947351997
 20
27.60619768912714
 10
70.02853067047076
 20
27.843952695925463
 10
69.85734664764622
 20
27.954904335881775
 10
69.45791726105564
 20
28.0848787446505
 10
69.25820256776035
 20
28.122919058153528
 10
69.00142653352354
 20
28.12925940063302
 10
68.37375178316691
 20
28.0690270177648
 10
67.8601997146933
 20
27.913694721825962
 10
67.51783166904423
 20
27.73617035652193
 10
67.03281027104137
 20
27.43184262437589
 10
66.66191155492155
 20
27.314550641940084
 10
66.2339514978602
 20
27.067284250735554
 10
65.9201141226819
 20
26.921461597828994
 10
65.29243937232525
 20
26.68687589158345
 10
64.97860199714694
 20
26.64883383670649
 10
64.72182596291013
 20
26.496670841320434
 10
64.43651925820257
 20
26.388888501916902
 10
64.03708987161198
 20
26.277935120586662
 10
63.466476462196866
 20
26.296956148025142
 10
63.15263908701855
 20
26.35084818841387
 10
62.86733238231099
 20
26.464970870296895
 10
62.72467902995721
 20
26.56007252474144
 10
62.53130293776748
 20
26.753446875557238
 10
62.388649585413695
 20
26.981692239323287
 10
62.353780313837376
 20
27.152876262147824
 10
62.363291698243586
 20
27.38112162591387
 10
62.43303372414408
 20
27.523774978267653
 10
62.582025677603426
 20
27.694959001092187
 10
62.78174037089872
 20
27.87882370887571
 10
63.09557774607703
 20
28.062688416659235
 10
63.238231098430816
 20
28.094388387682773
 10
63.60912981455065
 20
28.0848787446505
 10
63.83737517831669
 20
28.008796376270507
 10
64.00855920114122
 20
27.88833335190799
 10
64.16706253900678
 20
27.694959001092187
 10
64.2716738364836
 20
27.46988293787892
 10
64.35409654734309
 20
27.422332981343615
 10
64.46504992867332
 20
27.473053979805634
 10
64.60453398047433
 20
27.637897660150678
 10
64.75352593393367
 20
27.951735035328994
 10
64.74401803227533
 20
28.122919058153528
 10
64.68695669133382
 20
28.237041740036553
 10
64.29386590584879
 20
28.70938245308042
 10
63.6376604850214
 20
28.864716490393185
 10
63.18116975748931
 20
28.877397175352176
 10
62.981455064194016
 20
28.83618581992243
 10
62.66761768901569
 20
28.737913123551177
 10
62.154065620542085
 20
28.452606418843615
 10
61.97654299661199
 20
28.290933780425284
 10
61.6151521821505
 20
27.866143023916724
 10
61.456648844284956
 20
27.523774978267653
 10
61.41226818830243
 20
27.324060284972358
 10
61.418606789407995
 20
27.124345591677066
 10
61.55492154065621
 20
26.61079352320346
 10
61.84656684646934
 20
26.125772125200605
 10
61.986050898270335
 20
25.98945911532632
 10
62.382310984308134
 20
25.748533066601283
  0
LWPOLYLINE
  5
54
330
17
100
AcDbEntity
  8
0
100
AcDbPolyline
 90
69
 70
1
 10
56.932952924393724
 20
17.45244830209076
 10
56.986844964782456
 20
17.053018915500175
 10
56.96148359486448
 20
16.339752153731276
 10
57.03756422187055
 20
15.2841173463133
 10
57.0280563202122
 20
15.027341312076496
 10
57.11681763217725
 20
14.656442595956667
 10
57.37359366641405
 20
14.276032495430634
 10
57.633539001203644
 20
14.012917860088265
 10
57.760342368045656
 20
13.927325848675997
 10
58.13124108416548
 20
13.784672496322216
 10
58.50213980028531
 20
13.695911184357167
 10
59.10128388017119
 20
13.657869129480204
 10
59.72895863052782
 20
13.759311126404242
 10
60.01426533523538
 20
13.86075312332828
 10
60.299572039942944
 20
14.054129215518008
 10
60.54366738922076
 20
14.314074550307595
 10
60.70217072708631
 20
14.656442595956667
 10
60.82897409392832
 20
15.227056005371788
 10
60.8321433944811
 20
15.712077403374641
 10
60.790932039051356
 20
15.968853437611447
 10
60.81312410841655
 20
16.73918154032186
 10
60.75923206802782
 20
16.995957574558666
 10
60.784593437945794
 20
17.224202938324712
 10
60.756062767475036
 20
17.566570983973786
 10
60.77825483684023
 20
17.937469700093615
 10
60.756062767475036
 20
18.19424573433042
 10
60.765574151881246
 20
19.164288530336126
 10
60.718020712598076
 20
19.417895264020146
 10
60.66095937165657
 20
19.474956604961662
 10
60.5848787446505
 20
19.503487275432416
 10
60.18544935805992
 20
19.487635548546717
 10
59.92867332382311
 20
19.522506561496968
 10
59.76700068540478
 20
19.455935577523178
 10
59.681408673992514
 20
19.335472553160663
 10
59.643366619115554
 20
19.0501658484531
 10
59.70042796005706
 20
18.422491098096465
 10
59.70042796005706
 20
17.224202938324712
 10
59.72895863052782
 20
16.967426904087908
 10
59.73847001493402
 20
16.082976119494468
 10
59.76700068540478
 20
15.911792096669934
 10
59.732127931080605
 20
15.569424051020862
 10
59.74480861603959
 20
15.14146399395952
 10
59.65604730407454
 20
14.827626618781203
 10
59.52924393723253
 20
14.65961189650945
 10
59.386590584878746
 20
14.545489214626425
 10
59.24393723252497
 20
14.472577888173143
 10
59.04422253922968
 20
14.412347246678848
 10
58.61626248216834
 20
14.453558602108593
 10
58.44190915879101
 20
14.593042653909592
 10
58.27706373707204
 20
14.64376191099768
 10
58.15343315353068
 20
14.827626618781203
 10
58.09637181258916
 20
15.055871982547252
 10
58.07101044267119
 20
15.683546732903885
 10
58.10271041369472
 20
16.082976119494468
 10
58.045649072753214
 20
16.425344165143542
 10
58.017118402282456
 20
16.910365563146396
 10
58.017118402282456
 20
18.793389814216297
 10
57.979076347405496
 20
19.335472553160663
 10
58.00443771732347
 20
19.484466247993936
 10
57.823742310092726
 20
19.53201794590317
 10
57.532097004279606
 20
19.53201794590317
 10
57.398955036332026
 20
19.585908244917974
 10
57.2753209700428
 20
19.51616621901747
 10
56.99952564974144
 20
19.487635548546717
 10
56.92978362384095
 20
19.417895264020146
 10
56.904422253922974
 20
19.278411212219147
 10
56.904422253922974
 20
18.70779780280403
 10
56.98050288092903
 20
18.365429757154956
 10
56.932952924393724
 20
17.45244830209076
  0
LWPOLYLINE
  5
55
330
17
100
AcDbEntity
  8
0
100
AcDbPolyline
 90
59
 70
1
 10
76.50182356677959
 20
17.766285677269078
 10
76.45427012749644
 20
17.671182281450605
 10
76.31161677514265
 20
17.62997092602086
 10
76.39720878655493
 20
17.55072099846202
 10
76.42573945702568
 20
17.477809672008735
 10
76.38770088489659
 20
17.138610926912445
 10
76.27674750356633
 20
16.59652818796808
 10
76.16262482168332
 20
16.197098801377493
 10
76.15945552113052
 20
15.968853437611447
 10
76.09605557908347
 20
15.769138744316153
 10
76.0104635676712
 20
15.255586675842544
 10
75.88048741752854
 20
14.742034607368936
 10
75.87414881642297
 20
14.570850584544399
 10
75.70296479359843
 20
14.028767845600033
 10
75.69345689194009
 20
13.943175834187766
 10
75.72198756241085
 20
13.835391753410306
 10
75.82342607658703
 20
13.765653210257666
 10
76.50499286733239
 20
13.711761169868936
 10
76.61911554921542
 20
13.724441854827923
 10
76.69519965896933
 20
13.762480426957023
 10
76.7807916703816
 20
13.91464516371701
 10
76.9012529533702
 20
14.71350393689818
 10
76.9741607970756
 20
14.846645904845754
 10
77.10413694721825
 20
14.932237916258021
 10
77.30385164051356
 20
14.986129956646753
 10
78.55920114122682
 20
14.976618572240547
 10
78.73038516405137
 20
14.92906861570524
 10
78.85084644703994
 20
14.799095948310448
 10
78.87303851640513
 20
14.684973266427424
 10
78.84767714648717
 20
14.42819723219062
 10
78.8635306147468
 20
14.19995186842457
 10
78.9586305278174
 20
13.857583822775497
 10
79.02519977041726
 20
13.768822510810448
 10
79.12981455064195
 20
13.711761169868936
 10
79.47218259629102
 20
13.664207730585769
 10
79.91599612161198
 20
13.70224978546273
 10
79.9730574625535
 20
13.756141825851461
 10
79.99524256642297
 20
13.832222452857522
 10
79.93501192492869
 20
14.142890527483058
 10
79.79552787312767
 20
14.456727902661374
 10
79.66238938792796
 20
14.913218630193473
 10
79.54192113944364
 20
15.169994664430277
 10
79.42462915700784
 20
15.740608073845397
 10
79.15200662000714
 20
16.482405506085055
 10
79.05689974144082
 20
16.967426904087908
 10
78.57187834343796
 20
18.53661377997949
 10
78.41654778887303
 20
18.878981825628564
 10
78.3436329796719
 20
19.2435401992689
 10
78.27072513596647
 20
19.33230325260788
 10
78.15977175463624
 20
19.392533894102172
 10
77.7318116975749
 20
19.465445220555456
 10
77.56062767475035
 20
19.417895264020146
 10
76.99001426533525
 20
19.42106456457293
 10
76.87906088400499
 20
19.38936459354939
 10
76.81566094195793
 20
19.33230325260788
 10
76.77762236982883
 20
19.249880541748393
 10
76.7173847628388
 20
18.793389814216297
 10
76.57156210993224
 20
18.19424573433042
 10
76.50182356677959
 20
17.766285677269078
  0
LWPOLYLINE
  5
56
330
17
100
AcDbEntity
  8
0
100
AcDbPolyline
 90
18
 70
1
 10
78.24219446549571
 20
15.911792096669934
 10
78.18196382400143
 20
15.838880770216653
 10
78.07417974322397
 20
15.78181942927514
 10
77.61768901569187
 20
15.769138744316153
 10
77.44650499286735
 20
15.794500114234127
 10
77.22776753075962
 20
15.927642082181704
 10
77.1738754903709
 20
16.016403394146753
 10
77.26264376783166
 20
16.482405506085055
 10
77.25312890067761
 20
16.82160425118135
 10
77.36725158256064
 20
17.0276575455822
 10
77.45601289452568
 20
17.642651610979847
 10
77.50673563436163
 20
17.702885735222004
 10
77.58915834522111
 20
17.740924307351104
 10
77.72864239702213
 20
17.73141640569276
 10
77.83008091119828
 20
17.6236323249153
 10
78.1470945524251
 20
16.767712210792617
 10
78.27706373707204
 20
16.054445449023714
 10
78.24219446549571
 20
15.911792096669934
  0
LWPOLYLINE
  5
57
330
17
100
AcDbEntity
  8
0
100
AcDbPolyline
 90
79
 70
1
 10
66.4558582605207
 20
18.451021768567223
 10
66.40830482123752
 20
17.966000370564373
 10
66.47487406383738
 20
17.737755006798324
 10
66.65557295381598
 20
17.39538696114925
 10
66.93454105741799
 20
17.0276575455822
 10
67.43223965763195
 20
16.625058858438834
 10
67.83166904422254
 20
16.41583278073734
 10
68.74465049928673
 20
15.854730755728422
 10
69.17894915745364
 20
15.474320655202387
 10
69.31843320925464
 20
15.255586675842544
 10
69.34379457917262
 20
15.055871982547252
 10
69.31526390870187
 20
14.884687959722715
 10
69.20114122681883
 20
14.656442595956667
 10
69.05848787446504
 20
14.510619943050106
 10
68.80171184022825
 20
14.399666561719862
 10
68.54493580599144
 20
14.35845520629012
 10
68.1169757489301
 20
14.425027931637837
 10
67.89823828682239
 20
14.545489214626425
 10
67.65414642029245
 20
14.77056527783969
 10
67.5241702701498
 20
14.970279971134984
 10
67.37834761724324
 20
15.2841173463133
 10
67.23252496433668
 20
15.38872864379012
 10
67.03281027104137
 20
15.382390042684555
 10
66.74750356633382
 20
15.325328701743043
 10
66.40513552068474
 20
15.312648016784056
 10
66.34807417974324
 20
15.28094804576052
 10
66.31954350927248
 20
15.223886704819007
 10
66.34490487919044
 20
15.084402653018008
 10
66.55095817359131
 20
14.570850584544399
 10
66.83626487829886
 20
14.174590498506596
 10
67.08987161198289
 20
13.96853720410574
 10
67.37517831669044
 20
13.803691782386768
 10
68.20256776034236
 20
13.597638487985911
 10
68.5734664764622
 20
13.581788502474142
 10
68.97289586305278
 20
13.600807788538692
 10
69.34379457917262
 20
13.664207730585769
 10
69.57203994293866
 20
13.743461140892473
 10
69.97146932952924
 20
13.96853720410574
 10
70.139484051801
 20
14.114359857012303
 10
70.26945323644793
 20
14.285543879836839
 10
70.46599862919044
 20
14.71350393689818
 10
70.4564907275321
 20
15.227056005371788
 10
70.41528285485022
 20
15.426770698667081
 10
70.14265335235379
 20
15.905453495564371
 10
69.68933192537446
 20
16.33024076932507
 10
69.11554921540656
 20
16.732842939216297
 10
68.1169757489301
 20
17.278094978713444
 10
67.72705426399787
 20
17.55072099846202
 10
67.63512365148003
 20
17.680693665856808
 10
67.53368513730385
 20
17.908939029622857
 10
67.53368513730385
 20
18.165715063859665
 10
67.59074647824536
 20
18.3368990866842
 10
67.77460770328102
 20
18.558804107970754
 10
68.00285306704708
 20
18.69194781729226
 10
68.20256776034236
 20
18.736328473274785
 10
68.45934379457918
 20
18.704628502251246
 10
68.68125055723966
 20
18.606355805879993
 10
68.96021866084166
 20
18.384450784593437
 10
69.08384924438303
 20
18.222776404801174
 10
69.21699469507845
 20
17.96916967111715
 10
69.30258670649073
 20
17.918450414029063
 10
69.48644793152638
 20
17.905769729070077
 10
70.02853067047076
 20
18.004042425441334
 10
70.139484051801
 20
18.0579309830822
 10
70.19654539274251
 20
18.11816510732436
 10
70.20288399384808
 20
18.25130707527193
 10
70.0982692136234
 20
18.47955243903798
 10
69.75907743402283
 20
18.907512496099322
 10
69.48644793152638
 20
19.151607845377136
 10
69.22967189728959
 20
19.319622567648892
 10
68.68758915834522
 20
19.47178556303495
 10
68.45934379457918
 20
19.506656575985197
 10
67.97432239657633
 20
19.528846903976458
 10
67.71754636233952
 20
19.478125905514442
 10
67.06134094151213
 20
19.24037089871612
 10
66.77920353735735
 20
19.027975520461837
 10
66.62704228334522
 20
18.850451155157806
 10
66.50023543375536
 20
18.62220579139176
 10
66.4558582605207
 20
18.451021768567223
  0
LWPOLYLINE
  5
58
330
17
100
AcDbEntity
  8
0
100
AcDbPolyline
 90
19
 70
1
 10
62.01141226818831
 20
13.762480426957023
 10
62.154065620542085
 20
13.743461140892473
 10
62.72467902995721
 20
13.743461140892473
 10
62.80075965696327
 20
13.762480426957023
 10
62.88635166837554
 20
13.832222452857522
 10
62.93073232435806
 20
13.97170650465852
 10
62.94341300931705
 20
14.228482538895326
 10
62.892693752228965
 20
14.596211954462373
 10
62.86416308175821
 20
14.653273295403885
 10
62.80710174081669
 20
14.681803965874641
 10
62.582025677603426
 20
14.707165335792617
 10
62.41718025588445
 20
14.76739597728691
 10
62.0019008837821
 20
14.703992552491973
 10
61.887778201899074
 20
14.637423309892117
 10
61.84022824536377
 20
14.513789243602886
 10
61.84022824536377
 20
14.028767845600033
 10
61.868758915834526
 20
13.886114493246254
 10
61.93850094173502
 20
13.800522481833985
 10
62.01141226818831
 20
13.762480426957023
  0
LWPOLYLINE
  5
59
330
17
100
AcDbEntity
  8
0
100
AcDbPolyline
 90
15
 70
1
 10
71.8259629101284
 20
13.686399799950962
 10
72.16833095577746
 20
13.721269071527281
 10
72.29196153931883
 20
13.787841796874998
 10
72.33000707694364
 20
13.857583822775497
 10
72.33951497860201
 20
14.000237175129278
 10
72.28879223876606
 20
14.513789243602886
 10
72.21588439506064
 20
14.640592610444898
 10
72.11126961483595
 20
14.665953980362872
 10
71.42653352353781
 20
14.653273295403885
 10
71.30607224054921
 20
14.605719856120718
 10
71.25534950071327
 20
14.456727902661374
 10
71.25534950071327
 20
14.142890527483058
 10
71.29021877228959
 20
13.91464516371701
 10
71.37581078370187
 20
13.778330412468794
 10
71.8259629101284
 20
13.686399799950962
  0
LWPOLYLINE
  5
5A
330
17
100
AcDbEntity
  8
0
100
AcDbPolyline
 90
13
 70
1
 10
80.75289346692225
 20
13.718099770974499
 10
80.92724679029956
 20
13.657869129480204
 10
81.61198288159773
 20
13.657869129480204
 10
81.70708279466834
 20
13.689569100503743
 10
81.75146693339872
 20
13.771991811363229
 10
81.77048970221114
 20
14.05729851607079
 10
81.67221352309201
 20
14.618400541079705
 10
80.84165477888732
 20
14.656442595956667
 10
80.69583212598076
 20
14.605719856120718
 10
80.65144798725035
 20
14.513789243602886
 10
80.64194008559201
 20
14.34260522077835
 10
80.6831479582739
 20
13.857583822775497
 10
80.75289346692225
 20
13.718099770974499
  0
LWPOLYLINE
  5
5B
330
17
100
AcDbEntity
  8
0
100
AcDbPolyline
 90
24
 70
1
 10
52.333176377496436
 20
13.920983764822573
 10
52.402914920649074
 20
13.841733837263728
 10
52.62165238275678
 20
13.724441854827923
 10
52.69456370921006
 20
13.600807788538692
 10
52.67237163984487
 20
13.458154436184913
 10
52.529718287491086
 20
13.144317061006596
 10
52.44729905937946
 20
12.887541026769792
 10
52.43778767497326
 20
12.748056974968794
 10
52.51386830197932
 20
12.668807047409949
 10
52.62482168330956
 20
12.67197634796273
 10
52.69773300976284
 20
12.713187703392473
 10
52.92280907297611
 20
12.976302338734842
 10
53.052781740370904
 20
13.286970413360375
 10
53.30638847405493
 20
13.771991811363229
 10
53.36661911554922
 20
14.114359857012303
 10
53.35076913003745
 20
14.285543879836839
 10
53.25883503477176
 20
14.62474262493313
 10
53.163735121701144
 20
14.716673237450962
 10
53.024251069900146
 20
14.735696006263371
 10
52.42510699001427
 20
14.716673237450962
 10
52.35536496411377
 20
14.688142566980204
 10
52.29830362317226
 20
14.599381255015155
 10
52.29830362317226
 20
14.114359857012303
 10
52.333176377496436
 20
13.920983764822573
  0
ENDSEC
  0
SECTION
  2
OBJECTS
  0
DICTIONARY
  5
A
330
0
100
AcDbDictionary
281
1
  3
ACAD_COLOR
350
B
  3
ACAD_GROUP
350
C
  3
ACAD_LAYOUT
350
D
  3
ACAD_MATERIAL
350
E
  3
ACAD_MLEADERSTYLE
350
F
  3
ACAD_MLINESTYLE
350
10
  3
ACAD_PLOTSETTINGS
350
11
  3
ACAD_PLOTSTYLENAME
350
12
  3
ACAD_SCALELIST
350
14
  3
ACAD_TABLESTYLE
350
15
  3
ACAD_VISUALSTYLE
350
16
  3
EZDXF_META
350
2D
  0
DICTIONARY
  5
B
330
A
100
AcDbDictionary
281
1
  0
DICTIONARY
  5
C
330
A
100
AcDbDictionary
281
1
  0
DICTIONARY
  5
D
330
A
100
AcDbDictionary
281
1
  3
Model
350
1A
  3
Layout1
350
1E
  0
DICTIONARY
  5
E
330
A
100
AcDbDictionary
281
1
  3
ByBlock
350
1F
  3
ByLayer
350
20
  3
Global
350
21
  0
DICTIONARY
  5
F
330
A
100
AcDbDictionary
281
1
  3
Standard
350
2C
  0
DICTIONARY
  5
10
330
A
100
AcDbDictionary
281
1
  3
Standard
350
22
  0
DICTIONARY
  5
11
330
A
100
AcDbDictionary
281
1
  0
ACDBDICTIONARYWDFLT
  5
12
330
A
100
AcDbDictionary
281
1
  3
Normal
350
13
100
AcDbDictionaryWithDefault
340
13
  0
ACDBPLACEHOLDER
  5
13
330
12
  0
DICTIONARY
  5
14
330
A
100
AcDbDictionary
281
1
  0
DICTIONARY
  5
15
330
A
100
AcDbDictionary
281
1
  0
DICTIONARY
  5
16
330
A
100
AcDbDictionary
281
1
  0
LAYOUT
  5
1A
330
D
100
AcDbPlotSettings
  1

  4
A3
  6

 40
7.5
 41
20.0
 42
7.5
 43
20.0
 44
420.0
 45
297.0
 46
0.0
 47
0.0
 48
0.0
 49
0.0
140
0.0
141
0.0
142
1.0
143
1.0
 70
1024
 72
1
 73
0
 74
5
  7

 75
16
 76
0
 77
2
 78
300
147
1.0
148
0.0
149
0.0
100
AcDbLayout
  1
Model
 70
1
 71
0
 10
0.0
 20
0.0
 11
420.0
 21
297.0
 12
0.0
 22
0.0
 32
0.0
 14
1e+20
 24
1e+20
 34
1e+20
 15
-1e+20
 25
-1e+20
 35
-1e+20
146
0.0
 13
0.0
 23
0.0
 33
0.0
 16
1.0
 26
0.0
 36
0.0
 17
0.0
 27
1.0
 37
0.0
 76
1
330
17
  0
LAYOUT
  5
1E
330
D
100
AcDbPlotSettings
  1

  4
A3
  6

 40
7.5
 41
20.0
 42
7.5
 43
20.0
 44
420.0
 45
297.0
 46
0.0
 47
0.0
 48
0.0
 49
0.0
140
0.0
141
0.0
142
1.0
143
1.0
 70
0
 72
1
 73
0
 74
5
  7

 75
16
 76
0
 77
2
 78
300
147
1.0
148
0.0
149
0.0
100
AcDbLayout
  1
Layout1
 70
1
 71
1
 10
0.0
 20
0.0
 11
420.0
 21
297.0
 12
0.0
 22
0.0
 32
0.0
 14
1e+20
 24
1e+20
 34
1e+20
 15
-1e+20
 25
-1e+20
 35
-1e+20
146
0.0
 13
0.0
 23
0.0
 33
0.0
 16
1.0
 26
0.0
 36
0.0
 17
0.0
 27
1.0
 37
0.0
 76
1
330
1B
  0
MATERIAL
  5
1F
102
{ACAD_REACTORS
330
E
102
}
330
E
100
AcDbMaterial
  1
ByBlock
  2

 70
0
 40
1.0
 71
1
 41
1.0
 91
-1023410177
 42
1.0
 72
1
  3

 73
1
 74
1
 75
1
 44
0.5
 73
0
 45
1.0
 46
1.0
 77
1
  4

 78
1
 79
1
170
1
 48
1.0
171
1
  6

172
1
173
1
174
1
140
1.0
141
1.0
175
1
  7

176
1
177
1
178
1
143
1.0
179
1
  8

270
1
271
1
272
1
145
1.0
146
1.0
273
1
  9

274
1
275
1
276
1
 42
1.0
 72
1
  3

 73
1
 74
1
 75
1
 94
63
  0
MATERIAL
  5
20
102
{ACAD_REACTORS
330
E
102
}
330
E
100
AcDbMaterial
  1
ByLayer
  2

 70
0
 40
1.0
 71
1
 41
1.0
 91
-1023410177
 42
1.0
 72
1
  3

 73
1
 74
1
 75
1
 44
0.5
 73
0
 45
1.0
 46
1.0
 77
1
  4

 78
1
 79
1
170
1
 48
1.0
171
1
  6

172
1
173
1
174
1
140
1.0
141
1.0
175
1
  7

176
1
177
1
178
1
143
1.0
179
1
  8

270
1
271
1
272
1
145
1.0
146
1.0
273
1
  9

274
1
275
1
276
1
 42
1.0
 72
1
  3

 73
1
 74
1
 75
1
 94
63
  0
MATERIAL
  5
21
102
{ACAD_REACTORS
330
E
102
}
330
E
100
AcDbMaterial
  1
Global
  2

 70
0
 40
1.0
 71
1
 41
1.0
 91
-1023410177
 42
1.0
 72
1
  3

 73
1
 74
1
 75
1
 44
0.5
 73
0
 45
1.0
 46
1.0
 77
1
  4

 78
1
 79
1
170
1
 48
1.0
171
1
  6

172
1
173
1
174
1
140
1.0
141
1.0
175
1
  7

176
1
177
1
178
1
143
1.0
179
1
  8

270
1
271
1
272
1
145
1.0
146
1.0
273
1
  9

274
1
275
1
276
1
 42
1.0
 72
1
  3

 73
1
 74
1
 75
1
 94
63
  0
MLINESTYLE
  5
22
102
{ACAD_REACTORS
330
10
102
}
330
10
100
AcDbMlineStyle
  2
Standard
 70
0
  3

 62
256
 51
90.0
 52
90.0
 71
2
 49
0.5
 62
256
  6
BYLAYER
 49
-0.5
 62
256
  6
BYLAYER
  0
MLEADERSTYLE
  5
2C
102
{ACAD_REACTORS
330
F
102
}
330
F
100
AcDbMLeaderStyle
179
2
170
2
171
1
172
0
 90
2
 40
0.0
 41
0.0
173
1
 91
-1056964608
 92
-2
290
1
 42
2.0
291
1
 43
8.0
  3
Standard
 44
4.0
300

342
29
174
1
175
1
176
0
178
1
 93
-1056964608
 45
4.0
292
0
297
0
 46
4.0
 94
-1056964608
 47
1.0
 49
1.0
140
1.0
294
1
141
0.0
177
0
142
1.0
295
0
296
0
143
3.75
271
0
272
9
273
9
  0
DICTIONARY
  5
2D
330
A
100
AcDbDictionary
280
1
281
1
  3
CREATED_BY_EZDXF
350
2E
  3
WRITTEN_BY_EZDXF
350
5E
  0
DICTIONARYVAR
  5
2E
330
2D
100
DictionaryVariables
280
0
  1
1.4.4 @ 2026-06-19T18:24:33.835397+00:00
  0
DICTIONARYVAR
  5
5E
330
2D
100
DictionaryVariables
280
0
  1
1.4.4 @ 2026-06-19T18:24:33.854203+00:00
  0
ENDSEC
  0
EOF
