ISO-10303-21;
HEADER;
FILE_DESCRIPTION((('zoo.dev export')), '2;1');
FILE_NAME('dump.step', '1970-01-01T00:00:00+00:00', ('Author unknown'), ('Organization unknown'), 'zoo.dev beta', 'zoo.dev', 'Authorization unknown');
FILE_SCHEMA(('AP203_CONFIGURATION_CONTROLLED_3D_DESIGN_OF_MECHANICAL_PARTS_AND_ASSEMBLIES_MIM_LF'));
ENDSEC;
DATA;
#1 = (
  LENGTH_UNIT()
  NAMED_UNIT(*)
  SI_UNIT($, .METRE.)
);
#2 = (
  NAMED_UNIT(*)
  PLANE_ANGLE_UNIT()
  SI_UNIT($, .RADIAN.)
);
#3 = UNCERTAINTY_MEASURE_WITH_UNIT(LENGTH_MEASURE(0.00001), #1, 'DISTANCE_ACCURACY_VALUE', $);
#4 = (
  GEOMETRIC_REPRESENTATION_CONTEXT(3)
  GLOBAL_UNCERTAINTY_ASSIGNED_CONTEXT((#3))
  GLOBAL_UNIT_ASSIGNED_CONTEXT((#1, #2))
  REPRESENTATION_CONTEXT('', '3D')
);
#5 = CARTESIAN_POINT('NONE', (-0.04445, 0, -0.00254));
#6 = VERTEX_POINT('NONE', #5);
#7 = CARTESIAN_POINT('NONE', (-0.010776307345282982, -0.010776307345282983, -0.00254));
#8 = VERTEX_POINT('NONE', #7);
#9 = CARTESIAN_POINT('NONE', (-0.010776307345282982, -0.010776307345282983, 0.00254));
#10 = VERTEX_POINT('NONE', #9);
#11 = CARTESIAN_POINT('NONE', (-0.04445, 0, 0.00254));
#12 = VERTEX_POINT('NONE', #11);
#13 = CARTESIAN_POINT('NONE', (0.010776307345282982, -0.010776307345282983, -0.00254));
#14 = VERTEX_POINT('NONE', #13);
#15 = CARTESIAN_POINT('NONE', (0.010776307345282982, -0.010776307345282983, 0.00254));
#16 = VERTEX_POINT('NONE', #15);
#17 = CARTESIAN_POINT('NONE', (0.07619999999999999, 0, -0.00254));
#18 = VERTEX_POINT('NONE', #17);
#19 = CARTESIAN_POINT('NONE', (0.07619999999999999, 0, 0.00254));
#20 = VERTEX_POINT('NONE', #19);
#21 = CARTESIAN_POINT('NONE', (0.010776307345282982, 0.010776307345282983, -0.00254));
#22 = VERTEX_POINT('NONE', #21);
#23 = CARTESIAN_POINT('NONE', (0.010776307345282982, 0.010776307345282983, 0.00254));
#24 = VERTEX_POINT('NONE', #23);
#25 = CARTESIAN_POINT('NONE', (-0.010776307345282982, 0.010776307345282983, -0.00254));
#26 = VERTEX_POINT('NONE', #25);
#27 = CARTESIAN_POINT('NONE', (-0.010776307345282982, 0.010776307345282983, 0.00254));
#28 = VERTEX_POINT('NONE', #27);
#29 = CARTESIAN_POINT('NONE', (0.085725, -0.009524999999999999, -0));
#30 = VERTEX_POINT('NONE', #29);
#31 = CARTESIAN_POINT('NONE', (0.085725, 0.009524999999999999, -0));
#32 = VERTEX_POINT('NONE', #31);
#33 = CARTESIAN_POINT('NONE', (0.07721599999999999, -0.009524999999999999, 0.0000000000000000002488482295867422));
#34 = VERTEX_POINT('NONE', #33);
#35 = CARTESIAN_POINT('NONE', (0.07721599999999999, 0.009524999999999999, 0.0000000000000000002488482295867422));
#36 = VERTEX_POINT('NONE', #35);
#37 = CARTESIAN_POINT('NONE', (-0.000000000000000014210854715202004, -0.00254, 0.038099999999999995));
#38 = VERTEX_POINT('NONE', #37);
#39 = CARTESIAN_POINT('NONE', (0.07619999999999999, -0.00254, 0.009524999999999992));
#40 = VERTEX_POINT('NONE', #39);
#41 = CARTESIAN_POINT('NONE', (0.07619999999999999, 0.00254, 0.009524999999999992));
#42 = VERTEX_POINT('NONE', #41);
#43 = CARTESIAN_POINT('NONE', (-0.000000000000000014210854715202004, 0.00254, 0.038099999999999995));
#44 = VERTEX_POINT('NONE', #43);
#45 = CARTESIAN_POINT('NONE', (0.07619999999999999, -0.00254, -0.009525));
#46 = VERTEX_POINT('NONE', #45);
#47 = CARTESIAN_POINT('NONE', (0.07619999999999999, 0.00254, -0.009525));
#48 = VERTEX_POINT('NONE', #47);
#49 = CARTESIAN_POINT('NONE', (0.000000000000000007105427357601002, -0.00254, -0.038099999999999995));
#50 = VERTEX_POINT('NONE', #49);
#51 = CARTESIAN_POINT('NONE', (0.000000000000000007105427357601002, 0.00254, -0.038099999999999995));
#52 = VERTEX_POINT('NONE', #51);
#53 = CARTESIAN_POINT('NONE', (0, 0, 0.07111999999999999));
#54 = VERTEX_POINT('NONE', #53);
#55 = CARTESIAN_POINT('NONE', (0, 0.015239999999999998, 0.07111999999999999));
#56 = VERTEX_POINT('NONE', #55);
#57 = CARTESIAN_POINT('NONE', (0, 0.015239999999999998, 0.07619999999999999));
#58 = VERTEX_POINT('NONE', #57);
#59 = CARTESIAN_POINT('NONE', (0, 0, 0.07619999999999999));
#60 = VERTEX_POINT('NONE', #59);
#61 = CARTESIAN_POINT('NONE', (-0.04445, 0, 0.07111999999999999));
#62 = VERTEX_POINT('NONE', #61);
#63 = CARTESIAN_POINT('NONE', (-0.04445, 0, 0.07619999999999999));
#64 = VERTEX_POINT('NONE', #63);
#65 = CARTESIAN_POINT('NONE', (0, -0.015239999999999998, 0.07111999999999999));
#66 = VERTEX_POINT('NONE', #65);
#67 = CARTESIAN_POINT('NONE', (0, -0.015239999999999998, 0.07619999999999999));
#68 = VERTEX_POINT('NONE', #67);
#69 = CARTESIAN_POINT('NONE', (0.0000000000000000018663617219005663, 0.015239999999999998, 0.07111999999999999));
#70 = VERTEX_POINT('NONE', #69);
#71 = CARTESIAN_POINT('NONE', (0.0000000000000000018663617219005663, 0.015239999999999998, 0.07619999999999999));
#72 = VERTEX_POINT('NONE', #71);
#73 = CARTESIAN_POINT('NONE', (0, 0, -0.0762));
#74 = VERTEX_POINT('NONE', #73);
#75 = CARTESIAN_POINT('NONE', (0, 0.015239999999999998, -0.0762));
#76 = VERTEX_POINT('NONE', #75);
#77 = CARTESIAN_POINT('NONE', (0, 0.015239999999999998, -0.07111999999999999));
#78 = VERTEX_POINT('NONE', #77);
#79 = CARTESIAN_POINT('NONE', (0, 0, -0.07111999999999999));
#80 = VERTEX_POINT('NONE', #79);
#81 = CARTESIAN_POINT('NONE', (-0.04445, 0, -0.0762));
#82 = VERTEX_POINT('NONE', #81);
#83 = CARTESIAN_POINT('NONE', (-0.04445, 0, -0.07111999999999999));
#84 = VERTEX_POINT('NONE', #83);
#85 = CARTESIAN_POINT('NONE', (0, -0.015239999999999998, -0.0762));
#86 = VERTEX_POINT('NONE', #85);
#87 = CARTESIAN_POINT('NONE', (0, -0.015239999999999998, -0.07111999999999999));
#88 = VERTEX_POINT('NONE', #87);
#89 = CARTESIAN_POINT('NONE', (0.0000000000000000018663617219005663, 0.015239999999999998, -0.0762));
#90 = VERTEX_POINT('NONE', #89);
#91 = CARTESIAN_POINT('NONE', (0.0000000000000000018663617219005663, 0.015239999999999998, -0.07111999999999999));
#92 = VERTEX_POINT('NONE', #91);
#93 = CARTESIAN_POINT('NONE', (0.0127, 0, -0.07619999999999999));
#94 = VERTEX_POINT('NONE', #93);
#95 = CARTESIAN_POINT('NONE', (0.0127, 0, 0.07619999999999999));
#96 = VERTEX_POINT('NONE', #95);
#97 = CARTESIAN_POINT('NONE', (-0.04445, -0.00254, 0.07619999999999999));
#98 = VERTEX_POINT('NONE', #97);
#99 = CARTESIAN_POINT('NONE', (0, -0.00254, 0.07619999999999999));
#100 = VERTEX_POINT('NONE', #99);
#101 = CARTESIAN_POINT('NONE', (0, 0.00254, 0.07619999999999999));
#102 = VERTEX_POINT('NONE', #101);
#103 = CARTESIAN_POINT('NONE', (-0.04445, 0.00254, 0.07619999999999999));
#104 = VERTEX_POINT('NONE', #103);
#105 = CARTESIAN_POINT('NONE', (0, -0.00254, -0.07619999999999999));
#106 = VERTEX_POINT('NONE', #105);
#107 = CARTESIAN_POINT('NONE', (0, 0.00254, -0.07619999999999999));
#108 = VERTEX_POINT('NONE', #107);
#109 = CARTESIAN_POINT('NONE', (-0.04445, -0.00254, -0.07619999999999999));
#110 = VERTEX_POINT('NONE', #109);
#111 = CARTESIAN_POINT('NONE', (-0.04445, 0.00254, -0.07619999999999999));
#112 = VERTEX_POINT('NONE', #111);
#113 = CARTESIAN_POINT('NONE', (-0.038861999999999994, -0.00254, 0.06603999999999999));
#114 = VERTEX_POINT('NONE', #113);
#115 = CARTESIAN_POINT('NONE', (-0.038861999999999994, 0.00254, 0.06603999999999999));
#116 = VERTEX_POINT('NONE', #115);
#117 = CARTESIAN_POINT('NONE', (-0.038861999999999994, -0.00254, 0.059088421052631575));
#118 = VERTEX_POINT('NONE', #117);
#119 = CARTESIAN_POINT('NONE', (-0.038861999999999994, 0.00254, 0.059088421052631575));
#120 = VERTEX_POINT('NONE', #119);
#121 = CARTESIAN_POINT('NONE', (-0.038861999999999994, -0.00254, 0.052136842105263155));
#122 = VERTEX_POINT('NONE', #121);
#123 = CARTESIAN_POINT('NONE', (-0.038861999999999994, 0.00254, 0.052136842105263155));
#124 = VERTEX_POINT('NONE', #123);
#125 = CARTESIAN_POINT('NONE', (-0.038861999999999994, -0.00254, 0.04518526315789473));
#126 = VERTEX_POINT('NONE', #125);
#127 = CARTESIAN_POINT('NONE', (-0.038861999999999994, 0.00254, 0.04518526315789473));
#128 = VERTEX_POINT('NONE', #127);
#129 = CARTESIAN_POINT('NONE', (-0.038861999999999994, -0.00254, 0.038233684210526316));
#130 = VERTEX_POINT('NONE', #129);
#131 = CARTESIAN_POINT('NONE', (-0.038861999999999994, 0.00254, 0.038233684210526316));
#132 = VERTEX_POINT('NONE', #131);
#133 = CARTESIAN_POINT('NONE', (-0.038861999999999994, -0.00254, 0.031282105263157896));
#134 = VERTEX_POINT('NONE', #133);
#135 = CARTESIAN_POINT('NONE', (-0.038861999999999994, 0.00254, 0.031282105263157896));
#136 = VERTEX_POINT('NONE', #135);
#137 = CARTESIAN_POINT('NONE', (-0.038861999999999994, -0.00254, 0.02433052631578947));
#138 = VERTEX_POINT('NONE', #137);
#139 = CARTESIAN_POINT('NONE', (-0.038861999999999994, 0.00254, 0.02433052631578947));
#140 = VERTEX_POINT('NONE', #139);
#141 = CARTESIAN_POINT('NONE', (-0.038861999999999994, -0.00254, 0.017378947368421053));
#142 = VERTEX_POINT('NONE', #141);
#143 = CARTESIAN_POINT('NONE', (-0.038861999999999994, 0.00254, 0.017378947368421053));
#144 = VERTEX_POINT('NONE', #143);
#145 = CARTESIAN_POINT('NONE', (-0.038861999999999994, -0.00254, 0.010427368421052635));
#146 = VERTEX_POINT('NONE', #145);
#147 = CARTESIAN_POINT('NONE', (-0.038861999999999994, 0.00254, 0.010427368421052635));
#148 = VERTEX_POINT('NONE', #147);
#149 = CARTESIAN_POINT('NONE', (-0.038861999999999994, -0.00254, 0.003475789473684216));
#150 = VERTEX_POINT('NONE', #149);
#151 = CARTESIAN_POINT('NONE', (-0.038861999999999994, 0.00254, 0.003475789473684216));
#152 = VERTEX_POINT('NONE', #151);
#153 = CARTESIAN_POINT('NONE', (-0.038861999999999994, -0.00254, -0.003475789473684202));
#154 = VERTEX_POINT('NONE', #153);
#155 = CARTESIAN_POINT('NONE', (-0.038861999999999994, 0.00254, -0.003475789473684202));
#156 = VERTEX_POINT('NONE', #155);
#157 = CARTESIAN_POINT('NONE', (-0.038861999999999994, -0.00254, -0.01042736842105262));
#158 = VERTEX_POINT('NONE', #157);
#159 = CARTESIAN_POINT('NONE', (-0.038861999999999994, 0.00254, -0.01042736842105262));
#160 = VERTEX_POINT('NONE', #159);
#161 = CARTESIAN_POINT('NONE', (-0.038861999999999994, -0.00254, -0.017378947368421053));
#162 = VERTEX_POINT('NONE', #161);
#163 = CARTESIAN_POINT('NONE', (-0.038861999999999994, 0.00254, -0.017378947368421053));
#164 = VERTEX_POINT('NONE', #163);
#165 = CARTESIAN_POINT('NONE', (-0.038861999999999994, -0.00254, -0.02433052631578947));
#166 = VERTEX_POINT('NONE', #165);
#167 = CARTESIAN_POINT('NONE', (-0.038861999999999994, 0.00254, -0.02433052631578947));
#168 = VERTEX_POINT('NONE', #167);
#169 = CARTESIAN_POINT('NONE', (-0.038861999999999994, -0.00254, -0.03128210526315789));
#170 = VERTEX_POINT('NONE', #169);
#171 = CARTESIAN_POINT('NONE', (-0.038861999999999994, 0.00254, -0.03128210526315789));
#172 = VERTEX_POINT('NONE', #171);
#173 = CARTESIAN_POINT('NONE', (-0.038861999999999994, -0.00254, -0.03823368421052631));
#174 = VERTEX_POINT('NONE', #173);
#175 = CARTESIAN_POINT('NONE', (-0.038861999999999994, 0.00254, -0.03823368421052631));
#176 = VERTEX_POINT('NONE', #175);
#177 = CARTESIAN_POINT('NONE', (-0.038861999999999994, -0.00254, -0.04518526315789472));
#178 = VERTEX_POINT('NONE', #177);
#179 = CARTESIAN_POINT('NONE', (-0.038861999999999994, 0.00254, -0.04518526315789472));
#180 = VERTEX_POINT('NONE', #179);
#181 = CARTESIAN_POINT('NONE', (-0.038861999999999994, -0.00254, -0.05213684210526313));
#182 = VERTEX_POINT('NONE', #181);
#183 = CARTESIAN_POINT('NONE', (-0.038861999999999994, 0.00254, -0.05213684210526313));
#184 = VERTEX_POINT('NONE', #183);
#185 = CARTESIAN_POINT('NONE', (-0.038861999999999994, -0.00254, -0.059088421052631575));
#186 = VERTEX_POINT('NONE', #185);
#187 = CARTESIAN_POINT('NONE', (-0.038861999999999994, 0.00254, -0.059088421052631575));
#188 = VERTEX_POINT('NONE', #187);
#189 = CARTESIAN_POINT('NONE', (-0.038861999999999994, -0.00254, -0.06603999999999999));
#190 = VERTEX_POINT('NONE', #189);
#191 = CARTESIAN_POINT('NONE', (-0.038861999999999994, 0.00254, -0.06603999999999999));
#192 = VERTEX_POINT('NONE', #191);
#193 = DIRECTION('NONE', (0.9524181889925626, -0.30479434587296284, 0));
#194 = VECTOR('NONE', #193, 1);
#195 = CARTESIAN_POINT('NONE', (-0.04445, 0, -0.00254));
#196 = LINE('NONE', #195, #194);
#197 = DIRECTION('NONE', (0, 0, 1));
#198 = VECTOR('NONE', #197, 1);
#199 = CARTESIAN_POINT('NONE', (-0.010776307345282982, -0.010776307345282983, -0.00254));
#200 = LINE('NONE', #199, #198);
#201 = DIRECTION('NONE', (0.9524181889925626, -0.30479434587296284, 0));
#202 = VECTOR('NONE', #201, 1);
#203 = CARTESIAN_POINT('NONE', (-0.04445, 0, 0.00254));
#204 = LINE('NONE', #203, #202);
#205 = DIRECTION('NONE', (0, 0, 1));
#206 = VECTOR('NONE', #205, 1);
#207 = CARTESIAN_POINT('NONE', (-0.04445, 0, -0.00254));
#208 = LINE('NONE', #207, #206);
#209 = DIRECTION('NONE', (-0.7071067811865474, -0.7071067811865478, -0));
#210 = DIRECTION('NONE', (0, -0, 1));
#211 = CARTESIAN_POINT('NONE', (-0.00000000000000000144203609092716, 0.00000000000000000116046102938261, -0.00254));
#212 = AXIS2_PLACEMENT_3D('NONE', #211, #210, #209);
#213 = CIRCLE('NONE', #212, 0.015239999999999998);
#214 = DIRECTION('NONE', (0, 0, 1));
#215 = VECTOR('NONE', #214, 1);
#216 = CARTESIAN_POINT('NONE', (0.010776307345282982, -0.010776307345282983, -0.00254));
#217 = LINE('NONE', #216, #215);
#218 = DIRECTION('NONE', (-0.7071067811865474, -0.7071067811865478, -0));
#219 = DIRECTION('NONE', (0, -0, 1));
#220 = CARTESIAN_POINT('NONE', (-0.00000000000000000144203609092716, 0.00000000000000000116046102938261, 0.00254));
#221 = AXIS2_PLACEMENT_3D('NONE', #220, #219, #218);
#222 = CIRCLE('NONE', #221, 0.015239999999999998);
#223 = DIRECTION('NONE', (0.9867043169541492, 0.16252566229382334, 0));
#224 = VECTOR('NONE', #223, 1);
#225 = CARTESIAN_POINT('NONE', (0.010776307345282982, -0.010776307345282983, -0.00254));
#226 = LINE('NONE', #225, #224);
#227 = DIRECTION('NONE', (0, 0, 1));
#228 = VECTOR('NONE', #227, 1);
#229 = CARTESIAN_POINT('NONE', (0.07619999999999999, 0, -0.00254));
#230 = LINE('NONE', #229, #228);
#231 = DIRECTION('NONE', (0.9867043169541492, 0.16252566229382334, 0));
#232 = VECTOR('NONE', #231, 1);
#233 = CARTESIAN_POINT('NONE', (0.010776307345282982, -0.010776307345282983, 0.00254));
#234 = LINE('NONE', #233, #232);
#235 = DIRECTION('NONE', (-0.9867043169541492, 0.16252566229382334, 0));
#236 = VECTOR('NONE', #235, 1);
#237 = CARTESIAN_POINT('NONE', (0.07619999999999999, 0, -0.00254));
#238 = LINE('NONE', #237, #236);
#239 = DIRECTION('NONE', (0, 0, 1));
#240 = VECTOR('NONE', #239, 1);
#241 = CARTESIAN_POINT('NONE', (0.010776307345282982, 0.010776307345282983, -0.00254));
#242 = LINE('NONE', #241, #240);
#243 = DIRECTION('NONE', (-0.9867043169541492, 0.16252566229382334, 0));
#244 = VECTOR('NONE', #243, 1);
#245 = CARTESIAN_POINT('NONE', (0.07619999999999999, 0, 0.00254));
#246 = LINE('NONE', #245, #244);
#247 = DIRECTION('NONE', (0.7071067811865474, 0.7071067811865478, -0));
#248 = DIRECTION('NONE', (0, 0, 1));
#249 = CARTESIAN_POINT('NONE', (0.00000000000000000144203609092716, -0.00000000000000000116046102938261, -0.00254));
#250 = AXIS2_PLACEMENT_3D('NONE', #249, #248, #247);
#251 = CIRCLE('NONE', #250, 0.015239999999999998);
#252 = DIRECTION('NONE', (0, 0, 1));
#253 = VECTOR('NONE', #252, 1);
#254 = CARTESIAN_POINT('NONE', (-0.010776307345282982, 0.010776307345282983, -0.00254));
#255 = LINE('NONE', #254, #253);
#256 = DIRECTION('NONE', (0.7071067811865474, 0.7071067811865478, -0));
#257 = DIRECTION('NONE', (0, 0, 1));
#258 = CARTESIAN_POINT('NONE', (0.00000000000000000144203609092716, -0.00000000000000000116046102938261, 0.00254));
#259 = AXIS2_PLACEMENT_3D('NONE', #258, #257, #256);
#260 = CIRCLE('NONE', #259, 0.015239999999999998);
#261 = DIRECTION('NONE', (-0.9524181889925626, -0.30479434587296284, 0));
#262 = VECTOR('NONE', #261, 1);
#263 = CARTESIAN_POINT('NONE', (-0.010776307345282982, 0.010776307345282983, -0.00254));
#264 = LINE('NONE', #263, #262);
#265 = DIRECTION('NONE', (-0.9524181889925626, -0.30479434587296284, 0));
#266 = VECTOR('NONE', #265, 1);
#267 = CARTESIAN_POINT('NONE', (-0.010776307345282982, 0.010776307345282983, 0.00254));
#268 = LINE('NONE', #267, #266);
#269 = DIRECTION('NONE', (1, 0, -0.0000000000000010549702609528775));
#270 = DIRECTION('NONE', (0, 1, 0));
#271 = CARTESIAN_POINT('NONE', (0.07619999999999999, -0.009524999999999999, 0.000000000000000010048591735576165));
#272 = AXIS2_PLACEMENT_3D('NONE', #271, #270, #269);
#273 = CIRCLE('NONE', #272, 0.009525000000000006);
#274 = DIRECTION('NONE', (0, 1, 0));
#275 = VECTOR('NONE', #274, 1);
#276 = CARTESIAN_POINT('NONE', (0.085725, -0.009524999999999999, -0));
#277 = LINE('NONE', #276, #275);
#278 = DIRECTION('NONE', (1, 0, -0.0000000000000010549702609528775));
#279 = DIRECTION('NONE', (0, 1, 0));
#280 = CARTESIAN_POINT('NONE', (0.07619999999999999, 0.009524999999999999, 0.000000000000000010048591735576165));
#281 = AXIS2_PLACEMENT_3D('NONE', #280, #279, #278);
#282 = CIRCLE('NONE', #281, 0.009525000000000006);
#283 = DIRECTION('NONE', (1, 0, 0.000000000000015080448654479275));
#284 = DIRECTION('NONE', (0, -1, 0));
#285 = CARTESIAN_POINT('NONE', (0.07619999999999999, -0.009524999999999999, -0.000000000000000015072887603364283));
#286 = AXIS2_PLACEMENT_3D('NONE', #285, #284, #283);
#287 = CIRCLE('NONE', #286, 0.0010160000000000054);
#288 = DIRECTION('NONE', (0, 1, 0));
#289 = VECTOR('NONE', #288, 1);
#290 = CARTESIAN_POINT('NONE', (0.07721599999999999, -0.009524999999999999, 0.0000000000000000002488482295867422));
#291 = LINE('NONE', #290, #289);
#292 = DIRECTION('NONE', (1, 0, 0.000000000000015080448654479275));
#293 = DIRECTION('NONE', (0, -1, 0));
#294 = CARTESIAN_POINT('NONE', (0.07619999999999999, 0.009524999999999999, -0.000000000000000015072887603364283));
#295 = AXIS2_PLACEMENT_3D('NONE', #294, #293, #292);
#296 = CIRCLE('NONE', #295, 0.0010160000000000054);
#297 = DIRECTION('NONE', (-0.795321791066905, -0.00000000000000003482595901361915, -0.6061874698920543));
#298 = DIRECTION('NONE', (0.000000000000000015479518094302077, -1, 0.00000000000000003714158090733141));
#299 = CARTESIAN_POINT('NONE', (0.06085009615384615, -0.0025399999999999976, 0.0844794230769231));
#300 = AXIS2_PLACEMENT_3D('NONE', #299, #298, #297);
#301 = CIRCLE('NONE', #300, 0.0765100325897235);
#302 = DIRECTION('NONE', (0, 1, 0));
#303 = VECTOR('NONE', #302, 1);
#304 = CARTESIAN_POINT('NONE', (0.07619999999999999, -0.00254, 0.009524999999999992));
#305 = LINE('NONE', #304, #303);
#306 = DIRECTION('NONE', (-0.795321791066905, 0.00000000000000003482595901361915, -0.6061874698920543));
#307 = DIRECTION('NONE', (-0.000000000000000015479518094302077, -1, -0.00000000000000003714158090733141));
#308 = CARTESIAN_POINT('NONE', (0.06085009615384615, 0.0025399999999999976, 0.0844794230769231));
#309 = AXIS2_PLACEMENT_3D('NONE', #308, #307, #306);
#310 = CIRCLE('NONE', #309, 0.0765100325897235);
#311 = DIRECTION('NONE', (0, 1, 0));
#312 = VECTOR('NONE', #311, 1);
#313 = CARTESIAN_POINT('NONE', (-0.000000000000000014210854715202004, -0.00254, 0.038099999999999995));
#314 = LINE('NONE', #313, #312);
#315 = DIRECTION('NONE', (0, 0, -1));
#316 = VECTOR('NONE', #315, 1);
#317 = CARTESIAN_POINT('NONE', (0.07619999999999999, -0.00254, 0.009524999999999997));
#318 = LINE('NONE', #317, #316);
#319 = DIRECTION('NONE', (0, 1, 0));
#320 = VECTOR('NONE', #319, 1);
#321 = CARTESIAN_POINT('NONE', (0.07619999999999999, -0.00254, -0.009525));
#322 = LINE('NONE', #321, #320);
#323 = DIRECTION('NONE', (0, 0, -1));
#324 = VECTOR('NONE', #323, 1);
#325 = CARTESIAN_POINT('NONE', (0.07619999999999999, 0.00254, 0.009524999999999997));
#326 = LINE('NONE', #325, #324);
#327 = DIRECTION('NONE', (0.20062602676522173, -0.00000000000000003482595901361917, 0.9796679015791018));
#328 = DIRECTION('NONE', (0.00000000000000001275921079952457, -1.0000000000000002, -0.000000000000000038161696142873));
#329 = CARTESIAN_POINT('NONE', (0.060850096153846144, -0.0025399999999999976, -0.08447942307692308));
#330 = AXIS2_PLACEMENT_3D('NONE', #329, #328, #327);
#331 = CIRCLE('NONE', #330, 0.07651003258972346);
#332 = DIRECTION('NONE', (0, 1, 0));
#333 = VECTOR('NONE', #332, 1);
#334 = CARTESIAN_POINT('NONE', (0.000000000000000007105427357601002, -0.00254, -0.038099999999999995));
#335 = LINE('NONE', #334, #333);
#336 = DIRECTION('NONE', (0.20062602676522173, 0.00000000000000003482595901361917, 0.9796679015791018));
#337 = DIRECTION('NONE', (-0.00000000000000001275921079952457, -1.0000000000000002, 0.000000000000000038161696142873));
#338 = CARTESIAN_POINT('NONE', (0.060850096153846144, 0.0025399999999999976, -0.08447942307692308));
#339 = AXIS2_PLACEMENT_3D('NONE', #338, #337, #336);
#340 = CIRCLE('NONE', #339, 0.07651003258972346);
#341 = DIRECTION('NONE', (0, 0, 1));
#342 = VECTOR('NONE', #341, 1);
#343 = CARTESIAN_POINT('NONE', (0, -0.00254, -0.038099999999999995));
#344 = LINE('NONE', #343, #342);
#345 = DIRECTION('NONE', (0, 0, 1));
#346 = VECTOR('NONE', #345, 1);
#347 = CARTESIAN_POINT('NONE', (0, 0.00254, -0.038099999999999995));
#348 = LINE('NONE', #347, #346);
#349 = DIRECTION('NONE', (0, 1, 0));
#350 = VECTOR('NONE', #349, 1);
#351 = CARTESIAN_POINT('NONE', (0, 0, 0.07111999999999999));
#352 = LINE('NONE', #351, #350);
#353 = DIRECTION('NONE', (0, 0, 1));
#354 = VECTOR('NONE', #353, 1);
#355 = CARTESIAN_POINT('NONE', (0, 0.015239999999999998, 0.07111999999999999));
#356 = LINE('NONE', #355, #354);
#357 = DIRECTION('NONE', (0, 1, 0));
#358 = VECTOR('NONE', #357, 1);
#359 = CARTESIAN_POINT('NONE', (0, 0, 0.07619999999999999));
#360 = LINE('NONE', #359, #358);
#361 = DIRECTION('NONE', (0, 0, 1));
#362 = VECTOR('NONE', #361, 1);
#363 = CARTESIAN_POINT('NONE', (0, 0, 0.07111999999999999));
#364 = LINE('NONE', #363, #362);
#365 = DIRECTION('NONE', (-0.945945945945946, -0.3243243243243243, 0));
#366 = VECTOR('NONE', #365, 1);
#367 = CARTESIAN_POINT('NONE', (0, 0.015239999999999998, 0.07111999999999999));
#368 = LINE('NONE', #367, #366);
#369 = DIRECTION('NONE', (0, 0, 1));
#370 = VECTOR('NONE', #369, 1);
#371 = CARTESIAN_POINT('NONE', (-0.04445, 0, 0.07111999999999999));
#372 = LINE('NONE', #371, #370);
#373 = DIRECTION('NONE', (-0.945945945945946, -0.3243243243243243, 0));
#374 = VECTOR('NONE', #373, 1);
#375 = CARTESIAN_POINT('NONE', (0, 0.015239999999999998, 0.07619999999999999));
#376 = LINE('NONE', #375, #374);
#377 = DIRECTION('NONE', (0.945945945945946, -0.3243243243243243, 0));
#378 = VECTOR('NONE', #377, 1);
#379 = CARTESIAN_POINT('NONE', (-0.04445, 0, 0.07111999999999999));
#380 = LINE('NONE', #379, #378);
#381 = DIRECTION('NONE', (0, 0, 1));
#382 = VECTOR('NONE', #381, 1);
#383 = CARTESIAN_POINT('NONE', (0, -0.015239999999999998, 0.07111999999999999));
#384 = LINE('NONE', #383, #382);
#385 = DIRECTION('NONE', (0.945945945945946, -0.3243243243243243, 0));
#386 = VECTOR('NONE', #385, 1);
#387 = CARTESIAN_POINT('NONE', (-0.04445, 0, 0.07619999999999999));
#388 = LINE('NONE', #387, #386);
#389 = DIRECTION('NONE', (0, -1, -0));
#390 = DIRECTION('NONE', (0, 0, 1));
#391 = CARTESIAN_POINT('NONE', (0, -0.00000000000000000125607396694702, 0.07111999999999999));
#392 = AXIS2_PLACEMENT_3D('NONE', #391, #390, #389);
#393 = CIRCLE('NONE', #392, 0.015239999999999997);
#394 = DIRECTION('NONE', (0, 0, 1));
#395 = VECTOR('NONE', #394, 1);
#396 = CARTESIAN_POINT('NONE', (0.0000000000000000018663617219005663, 0.015239999999999998, 0.07111999999999999));
#397 = LINE('NONE', #396, #395);
#398 = DIRECTION('NONE', (0, -1, -0));
#399 = DIRECTION('NONE', (0, 0, 1));
#400 = CARTESIAN_POINT('NONE', (0, -0.00000000000000000125607396694702, 0.07619999999999999));
#401 = AXIS2_PLACEMENT_3D('NONE', #400, #399, #398);
#402 = CIRCLE('NONE', #401, 0.015239999999999997);
#403 = DIRECTION('NONE', (0, -1, 0));
#404 = VECTOR('NONE', #403, 1);
#405 = CARTESIAN_POINT('NONE', (0, 0.015239999999999998, 0.07111999999999999));
#406 = LINE('NONE', #405, #404);
#407 = DIRECTION('NONE', (0, -1, 0));
#408 = VECTOR('NONE', #407, 1);
#409 = CARTESIAN_POINT('NONE', (0, 0.015239999999999998, 0.07619999999999999));
#410 = LINE('NONE', #409, #408);
#411 = DIRECTION('NONE', (0, 1, 0));
#412 = VECTOR('NONE', #411, 1);
#413 = CARTESIAN_POINT('NONE', (0, 0, -0.0762));
#414 = LINE('NONE', #413, #412);
#415 = DIRECTION('NONE', (0, 0, 1));
#416 = VECTOR('NONE', #415, 1);
#417 = CARTESIAN_POINT('NONE', (0, 0.015239999999999998, -0.0762));
#418 = LINE('NONE', #417, #416);
#419 = DIRECTION('NONE', (0, 1, 0));
#420 = VECTOR('NONE', #419, 1);
#421 = CARTESIAN_POINT('NONE', (0, 0, -0.07111999999999999));
#422 = LINE('NONE', #421, #420);
#423 = DIRECTION('NONE', (0, 0, 1));
#424 = VECTOR('NONE', #423, 1);
#425 = CARTESIAN_POINT('NONE', (0, 0, -0.0762));
#426 = LINE('NONE', #425, #424);
#427 = DIRECTION('NONE', (-0.945945945945946, -0.3243243243243243, 0));
#428 = VECTOR('NONE', #427, 1);
#429 = CARTESIAN_POINT('NONE', (0, 0.015239999999999998, -0.0762));
#430 = LINE('NONE', #429, #428);
#431 = DIRECTION('NONE', (0, 0, 1));
#432 = VECTOR('NONE', #431, 1);
#433 = CARTESIAN_POINT('NONE', (-0.04445, 0, -0.0762));
#434 = LINE('NONE', #433, #432);
#435 = DIRECTION('NONE', (-0.945945945945946, -0.3243243243243243, 0));
#436 = VECTOR('NONE', #435, 1);
#437 = CARTESIAN_POINT('NONE', (0, 0.015239999999999998, -0.07111999999999999));
#438 = LINE('NONE', #437, #436);
#439 = DIRECTION('NONE', (0.945945945945946, -0.3243243243243243, 0));
#440 = VECTOR('NONE', #439, 1);
#441 = CARTESIAN_POINT('NONE', (-0.04445, 0, -0.0762));
#442 = LINE('NONE', #441, #440);
#443 = DIRECTION('NONE', (0, 0, 1));
#444 = VECTOR('NONE', #443, 1);
#445 = CARTESIAN_POINT('NONE', (0, -0.015239999999999998, -0.0762));
#446 = LINE('NONE', #445, #444);
#447 = DIRECTION('NONE', (0.945945945945946, -0.3243243243243243, 0));
#448 = VECTOR('NONE', #447, 1);
#449 = CARTESIAN_POINT('NONE', (-0.04445, 0, -0.07111999999999999));
#450 = LINE('NONE', #449, #448);
#451 = DIRECTION('NONE', (0, -1, -0));
#452 = DIRECTION('NONE', (0, 0, 1));
#453 = CARTESIAN_POINT('NONE', (0, -0.00000000000000000125607396694702, -0.0762));
#454 = AXIS2_PLACEMENT_3D('NONE', #453, #452, #451);
#455 = CIRCLE('NONE', #454, 0.015239999999999997);
#456 = DIRECTION('NONE', (0, 0, 1));
#457 = VECTOR('NONE', #456, 1);
#458 = CARTESIAN_POINT('NONE', (0.0000000000000000018663617219005663, 0.015239999999999998, -0.0762));
#459 = LINE('NONE', #458, #457);
#460 = DIRECTION('NONE', (0, -1, -0));
#461 = DIRECTION('NONE', (0, 0, 1));
#462 = CARTESIAN_POINT('NONE', (0, -0.00000000000000000125607396694702, -0.07111999999999999));
#463 = AXIS2_PLACEMENT_3D('NONE', #462, #461, #460);
#464 = CIRCLE('NONE', #463, 0.015239999999999997);
#465 = DIRECTION('NONE', (0, -1, 0));
#466 = VECTOR('NONE', #465, 1);
#467 = CARTESIAN_POINT('NONE', (0, 0.015239999999999998, -0.0762));
#468 = LINE('NONE', #467, #466);
#469 = DIRECTION('NONE', (0, -1, 0));
#470 = VECTOR('NONE', #469, 1);
#471 = CARTESIAN_POINT('NONE', (0, 0.015239999999999998, -0.07111999999999999));
#472 = LINE('NONE', #471, #470);
#473 = DIRECTION('NONE', (1, -0.00000000000000004945173098216614, -0));
#474 = DIRECTION('NONE', (0, 0, 1));
#475 = CARTESIAN_POINT('NONE', (0.00000000000000000062803698347351, 0.00000000000000000062803698347351, -0.07619999999999999));
#476 = AXIS2_PLACEMENT_3D('NONE', #475, #474, #473);
#477 = CIRCLE('NONE', #476, 0.0127);
#478 = DIRECTION('NONE', (0, 0, 1));
#479 = VECTOR('NONE', #478, 1);
#480 = CARTESIAN_POINT('NONE', (0.0127, 0, -0.07619999999999999));
#481 = LINE('NONE', #480, #479);
#482 = DIRECTION('NONE', (1, -0.00000000000000004945173098216614, -0));
#483 = DIRECTION('NONE', (0, 0, 1));
#484 = CARTESIAN_POINT('NONE', (0.00000000000000000062803698347351, 0.00000000000000000062803698347351, 0.07619999999999999));
#485 = AXIS2_PLACEMENT_3D('NONE', #484, #483, #482);
#486 = CIRCLE('NONE', #485, 0.0127);
#487 = DIRECTION('NONE', (1, 0, 0));
#488 = VECTOR('NONE', #487, 1);
#489 = CARTESIAN_POINT('NONE', (-0.04445, -0.00254, 0.07619999999999999));
#490 = LINE('NONE', #489, #488);
#491 = DIRECTION('NONE', (0, 1, 0));
#492 = VECTOR('NONE', #491, 1);
#493 = CARTESIAN_POINT('NONE', (0, -0.00254, 0.07619999999999999));
#494 = LINE('NONE', #493, #492);
#495 = DIRECTION('NONE', (1, 0, 0));
#496 = VECTOR('NONE', #495, 1);
#497 = CARTESIAN_POINT('NONE', (-0.04445, 0.00254, 0.07619999999999999));
#498 = LINE('NONE', #497, #496);
#499 = DIRECTION('NONE', (0, 1, 0));
#500 = VECTOR('NONE', #499, 1);
#501 = CARTESIAN_POINT('NONE', (-0.04445, -0.00254, 0.07619999999999999));
#502 = LINE('NONE', #501, #500);
#503 = DIRECTION('NONE', (0, 0, -1));
#504 = VECTOR('NONE', #503, 1);
#505 = CARTESIAN_POINT('NONE', (0, -0.00254, 0.07619999999999999));
#506 = LINE('NONE', #505, #504);
#507 = DIRECTION('NONE', (0, 1, 0));
#508 = VECTOR('NONE', #507, 1);
#509 = CARTESIAN_POINT('NONE', (0, -0.00254, -0.07619999999999999));
#510 = LINE('NONE', #509, #508);
#511 = DIRECTION('NONE', (0, 0, -1));
#512 = VECTOR('NONE', #511, 1);
#513 = CARTESIAN_POINT('NONE', (0, 0.00254, 0.07619999999999999));
#514 = LINE('NONE', #513, #512);
#515 = DIRECTION('NONE', (-1, 0, 0));
#516 = VECTOR('NONE', #515, 1);
#517 = CARTESIAN_POINT('NONE', (0, -0.00254, -0.07619999999999999));
#518 = LINE('NONE', #517, #516);
#519 = DIRECTION('NONE', (0, 1, 0));
#520 = VECTOR('NONE', #519, 1);
#521 = CARTESIAN_POINT('NONE', (-0.04445, -0.00254, -0.07619999999999999));
#522 = LINE('NONE', #521, #520);
#523 = DIRECTION('NONE', (-1, 0, 0));
#524 = VECTOR('NONE', #523, 1);
#525 = CARTESIAN_POINT('NONE', (0, 0.00254, -0.07619999999999999));
#526 = LINE('NONE', #525, #524);
#527 = DIRECTION('NONE', (0, 0, 1));
#528 = VECTOR('NONE', #527, 1);
#529 = CARTESIAN_POINT('NONE', (-0.04445, -0.00254, -0.07619999999999999));
#530 = LINE('NONE', #529, #528);
#531 = DIRECTION('NONE', (0, 0, 1));
#532 = VECTOR('NONE', #531, 1);
#533 = CARTESIAN_POINT('NONE', (-0.04445, 0.00254, -0.07619999999999999));
#534 = LINE('NONE', #533, #532);
#535 = DIRECTION('NONE', (1, 0, 0.000000000000027974123455122298));
#536 = DIRECTION('NONE', (0, -1, 0));
#537 = CARTESIAN_POINT('NONE', (-0.03936999999999999, -0.00254, 0.06603999999999997));
#538 = AXIS2_PLACEMENT_3D('NONE', #537, #536, #535);
#539 = CIRCLE('NONE', #538, 0.0005079999999999955);
#540 = DIRECTION('NONE', (0, 1, 0));
#541 = VECTOR('NONE', #540, 1);
#542 = CARTESIAN_POINT('NONE', (-0.038861999999999994, -0.00254, 0.06603999999999999));
#543 = LINE('NONE', #542, #541);
#544 = DIRECTION('NONE', (1, 0, 0.000000000000027974123455122298));
#545 = DIRECTION('NONE', (0, -1, 0));
#546 = CARTESIAN_POINT('NONE', (-0.03936999999999999, 0.00254, 0.06603999999999997));
#547 = AXIS2_PLACEMENT_3D('NONE', #546, #545, #544);
#548 = CIRCLE('NONE', #547, 0.0005079999999999955);
#549 = DIRECTION('NONE', (1, 0, -0.000000000000027974123455121516));
#550 = DIRECTION('NONE', (0, -1, 0));
#551 = CARTESIAN_POINT('NONE', (-0.03937, -0.00254, 0.05908842105263159));
#552 = AXIS2_PLACEMENT_3D('NONE', #551, #550, #549);
#553 = CIRCLE('NONE', #552, 0.0005080000000000097);
#554 = DIRECTION('NONE', (0, 1, 0));
#555 = VECTOR('NONE', #554, 1);
#556 = CARTESIAN_POINT('NONE', (-0.038861999999999994, -0.00254, 0.059088421052631575));
#557 = LINE('NONE', #556, #555);
#558 = DIRECTION('NONE', (1, 0, -0.000000000000027974123455121516));
#559 = DIRECTION('NONE', (0, -1, 0));
#560 = CARTESIAN_POINT('NONE', (-0.03937, 0.00254, 0.05908842105263159));
#561 = AXIS2_PLACEMENT_3D('NONE', #560, #559, #558);
#562 = CIRCLE('NONE', #561, 0.0005080000000000097);
#563 = DIRECTION('NONE', (1, 0, -0));
#564 = DIRECTION('NONE', (0, -1, 0));
#565 = CARTESIAN_POINT('NONE', (-0.03937, -0.00254, 0.052136842105263155));
#566 = AXIS2_PLACEMENT_3D('NONE', #565, #564, #563);
#567 = CIRCLE('NONE', #566, 0.0005080000000000097);
#568 = DIRECTION('NONE', (0, 1, 0));
#569 = VECTOR('NONE', #568, 1);
#570 = CARTESIAN_POINT('NONE', (-0.038861999999999994, -0.00254, 0.052136842105263155));
#571 = LINE('NONE', #570, #569);
#572 = DIRECTION('NONE', (1, 0, -0));
#573 = DIRECTION('NONE', (0, -1, 0));
#574 = CARTESIAN_POINT('NONE', (-0.03937, 0.00254, 0.052136842105263155));
#575 = AXIS2_PLACEMENT_3D('NONE', #574, #573, #572);
#576 = CIRCLE('NONE', #575, 0.0005080000000000097);
#577 = DIRECTION('NONE', (1, 0, -0));
#578 = DIRECTION('NONE', (0, -1, 0));
#579 = CARTESIAN_POINT('NONE', (-0.039369999999999995, -0.00254, 0.04518526315789473));
#580 = AXIS2_PLACEMENT_3D('NONE', #579, #578, #577);
#581 = CIRCLE('NONE', #580, 0.0005080000000000027);
#582 = DIRECTION('NONE', (0, 1, 0));
#583 = VECTOR('NONE', #582, 1);
#584 = CARTESIAN_POINT('NONE', (-0.038861999999999994, -0.00254, 0.04518526315789473));
#585 = LINE('NONE', #584, #583);
#586 = DIRECTION('NONE', (1, 0, -0));
#587 = DIRECTION('NONE', (0, -1, 0));
#588 = CARTESIAN_POINT('NONE', (-0.039369999999999995, 0.00254, 0.04518526315789473));
#589 = AXIS2_PLACEMENT_3D('NONE', #588, #587, #586);
#590 = CIRCLE('NONE', #589, 0.0005080000000000027);
#591 = DIRECTION('NONE', (1, 0, -0));
#592 = DIRECTION('NONE', (0, -1, 0));
#593 = CARTESIAN_POINT('NONE', (-0.039369999999999995, -0.00254, 0.038233684210526316));
#594 = AXIS2_PLACEMENT_3D('NONE', #593, #592, #591);
#595 = CIRCLE('NONE', #594, 0.0005080000000000027);
#596 = DIRECTION('NONE', (0, 1, 0));
#597 = VECTOR('NONE', #596, 1);
#598 = CARTESIAN_POINT('NONE', (-0.038861999999999994, -0.00254, 0.038233684210526316));
#599 = LINE('NONE', #598, #597);
#600 = DIRECTION('NONE', (1, 0, -0));
#601 = DIRECTION('NONE', (0, -1, 0));
#602 = CARTESIAN_POINT('NONE', (-0.039369999999999995, 0.00254, 0.038233684210526316));
#603 = AXIS2_PLACEMENT_3D('NONE', #602, #601, #600);
#604 = CIRCLE('NONE', #603, 0.0005080000000000027);
#605 = DIRECTION('NONE', (1, 0, 0.000000000000006993530863780379));
#606 = DIRECTION('NONE', (0, -1, 0));
#607 = CARTESIAN_POINT('NONE', (-0.03937, -0.00254, 0.03128210526315789));
#608 = AXIS2_PLACEMENT_3D('NONE', #607, #606, #605);
#609 = CIRCLE('NONE', #608, 0.0005080000000000097);
#610 = DIRECTION('NONE', (0, 1, 0));
#611 = VECTOR('NONE', #610, 1);
#612 = CARTESIAN_POINT('NONE', (-0.038861999999999994, -0.00254, 0.031282105263157896));
#613 = LINE('NONE', #612, #611);
#614 = DIRECTION('NONE', (1, 0, 0.000000000000006993530863780379));
#615 = DIRECTION('NONE', (0, -1, 0));
#616 = CARTESIAN_POINT('NONE', (-0.03937, 0.00254, 0.03128210526315789));
#617 = AXIS2_PLACEMENT_3D('NONE', #616, #615, #614);
#618 = CIRCLE('NONE', #617, 0.0005080000000000097);
#619 = DIRECTION('NONE', (1, 0, 0.000000000000013987061727560758));
#620 = DIRECTION('NONE', (0, -1, 0));
#621 = CARTESIAN_POINT('NONE', (-0.03937, -0.00254, 0.024330526315789462));
#622 = AXIS2_PLACEMENT_3D('NONE', #621, #620, #619);
#623 = CIRCLE('NONE', #622, 0.0005080000000000097);
#624 = DIRECTION('NONE', (0, 1, 0));
#625 = VECTOR('NONE', #624, 1);
#626 = CARTESIAN_POINT('NONE', (-0.038861999999999994, -0.00254, 0.02433052631578947));
#627 = LINE('NONE', #626, #625);
#628 = DIRECTION('NONE', (1, 0, 0.000000000000013987061727560758));
#629 = DIRECTION('NONE', (0, -1, 0));
#630 = CARTESIAN_POINT('NONE', (-0.03937, 0.00254, 0.024330526315789462));
#631 = AXIS2_PLACEMENT_3D('NONE', #630, #629, #628);
#632 = CIRCLE('NONE', #631, 0.0005080000000000097);
#633 = DIRECTION('NONE', (1, 0, 0.000000000000006993530863780379));
#634 = DIRECTION('NONE', (0, -1, 0));
#635 = CARTESIAN_POINT('NONE', (-0.03937, -0.00254, 0.01737894736842105));
#636 = AXIS2_PLACEMENT_3D('NONE', #635, #634, #633);
#637 = CIRCLE('NONE', #636, 0.0005080000000000097);
#638 = DIRECTION('NONE', (0, 1, 0));
#639 = VECTOR('NONE', #638, 1);
#640 = CARTESIAN_POINT('NONE', (-0.038861999999999994, -0.00254, 0.017378947368421053));
#641 = LINE('NONE', #640, #639);
#642 = DIRECTION('NONE', (1, 0, 0.000000000000006993530863780379));
#643 = DIRECTION('NONE', (0, -1, 0));
#644 = CARTESIAN_POINT('NONE', (-0.03937, 0.00254, 0.01737894736842105));
#645 = AXIS2_PLACEMENT_3D('NONE', #644, #643, #642);
#646 = CIRCLE('NONE', #645, 0.0005080000000000097);
#647 = DIRECTION('NONE', (1, 0, 0.0000000000000034967654318902873));
#648 = DIRECTION('NONE', (0, -1, 0));
#649 = CARTESIAN_POINT('NONE', (-0.03936999999999999, -0.00254, 0.010427368421052633));
#650 = AXIS2_PLACEMENT_3D('NONE', #649, #648, #647);
#651 = CIRCLE('NONE', #650, 0.0005079999999999955);
#652 = DIRECTION('NONE', (0, 1, 0));
#653 = VECTOR('NONE', #652, 1);
#654 = CARTESIAN_POINT('NONE', (-0.038861999999999994, -0.00254, 0.010427368421052635));
#655 = LINE('NONE', #654, #653);
#656 = DIRECTION('NONE', (1, 0, 0.0000000000000034967654318902873));
#657 = DIRECTION('NONE', (0, -1, 0));
#658 = CARTESIAN_POINT('NONE', (-0.03936999999999999, 0.00254, 0.010427368421052633));
#659 = AXIS2_PLACEMENT_3D('NONE', #658, #657, #656);
#660 = CIRCLE('NONE', #659, 0.0005079999999999955);
#661 = DIRECTION('NONE', (1, 0, 0.0000000000000008741913579725596));
#662 = DIRECTION('NONE', (0, -1, 0));
#663 = CARTESIAN_POINT('NONE', (-0.039369999999999995, -0.00254, 0.0034757894736842155));
#664 = AXIS2_PLACEMENT_3D('NONE', #663, #662, #661);
#665 = CIRCLE('NONE', #664, 0.0005080000000000027);
#666 = DIRECTION('NONE', (0, 1, 0));
#667 = VECTOR('NONE', #666, 1);
#668 = CARTESIAN_POINT('NONE', (-0.038861999999999994, -0.00254, 0.003475789473684216));
#669 = LINE('NONE', #668, #667);
#670 = DIRECTION('NONE', (1, 0, 0.0000000000000008741913579725596));
#671 = DIRECTION('NONE', (0, -1, 0));
#672 = CARTESIAN_POINT('NONE', (-0.039369999999999995, 0.00254, 0.0034757894736842155));
#673 = AXIS2_PLACEMENT_3D('NONE', #672, #671, #670);
#674 = CIRCLE('NONE', #673, 0.0005080000000000027);
#675 = DIRECTION('NONE', (1, 0, 0.000000000000002622574073917679));
#676 = DIRECTION('NONE', (0, -1, 0));
#677 = CARTESIAN_POINT('NONE', (-0.039369999999999995, -0.00254, -0.0034757894736842034));
#678 = AXIS2_PLACEMENT_3D('NONE', #677, #676, #675);
#679 = CIRCLE('NONE', #678, 0.0005080000000000027);
#680 = DIRECTION('NONE', (0, 1, 0));
#681 = VECTOR('NONE', #680, 1);
#682 = CARTESIAN_POINT('NONE', (-0.038861999999999994, -0.00254, -0.003475789473684202));
#683 = LINE('NONE', #682, #681);
#684 = DIRECTION('NONE', (1, 0, 0.000000000000002622574073917679));
#685 = DIRECTION('NONE', (0, -1, 0));
#686 = CARTESIAN_POINT('NONE', (-0.039369999999999995, 0.00254, -0.0034757894736842034));
#687 = AXIS2_PLACEMENT_3D('NONE', #686, #685, #684);
#688 = CIRCLE('NONE', #687, 0.0005080000000000027);
#689 = DIRECTION('NONE', (1, 0, -0));
#690 = DIRECTION('NONE', (0, -1, 0));
#691 = CARTESIAN_POINT('NONE', (-0.039369999999999995, -0.00254, -0.01042736842105262));
#692 = AXIS2_PLACEMENT_3D('NONE', #691, #690, #689);
#693 = CIRCLE('NONE', #692, 0.0005080000000000027);
#694 = DIRECTION('NONE', (0, 1, 0));
#695 = VECTOR('NONE', #694, 1);
#696 = CARTESIAN_POINT('NONE', (-0.038861999999999994, -0.00254, -0.01042736842105262));
#697 = LINE('NONE', #696, #695);
#698 = DIRECTION('NONE', (1, 0, -0));
#699 = DIRECTION('NONE', (0, -1, 0));
#700 = CARTESIAN_POINT('NONE', (-0.039369999999999995, 0.00254, -0.01042736842105262));
#701 = AXIS2_PLACEMENT_3D('NONE', #700, #699, #698);
#702 = CIRCLE('NONE', #701, 0.0005080000000000027);
#703 = DIRECTION('NONE', (1, 0, 0.000000000000006993530863780379));
#704 = DIRECTION('NONE', (0, -1, 0));
#705 = CARTESIAN_POINT('NONE', (-0.03937, -0.00254, -0.017378947368421056));
#706 = AXIS2_PLACEMENT_3D('NONE', #705, #704, #703);
#707 = CIRCLE('NONE', #706, 0.0005080000000000097);
#708 = DIRECTION('NONE', (0, 1, 0));
#709 = VECTOR('NONE', #708, 1);
#710 = CARTESIAN_POINT('NONE', (-0.038861999999999994, -0.00254, -0.017378947368421053));
#711 = LINE('NONE', #710, #709);
#712 = DIRECTION('NONE', (1, 0, 0.000000000000006993530863780379));
#713 = DIRECTION('NONE', (0, -1, 0));
#714 = CARTESIAN_POINT('NONE', (-0.03937, 0.00254, -0.017378947368421056));
#715 = AXIS2_PLACEMENT_3D('NONE', #714, #713, #712);
#716 = CIRCLE('NONE', #715, 0.0005080000000000097);
#717 = DIRECTION('NONE', (1, 0, -0.000000000000013987061727561149));
#718 = DIRECTION('NONE', (0, -1, 0));
#719 = CARTESIAN_POINT('NONE', (-0.03936999999999999, -0.00254, -0.024330526315789462));
#720 = AXIS2_PLACEMENT_3D('NONE', #719, #718, #717);
#721 = CIRCLE('NONE', #720, 0.0005079999999999955);
#722 = DIRECTION('NONE', (0, 1, 0));
#723 = VECTOR('NONE', #722, 1);
#724 = CARTESIAN_POINT('NONE', (-0.038861999999999994, -0.00254, -0.02433052631578947));
#725 = LINE('NONE', #724, #723);
#726 = DIRECTION('NONE', (1, 0, -0.000000000000013987061727561149));
#727 = DIRECTION('NONE', (0, -1, 0));
#728 = CARTESIAN_POINT('NONE', (-0.03936999999999999, 0.00254, -0.024330526315789462));
#729 = AXIS2_PLACEMENT_3D('NONE', #728, #727, #726);
#730 = CIRCLE('NONE', #729, 0.0005079999999999955);
#731 = DIRECTION('NONE', (1, 0, 0.000000000000006993530863780477));
#732 = DIRECTION('NONE', (0, -1, 0));
#733 = CARTESIAN_POINT('NONE', (-0.039369999999999995, -0.00254, -0.03128210526315789));
#734 = AXIS2_PLACEMENT_3D('NONE', #733, #732, #731);
#735 = CIRCLE('NONE', #734, 0.0005080000000000027);
#736 = DIRECTION('NONE', (0, 1, 0));
#737 = VECTOR('NONE', #736, 1);
#738 = CARTESIAN_POINT('NONE', (-0.038861999999999994, -0.00254, -0.03128210526315789));
#739 = LINE('NONE', #738, #737);
#740 = DIRECTION('NONE', (1, 0, 0.000000000000006993530863780477));
#741 = DIRECTION('NONE', (0, -1, 0));
#742 = CARTESIAN_POINT('NONE', (-0.039369999999999995, 0.00254, -0.03128210526315789));
#743 = AXIS2_PLACEMENT_3D('NONE', #742, #741, #740);
#744 = CIRCLE('NONE', #743, 0.0005080000000000027);
#745 = DIRECTION('NONE', (1, 0, -0.000000000000027974123455121907));
#746 = DIRECTION('NONE', (0, -1, 0));
#747 = CARTESIAN_POINT('NONE', (-0.039369999999999995, -0.00254, -0.038233684210526295));
#748 = AXIS2_PLACEMENT_3D('NONE', #747, #746, #745);
#749 = CIRCLE('NONE', #748, 0.0005080000000000027);
#750 = DIRECTION('NONE', (0, 1, 0));
#751 = VECTOR('NONE', #750, 1);
#752 = CARTESIAN_POINT('NONE', (-0.038861999999999994, -0.00254, -0.03823368421052631));
#753 = LINE('NONE', #752, #751);
#754 = DIRECTION('NONE', (1, 0, -0.000000000000027974123455121907));
#755 = DIRECTION('NONE', (0, -1, 0));
#756 = CARTESIAN_POINT('NONE', (-0.039369999999999995, 0.00254, -0.038233684210526295));
#757 = AXIS2_PLACEMENT_3D('NONE', #756, #755, #754);
#758 = CIRCLE('NONE', #757, 0.0005080000000000027);
#759 = DIRECTION('NONE', (1, 0, -0.000000000000027974123455121907));
#760 = DIRECTION('NONE', (0, -1, 0));
#761 = CARTESIAN_POINT('NONE', (-0.039369999999999995, -0.00254, -0.04518526315789471));
#762 = AXIS2_PLACEMENT_3D('NONE', #761, #760, #759);
#763 = CIRCLE('NONE', #762, 0.0005080000000000027);
#764 = DIRECTION('NONE', (0, 1, 0));
#765 = VECTOR('NONE', #764, 1);
#766 = CARTESIAN_POINT('NONE', (-0.038861999999999994, -0.00254, -0.04518526315789472));
#767 = LINE('NONE', #766, #765);
#768 = DIRECTION('NONE', (1, 0, -0.000000000000027974123455121907));
#769 = DIRECTION('NONE', (0, -1, 0));
#770 = CARTESIAN_POINT('NONE', (-0.039369999999999995, 0.00254, -0.04518526315789471));
#771 = AXIS2_PLACEMENT_3D('NONE', #770, #769, #768);
#772 = CIRCLE('NONE', #771, 0.0005080000000000027);
#773 = DIRECTION('NONE', (1, 0, -0.000000000000027974123455121907));
#774 = DIRECTION('NONE', (0, -1, 0));
#775 = CARTESIAN_POINT('NONE', (-0.039369999999999995, -0.00254, -0.05213684210526311));
#776 = AXIS2_PLACEMENT_3D('NONE', #775, #774, #773);
#777 = CIRCLE('NONE', #776, 0.0005080000000000027);
#778 = DIRECTION('NONE', (0, 1, 0));
#779 = VECTOR('NONE', #778, 1);
#780 = CARTESIAN_POINT('NONE', (-0.038861999999999994, -0.00254, -0.05213684210526313));
#781 = LINE('NONE', #780, #779);
#782 = DIRECTION('NONE', (1, 0, -0.000000000000027974123455121907));
#783 = DIRECTION('NONE', (0, -1, 0));
#784 = CARTESIAN_POINT('NONE', (-0.039369999999999995, 0.00254, -0.05213684210526311));
#785 = AXIS2_PLACEMENT_3D('NONE', #784, #783, #782);
#786 = CIRCLE('NONE', #785, 0.0005080000000000027);
#787 = DIRECTION('NONE', (1, 0, -0));
#788 = DIRECTION('NONE', (0, -1, 0));
#789 = CARTESIAN_POINT('NONE', (-0.039369999999999995, -0.00254, -0.059088421052631575));
#790 = AXIS2_PLACEMENT_3D('NONE', #789, #788, #787);
#791 = CIRCLE('NONE', #790, 0.0005080000000000027);
#792 = DIRECTION('NONE', (0, 1, 0));
#793 = VECTOR('NONE', #792, 1);
#794 = CARTESIAN_POINT('NONE', (-0.038861999999999994, -0.00254, -0.059088421052631575));
#795 = LINE('NONE', #794, #793);
#796 = DIRECTION('NONE', (1, 0, -0));
#797 = DIRECTION('NONE', (0, -1, 0));
#798 = CARTESIAN_POINT('NONE', (-0.039369999999999995, 0.00254, -0.059088421052631575));
#799 = AXIS2_PLACEMENT_3D('NONE', #798, #797, #796);
#800 = CIRCLE('NONE', #799, 0.0005080000000000027);
#801 = DIRECTION('NONE', (1, 0, 0.000000000000027974123455121516));
#802 = DIRECTION('NONE', (0, -1, 0));
#803 = CARTESIAN_POINT('NONE', (-0.03937, -0.00254, -0.06604));
#804 = AXIS2_PLACEMENT_3D('NONE', #803, #802, #801);
#805 = CIRCLE('NONE', #804, 0.0005080000000000097);
#806 = DIRECTION('NONE', (0, 1, 0));
#807 = VECTOR('NONE', #806, 1);
#808 = CARTESIAN_POINT('NONE', (-0.038861999999999994, -0.00254, -0.06603999999999999));
#809 = LINE('NONE', #808, #807);
#810 = DIRECTION('NONE', (1, 0, 0.000000000000027974123455121516));
#811 = DIRECTION('NONE', (0, -1, 0));
#812 = CARTESIAN_POINT('NONE', (-0.03937, 0.00254, -0.06604));
#813 = AXIS2_PLACEMENT_3D('NONE', #812, #811, #810);
#814 = CIRCLE('NONE', #813, 0.0005080000000000097);
#815 = EDGE_CURVE('NONE', #6, #8, #196, .T.);
#816 = EDGE_CURVE('NONE', #8, #10, #200, .T.);
#817 = EDGE_CURVE('NONE', #12, #10, #204, .T.);
#818 = EDGE_CURVE('NONE', #6, #12, #208, .T.);
#819 = EDGE_CURVE('NONE', #8, #14, #213, .T.);
#820 = EDGE_CURVE('NONE', #14, #16, #217, .T.);
#821 = EDGE_CURVE('NONE', #10, #16, #222, .T.);
#822 = EDGE_CURVE('NONE', #14, #18, #226, .T.);
#823 = EDGE_CURVE('NONE', #18, #20, #230, .T.);
#824 = EDGE_CURVE('NONE', #16, #20, #234, .T.);
#825 = EDGE_CURVE('NONE', #18, #22, #238, .T.);
#826 = EDGE_CURVE('NONE', #22, #24, #242, .T.);
#827 = EDGE_CURVE('NONE', #20, #24, #246, .T.);
#828 = EDGE_CURVE('NONE', #22, #26, #251, .T.);
#829 = EDGE_CURVE('NONE', #26, #28, #255, .T.);
#830 = EDGE_CURVE('NONE', #24, #28, #260, .T.);
#831 = EDGE_CURVE('NONE', #26, #6, #264, .T.);
#832 = EDGE_CURVE('NONE', #28, #12, #268, .T.);
#833 = EDGE_CURVE('NONE', #30, #30, #273, .T.);
#834 = EDGE_CURVE('NONE', #30, #32, #277, .T.);
#835 = EDGE_CURVE('NONE', #32, #32, #282, .T.);
#836 = EDGE_CURVE('NONE', #34, #34, #287, .T.);
#837 = EDGE_CURVE('NONE', #34, #36, #291, .T.);
#838 = EDGE_CURVE('NONE', #36, #36, #296, .T.);
#839 = EDGE_CURVE('NONE', #38, #40, #301, .T.);
#840 = EDGE_CURVE('NONE', #40, #42, #305, .T.);
#841 = EDGE_CURVE('NONE', #44, #42, #310, .T.);
#842 = EDGE_CURVE('NONE', #38, #44, #314, .T.);
#843 = EDGE_CURVE('NONE', #40, #46, #318, .T.);
#844 = EDGE_CURVE('NONE', #46, #48, #322, .T.);
#845 = EDGE_CURVE('NONE', #42, #48, #326, .T.);
#846 = EDGE_CURVE('NONE', #46, #50, #331, .T.);
#847 = EDGE_CURVE('NONE', #50, #52, #335, .T.);
#848 = EDGE_CURVE('NONE', #48, #52, #340, .T.);
#849 = EDGE_CURVE('NONE', #50, #38, #344, .T.);
#850 = EDGE_CURVE('NONE', #52, #44, #348, .T.);
#851 = EDGE_CURVE('NONE', #54, #56, #352, .T.);
#852 = EDGE_CURVE('NONE', #56, #58, #356, .T.);
#853 = EDGE_CURVE('NONE', #60, #58, #360, .T.);
#854 = EDGE_CURVE('NONE', #54, #60, #364, .T.);
#855 = EDGE_CURVE('NONE', #56, #62, #368, .T.);
#856 = EDGE_CURVE('NONE', #62, #64, #372, .T.);
#857 = EDGE_CURVE('NONE', #58, #64, #376, .T.);
#858 = EDGE_CURVE('NONE', #62, #66, #380, .T.);
#859 = EDGE_CURVE('NONE', #66, #68, #384, .T.);
#860 = EDGE_CURVE('NONE', #64, #68, #388, .T.);
#861 = EDGE_CURVE('NONE', #66, #70, #393, .T.);
#862 = EDGE_CURVE('NONE', #70, #72, #397, .T.);
#863 = EDGE_CURVE('NONE', #68, #72, #402, .T.);
#864 = EDGE_CURVE('NONE', #70, #54, #406, .T.);
#865 = EDGE_CURVE('NONE', #72, #60, #410, .T.);
#866 = EDGE_CURVE('NONE', #74, #76, #414, .T.);
#867 = EDGE_CURVE('NONE', #76, #78, #418, .T.);
#868 = EDGE_CURVE('NONE', #80, #78, #422, .T.);
#869 = EDGE_CURVE('NONE', #74, #80, #426, .T.);
#870 = EDGE_CURVE('NONE', #76, #82, #430, .T.);
#871 = EDGE_CURVE('NONE', #82, #84, #434, .T.);
#872 = EDGE_CURVE('NONE', #78, #84, #438, .T.);
#873 = EDGE_CURVE('NONE', #82, #86, #442, .T.);
#874 = EDGE_CURVE('NONE', #86, #88, #446, .T.);
#875 = EDGE_CURVE('NONE', #84, #88, #450, .T.);
#876 = EDGE_CURVE('NONE', #86, #90, #455, .T.);
#877 = EDGE_CURVE('NONE', #90, #92, #459, .T.);
#878 = EDGE_CURVE('NONE', #88, #92, #464, .T.);
#879 = EDGE_CURVE('NONE', #90, #74, #468, .T.);
#880 = EDGE_CURVE('NONE', #92, #80, #472, .T.);
#881 = EDGE_CURVE('NONE', #94, #94, #477, .T.);
#882 = EDGE_CURVE('NONE', #94, #96, #481, .T.);
#883 = EDGE_CURVE('NONE', #96, #96, #486, .T.);
#884 = EDGE_CURVE('NONE', #98, #100, #490, .T.);
#885 = EDGE_CURVE('NONE', #100, #102, #494, .T.);
#886 = EDGE_CURVE('NONE', #104, #102, #498, .T.);
#887 = EDGE_CURVE('NONE', #98, #104, #502, .T.);
#888 = EDGE_CURVE('NONE', #100, #106, #506, .T.);
#889 = EDGE_CURVE('NONE', #106, #108, #510, .T.);
#890 = EDGE_CURVE('NONE', #102, #108, #514, .T.);
#891 = EDGE_CURVE('NONE', #106, #110, #518, .T.);
#892 = EDGE_CURVE('NONE', #110, #112, #522, .T.);
#893 = EDGE_CURVE('NONE', #108, #112, #526, .T.);
#894 = EDGE_CURVE('NONE', #110, #98, #530, .T.);
#895 = EDGE_CURVE('NONE', #112, #104, #534, .T.);
#896 = EDGE_CURVE('NONE', #114, #114, #539, .T.);
#897 = EDGE_CURVE('NONE', #114, #116, #543, .T.);
#898 = EDGE_CURVE('NONE', #116, #116, #548, .T.);
#899 = EDGE_CURVE('NONE', #118, #118, #553, .T.);
#900 = EDGE_CURVE('NONE', #118, #120, #557, .T.);
#901 = EDGE_CURVE('NONE', #120, #120, #562, .T.);
#902 = EDGE_CURVE('NONE', #122, #122, #567, .T.);
#903 = EDGE_CURVE('NONE', #122, #124, #571, .T.);
#904 = EDGE_CURVE('NONE', #124, #124, #576, .T.);
#905 = EDGE_CURVE('NONE', #126, #126, #581, .T.);
#906 = EDGE_CURVE('NONE', #126, #128, #585, .T.);
#907 = EDGE_CURVE('NONE', #128, #128, #590, .T.);
#908 = EDGE_CURVE('NONE', #130, #130, #595, .T.);
#909 = EDGE_CURVE('NONE', #130, #132, #599, .T.);
#910 = EDGE_CURVE('NONE', #132, #132, #604, .T.);
#911 = EDGE_CURVE('NONE', #134, #134, #609, .T.);
#912 = EDGE_CURVE('NONE', #134, #136, #613, .T.);
#913 = EDGE_CURVE('NONE', #136, #136, #618, .T.);
#914 = EDGE_CURVE('NONE', #138, #138, #623, .T.);
#915 = EDGE_CURVE('NONE', #138, #140, #627, .T.);
#916 = EDGE_CURVE('NONE', #140, #140, #632, .T.);
#917 = EDGE_CURVE('NONE', #142, #142, #637, .T.);
#918 = EDGE_CURVE('NONE', #142, #144, #641, .T.);
#919 = EDGE_CURVE('NONE', #144, #144, #646, .T.);
#920 = EDGE_CURVE('NONE', #146, #146, #651, .T.);
#921 = EDGE_CURVE('NONE', #146, #148, #655, .T.);
#922 = EDGE_CURVE('NONE', #148, #148, #660, .T.);
#923 = EDGE_CURVE('NONE', #150, #150, #665, .T.);
#924 = EDGE_CURVE('NONE', #150, #152, #669, .T.);
#925 = EDGE_CURVE('NONE', #152, #152, #674, .T.);
#926 = EDGE_CURVE('NONE', #154, #154, #679, .T.);
#927 = EDGE_CURVE('NONE', #154, #156, #683, .T.);
#928 = EDGE_CURVE('NONE', #156, #156, #688, .T.);
#929 = EDGE_CURVE('NONE', #158, #158, #693, .T.);
#930 = EDGE_CURVE('NONE', #158, #160, #697, .T.);
#931 = EDGE_CURVE('NONE', #160, #160, #702, .T.);
#932 = EDGE_CURVE('NONE', #162, #162, #707, .T.);
#933 = EDGE_CURVE('NONE', #162, #164, #711, .T.);
#934 = EDGE_CURVE('NONE', #164, #164, #716, .T.);
#935 = EDGE_CURVE('NONE', #166, #166, #721, .T.);
#936 = EDGE_CURVE('NONE', #166, #168, #725, .T.);
#937 = EDGE_CURVE('NONE', #168, #168, #730, .T.);
#938 = EDGE_CURVE('NONE', #170, #170, #735, .T.);
#939 = EDGE_CURVE('NONE', #170, #172, #739, .T.);
#940 = EDGE_CURVE('NONE', #172, #172, #744, .T.);
#941 = EDGE_CURVE('NONE', #174, #174, #749, .T.);
#942 = EDGE_CURVE('NONE', #174, #176, #753, .T.);
#943 = EDGE_CURVE('NONE', #176, #176, #758, .T.);
#944 = EDGE_CURVE('NONE', #178, #178, #763, .T.);
#945 = EDGE_CURVE('NONE', #178, #180, #767, .T.);
#946 = EDGE_CURVE('NONE', #180, #180, #772, .T.);
#947 = EDGE_CURVE('NONE', #182, #182, #777, .T.);
#948 = EDGE_CURVE('NONE', #182, #184, #781, .T.);
#949 = EDGE_CURVE('NONE', #184, #184, #786, .T.);
#950 = EDGE_CURVE('NONE', #186, #186, #791, .T.);
#951 = EDGE_CURVE('NONE', #186, #188, #795, .T.);
#952 = EDGE_CURVE('NONE', #188, #188, #800, .T.);
#953 = EDGE_CURVE('NONE', #190, #190, #805, .T.);
#954 = EDGE_CURVE('NONE', #190, #192, #809, .T.);
#955 = EDGE_CURVE('NONE', #192, #192, #814, .T.);
#956 = CARTESIAN_POINT('NONE', (-0.02761315367264149, -0.005388153672641491, -0));
#957 = DIRECTION('NONE', (-0.30479434587296284, -0.9524181889925626, 0));
#958 = AXIS2_PLACEMENT_3D('NONE', #956, #957, $);
#959 = PLANE('NONE', #958);
#960 = CARTESIAN_POINT('NONE', (-0.00000000000000000144203609092716, 0.00000000000000000116046102938261, 0));
#961 = DIRECTION('NONE', (0, -0, 1));
#962 = DIRECTION('NONE', (-0.7071067811865474, -0.7071067811865478, -0));
#963 = AXIS2_PLACEMENT_3D('NONE', #960, #961, #962);
#964 = CYLINDRICAL_SURFACE('NONE', #963, 0.015239999999999998);
#965 = CARTESIAN_POINT('NONE', (0.043488153672641486, -0.005388153672641489, -0));
#966 = DIRECTION('NONE', (0.16252566229382331, -0.9867043169541491, 0));
#967 = AXIS2_PLACEMENT_3D('NONE', #965, #966, $);
#968 = PLANE('NONE', #967);
#969 = CARTESIAN_POINT('NONE', (0.043488153672641486, 0.005388153672641491, -0));
#970 = DIRECTION('NONE', (0.16252566229382334, 0.9867043169541491, -0));
#971 = AXIS2_PLACEMENT_3D('NONE', #969, #970, $);
#972 = PLANE('NONE', #971);
#973 = CARTESIAN_POINT('NONE', (0.00000000000000000144203609092716, -0.00000000000000000116046102938261, 0));
#974 = DIRECTION('NONE', (0, 0, 1));
#975 = DIRECTION('NONE', (0.7071067811865474, 0.7071067811865478, -0));
#976 = AXIS2_PLACEMENT_3D('NONE', #973, #974, #975);
#977 = CYLINDRICAL_SURFACE('NONE', #976, 0.015239999999999998);
#978 = CARTESIAN_POINT('NONE', (-0.02761315367264149, 0.005388153672641491, -0));
#979 = DIRECTION('NONE', (-0.3047943458729629, 0.9524181889925626, -0));
#980 = AXIS2_PLACEMENT_3D('NONE', #978, #979, $);
#981 = PLANE('NONE', #980);
#982 = CARTESIAN_POINT('NONE', (0, 0, -0.00254));
#983 = DIRECTION('NONE', (0, 0, 1));
#984 = AXIS2_PLACEMENT_3D('NONE', #982, #983, $);
#985 = PLANE('NONE', #984);
#986 = CARTESIAN_POINT('NONE', (0, 0, 0.00254));
#987 = DIRECTION('NONE', (0, 0, 1));
#988 = AXIS2_PLACEMENT_3D('NONE', #986, #987, $);
#989 = PLANE('NONE', #988);
#990 = CARTESIAN_POINT('NONE', (0.07619999999999999, 0, 0.000000000000000010048591735576165));
#991 = DIRECTION('NONE', (0, 1, 0));
#992 = DIRECTION('NONE', (1, 0, -0.0000000000000010549702609528775));
#993 = AXIS2_PLACEMENT_3D('NONE', #990, #991, #992);
#994 = CYLINDRICAL_SURFACE('NONE', #993, 0.009525000000000006);
#995 = CARTESIAN_POINT('NONE', (0.07619999999999999, -0, -0.000000000000000015072887603364283));
#996 = DIRECTION('NONE', (0, -1, 0));
#997 = DIRECTION('NONE', (1, 0, 0.000000000000015080448654479275));
#998 = AXIS2_PLACEMENT_3D('NONE', #995, #996, #997);
#999 = CYLINDRICAL_SURFACE('NONE', #998, 0.0010160000000000054);
#1000 = CARTESIAN_POINT('NONE', (0, -0.009524999999999999, -0));
#1001 = DIRECTION('NONE', (0, 1, 0));
#1002 = AXIS2_PLACEMENT_3D('NONE', #1000, #1001, $);
#1003 = PLANE('NONE', #1002);
#1004 = CARTESIAN_POINT('NONE', (0, 0.009524999999999999, -0));
#1005 = DIRECTION('NONE', (0, 1, 0));
#1006 = AXIS2_PLACEMENT_3D('NONE', #1004, #1005, $);
#1007 = PLANE('NONE', #1006);
#1008 = CARTESIAN_POINT('NONE', (0.06085009615384615, -0, 0.0844794230769231));
#1009 = DIRECTION('NONE', (0, -1, -0));
#1010 = DIRECTION('NONE', (-0.795321791066905, 0, -0.6061874698920543));
#1011 = AXIS2_PLACEMENT_3D('NONE', #1008, #1009, #1010);
#1012 = CYLINDRICAL_SURFACE('NONE', #1011, 0.0765100325897235);
#1013 = CARTESIAN_POINT('NONE', (0.07619999999999998, 0, 0.000000000000000004440892098500626));
#1014 = DIRECTION('NONE', (1, 0, 0));
#1015 = AXIS2_PLACEMENT_3D('NONE', #1013, #1014, $);
#1016 = PLANE('NONE', #1015);
#1017 = CARTESIAN_POINT('NONE', (0.060850096153846144, 0, -0.08447942307692308));
#1018 = DIRECTION('NONE', (0, -1.0000000000000002, 0));
#1019 = DIRECTION('NONE', (0.20062602676522173, 0, 0.9796679015791018));
#1020 = AXIS2_PLACEMENT_3D('NONE', #1017, #1018, #1019);
#1021 = CYLINDRICAL_SURFACE('NONE', #1020, 0.07651003258972346);
#1022 = CARTESIAN_POINT('NONE', (0, 0, -0));
#1023 = DIRECTION('NONE', (-1, 0, 0));
#1024 = AXIS2_PLACEMENT_3D('NONE', #1022, #1023, $);
#1025 = PLANE('NONE', #1024);
#1026 = CARTESIAN_POINT('NONE', (0, -0.00254, -0));
#1027 = DIRECTION('NONE', (0, 1, 0));
#1028 = AXIS2_PLACEMENT_3D('NONE', #1026, #1027, $);
#1029 = PLANE('NONE', #1028);
#1030 = CARTESIAN_POINT('NONE', (0, 0.00254, -0));
#1031 = DIRECTION('NONE', (0, 1, 0));
#1032 = AXIS2_PLACEMENT_3D('NONE', #1030, #1031, $);
#1033 = PLANE('NONE', #1032);
#1034 = CARTESIAN_POINT('NONE', (0, 0.007619999999999998, 0.07365999999999996));
#1035 = DIRECTION('NONE', (1, 0, -0));
#1036 = AXIS2_PLACEMENT_3D('NONE', #1034, #1035, $);
#1037 = PLANE('NONE', #1036);
#1038 = CARTESIAN_POINT('NONE', (-0.022224999999999998, 0.007619999999999998, 0.07365999999999996));
#1039 = DIRECTION('NONE', (-0.32432432432432423, 0.9459459459459459, -0));
#1040 = AXIS2_PLACEMENT_3D('NONE', #1038, #1039, $);
#1041 = PLANE('NONE', #1040);
#1042 = CARTESIAN_POINT('NONE', (-0.022225, -0.007619999999999996, 0.07365999999999996));
#1043 = DIRECTION('NONE', (-0.32432432432432423, -0.9459459459459459, 0));
#1044 = AXIS2_PLACEMENT_3D('NONE', #1042, #1043, $);
#1045 = PLANE('NONE', #1044);
#1046 = CARTESIAN_POINT('NONE', (0, -0.00000000000000000125607396694702, 0.07365999999999996));
#1047 = DIRECTION('NONE', (0, 0, 1));
#1048 = DIRECTION('NONE', (0, -1, -0));
#1049 = AXIS2_PLACEMENT_3D('NONE', #1046, #1047, #1048);
#1050 = CYLINDRICAL_SURFACE('NONE', #1049, 0.015239999999999997);
#1051 = CARTESIAN_POINT('NONE', (0, 0.007619999999999991, 0.07365999999999998));
#1052 = DIRECTION('NONE', (-1, -0, 0));
#1053 = AXIS2_PLACEMENT_3D('NONE', #1051, #1052, $);
#1054 = PLANE('NONE', #1053);
#1055 = CARTESIAN_POINT('NONE', (0, 0, 0.07111999999999999));
#1056 = DIRECTION('NONE', (0, 0, 1));
#1057 = AXIS2_PLACEMENT_3D('NONE', #1055, #1056, $);
#1058 = PLANE('NONE', #1057);
#1059 = CARTESIAN_POINT('NONE', (0, 0, 0.07619999999999999));
#1060 = DIRECTION('NONE', (0, 0, 1));
#1061 = AXIS2_PLACEMENT_3D('NONE', #1059, #1060, $);
#1062 = PLANE('NONE', #1061);
#1063 = CARTESIAN_POINT('NONE', (0, 0.007619999999999998, -0.07365999999999998));
#1064 = DIRECTION('NONE', (1, -0, 0));
#1065 = AXIS2_PLACEMENT_3D('NONE', #1063, #1064, $);
#1066 = PLANE('NONE', #1065);
#1067 = CARTESIAN_POINT('NONE', (-0.022224999999999998, 0.007619999999999998, -0.07365999999999998));
#1068 = DIRECTION('NONE', (-0.32432432432432423, 0.9459459459459459, -0));
#1069 = AXIS2_PLACEMENT_3D('NONE', #1067, #1068, $);
#1070 = PLANE('NONE', #1069);
#1071 = CARTESIAN_POINT('NONE', (-0.022225, -0.007619999999999996, -0.07365999999999998));
#1072 = DIRECTION('NONE', (-0.32432432432432423, -0.9459459459459459, 0));
#1073 = AXIS2_PLACEMENT_3D('NONE', #1071, #1072, $);
#1074 = PLANE('NONE', #1073);
#1075 = CARTESIAN_POINT('NONE', (0, -0.00000000000000000125607396694702, -0.07365999999999998));
#1076 = DIRECTION('NONE', (0, 0, 1));
#1077 = DIRECTION('NONE', (0, -1, -0));
#1078 = AXIS2_PLACEMENT_3D('NONE', #1075, #1076, #1077);
#1079 = CYLINDRICAL_SURFACE('NONE', #1078, 0.015239999999999997);
#1080 = CARTESIAN_POINT('NONE', (0, 0.007619999999999991, -0.07366));
#1081 = DIRECTION('NONE', (-1, -0, 0));
#1082 = AXIS2_PLACEMENT_3D('NONE', #1080, #1081, $);
#1083 = PLANE('NONE', #1082);
#1084 = CARTESIAN_POINT('NONE', (0, 0, -0.0762));
#1085 = DIRECTION('NONE', (0, 0, 1));
#1086 = AXIS2_PLACEMENT_3D('NONE', #1084, #1085, $);
#1087 = PLANE('NONE', #1086);
#1088 = CARTESIAN_POINT('NONE', (0, 0, -0.07111999999999999));
#1089 = DIRECTION('NONE', (0, 0, 1));
#1090 = AXIS2_PLACEMENT_3D('NONE', #1088, #1089, $);
#1091 = PLANE('NONE', #1090);
#1092 = CARTESIAN_POINT('NONE', (0.00000000000000000062803698347351, 0.00000000000000000062803698347351, 0));
#1093 = DIRECTION('NONE', (0, 0, 1));
#1094 = DIRECTION('NONE', (1, -0.00000000000000004945173098216614, -0));
#1095 = AXIS2_PLACEMENT_3D('NONE', #1092, #1093, #1094);
#1096 = CYLINDRICAL_SURFACE('NONE', #1095, 0.0127);
#1097 = CARTESIAN_POINT('NONE', (0, 0, -0.07619999999999999));
#1098 = DIRECTION('NONE', (0, 0, 1));
#1099 = AXIS2_PLACEMENT_3D('NONE', #1097, #1098, $);
#1100 = PLANE('NONE', #1099);
#1101 = CARTESIAN_POINT('NONE', (0, 0, 0.07619999999999999));
#1102 = DIRECTION('NONE', (0, 0, 1));
#1103 = AXIS2_PLACEMENT_3D('NONE', #1101, #1102, $);
#1104 = PLANE('NONE', #1103);
#1105 = CARTESIAN_POINT('NONE', (-0.022224999999999998, 0, 0.07619999999999998));
#1106 = DIRECTION('NONE', (0, 0, 1));
#1107 = AXIS2_PLACEMENT_3D('NONE', #1105, #1106, $);
#1108 = PLANE('NONE', #1107);
#1109 = CARTESIAN_POINT('NONE', (0, 0, 0.000000000000000007105427357601002));
#1110 = DIRECTION('NONE', (1, 0, 0));
#1111 = AXIS2_PLACEMENT_3D('NONE', #1109, #1110, $);
#1112 = PLANE('NONE', #1111);
#1113 = CARTESIAN_POINT('NONE', (-0.022224999999999998, 0, -0.07619999999999998));
#1114 = DIRECTION('NONE', (0, -0, -1));
#1115 = AXIS2_PLACEMENT_3D('NONE', #1113, #1114, $);
#1116 = PLANE('NONE', #1115);
#1117 = CARTESIAN_POINT('NONE', (-0.044449999999999996, 0, -0));
#1118 = DIRECTION('NONE', (-1, 0, 0));
#1119 = AXIS2_PLACEMENT_3D('NONE', #1117, #1118, $);
#1120 = PLANE('NONE', #1119);
#1121 = CARTESIAN_POINT('NONE', (-0.03936999999999999, -0, 0.06603999999999997));
#1122 = DIRECTION('NONE', (0, -1, 0));
#1123 = DIRECTION('NONE', (1, 0, 0.000000000000027974123455122298));
#1124 = AXIS2_PLACEMENT_3D('NONE', #1121, #1122, #1123);
#1125 = CYLINDRICAL_SURFACE('NONE', #1124, 0.0005079999999999955);
#1126 = CARTESIAN_POINT('NONE', (-0.03937, -0, 0.05908842105263159));
#1127 = DIRECTION('NONE', (0, -1, 0));
#1128 = DIRECTION('NONE', (1, 0, -0.000000000000027974123455121516));
#1129 = AXIS2_PLACEMENT_3D('NONE', #1126, #1127, #1128);
#1130 = CYLINDRICAL_SURFACE('NONE', #1129, 0.0005080000000000097);
#1131 = CARTESIAN_POINT('NONE', (-0.03937, -0, 0.052136842105263155));
#1132 = DIRECTION('NONE', (0, -1, 0));
#1133 = DIRECTION('NONE', (1, 0, -0));
#1134 = AXIS2_PLACEMENT_3D('NONE', #1131, #1132, #1133);
#1135 = CYLINDRICAL_SURFACE('NONE', #1134, 0.0005080000000000097);
#1136 = CARTESIAN_POINT('NONE', (-0.039369999999999995, -0, 0.04518526315789473));
#1137 = DIRECTION('NONE', (0, -1, 0));
#1138 = DIRECTION('NONE', (1, 0, -0));
#1139 = AXIS2_PLACEMENT_3D('NONE', #1136, #1137, #1138);
#1140 = CYLINDRICAL_SURFACE('NONE', #1139, 0.0005080000000000027);
#1141 = CARTESIAN_POINT('NONE', (-0.039369999999999995, -0, 0.038233684210526316));
#1142 = DIRECTION('NONE', (0, -1, 0));
#1143 = DIRECTION('NONE', (1, 0, -0));
#1144 = AXIS2_PLACEMENT_3D('NONE', #1141, #1142, #1143);
#1145 = CYLINDRICAL_SURFACE('NONE', #1144, 0.0005080000000000027);
#1146 = CARTESIAN_POINT('NONE', (-0.03937, -0, 0.03128210526315789));
#1147 = DIRECTION('NONE', (0, -1, 0));
#1148 = DIRECTION('NONE', (1, 0, 0.000000000000006993530863780379));
#1149 = AXIS2_PLACEMENT_3D('NONE', #1146, #1147, #1148);
#1150 = CYLINDRICAL_SURFACE('NONE', #1149, 0.0005080000000000097);
#1151 = CARTESIAN_POINT('NONE', (-0.03937, -0, 0.024330526315789462));
#1152 = DIRECTION('NONE', (0, -1, 0));
#1153 = DIRECTION('NONE', (1, 0, 0.000000000000013987061727560758));
#1154 = AXIS2_PLACEMENT_3D('NONE', #1151, #1152, #1153);
#1155 = CYLINDRICAL_SURFACE('NONE', #1154, 0.0005080000000000097);
#1156 = CARTESIAN_POINT('NONE', (-0.03937, -0, 0.01737894736842105));
#1157 = DIRECTION('NONE', (0, -1, 0));
#1158 = DIRECTION('NONE', (1, 0, 0.000000000000006993530863780379));
#1159 = AXIS2_PLACEMENT_3D('NONE', #1156, #1157, #1158);
#1160 = CYLINDRICAL_SURFACE('NONE', #1159, 0.0005080000000000097);
#1161 = CARTESIAN_POINT('NONE', (-0.03936999999999999, -0, 0.010427368421052633));
#1162 = DIRECTION('NONE', (0, -1, 0));
#1163 = DIRECTION('NONE', (1, 0, 0.0000000000000034967654318902873));
#1164 = AXIS2_PLACEMENT_3D('NONE', #1161, #1162, #1163);
#1165 = CYLINDRICAL_SURFACE('NONE', #1164, 0.0005079999999999955);
#1166 = CARTESIAN_POINT('NONE', (-0.039369999999999995, -0, 0.0034757894736842155));
#1167 = DIRECTION('NONE', (0, -1, 0));
#1168 = DIRECTION('NONE', (1, 0, 0.0000000000000008741913579725596));
#1169 = AXIS2_PLACEMENT_3D('NONE', #1166, #1167, #1168);
#1170 = CYLINDRICAL_SURFACE('NONE', #1169, 0.0005080000000000027);
#1171 = CARTESIAN_POINT('NONE', (-0.039369999999999995, 0, -0.0034757894736842034));
#1172 = DIRECTION('NONE', (0, -1, 0));
#1173 = DIRECTION('NONE', (1, 0, 0.000000000000002622574073917679));
#1174 = AXIS2_PLACEMENT_3D('NONE', #1171, #1172, #1173);
#1175 = CYLINDRICAL_SURFACE('NONE', #1174, 0.0005080000000000027);
#1176 = CARTESIAN_POINT('NONE', (-0.039369999999999995, 0, -0.01042736842105262));
#1177 = DIRECTION('NONE', (0, -1, 0));
#1178 = DIRECTION('NONE', (1, 0, -0));
#1179 = AXIS2_PLACEMENT_3D('NONE', #1176, #1177, #1178);
#1180 = CYLINDRICAL_SURFACE('NONE', #1179, 0.0005080000000000027);
#1181 = CARTESIAN_POINT('NONE', (-0.03937, 0, -0.017378947368421056));
#1182 = DIRECTION('NONE', (0, -1, 0));
#1183 = DIRECTION('NONE', (1, 0, 0.000000000000006993530863780379));
#1184 = AXIS2_PLACEMENT_3D('NONE', #1181, #1182, #1183);
#1185 = CYLINDRICAL_SURFACE('NONE', #1184, 0.0005080000000000097);
#1186 = CARTESIAN_POINT('NONE', (-0.03936999999999999, 0, -0.024330526315789462));
#1187 = DIRECTION('NONE', (0, -1, 0));
#1188 = DIRECTION('NONE', (1, 0, -0.000000000000013987061727561149));
#1189 = AXIS2_PLACEMENT_3D('NONE', #1186, #1187, #1188);
#1190 = CYLINDRICAL_SURFACE('NONE', #1189, 0.0005079999999999955);
#1191 = CARTESIAN_POINT('NONE', (-0.039369999999999995, 0, -0.03128210526315789));
#1192 = DIRECTION('NONE', (0, -1, 0));
#1193 = DIRECTION('NONE', (1, 0, 0.000000000000006993530863780477));
#1194 = AXIS2_PLACEMENT_3D('NONE', #1191, #1192, #1193);
#1195 = CYLINDRICAL_SURFACE('NONE', #1194, 0.0005080000000000027);
#1196 = CARTESIAN_POINT('NONE', (-0.039369999999999995, 0, -0.038233684210526295));
#1197 = DIRECTION('NONE', (0, -1, 0));
#1198 = DIRECTION('NONE', (1, 0, -0.000000000000027974123455121907));
#1199 = AXIS2_PLACEMENT_3D('NONE', #1196, #1197, #1198);
#1200 = CYLINDRICAL_SURFACE('NONE', #1199, 0.0005080000000000027);
#1201 = CARTESIAN_POINT('NONE', (-0.039369999999999995, 0, -0.04518526315789471));
#1202 = DIRECTION('NONE', (0, -1, 0));
#1203 = DIRECTION('NONE', (1, 0, -0.000000000000027974123455121907));
#1204 = AXIS2_PLACEMENT_3D('NONE', #1201, #1202, #1203);
#1205 = CYLINDRICAL_SURFACE('NONE', #1204, 0.0005080000000000027);
#1206 = CARTESIAN_POINT('NONE', (-0.039369999999999995, 0, -0.05213684210526311));
#1207 = DIRECTION('NONE', (0, -1, 0));
#1208 = DIRECTION('NONE', (1, 0, -0.000000000000027974123455121907));
#1209 = AXIS2_PLACEMENT_3D('NONE', #1206, #1207, #1208);
#1210 = CYLINDRICAL_SURFACE('NONE', #1209, 0.0005080000000000027);
#1211 = CARTESIAN_POINT('NONE', (-0.039369999999999995, 0, -0.059088421052631575));
#1212 = DIRECTION('NONE', (0, -1, 0));
#1213 = DIRECTION('NONE', (1, 0, -0));
#1214 = AXIS2_PLACEMENT_3D('NONE', #1211, #1212, #1213);
#1215 = CYLINDRICAL_SURFACE('NONE', #1214, 0.0005080000000000027);
#1216 = CARTESIAN_POINT('NONE', (-0.03937, 0, -0.06604));
#1217 = DIRECTION('NONE', (0, -1, 0));
#1218 = DIRECTION('NONE', (1, 0, 0.000000000000027974123455121516));
#1219 = AXIS2_PLACEMENT_3D('NONE', #1216, #1217, #1218);
#1220 = CYLINDRICAL_SURFACE('NONE', #1219, 0.0005080000000000097);
#1221 = CARTESIAN_POINT('NONE', (0, -0.00254, -0));
#1222 = DIRECTION('NONE', (0, 1, 0));
#1223 = AXIS2_PLACEMENT_3D('NONE', #1221, #1222, $);
#1224 = PLANE('NONE', #1223);
#1225 = CARTESIAN_POINT('NONE', (0, 0.00254, -0));
#1226 = DIRECTION('NONE', (0, 1, 0));
#1227 = AXIS2_PLACEMENT_3D('NONE', #1225, #1226, $);
#1228 = PLANE('NONE', #1227);
#1229 = ORIENTED_EDGE('NONE', *, *, #815, .T.);
#1230 = ORIENTED_EDGE('NONE', *, *, #816, .T.);
#1231 = ORIENTED_EDGE('NONE', *, *, #817, .F.);
#1232 = ORIENTED_EDGE('NONE', *, *, #818, .F.);
#1233 = EDGE_LOOP('NONE', (#1229, #1230, #1231, #1232));
#1234 = FACE_BOUND('NONE', #1233, .T.);
#1235 = ADVANCED_FACE('NONE', (#1234), #959, .T.);
#1236 = ORIENTED_EDGE('NONE', *, *, #819, .T.);
#1237 = ORIENTED_EDGE('NONE', *, *, #820, .T.);
#1238 = ORIENTED_EDGE('NONE', *, *, #821, .F.);
#1239 = ORIENTED_EDGE('NONE', *, *, #816, .F.);
#1240 = EDGE_LOOP('NONE', (#1236, #1237, #1238, #1239));
#1241 = FACE_BOUND('NONE', #1240, .T.);
#1242 = ADVANCED_FACE('NONE', (#1241), #964, .T.);
#1243 = ORIENTED_EDGE('NONE', *, *, #822, .T.);
#1244 = ORIENTED_EDGE('NONE', *, *, #823, .T.);
#1245 = ORIENTED_EDGE('NONE', *, *, #824, .F.);
#1246 = ORIENTED_EDGE('NONE', *, *, #820, .F.);
#1247 = EDGE_LOOP('NONE', (#1243, #1244, #1245, #1246));
#1248 = FACE_BOUND('NONE', #1247, .T.);
#1249 = ADVANCED_FACE('NONE', (#1248), #968, .T.);
#1250 = ORIENTED_EDGE('NONE', *, *, #825, .T.);
#1251 = ORIENTED_EDGE('NONE', *, *, #826, .T.);
#1252 = ORIENTED_EDGE('NONE', *, *, #827, .F.);
#1253 = ORIENTED_EDGE('NONE', *, *, #823, .F.);
#1254 = EDGE_LOOP('NONE', (#1250, #1251, #1252, #1253));
#1255 = FACE_BOUND('NONE', #1254, .T.);
#1256 = ADVANCED_FACE('NONE', (#1255), #972, .T.);
#1257 = ORIENTED_EDGE('NONE', *, *, #828, .T.);
#1258 = ORIENTED_EDGE('NONE', *, *, #829, .T.);
#1259 = ORIENTED_EDGE('NONE', *, *, #830, .F.);
#1260 = ORIENTED_EDGE('NONE', *, *, #826, .F.);
#1261 = EDGE_LOOP('NONE', (#1257, #1258, #1259, #1260));
#1262 = FACE_BOUND('NONE', #1261, .T.);
#1263 = ADVANCED_FACE('NONE', (#1262), #977, .T.);
#1264 = ORIENTED_EDGE('NONE', *, *, #831, .T.);
#1265 = ORIENTED_EDGE('NONE', *, *, #818, .T.);
#1266 = ORIENTED_EDGE('NONE', *, *, #832, .F.);
#1267 = ORIENTED_EDGE('NONE', *, *, #829, .F.);
#1268 = EDGE_LOOP('NONE', (#1264, #1265, #1266, #1267));
#1269 = FACE_BOUND('NONE', #1268, .T.);
#1270 = ADVANCED_FACE('NONE', (#1269), #981, .T.);
#1271 = ORIENTED_EDGE('NONE', *, *, #831, .F.);
#1272 = ORIENTED_EDGE('NONE', *, *, #828, .F.);
#1273 = ORIENTED_EDGE('NONE', *, *, #825, .F.);
#1274 = ORIENTED_EDGE('NONE', *, *, #822, .F.);
#1275 = ORIENTED_EDGE('NONE', *, *, #819, .F.);
#1276 = ORIENTED_EDGE('NONE', *, *, #815, .F.);
#1277 = EDGE_LOOP('NONE', (#1271, #1272, #1273, #1274, #1275, #1276));
#1278 = FACE_BOUND('NONE', #1277, .T.);
#1279 = ADVANCED_FACE('NONE', (#1278), #985, .F.);
#1280 = ORIENTED_EDGE('NONE', *, *, #817, .T.);
#1281 = ORIENTED_EDGE('NONE', *, *, #821, .T.);
#1282 = ORIENTED_EDGE('NONE', *, *, #824, .T.);
#1283 = ORIENTED_EDGE('NONE', *, *, #827, .T.);
#1284 = ORIENTED_EDGE('NONE', *, *, #830, .T.);
#1285 = ORIENTED_EDGE('NONE', *, *, #832, .T.);
#1286 = EDGE_LOOP('NONE', (#1280, #1281, #1282, #1283, #1284, #1285));
#1287 = FACE_BOUND('NONE', #1286, .T.);
#1288 = ADVANCED_FACE('NONE', (#1287), #989, .T.);
#1289 = ORIENTED_EDGE('NONE', *, *, #833, .T.);
#1290 = ORIENTED_EDGE('NONE', *, *, #835, .F.);
#1291 = EDGE_LOOP('NONE', (#1289));
#1292 = FACE_BOUND('NONE', #1291, .T.);
#1293 = EDGE_LOOP('NONE', (#1290));
#1294 = FACE_BOUND('NONE', #1293, .T.);
#1295 = ADVANCED_FACE('NONE', (#1292, #1294), #994, .T.);
#1296 = ORIENTED_EDGE('NONE', *, *, #836, .T.);
#1297 = ORIENTED_EDGE('NONE', *, *, #838, .F.);
#1298 = EDGE_LOOP('NONE', (#1296));
#1299 = FACE_BOUND('NONE', #1298, .T.);
#1300 = EDGE_LOOP('NONE', (#1297));
#1301 = FACE_BOUND('NONE', #1300, .T.);
#1302 = ADVANCED_FACE('NONE', (#1299, #1301), #999, .F.);
#1303 = ORIENTED_EDGE('NONE', *, *, #833, .F.);
#1304 = ORIENTED_EDGE('NONE', *, *, #836, .F.);
#1305 = EDGE_LOOP('NONE', (#1303));
#1306 = FACE_BOUND('NONE', #1305, .T.);
#1307 = EDGE_LOOP('NONE', (#1304));
#1308 = FACE_BOUND('NONE', #1307, .T.);
#1309 = ADVANCED_FACE('NONE', (#1306, #1308), #1003, .F.);
#1310 = ORIENTED_EDGE('NONE', *, *, #835, .T.);
#1311 = ORIENTED_EDGE('NONE', *, *, #838, .T.);
#1312 = EDGE_LOOP('NONE', (#1310));
#1313 = FACE_BOUND('NONE', #1312, .T.);
#1314 = EDGE_LOOP('NONE', (#1311));
#1315 = FACE_BOUND('NONE', #1314, .T.);
#1316 = ADVANCED_FACE('NONE', (#1313, #1315), #1007, .T.);
#1317 = ORIENTED_EDGE('NONE', *, *, #839, .T.);
#1318 = ORIENTED_EDGE('NONE', *, *, #840, .T.);
#1319 = ORIENTED_EDGE('NONE', *, *, #841, .F.);
#1320 = ORIENTED_EDGE('NONE', *, *, #842, .F.);
#1321 = EDGE_LOOP('NONE', (#1317, #1318, #1319, #1320));
#1322 = FACE_BOUND('NONE', #1321, .T.);
#1323 = ADVANCED_FACE('NONE', (#1322), #1012, .F.);
#1324 = ORIENTED_EDGE('NONE', *, *, #843, .T.);
#1325 = ORIENTED_EDGE('NONE', *, *, #844, .T.);
#1326 = ORIENTED_EDGE('NONE', *, *, #845, .F.);
#1327 = ORIENTED_EDGE('NONE', *, *, #840, .F.);
#1328 = EDGE_LOOP('NONE', (#1324, #1325, #1326, #1327));
#1329 = FACE_BOUND('NONE', #1328, .T.);
#1330 = ADVANCED_FACE('NONE', (#1329), #1016, .T.);
#1331 = ORIENTED_EDGE('NONE', *, *, #846, .T.);
#1332 = ORIENTED_EDGE('NONE', *, *, #847, .T.);
#1333 = ORIENTED_EDGE('NONE', *, *, #848, .F.);
#1334 = ORIENTED_EDGE('NONE', *, *, #844, .F.);
#1335 = EDGE_LOOP('NONE', (#1331, #1332, #1333, #1334));
#1336 = FACE_BOUND('NONE', #1335, .T.);
#1337 = ADVANCED_FACE('NONE', (#1336), #1021, .F.);
#1338 = ORIENTED_EDGE('NONE', *, *, #849, .T.);
#1339 = ORIENTED_EDGE('NONE', *, *, #842, .T.);
#1340 = ORIENTED_EDGE('NONE', *, *, #850, .F.);
#1341 = ORIENTED_EDGE('NONE', *, *, #847, .F.);
#1342 = EDGE_LOOP('NONE', (#1338, #1339, #1340, #1341));
#1343 = FACE_BOUND('NONE', #1342, .T.);
#1344 = ADVANCED_FACE('NONE', (#1343), #1025, .T.);
#1345 = ORIENTED_EDGE('NONE', *, *, #849, .F.);
#1346 = ORIENTED_EDGE('NONE', *, *, #846, .F.);
#1347 = ORIENTED_EDGE('NONE', *, *, #843, .F.);
#1348 = ORIENTED_EDGE('NONE', *, *, #839, .F.);
#1349 = EDGE_LOOP('NONE', (#1345, #1346, #1347, #1348));
#1350 = FACE_BOUND('NONE', #1349, .T.);
#1351 = ADVANCED_FACE('NONE', (#1350), #1029, .F.);
#1352 = ORIENTED_EDGE('NONE', *, *, #841, .T.);
#1353 = ORIENTED_EDGE('NONE', *, *, #845, .T.);
#1354 = ORIENTED_EDGE('NONE', *, *, #848, .T.);
#1355 = ORIENTED_EDGE('NONE', *, *, #850, .T.);
#1356 = EDGE_LOOP('NONE', (#1352, #1353, #1354, #1355));
#1357 = FACE_BOUND('NONE', #1356, .T.);
#1358 = ADVANCED_FACE('NONE', (#1357), #1033, .T.);
#1359 = ORIENTED_EDGE('NONE', *, *, #851, .T.);
#1360 = ORIENTED_EDGE('NONE', *, *, #852, .T.);
#1361 = ORIENTED_EDGE('NONE', *, *, #853, .F.);
#1362 = ORIENTED_EDGE('NONE', *, *, #854, .F.);
#1363 = EDGE_LOOP('NONE', (#1359, #1360, #1361, #1362));
#1364 = FACE_BOUND('NONE', #1363, .T.);
#1365 = ADVANCED_FACE('NONE', (#1364), #1037, .T.);
#1366 = ORIENTED_EDGE('NONE', *, *, #855, .T.);
#1367 = ORIENTED_EDGE('NONE', *, *, #856, .T.);
#1368 = ORIENTED_EDGE('NONE', *, *, #857, .F.);
#1369 = ORIENTED_EDGE('NONE', *, *, #852, .F.);
#1370 = EDGE_LOOP('NONE', (#1366, #1367, #1368, #1369));
#1371 = FACE_BOUND('NONE', #1370, .T.);
#1372 = ADVANCED_FACE('NONE', (#1371), #1041, .T.);
#1373 = ORIENTED_EDGE('NONE', *, *, #858, .T.);
#1374 = ORIENTED_EDGE('NONE', *, *, #859, .T.);
#1375 = ORIENTED_EDGE('NONE', *, *, #860, .F.);
#1376 = ORIENTED_EDGE('NONE', *, *, #856, .F.);
#1377 = EDGE_LOOP('NONE', (#1373, #1374, #1375, #1376));
#1378 = FACE_BOUND('NONE', #1377, .T.);
#1379 = ADVANCED_FACE('NONE', (#1378), #1045, .T.);
#1380 = ORIENTED_EDGE('NONE', *, *, #861, .T.);
#1381 = ORIENTED_EDGE('NONE', *, *, #862, .T.);
#1382 = ORIENTED_EDGE('NONE', *, *, #863, .F.);
#1383 = ORIENTED_EDGE('NONE', *, *, #859, .F.);
#1384 = EDGE_LOOP('NONE', (#1380, #1381, #1382, #1383));
#1385 = FACE_BOUND('NONE', #1384, .T.);
#1386 = ADVANCED_FACE('NONE', (#1385), #1050, .T.);
#1387 = ORIENTED_EDGE('NONE', *, *, #864, .T.);
#1388 = ORIENTED_EDGE('NONE', *, *, #854, .T.);
#1389 = ORIENTED_EDGE('NONE', *, *, #865, .F.);
#1390 = ORIENTED_EDGE('NONE', *, *, #862, .F.);
#1391 = EDGE_LOOP('NONE', (#1387, #1388, #1389, #1390));
#1392 = FACE_BOUND('NONE', #1391, .T.);
#1393 = ADVANCED_FACE('NONE', (#1392), #1054, .T.);
#1394 = ORIENTED_EDGE('NONE', *, *, #864, .F.);
#1395 = ORIENTED_EDGE('NONE', *, *, #861, .F.);
#1396 = ORIENTED_EDGE('NONE', *, *, #858, .F.);
#1397 = ORIENTED_EDGE('NONE', *, *, #855, .F.);
#1398 = ORIENTED_EDGE('NONE', *, *, #851, .F.);
#1399 = EDGE_LOOP('NONE', (#1394, #1395, #1396, #1397, #1398));
#1400 = FACE_BOUND('NONE', #1399, .T.);
#1401 = ADVANCED_FACE('NONE', (#1400), #1058, .F.);
#1402 = ORIENTED_EDGE('NONE', *, *, #853, .T.);
#1403 = ORIENTED_EDGE('NONE', *, *, #857, .T.);
#1404 = ORIENTED_EDGE('NONE', *, *, #860, .T.);
#1405 = ORIENTED_EDGE('NONE', *, *, #863, .T.);
#1406 = ORIENTED_EDGE('NONE', *, *, #865, .T.);
#1407 = EDGE_LOOP('NONE', (#1402, #1403, #1404, #1405, #1406));
#1408 = FACE_BOUND('NONE', #1407, .T.);
#1409 = ADVANCED_FACE('NONE', (#1408), #1062, .T.);
#1410 = ORIENTED_EDGE('NONE', *, *, #866, .T.);
#1411 = ORIENTED_EDGE('NONE', *, *, #867, .T.);
#1412 = ORIENTED_EDGE('NONE', *, *, #868, .F.);
#1413 = ORIENTED_EDGE('NONE', *, *, #869, .F.);
#1414 = EDGE_LOOP('NONE', (#1410, #1411, #1412, #1413));
#1415 = FACE_BOUND('NONE', #1414, .T.);
#1416 = ADVANCED_FACE('NONE', (#1415), #1066, .T.);
#1417 = ORIENTED_EDGE('NONE', *, *, #870, .T.);
#1418 = ORIENTED_EDGE('NONE', *, *, #871, .T.);
#1419 = ORIENTED_EDGE('NONE', *, *, #872, .F.);
#1420 = ORIENTED_EDGE('NONE', *, *, #867, .F.);
#1421 = EDGE_LOOP('NONE', (#1417, #1418, #1419, #1420));
#1422 = FACE_BOUND('NONE', #1421, .T.);
#1423 = ADVANCED_FACE('NONE', (#1422), #1070, .T.);
#1424 = ORIENTED_EDGE('NONE', *, *, #873, .T.);
#1425 = ORIENTED_EDGE('NONE', *, *, #874, .T.);
#1426 = ORIENTED_EDGE('NONE', *, *, #875, .F.);
#1427 = ORIENTED_EDGE('NONE', *, *, #871, .F.);
#1428 = EDGE_LOOP('NONE', (#1424, #1425, #1426, #1427));
#1429 = FACE_BOUND('NONE', #1428, .T.);
#1430 = ADVANCED_FACE('NONE', (#1429), #1074, .T.);
#1431 = ORIENTED_EDGE('NONE', *, *, #876, .T.);
#1432 = ORIENTED_EDGE('NONE', *, *, #877, .T.);
#1433 = ORIENTED_EDGE('NONE', *, *, #878, .F.);
#1434 = ORIENTED_EDGE('NONE', *, *, #874, .F.);
#1435 = EDGE_LOOP('NONE', (#1431, #1432, #1433, #1434));
#1436 = FACE_BOUND('NONE', #1435, .T.);
#1437 = ADVANCED_FACE('NONE', (#1436), #1079, .T.);
#1438 = ORIENTED_EDGE('NONE', *, *, #879, .T.);
#1439 = ORIENTED_EDGE('NONE', *, *, #869, .T.);
#1440 = ORIENTED_EDGE('NONE', *, *, #880, .F.);
#1441 = ORIENTED_EDGE('NONE', *, *, #877, .F.);
#1442 = EDGE_LOOP('NONE', (#1438, #1439, #1440, #1441));
#1443 = FACE_BOUND('NONE', #1442, .T.);
#1444 = ADVANCED_FACE('NONE', (#1443), #1083, .T.);
#1445 = ORIENTED_EDGE('NONE', *, *, #879, .F.);
#1446 = ORIENTED_EDGE('NONE', *, *, #876, .F.);
#1447 = ORIENTED_EDGE('NONE', *, *, #873, .F.);
#1448 = ORIENTED_EDGE('NONE', *, *, #870, .F.);
#1449 = ORIENTED_EDGE('NONE', *, *, #866, .F.);
#1450 = EDGE_LOOP('NONE', (#1445, #1446, #1447, #1448, #1449));
#1451 = FACE_BOUND('NONE', #1450, .T.);
#1452 = ADVANCED_FACE('NONE', (#1451), #1087, .F.);
#1453 = ORIENTED_EDGE('NONE', *, *, #868, .T.);
#1454 = ORIENTED_EDGE('NONE', *, *, #872, .T.);
#1455 = ORIENTED_EDGE('NONE', *, *, #875, .T.);
#1456 = ORIENTED_EDGE('NONE', *, *, #878, .T.);
#1457 = ORIENTED_EDGE('NONE', *, *, #880, .T.);
#1458 = EDGE_LOOP('NONE', (#1453, #1454, #1455, #1456, #1457));
#1459 = FACE_BOUND('NONE', #1458, .T.);
#1460 = ADVANCED_FACE('NONE', (#1459), #1091, .T.);
#1461 = ORIENTED_EDGE('NONE', *, *, #881, .T.);
#1462 = ORIENTED_EDGE('NONE', *, *, #883, .F.);
#1463 = EDGE_LOOP('NONE', (#1461));
#1464 = FACE_BOUND('NONE', #1463, .T.);
#1465 = EDGE_LOOP('NONE', (#1462));
#1466 = FACE_BOUND('NONE', #1465, .T.);
#1467 = ADVANCED_FACE('NONE', (#1464, #1466), #1096, .T.);
#1468 = ORIENTED_EDGE('NONE', *, *, #881, .F.);
#1469 = EDGE_LOOP('NONE', (#1468));
#1470 = FACE_BOUND('NONE', #1469, .T.);
#1471 = ADVANCED_FACE('NONE', (#1470), #1100, .F.);
#1472 = ORIENTED_EDGE('NONE', *, *, #883, .T.);
#1473 = EDGE_LOOP('NONE', (#1472));
#1474 = FACE_BOUND('NONE', #1473, .T.);
#1475 = ADVANCED_FACE('NONE', (#1474), #1104, .T.);
#1476 = ORIENTED_EDGE('NONE', *, *, #884, .T.);
#1477 = ORIENTED_EDGE('NONE', *, *, #885, .T.);
#1478 = ORIENTED_EDGE('NONE', *, *, #886, .F.);
#1479 = ORIENTED_EDGE('NONE', *, *, #887, .F.);
#1480 = EDGE_LOOP('NONE', (#1476, #1477, #1478, #1479));
#1481 = FACE_BOUND('NONE', #1480, .T.);
#1482 = ADVANCED_FACE('NONE', (#1481), #1108, .T.);
#1483 = ORIENTED_EDGE('NONE', *, *, #888, .T.);
#1484 = ORIENTED_EDGE('NONE', *, *, #889, .T.);
#1485 = ORIENTED_EDGE('NONE', *, *, #890, .F.);
#1486 = ORIENTED_EDGE('NONE', *, *, #885, .F.);
#1487 = EDGE_LOOP('NONE', (#1483, #1484, #1485, #1486));
#1488 = FACE_BOUND('NONE', #1487, .T.);
#1489 = ADVANCED_FACE('NONE', (#1488), #1112, .T.);
#1490 = ORIENTED_EDGE('NONE', *, *, #891, .T.);
#1491 = ORIENTED_EDGE('NONE', *, *, #892, .T.);
#1492 = ORIENTED_EDGE('NONE', *, *, #893, .F.);
#1493 = ORIENTED_EDGE('NONE', *, *, #889, .F.);
#1494 = EDGE_LOOP('NONE', (#1490, #1491, #1492, #1493));
#1495 = FACE_BOUND('NONE', #1494, .T.);
#1496 = ADVANCED_FACE('NONE', (#1495), #1116, .T.);
#1497 = ORIENTED_EDGE('NONE', *, *, #894, .T.);
#1498 = ORIENTED_EDGE('NONE', *, *, #887, .T.);
#1499 = ORIENTED_EDGE('NONE', *, *, #895, .F.);
#1500 = ORIENTED_EDGE('NONE', *, *, #892, .F.);
#1501 = EDGE_LOOP('NONE', (#1497, #1498, #1499, #1500));
#1502 = FACE_BOUND('NONE', #1501, .T.);
#1503 = ADVANCED_FACE('NONE', (#1502), #1120, .T.);
#1504 = ORIENTED_EDGE('NONE', *, *, #896, .T.);
#1505 = ORIENTED_EDGE('NONE', *, *, #898, .F.);
#1506 = EDGE_LOOP('NONE', (#1504));
#1507 = FACE_BOUND('NONE', #1506, .T.);
#1508 = EDGE_LOOP('NONE', (#1505));
#1509 = FACE_BOUND('NONE', #1508, .T.);
#1510 = ADVANCED_FACE('NONE', (#1507, #1509), #1125, .F.);
#1511 = ORIENTED_EDGE('NONE', *, *, #899, .T.);
#1512 = ORIENTED_EDGE('NONE', *, *, #901, .F.);
#1513 = EDGE_LOOP('NONE', (#1511));
#1514 = FACE_BOUND('NONE', #1513, .T.);
#1515 = EDGE_LOOP('NONE', (#1512));
#1516 = FACE_BOUND('NONE', #1515, .T.);
#1517 = ADVANCED_FACE('NONE', (#1514, #1516), #1130, .F.);
#1518 = ORIENTED_EDGE('NONE', *, *, #902, .T.);
#1519 = ORIENTED_EDGE('NONE', *, *, #904, .F.);
#1520 = EDGE_LOOP('NONE', (#1518));
#1521 = FACE_BOUND('NONE', #1520, .T.);
#1522 = EDGE_LOOP('NONE', (#1519));
#1523 = FACE_BOUND('NONE', #1522, .T.);
#1524 = ADVANCED_FACE('NONE', (#1521, #1523), #1135, .F.);
#1525 = ORIENTED_EDGE('NONE', *, *, #905, .T.);
#1526 = ORIENTED_EDGE('NONE', *, *, #907, .F.);
#1527 = EDGE_LOOP('NONE', (#1525));
#1528 = FACE_BOUND('NONE', #1527, .T.);
#1529 = EDGE_LOOP('NONE', (#1526));
#1530 = FACE_BOUND('NONE', #1529, .T.);
#1531 = ADVANCED_FACE('NONE', (#1528, #1530), #1140, .F.);
#1532 = ORIENTED_EDGE('NONE', *, *, #908, .T.);
#1533 = ORIENTED_EDGE('NONE', *, *, #910, .F.);
#1534 = EDGE_LOOP('NONE', (#1532));
#1535 = FACE_BOUND('NONE', #1534, .T.);
#1536 = EDGE_LOOP('NONE', (#1533));
#1537 = FACE_BOUND('NONE', #1536, .T.);
#1538 = ADVANCED_FACE('NONE', (#1535, #1537), #1145, .F.);
#1539 = ORIENTED_EDGE('NONE', *, *, #911, .T.);
#1540 = ORIENTED_EDGE('NONE', *, *, #913, .F.);
#1541 = EDGE_LOOP('NONE', (#1539));
#1542 = FACE_BOUND('NONE', #1541, .T.);
#1543 = EDGE_LOOP('NONE', (#1540));
#1544 = FACE_BOUND('NONE', #1543, .T.);
#1545 = ADVANCED_FACE('NONE', (#1542, #1544), #1150, .F.);
#1546 = ORIENTED_EDGE('NONE', *, *, #914, .T.);
#1547 = ORIENTED_EDGE('NONE', *, *, #916, .F.);
#1548 = EDGE_LOOP('NONE', (#1546));
#1549 = FACE_BOUND('NONE', #1548, .T.);
#1550 = EDGE_LOOP('NONE', (#1547));
#1551 = FACE_BOUND('NONE', #1550, .T.);
#1552 = ADVANCED_FACE('NONE', (#1549, #1551), #1155, .F.);
#1553 = ORIENTED_EDGE('NONE', *, *, #917, .T.);
#1554 = ORIENTED_EDGE('NONE', *, *, #919, .F.);
#1555 = EDGE_LOOP('NONE', (#1553));
#1556 = FACE_BOUND('NONE', #1555, .T.);
#1557 = EDGE_LOOP('NONE', (#1554));
#1558 = FACE_BOUND('NONE', #1557, .T.);
#1559 = ADVANCED_FACE('NONE', (#1556, #1558), #1160, .F.);
#1560 = ORIENTED_EDGE('NONE', *, *, #920, .T.);
#1561 = ORIENTED_EDGE('NONE', *, *, #922, .F.);
#1562 = EDGE_LOOP('NONE', (#1560));
#1563 = FACE_BOUND('NONE', #1562, .T.);
#1564 = EDGE_LOOP('NONE', (#1561));
#1565 = FACE_BOUND('NONE', #1564, .T.);
#1566 = ADVANCED_FACE('NONE', (#1563, #1565), #1165, .F.);
#1567 = ORIENTED_EDGE('NONE', *, *, #923, .T.);
#1568 = ORIENTED_EDGE('NONE', *, *, #925, .F.);
#1569 = EDGE_LOOP('NONE', (#1567));
#1570 = FACE_BOUND('NONE', #1569, .T.);
#1571 = EDGE_LOOP('NONE', (#1568));
#1572 = FACE_BOUND('NONE', #1571, .T.);
#1573 = ADVANCED_FACE('NONE', (#1570, #1572), #1170, .F.);
#1574 = ORIENTED_EDGE('NONE', *, *, #926, .T.);
#1575 = ORIENTED_EDGE('NONE', *, *, #928, .F.);
#1576 = EDGE_LOOP('NONE', (#1574));
#1577 = FACE_BOUND('NONE', #1576, .T.);
#1578 = EDGE_LOOP('NONE', (#1575));
#1579 = FACE_BOUND('NONE', #1578, .T.);
#1580 = ADVANCED_FACE('NONE', (#1577, #1579), #1175, .F.);
#1581 = ORIENTED_EDGE('NONE', *, *, #929, .T.);
#1582 = ORIENTED_EDGE('NONE', *, *, #931, .F.);
#1583 = EDGE_LOOP('NONE', (#1581));
#1584 = FACE_BOUND('NONE', #1583, .T.);
#1585 = EDGE_LOOP('NONE', (#1582));
#1586 = FACE_BOUND('NONE', #1585, .T.);
#1587 = ADVANCED_FACE('NONE', (#1584, #1586), #1180, .F.);
#1588 = ORIENTED_EDGE('NONE', *, *, #932, .T.);
#1589 = ORIENTED_EDGE('NONE', *, *, #934, .F.);
#1590 = EDGE_LOOP('NONE', (#1588));
#1591 = FACE_BOUND('NONE', #1590, .T.);
#1592 = EDGE_LOOP('NONE', (#1589));
#1593 = FACE_BOUND('NONE', #1592, .T.);
#1594 = ADVANCED_FACE('NONE', (#1591, #1593), #1185, .F.);
#1595 = ORIENTED_EDGE('NONE', *, *, #935, .T.);
#1596 = ORIENTED_EDGE('NONE', *, *, #937, .F.);
#1597 = EDGE_LOOP('NONE', (#1595));
#1598 = FACE_BOUND('NONE', #1597, .T.);
#1599 = EDGE_LOOP('NONE', (#1596));
#1600 = FACE_BOUND('NONE', #1599, .T.);
#1601 = ADVANCED_FACE('NONE', (#1598, #1600), #1190, .F.);
#1602 = ORIENTED_EDGE('NONE', *, *, #938, .T.);
#1603 = ORIENTED_EDGE('NONE', *, *, #940, .F.);
#1604 = EDGE_LOOP('NONE', (#1602));
#1605 = FACE_BOUND('NONE', #1604, .T.);
#1606 = EDGE_LOOP('NONE', (#1603));
#1607 = FACE_BOUND('NONE', #1606, .T.);
#1608 = ADVANCED_FACE('NONE', (#1605, #1607), #1195, .F.);
#1609 = ORIENTED_EDGE('NONE', *, *, #941, .T.);
#1610 = ORIENTED_EDGE('NONE', *, *, #943, .F.);
#1611 = EDGE_LOOP('NONE', (#1609));
#1612 = FACE_BOUND('NONE', #1611, .T.);
#1613 = EDGE_LOOP('NONE', (#1610));
#1614 = FACE_BOUND('NONE', #1613, .T.);
#1615 = ADVANCED_FACE('NONE', (#1612, #1614), #1200, .F.);
#1616 = ORIENTED_EDGE('NONE', *, *, #944, .T.);
#1617 = ORIENTED_EDGE('NONE', *, *, #946, .F.);
#1618 = EDGE_LOOP('NONE', (#1616));
#1619 = FACE_BOUND('NONE', #1618, .T.);
#1620 = EDGE_LOOP('NONE', (#1617));
#1621 = FACE_BOUND('NONE', #1620, .T.);
#1622 = ADVANCED_FACE('NONE', (#1619, #1621), #1205, .F.);
#1623 = ORIENTED_EDGE('NONE', *, *, #947, .T.);
#1624 = ORIENTED_EDGE('NONE', *, *, #949, .F.);
#1625 = EDGE_LOOP('NONE', (#1623));
#1626 = FACE_BOUND('NONE', #1625, .T.);
#1627 = EDGE_LOOP('NONE', (#1624));
#1628 = FACE_BOUND('NONE', #1627, .T.);
#1629 = ADVANCED_FACE('NONE', (#1626, #1628), #1210, .F.);
#1630 = ORIENTED_EDGE('NONE', *, *, #950, .T.);
#1631 = ORIENTED_EDGE('NONE', *, *, #952, .F.);
#1632 = EDGE_LOOP('NONE', (#1630));
#1633 = FACE_BOUND('NONE', #1632, .T.);
#1634 = EDGE_LOOP('NONE', (#1631));
#1635 = FACE_BOUND('NONE', #1634, .T.);
#1636 = ADVANCED_FACE('NONE', (#1633, #1635), #1215, .F.);
#1637 = ORIENTED_EDGE('NONE', *, *, #953, .T.);
#1638 = ORIENTED_EDGE('NONE', *, *, #955, .F.);
#1639 = EDGE_LOOP('NONE', (#1637));
#1640 = FACE_BOUND('NONE', #1639, .T.);
#1641 = EDGE_LOOP('NONE', (#1638));
#1642 = FACE_BOUND('NONE', #1641, .T.);
#1643 = ADVANCED_FACE('NONE', (#1640, #1642), #1220, .F.);
#1644 = ORIENTED_EDGE('NONE', *, *, #894, .F.);
#1645 = ORIENTED_EDGE('NONE', *, *, #891, .F.);
#1646 = ORIENTED_EDGE('NONE', *, *, #888, .F.);
#1647 = ORIENTED_EDGE('NONE', *, *, #884, .F.);
#1648 = ORIENTED_EDGE('NONE', *, *, #896, .F.);
#1649 = ORIENTED_EDGE('NONE', *, *, #899, .F.);
#1650 = ORIENTED_EDGE('NONE', *, *, #902, .F.);
#1651 = ORIENTED_EDGE('NONE', *, *, #905, .F.);
#1652 = ORIENTED_EDGE('NONE', *, *, #908, .F.);
#1653 = ORIENTED_EDGE('NONE', *, *, #911, .F.);
#1654 = ORIENTED_EDGE('NONE', *, *, #914, .F.);
#1655 = ORIENTED_EDGE('NONE', *, *, #917, .F.);
#1656 = ORIENTED_EDGE('NONE', *, *, #920, .F.);
#1657 = ORIENTED_EDGE('NONE', *, *, #923, .F.);
#1658 = ORIENTED_EDGE('NONE', *, *, #926, .F.);
#1659 = ORIENTED_EDGE('NONE', *, *, #929, .F.);
#1660 = ORIENTED_EDGE('NONE', *, *, #932, .F.);
#1661 = ORIENTED_EDGE('NONE', *, *, #935, .F.);
#1662 = ORIENTED_EDGE('NONE', *, *, #938, .F.);
#1663 = ORIENTED_EDGE('NONE', *, *, #941, .F.);
#1664 = ORIENTED_EDGE('NONE', *, *, #944, .F.);
#1665 = ORIENTED_EDGE('NONE', *, *, #947, .F.);
#1666 = ORIENTED_EDGE('NONE', *, *, #950, .F.);
#1667 = ORIENTED_EDGE('NONE', *, *, #953, .F.);
#1668 = EDGE_LOOP('NONE', (#1644, #1645, #1646, #1647));
#1669 = FACE_BOUND('NONE', #1668, .T.);
#1670 = EDGE_LOOP('NONE', (#1648));
#1671 = FACE_BOUND('NONE', #1670, .T.);
#1672 = EDGE_LOOP('NONE', (#1649));
#1673 = FACE_BOUND('NONE', #1672, .T.);
#1674 = EDGE_LOOP('NONE', (#1650));
#1675 = FACE_BOUND('NONE', #1674, .T.);
#1676 = EDGE_LOOP('NONE', (#1651));
#1677 = FACE_BOUND('NONE', #1676, .T.);
#1678 = EDGE_LOOP('NONE', (#1652));
#1679 = FACE_BOUND('NONE', #1678, .T.);
#1680 = EDGE_LOOP('NONE', (#1653));
#1681 = FACE_BOUND('NONE', #1680, .T.);
#1682 = EDGE_LOOP('NONE', (#1654));
#1683 = FACE_BOUND('NONE', #1682, .T.);
#1684 = EDGE_LOOP('NONE', (#1655));
#1685 = FACE_BOUND('NONE', #1684, .T.);
#1686 = EDGE_LOOP('NONE', (#1656));
#1687 = FACE_BOUND('NONE', #1686, .T.);
#1688 = EDGE_LOOP('NONE', (#1657));
#1689 = FACE_BOUND('NONE', #1688, .T.);
#1690 = EDGE_LOOP('NONE', (#1658));
#1691 = FACE_BOUND('NONE', #1690, .T.);
#1692 = EDGE_LOOP('NONE', (#1659));
#1693 = FACE_BOUND('NONE', #1692, .T.);
#1694 = EDGE_LOOP('NONE', (#1660));
#1695 = FACE_BOUND('NONE', #1694, .T.);
#1696 = EDGE_LOOP('NONE', (#1661));
#1697 = FACE_BOUND('NONE', #1696, .T.);
#1698 = EDGE_LOOP('NONE', (#1662));
#1699 = FACE_BOUND('NONE', #1698, .T.);
#1700 = EDGE_LOOP('NONE', (#1663));
#1701 = FACE_BOUND('NONE', #1700, .T.);
#1702 = EDGE_LOOP('NONE', (#1664));
#1703 = FACE_BOUND('NONE', #1702, .T.);
#1704 = EDGE_LOOP('NONE', (#1665));
#1705 = FACE_BOUND('NONE', #1704, .T.);
#1706 = EDGE_LOOP('NONE', (#1666));
#1707 = FACE_BOUND('NONE', #1706, .T.);
#1708 = EDGE_LOOP('NONE', (#1667));
#1709 = FACE_BOUND('NONE', #1708, .T.);
#1710 = ADVANCED_FACE('NONE', (#1669, #1671, #1673, #1675, #1677, #1679, #1681, #1683, #1685, #1687, #1689, #1691, #1693, #1695, #1697, #1699, #1701, #1703, #1705, #1707, #1709), #1224, .F.);
#1711 = ORIENTED_EDGE('NONE', *, *, #886, .T.);
#1712 = ORIENTED_EDGE('NONE', *, *, #890, .T.);
#1713 = ORIENTED_EDGE('NONE', *, *, #893, .T.);
#1714 = ORIENTED_EDGE('NONE', *, *, #895, .T.);
#1715 = ORIENTED_EDGE('NONE', *, *, #898, .T.);
#1716 = ORIENTED_EDGE('NONE', *, *, #901, .T.);
#1717 = ORIENTED_EDGE('NONE', *, *, #904, .T.);
#1718 = ORIENTED_EDGE('NONE', *, *, #907, .T.);
#1719 = ORIENTED_EDGE('NONE', *, *, #910, .T.);
#1720 = ORIENTED_EDGE('NONE', *, *, #913, .T.);
#1721 = ORIENTED_EDGE('NONE', *, *, #916, .T.);
#1722 = ORIENTED_EDGE('NONE', *, *, #919, .T.);
#1723 = ORIENTED_EDGE('NONE', *, *, #922, .T.);
#1724 = ORIENTED_EDGE('NONE', *, *, #925, .T.);
#1725 = ORIENTED_EDGE('NONE', *, *, #928, .T.);
#1726 = ORIENTED_EDGE('NONE', *, *, #931, .T.);
#1727 = ORIENTED_EDGE('NONE', *, *, #934, .T.);
#1728 = ORIENTED_EDGE('NONE', *, *, #937, .T.);
#1729 = ORIENTED_EDGE('NONE', *, *, #940, .T.);
#1730 = ORIENTED_EDGE('NONE', *, *, #943, .T.);
#1731 = ORIENTED_EDGE('NONE', *, *, #946, .T.);
#1732 = ORIENTED_EDGE('NONE', *, *, #949, .T.);
#1733 = ORIENTED_EDGE('NONE', *, *, #952, .T.);
#1734 = ORIENTED_EDGE('NONE', *, *, #955, .T.);
#1735 = EDGE_LOOP('NONE', (#1711, #1712, #1713, #1714));
#1736 = FACE_BOUND('NONE', #1735, .T.);
#1737 = EDGE_LOOP('NONE', (#1715));
#1738 = FACE_BOUND('NONE', #1737, .T.);
#1739 = EDGE_LOOP('NONE', (#1716));
#1740 = FACE_BOUND('NONE', #1739, .T.);
#1741 = EDGE_LOOP('NONE', (#1717));
#1742 = FACE_BOUND('NONE', #1741, .T.);
#1743 = EDGE_LOOP('NONE', (#1718));
#1744 = FACE_BOUND('NONE', #1743, .T.);
#1745 = EDGE_LOOP('NONE', (#1719));
#1746 = FACE_BOUND('NONE', #1745, .T.);
#1747 = EDGE_LOOP('NONE', (#1720));
#1748 = FACE_BOUND('NONE', #1747, .T.);
#1749 = EDGE_LOOP('NONE', (#1721));
#1750 = FACE_BOUND('NONE', #1749, .T.);
#1751 = EDGE_LOOP('NONE', (#1722));
#1752 = FACE_BOUND('NONE', #1751, .T.);
#1753 = EDGE_LOOP('NONE', (#1723));
#1754 = FACE_BOUND('NONE', #1753, .T.);
#1755 = EDGE_LOOP('NONE', (#1724));
#1756 = FACE_BOUND('NONE', #1755, .T.);
#1757 = EDGE_LOOP('NONE', (#1725));
#1758 = FACE_BOUND('NONE', #1757, .T.);
#1759 = EDGE_LOOP('NONE', (#1726));
#1760 = FACE_BOUND('NONE', #1759, .T.);
#1761 = EDGE_LOOP('NONE', (#1727));
#1762 = FACE_BOUND('NONE', #1761, .T.);
#1763 = EDGE_LOOP('NONE', (#1728));
#1764 = FACE_BOUND('NONE', #1763, .T.);
#1765 = EDGE_LOOP('NONE', (#1729));
#1766 = FACE_BOUND('NONE', #1765, .T.);
#1767 = EDGE_LOOP('NONE', (#1730));
#1768 = FACE_BOUND('NONE', #1767, .T.);
#1769 = EDGE_LOOP('NONE', (#1731));
#1770 = FACE_BOUND('NONE', #1769, .T.);
#1771 = EDGE_LOOP('NONE', (#1732));
#1772 = FACE_BOUND('NONE', #1771, .T.);
#1773 = EDGE_LOOP('NONE', (#1733));
#1774 = FACE_BOUND('NONE', #1773, .T.);
#1775 = EDGE_LOOP('NONE', (#1734));
#1776 = FACE_BOUND('NONE', #1775, .T.);
#1777 = ADVANCED_FACE('NONE', (#1736, #1738, #1740, #1742, #1744, #1746, #1748, #1750, #1752, #1754, #1756, #1758, #1760, #1762, #1764, #1766, #1768, #1770, #1772, #1774, #1776), #1228, .T.);
#1778 = CLOSED_SHELL('NONE', (#1235, #1242, #1249, #1256, #1263, #1270, #1279, #1288));
#1779 = CLOSED_SHELL('NONE', (#1295, #1302, #1309, #1316));
#1780 = CLOSED_SHELL('NONE', (#1323, #1330, #1337, #1344, #1351, #1358));
#1781 = CLOSED_SHELL('NONE', (#1365, #1372, #1379, #1386, #1393, #1401, #1409));
#1782 = CLOSED_SHELL('NONE', (#1416, #1423, #1430, #1437, #1444, #1452, #1460));
#1783 = CLOSED_SHELL('NONE', (#1467, #1471, #1475));
#1784 = CLOSED_SHELL('NONE', (#1482, #1489, #1496, #1503, #1510, #1517, #1524, #1531, #1538, #1545, #1552, #1559, #1566, #1573, #1580, #1587, #1594, #1601, #1608, #1615, #1622, #1629, #1636, #1643, #1710, #1777));
#1785 = MANIFOLD_SOLID_BREP('NONE', #1778);
#1786 = MANIFOLD_SOLID_BREP('NONE', #1779);
#1787 = MANIFOLD_SOLID_BREP('NONE', #1780);
#1788 = MANIFOLD_SOLID_BREP('NONE', #1781);
#1789 = MANIFOLD_SOLID_BREP('NONE', #1782);
#1790 = MANIFOLD_SOLID_BREP('NONE', #1783);
#1791 = MANIFOLD_SOLID_BREP('NONE', #1784);
#1792 = APPLICATION_CONTEXT('configuration controlled 3D design of mechanical parts and assemblies');
#1793 = PRODUCT_DEFINITION_CONTEXT('part definition', #1792, 'design');
#1794 = PRODUCT('UNIDENTIFIED_PRODUCT', 'NONE', $, ());
#1795 = PRODUCT_DEFINITION_FORMATION('', $, #1794);
#1796 = PRODUCT_DEFINITION('design', $, #1795, #1793);
#1797 = PRODUCT_DEFINITION_SHAPE('NONE', $, #1796);
#1798 = ADVANCED_BREP_SHAPE_REPRESENTATION('NONE', (#1791), #4);
#1799 = SHAPE_DEFINITION_REPRESENTATION(#1797, #1798);
#1800 = COLOUR_RGB('NONE', 0, 1, 0);
#1801 = FILL_AREA_STYLE_COLOUR('NONE', #1800);
#1802 = FILL_AREA_STYLE('NONE', (#1801));
#1803 = SURFACE_STYLE_FILL_AREA(#1802);
#1804 = SURFACE_SIDE_STYLE('NONE', (#1803));
#1805 = SURFACE_STYLE_USAGE(.BOTH., #1804);
#1806 = PRESENTATION_STYLE_ASSIGNMENT((#1805));
#1807 = STYLED_ITEM('NONE', (#1806), #1791);
#1808 = MECHANICAL_DESIGN_GEOMETRIC_PRESENTATION_REPRESENTATION('NONE', (#1807), #4);
#1809 = PRODUCT('UNIDENTIFIED_PRODUCT', 'NONE', $, ());
#1810 = PRODUCT_DEFINITION_FORMATION('', $, #1809);
#1811 = PRODUCT_DEFINITION('design', $, #1810, #1793);
#1812 = PRODUCT_DEFINITION_SHAPE('NONE', $, #1811);
#1813 = ADVANCED_BREP_SHAPE_REPRESENTATION('NONE', (#1790), #4);
#1814 = SHAPE_DEFINITION_REPRESENTATION(#1812, #1813);
#1815 = COLOUR_RGB('NONE', 1, 0, 0);
#1816 = FILL_AREA_STYLE_COLOUR('NONE', #1815);
#1817 = FILL_AREA_STYLE('NONE', (#1816));
#1818 = SURFACE_STYLE_FILL_AREA(#1817);
#1819 = SURFACE_SIDE_STYLE('NONE', (#1818));
#1820 = SURFACE_STYLE_USAGE(.BOTH., #1819);
#1821 = PRESENTATION_STYLE_ASSIGNMENT((#1820));
#1822 = STYLED_ITEM('NONE', (#1821), #1790);
#1823 = MECHANICAL_DESIGN_GEOMETRIC_PRESENTATION_REPRESENTATION('NONE', (#1822), #4);
#1824 = PRODUCT('UNIDENTIFIED_PRODUCT', 'NONE', $, ());
#1825 = PRODUCT_DEFINITION_FORMATION('', $, #1824);
#1826 = PRODUCT_DEFINITION('design', $, #1825, #1793);
#1827 = PRODUCT_DEFINITION_SHAPE('NONE', $, #1826);
#1828 = ADVANCED_BREP_SHAPE_REPRESENTATION('NONE', (#1789), #4);
#1829 = SHAPE_DEFINITION_REPRESENTATION(#1827, #1828);
#1830 = COLOUR_RGB('NONE', 0.8999999761581421, 0.8999999761581421, 0.8999999761581421);
#1831 = FILL_AREA_STYLE_COLOUR('NONE', #1830);
#1832 = FILL_AREA_STYLE('NONE', (#1831));
#1833 = SURFACE_STYLE_FILL_AREA(#1832);
#1834 = SURFACE_SIDE_STYLE('NONE', (#1833));
#1835 = SURFACE_STYLE_USAGE(.BOTH., #1834);
#1836 = PRESENTATION_STYLE_ASSIGNMENT((#1835));
#1837 = STYLED_ITEM('NONE', (#1836), #1789);
#1838 = MECHANICAL_DESIGN_GEOMETRIC_PRESENTATION_REPRESENTATION('NONE', (#1837), #4);
#1839 = PRODUCT('UNIDENTIFIED_PRODUCT', 'NONE', $, ());
#1840 = PRODUCT_DEFINITION_FORMATION('', $, #1839);
#1841 = PRODUCT_DEFINITION('design', $, #1840, #1793);
#1842 = PRODUCT_DEFINITION_SHAPE('NONE', $, #1841);
#1843 = ADVANCED_BREP_SHAPE_REPRESENTATION('NONE', (#1788), #4);
#1844 = SHAPE_DEFINITION_REPRESENTATION(#1842, #1843);
#1845 = COLOUR_RGB('NONE', 0.8999999761581421, 0.8999999761581421, 0.8999999761581421);
#1846 = FILL_AREA_STYLE_COLOUR('NONE', #1845);
#1847 = FILL_AREA_STYLE('NONE', (#1846));
#1848 = SURFACE_STYLE_FILL_AREA(#1847);
#1849 = SURFACE_SIDE_STYLE('NONE', (#1848));
#1850 = SURFACE_STYLE_USAGE(.BOTH., #1849);
#1851 = PRESENTATION_STYLE_ASSIGNMENT((#1850));
#1852 = STYLED_ITEM('NONE', (#1851), #1788);
#1853 = MECHANICAL_DESIGN_GEOMETRIC_PRESENTATION_REPRESENTATION('NONE', (#1852), #4);
#1854 = PRODUCT('UNIDENTIFIED_PRODUCT', 'NONE', $, ());
#1855 = PRODUCT_DEFINITION_FORMATION('', $, #1854);
#1856 = PRODUCT_DEFINITION('design', $, #1855, #1793);
#1857 = PRODUCT_DEFINITION_SHAPE('NONE', $, #1856);
#1858 = ADVANCED_BREP_SHAPE_REPRESENTATION('NONE', (#1787), #4);
#1859 = SHAPE_DEFINITION_REPRESENTATION(#1857, #1858);
#1860 = COLOUR_RGB('NONE', 0, 0, 1);
#1861 = FILL_AREA_STYLE_COLOUR('NONE', #1860);
#1862 = FILL_AREA_STYLE('NONE', (#1861));
#1863 = SURFACE_STYLE_FILL_AREA(#1862);
#1864 = SURFACE_SIDE_STYLE('NONE', (#1863));
#1865 = SURFACE_STYLE_USAGE(.BOTH., #1864);
#1866 = PRESENTATION_STYLE_ASSIGNMENT((#1865));
#1867 = STYLED_ITEM('NONE', (#1866), #1787);
#1868 = MECHANICAL_DESIGN_GEOMETRIC_PRESENTATION_REPRESENTATION('NONE', (#1867), #4);
#1869 = PRODUCT('UNIDENTIFIED_PRODUCT', 'NONE', $, ());
#1870 = PRODUCT_DEFINITION_FORMATION('', $, #1869);
#1871 = PRODUCT_DEFINITION('design', $, #1870, #1793);
#1872 = PRODUCT_DEFINITION_SHAPE('NONE', $, #1871);
#1873 = ADVANCED_BREP_SHAPE_REPRESENTATION('NONE', (#1786), #4);
#1874 = SHAPE_DEFINITION_REPRESENTATION(#1872, #1873);
#1875 = COLOUR_RGB('NONE', 0.8999999761581421, 0.8999999761581421, 0.8999999761581421);
#1876 = FILL_AREA_STYLE_COLOUR('NONE', #1875);
#1877 = FILL_AREA_STYLE('NONE', (#1876));
#1878 = SURFACE_STYLE_FILL_AREA(#1877);
#1879 = SURFACE_SIDE_STYLE('NONE', (#1878));
#1880 = SURFACE_STYLE_USAGE(.BOTH., #1879);
#1881 = PRESENTATION_STYLE_ASSIGNMENT((#1880));
#1882 = STYLED_ITEM('NONE', (#1881), #1786);
#1883 = MECHANICAL_DESIGN_GEOMETRIC_PRESENTATION_REPRESENTATION('NONE', (#1882), #4);
#1884 = PRODUCT('UNIDENTIFIED_PRODUCT', 'NONE', $, ());
#1885 = PRODUCT_DEFINITION_FORMATION('', $, #1884);
#1886 = PRODUCT_DEFINITION('design', $, #1885, #1793);
#1887 = PRODUCT_DEFINITION_SHAPE('NONE', $, #1886);
#1888 = ADVANCED_BREP_SHAPE_REPRESENTATION('NONE', (#1785), #4);
#1889 = SHAPE_DEFINITION_REPRESENTATION(#1887, #1888);
#1890 = COLOUR_RGB('NONE', 1, 1, 0);
#1891 = FILL_AREA_STYLE_COLOUR('NONE', #1890);
#1892 = FILL_AREA_STYLE('NONE', (#1891));
#1893 = SURFACE_STYLE_FILL_AREA(#1892);
#1894 = SURFACE_SIDE_STYLE('NONE', (#1893));
#1895 = SURFACE_STYLE_USAGE(.BOTH., #1894);
#1896 = PRESENTATION_STYLE_ASSIGNMENT((#1895));
#1897 = STYLED_ITEM('NONE', (#1896), #1785);
#1898 = MECHANICAL_DESIGN_GEOMETRIC_PRESENTATION_REPRESENTATION('NONE', (#1897), #4);
ENDSEC;
END-ISO-10303-21;
